<svg width="20" height="20" viewBox="0 0 20 20" fill="none" xmlns="http://www.w3.org/2000/svg">
<path d="M19.9999 9.99991L13.8978 5.67526V8.18775H11.9004V11.812H13.8978V14.3246L19.9999 9.99991Z" fill="#FC6537"/>
<path d="M5.62813 10C5.62813 8.44832 4.36575 7.18589 2.81406 7.18589C1.26238 7.18589 0 8.44832 0 10C0 11.5517 1.26238 12.8141 2.81406 12.8141C4.36575 12.8141 5.62813 11.5517 5.62813 10Z" fill="#FC6537"/>
<path d="M2.89188 2.31018H2.65039V5.33975H2.89188C5.46155 5.33975 7.5521 7.4303 7.5521 9.99997C7.5521 12.5696 5.4615 14.6602 2.89188 14.6602H2.65039V17.6898H2.89188C7.13205 17.6898 10.5816 14.2401 10.5816 9.99997C10.5816 5.7598 7.132 2.31018 2.89188 2.31018Z" fill="#FC6537"/>
</svg>
