<svg width="40" height="40" viewBox="0 0 40 40" fill="none" xmlns="http://www.w3.org/2000/svg">
<g clip-path="url(#clip0)">
<path d="M32.4408 36.0205H32.067L21.867 8.56641C22.5487 8.01875 22.9859 7.17841 22.9859 6.23795C22.9859 4.59162 21.6465 3.2522 20.0001 3.2522C18.3538 3.2522 17.0144 4.59162 17.0144 6.23795C17.0144 7.17841 17.4515 8.01875 18.1333 8.56641L13.9566 19.8082C13.8439 20.1114 13.9985 20.4485 14.3016 20.5612C14.3689 20.5862 14.4377 20.5981 14.5055 20.5981C14.7433 20.5981 14.967 20.4522 15.0546 20.2162L16.0205 17.6163L19.0951 20.2353L13.1755 25.274L14.1336 22.6951C14.2463 22.3919 14.0917 22.0548 13.7886 21.9421C13.4854 21.8293 13.1482 21.9839 13.0356 22.2871L7.93311 36.0205H7.55936C6.58587 36.0205 5.79395 36.8125 5.79395 37.7859V39.4143C5.79395 39.7378 6.05618 40 6.37963 40H28.6033C28.9268 40 29.189 39.7378 29.189 39.4143C29.189 39.0908 28.9268 38.8286 28.6033 38.8286H6.96532V37.7859C6.96532 37.4584 7.23185 37.1919 7.55936 37.1919H32.4407C32.7683 37.1919 33.0347 37.4584 33.0347 37.7859V38.8286H31.3315C31.008 38.8286 30.7458 39.0908 30.7458 39.4143C30.7458 39.7378 31.008 40 31.3315 40H33.6204C33.9439 40 34.2061 39.7378 34.2061 39.4143V37.7859C34.2062 36.8125 33.4142 36.0205 32.4408 36.0205ZM26.8286 25.2843L20.9019 20.2357L23.9796 17.616L26.8286 25.2843ZM21.8784 11.9605L20.7004 10.1632L21.026 9.66633L21.8784 11.9605ZM20.0001 4.42349C21.0005 4.42349 21.8144 5.23744 21.8144 6.23787C21.8144 7.2383 21.0005 8.05218 20.0001 8.05218C18.9996 8.05218 18.1857 7.2383 18.1857 6.23795C18.1857 5.23744 18.9996 4.42349 20.0001 4.42349ZM18.9742 9.66633L19.2999 10.1632L18.1218 11.9606L18.9742 9.66633ZM20.0001 11.2316L23.153 16.042H16.8471L20.0001 11.2316ZM17.3537 17.2133H22.6455L19.9986 19.4664L17.3537 17.2133ZM19.9983 21.0048L26.5562 26.591H13.4354L19.9983 21.0048ZM25.5542 27.7623L19.9972 30.4079L14.4376 27.7623H25.5542ZM12.1699 27.9804L18.6345 31.0566L9.39217 35.4567L12.1699 27.9804ZM10.9331 36.0205L19.9973 31.7052L29.0659 36.0205H10.9331ZM21.36 31.0564L27.8288 27.9767L30.608 35.4571L21.36 31.0564Z" fill="white"/>
<path d="M12.2077 10.0882C12.3202 10.1916 12.4622 10.2428 12.6039 10.2428C12.762 10.2428 12.9198 10.1791 13.0353 10.0534C13.2542 9.81529 13.2386 9.44474 13.0005 9.22585C12.1663 8.45915 11.6879 7.37 11.6879 6.23783C11.6879 5.10558 12.1663 4.01652 13.0005 3.24989C13.2386 3.03092 13.2543 2.66046 13.0354 2.42228C12.8165 2.1841 12.446 2.16848 12.2078 2.38745C11.133 3.37523 10.5166 4.77869 10.5166 6.23783C10.5164 7.6969 11.1329 9.10036 12.2077 10.0882Z" fill="white"/>
<path d="M14.5171 7.85652C14.623 7.93695 14.7475 7.97576 14.8709 7.97576C15.0477 7.97576 15.2226 7.89603 15.3378 7.7443C15.5334 7.48667 15.4832 7.11925 15.2255 6.92364C15.009 6.75917 14.8847 6.50912 14.8847 6.23784C14.8847 5.96639 15.009 5.71642 15.2255 5.55196C15.4832 5.35634 15.5334 4.98892 15.3378 4.73129C15.1421 4.47367 14.7746 4.42338 14.5171 4.61908C14.0063 5.00704 13.7134 5.59702 13.7134 6.23784C13.7134 6.87865 14.0064 7.46864 14.5171 7.85652Z" fill="white"/>
<path d="M9.9676 12.3146C10.081 12.4224 10.2262 12.4758 10.3712 12.4758C10.526 12.4758 10.6805 12.4148 10.7957 12.2938C11.0186 12.0594 11.0093 11.6887 10.7749 11.4657C9.32842 10.0899 8.53173 8.23326 8.53173 6.23787C8.53173 4.24232 9.32834 2.38577 10.7748 1.01003C11.0092 0.787153 11.0186 0.416374 10.7956 0.181943C10.5727 -0.0523322 10.202 -0.061547 9.9676 0.16117C8.28628 1.76033 7.36035 3.91839 7.36035 6.23795C7.36035 8.55742 8.28628 10.7155 9.9676 12.3146Z" fill="white"/>
<path d="M26.9994 9.22583C26.7613 9.44472 26.7456 9.81526 26.9645 10.0534C27.08 10.179 27.2377 10.2427 27.3959 10.2427C27.5376 10.2427 27.6796 10.1917 27.7921 10.0882C28.8669 9.10033 29.4834 7.69687 29.4834 6.2378C29.4834 4.77866 28.8669 3.37528 27.7921 2.38742C27.554 2.16853 27.1836 2.18407 26.9646 2.42225C26.7457 2.66043 26.7613 3.03089 26.9995 3.24986C27.8337 4.01641 28.3121 5.10555 28.3121 6.2378C28.3119 7.36998 27.8335 8.45904 26.9994 9.22583Z" fill="white"/>
<path d="M24.7745 6.92366C24.5168 7.11928 24.4666 7.4867 24.6623 7.74433C24.7775 7.89598 24.9522 7.97579 25.1291 7.97579C25.2525 7.97579 25.377 7.93698 25.4829 7.85655C25.9937 7.46859 26.2866 6.87868 26.2866 6.23786C26.2866 5.59704 25.9937 5.00706 25.4829 4.6191C25.2254 4.4234 24.8579 4.47362 24.6623 4.73132C24.4666 4.98894 24.5168 5.35636 24.7745 5.55198C24.991 5.71644 25.1153 5.96649 25.1153 6.23786C25.1153 6.50915 24.991 6.7592 24.7745 6.92366Z" fill="white"/>
<path d="M29.2251 1.00996C30.6716 2.3857 31.4682 4.24233 31.4682 6.2378C31.4682 8.23328 30.6716 10.0898 29.225 11.4656C28.9906 11.6885 28.9814 12.0593 29.2042 12.2937C29.3193 12.4148 29.4739 12.4758 29.6287 12.4758C29.7738 12.4758 29.9189 12.4222 30.0323 12.3145C31.7136 10.7153 32.6396 8.55735 32.6396 6.23788C32.6396 3.91832 31.7136 1.76026 30.0323 0.161259C29.798 -0.0616144 29.4273 -0.0523215 29.2043 0.182031C28.9814 0.416384 28.9907 0.787085 29.2251 1.00996Z" fill="white"/>
</g>
<defs>
<clipPath id="clip0">
<rect width="40" height="40" fill="white"/>
</clipPath>
</defs>
</svg>
