<svg width="40" height="40" viewBox="0 0 40 40" fill="none" xmlns="http://www.w3.org/2000/svg">
<path d="M37.0703 3.67188H35.0187C34.695 3.67188 34.4327 3.93414 34.4327 4.25781C34.4327 4.58148 34.695 4.84375 35.0187 4.84375H37.0703C38.0395 4.84375 38.8281 5.63234 38.8281 6.60156V9.29688H1.17188V6.60156C1.17188 5.63234 1.96039 4.84375 2.92969 4.84375H32.4609C32.7846 4.84375 33.0469 4.58148 33.0469 4.25781C33.0469 3.93414 32.7846 3.67188 32.4609 3.67188H2.92969C1.31422 3.67188 0 4.98609 0 6.60156V14.9312C0 15.2549 0.262344 15.5172 0.585938 15.5172C0.909531 15.5172 1.17188 15.2549 1.17188 14.9312V10.4688H38.8281V29.5703C38.8281 30.3341 38.3382 30.9855 37.6562 31.2273V29.9894C37.6562 29.6657 37.394 29.4034 37.0703 29.4034C36.7466 29.4034 36.4844 29.6657 36.4844 29.9894V31.3281H23.125V15.4297C23.125 15.1497 23.3528 14.9219 23.6328 14.9219H35.9766C36.2566 14.9219 36.4844 15.1497 36.4844 15.4297V27.4603C36.4844 27.784 36.7466 28.0462 37.0703 28.0462C37.394 28.0462 37.6562 27.784 37.6562 27.4603V15.4297C37.6562 14.5035 36.9027 13.75 35.9766 13.75H23.6328C22.7066 13.75 21.9531 14.5035 21.9531 15.4297V31.3281H2.92969C1.96039 31.3281 1.17188 30.5395 1.17188 29.5703V17.4894C1.17188 17.1657 0.909531 16.9034 0.585938 16.9034C0.262344 16.9034 0 17.1657 0 17.4894V29.5703C0 31.1858 1.31422 32.5 2.92969 32.5H21.9531V34.6484C21.9531 35.5746 22.7066 36.3281 23.6328 36.3281H35.9766C36.9027 36.3281 37.6562 35.5746 37.6562 34.6484V32.441C38.9919 32.1688 40 30.9852 40 29.5703V6.60156C40 4.98609 38.6858 3.67188 37.0703 3.67188ZM36.4844 34.6484C36.4844 34.9284 36.2566 35.1562 35.9766 35.1562H23.6328C23.3528 35.1562 23.125 34.9284 23.125 34.6484V32.5H36.4844V34.6484Z" fill="white"/>
<path d="M2.57861 7.09937C2.57861 8.06858 3.36713 8.85718 4.33642 8.85718C5.30572 8.85718 6.09423 8.06858 6.09423 7.09937C6.09423 6.13015 5.30572 5.34155 4.33642 5.34155C3.36713 5.34155 2.57861 6.13015 2.57861 7.09937ZM4.92236 7.09937C4.92236 7.42249 4.65955 7.6853 4.33642 7.6853C4.0133 7.6853 3.75049 7.42249 3.75049 7.09937C3.75049 6.77624 4.0133 6.51343 4.33642 6.51343C4.65955 6.51343 4.92236 6.77624 4.92236 7.09937Z" fill="white"/>
<path d="M7.12231 7.09937C7.12231 8.06858 7.91083 8.85718 8.88013 8.85718C9.84942 8.85718 10.6379 8.06858 10.6379 7.09937C10.6379 6.13015 9.84942 5.34155 8.88013 5.34155C7.91083 5.34155 7.12231 6.13015 7.12231 7.09937ZM9.46606 7.09937C9.46606 7.42249 9.20325 7.6853 8.88013 7.6853C8.557 7.6853 8.29419 7.42249 8.29419 7.09937C8.29419 6.77624 8.557 6.51343 8.88013 6.51343C9.20325 6.51343 9.46606 6.77624 9.46606 7.09937Z" fill="white"/>
<path d="M11.666 7.09937C11.666 8.06858 12.4545 8.85718 13.4238 8.85718C14.3931 8.85718 15.1816 8.06858 15.1816 7.09937C15.1816 6.13015 14.3931 5.34155 13.4238 5.34155C12.4545 5.34155 11.666 6.13015 11.666 7.09937ZM14.0098 7.09937C14.0098 7.42249 13.747 7.6853 13.4238 7.6853C13.1007 7.6853 12.8379 7.42249 12.8379 7.09937C12.8379 6.77624 13.1007 6.51343 13.4238 6.51343C13.747 6.51343 14.0098 6.77624 14.0098 7.09937Z" fill="white"/>
<path d="M31.2109 15.5469H28.3984C28.0748 15.5469 27.8125 15.8091 27.8125 16.1328C27.8125 16.4565 28.0748 16.7188 28.3984 16.7188H31.2109C31.5346 16.7188 31.7969 16.4565 31.7969 16.1328C31.7969 15.8091 31.5346 15.5469 31.2109 15.5469Z" fill="white"/>
<path d="M27.4831 21.5654C27.2541 21.3366 26.8832 21.3366 26.6544 21.5654L24.4299 23.7898C24.2011 24.0187 24.2011 24.3897 24.4299 24.6184L26.6249 26.8135C26.7394 26.9279 26.8893 26.9851 27.0393 26.9851C27.1892 26.9851 27.3392 26.9279 27.4536 26.8136C27.6825 26.5847 27.6825 26.2137 27.4537 25.985L25.673 24.2042L27.4831 22.3941C27.7119 22.1652 27.7119 21.7943 27.4831 21.5654Z" fill="white"/>
<path d="M32.1558 26.8136C32.2702 26.9279 32.4202 26.9851 32.5701 26.9851C32.7201 26.9851 32.8701 26.9279 32.9845 26.8135L35.1795 24.6184C35.4084 24.3896 35.4084 24.0186 35.1795 23.7898L32.9551 21.5654C32.7262 21.3366 32.3552 21.3366 32.1264 21.5654C31.8976 21.7943 31.8976 22.1652 32.1264 22.394L33.9366 24.2041L32.1558 25.9849C31.9269 26.2137 31.9269 26.5847 32.1558 26.8136Z" fill="white"/>
<path d="M31.3289 20.177C31.0264 20.0621 30.6881 20.2143 30.5732 20.5169L27.9429 27.4463C27.8281 27.7488 27.9802 28.0872 28.2828 28.202C28.3513 28.228 28.4215 28.2403 28.4906 28.2403C28.727 28.2403 28.9496 28.0962 29.0385 27.8621L31.6688 20.9327C31.7836 20.6301 31.6315 20.2918 31.3289 20.177Z" fill="white"/>
<path d="M8.02672 16.3625C8.35032 16.3625 8.61266 16.1002 8.61266 15.7766V12.6504C8.61266 12.3267 8.35032 12.0645 8.02672 12.0645H7.35852C7.03493 12.0645 6.77258 12.3267 6.77258 12.6504C6.77258 12.9741 7.03493 13.2363 7.35852 13.2363H7.44079V15.7766C7.44079 16.1002 7.70313 16.3625 8.02672 16.3625Z" fill="white"/>
<path d="M4.57739 22.7692C4.90098 22.7692 5.16332 22.5069 5.16332 22.1832V19.0571C5.16332 18.7335 4.90098 18.4712 4.57739 18.4712H3.90918C3.58559 18.4712 3.32324 18.7335 3.32324 19.0571C3.32324 19.3808 3.58559 19.6431 3.90918 19.6431H3.99145V22.1833C3.99145 22.5069 4.25379 22.7692 4.57739 22.7692Z" fill="white"/>
<path d="M5.73314 14.9364V13.4906C5.73314 12.669 5.06478 12.0007 4.24322 12.0007C3.42166 12.0007 2.7533 12.6691 2.7533 13.4906V14.9364C2.7533 15.7579 3.42166 16.4263 4.24322 16.4263C5.06478 16.4263 5.73314 15.7578 5.73314 14.9364ZM4.56127 14.9364C4.56127 15.1117 4.41861 15.2544 4.24322 15.2544C4.06783 15.2544 3.92517 15.1117 3.92517 14.9364V13.4906C3.92517 13.3153 4.06783 13.1726 4.24322 13.1726C4.41861 13.1726 4.56127 13.3153 4.56127 13.4906V14.9364Z" fill="white"/>
<path d="M6.5368 21.3429C6.5368 22.1644 7.20516 22.8328 8.02673 22.8328C8.84829 22.8328 9.51665 22.1643 9.51665 21.3429V19.8971C9.51665 19.0756 8.84829 18.4072 8.02673 18.4072C7.20516 18.4072 6.5368 19.0757 6.5368 19.8971V21.3429ZM7.70868 19.8972C7.70868 19.7218 7.85134 19.5792 8.02673 19.5792C8.20212 19.5792 8.34477 19.7218 8.34477 19.8972V21.3429C8.34477 21.5183 8.20212 21.661 8.02673 21.661C7.85134 21.661 7.70868 21.5183 7.70868 21.3429V19.8972Z" fill="white"/>
<path d="M11.7869 22.7692C12.1105 22.7692 12.3729 22.5069 12.3729 22.1832V19.0571C12.3729 18.7335 12.1105 18.4712 11.7869 18.4712H11.1187C10.7951 18.4712 10.5328 18.7335 10.5328 19.0571C10.5328 19.3808 10.7951 19.6431 11.1187 19.6431H11.201V22.1833C11.201 22.5069 11.4633 22.7692 11.7869 22.7692Z" fill="white"/>
<path d="M18.9964 22.7692C19.32 22.7692 19.5823 22.5069 19.5823 22.1832V19.0571C19.5823 18.7335 19.32 18.4712 18.9964 18.4712H18.3282C18.0046 18.4712 17.7422 18.7335 17.7422 19.0571C17.7422 19.3808 18.0046 19.6431 18.3282 19.6431H18.4105V22.1833C18.4105 22.5069 18.6728 22.7692 18.9964 22.7692Z" fill="white"/>
<path d="M13.7463 21.3429C13.7463 22.1644 14.4147 22.8328 15.2363 22.8328C16.0578 22.8328 16.7262 22.1643 16.7262 21.3429V19.8971C16.7262 19.0756 16.0578 18.4072 15.2363 18.4072C14.4147 18.4072 13.7463 19.0757 13.7463 19.8971V21.3429ZM14.9182 19.8972C14.9182 19.7218 15.0609 19.5792 15.2363 19.5792C15.4116 19.5792 15.5543 19.7218 15.5543 19.8972V21.3429C15.5543 21.5183 15.4116 21.661 15.2363 21.661C15.0609 21.661 14.9182 21.5183 14.9182 21.3429V19.8972Z" fill="white"/>
<path d="M15.2363 16.3625C15.5599 16.3625 15.8222 16.1002 15.8222 15.7766V12.6504C15.8222 12.3267 15.5599 12.0645 15.2363 12.0645H14.5681C14.2445 12.0645 13.9821 12.3267 13.9821 12.6504C13.9821 12.9741 14.2445 13.2363 14.5681 13.2363H14.6503V15.7766C14.6503 16.1002 14.9127 16.3625 15.2363 16.3625Z" fill="white"/>
<path d="M12.9427 14.9364V13.4906C12.9427 12.669 12.2744 12.0007 11.4528 12.0007C10.6313 12.0007 9.96289 12.6691 9.96289 13.4906V14.9364C9.96289 15.7579 10.6313 16.4263 11.4528 16.4263C12.2744 16.4263 12.9427 15.7578 12.9427 14.9364ZM11.7709 14.9364C11.7709 15.1117 11.6282 15.2544 11.4528 15.2544C11.2774 15.2544 11.1348 15.1117 11.1348 14.9364V13.4906C11.1348 13.3153 11.2774 13.1726 11.4528 13.1726C11.6282 13.1726 11.7709 13.3153 11.7709 13.4906V14.9364Z" fill="white"/>
<path d="M20.1521 14.9364V13.4906C20.1521 12.669 19.4838 12.0007 18.6622 12.0007C17.8407 12.0007 17.1723 12.6691 17.1723 13.4906V14.9364C17.1723 15.7579 17.8407 16.4263 18.6622 16.4263C19.4838 16.4263 20.1521 15.7578 20.1521 14.9364ZM18.9803 14.9364C18.9803 15.1117 18.8377 15.2544 18.6623 15.2544C18.4869 15.2544 18.3443 15.1117 18.3443 14.9364V13.4906C18.3443 13.3153 18.4869 13.1726 18.6623 13.1726C18.8377 13.1726 18.9803 13.3153 18.9803 13.4906V14.9364Z" fill="white"/>
<path d="M8.02672 29.2075C8.35032 29.2075 8.61266 28.9452 8.61266 28.6215V25.4954C8.61266 25.1717 8.35032 24.9094 8.02672 24.9094H7.35852C7.03493 24.9094 6.77258 25.1717 6.77258 25.4954C6.77258 25.819 7.03493 26.0813 7.35852 26.0813H7.44079V28.6215C7.44079 28.9452 7.70313 29.2075 8.02672 29.2075Z" fill="white"/>
<path d="M2.75336 27.7813C2.75336 28.6029 3.42172 29.2712 4.24328 29.2712C5.06484 29.2712 5.7332 28.6028 5.7332 27.7813V26.3356C5.7332 25.5141 5.06484 24.8457 4.24328 24.8457C3.42172 24.8457 2.75336 25.5141 2.75336 26.3356V27.7813ZM3.92523 26.3356C3.92523 26.1602 4.06789 26.0176 4.24328 26.0176C4.41867 26.0176 4.56133 26.1602 4.56133 26.3356V27.7813C4.56133 27.9567 4.41867 28.0994 4.24328 28.0994C4.06789 28.0994 3.92523 27.9567 3.92523 27.7813V26.3356Z" fill="white"/>
<path d="M15.2363 29.2075C15.5599 29.2075 15.8222 28.9452 15.8222 28.6215V25.4954C15.8222 25.1717 15.5599 24.9094 15.2363 24.9094H14.5681C14.2445 24.9094 13.9821 25.1717 13.9821 25.4954C13.9821 25.819 14.2445 26.0813 14.5681 26.0813H14.6503V28.6215C14.6503 28.9452 14.9127 29.2075 15.2363 29.2075Z" fill="white"/>
<path d="M9.96283 27.7813C9.96283 28.6029 10.6312 29.2712 11.4528 29.2712C12.2743 29.2712 12.9427 28.6028 12.9427 27.7813V26.3356C12.9427 25.5141 12.2743 24.8457 11.4528 24.8457C10.6312 24.8457 9.96283 25.5141 9.96283 26.3356V27.7813ZM11.1347 26.3356C11.1347 26.1602 11.2774 26.0176 11.4528 26.0176C11.6281 26.0176 11.7708 26.1602 11.7708 26.3356V27.7813C11.7708 27.9567 11.6281 28.0994 11.4528 28.0994C11.2774 28.0994 11.1347 27.9567 11.1347 27.7813V26.3356Z" fill="white"/>
<path d="M17.1723 27.7813C17.1723 28.6029 17.8407 29.2712 18.6622 29.2712C19.4838 29.2712 20.1521 28.6028 20.1521 27.7813V26.3356C20.1521 25.5141 19.4838 24.8457 18.6622 24.8457C17.8407 24.8457 17.1723 25.5141 17.1723 26.3356V27.7813ZM18.3442 26.3356C18.3442 26.1602 18.4868 26.0176 18.6622 26.0176C18.8376 26.0176 18.9803 26.1602 18.9803 26.3356V27.7813C18.9803 27.9567 18.8376 28.0994 18.6622 28.0994C18.4868 28.0994 18.3442 27.9567 18.3442 27.7813V26.3356Z" fill="white"/>
</svg>
