<svg width="40" height="40" viewBox="0 0 40 40" fill="none" xmlns="http://www.w3.org/2000/svg">
<g clip-path="url(#clip0)">
<path d="M38.2958 19.857L38.2663 19.8581C37.359 19.8923 36.5759 20.5298 36.3619 21.4085L35.7342 23.9862C35.1379 26.4343 33.4978 28.473 31.2343 29.5796C30.9685 29.7094 30.6686 29.681 30.432 29.5032C30.1954 29.3255 30.0847 29.0453 30.1355 28.7538L30.6311 25.9155C30.7804 25.0603 30.2304 24.2567 29.3791 24.0861C28.7329 23.9568 28.0859 24.2316 27.7306 24.7867L24.5232 29.7969C24.064 29.4659 23.4184 29.5055 23.0054 29.9183L20.6789 32.2448C20.4501 32.4737 20.4501 32.8446 20.6789 33.0734L27.4341 39.8286C27.5486 39.943 27.6986 40.0001 27.8485 40.0001C27.9984 40.0001 28.1484 39.943 28.2629 39.8286L30.5893 37.5021C31.0244 37.0669 31.0457 36.373 30.6543 35.9115C31.4006 35.4964 32.129 35.0208 32.8201 34.4964C33.0779 34.3009 33.1283 33.9333 32.9327 33.6755C32.7373 33.4177 32.3697 33.3673 32.1118 33.5629C30.9236 34.4642 29.9279 34.9691 29.7968 35.0469L25.3808 30.631L28.7175 25.4187C28.8105 25.2734 28.9798 25.2019 29.1489 25.2352C29.3718 25.2799 29.5157 25.4902 29.4765 25.7141L28.981 28.5523C28.8547 29.2757 29.141 29.9991 29.7279 30.4401C30.315 30.8812 31.0893 30.9548 31.7489 30.6324C34.3261 29.3724 36.1938 27.0511 36.8727 24.2636L37.5004 21.6859C37.7025 20.8559 38.8964 20.8173 38.826 21.5446C38.4404 25.5205 36.6635 29.2611 33.8226 32.0774C33.5929 32.3052 33.5912 32.6762 33.819 32.906C34.0468 33.1358 34.4177 33.1376 34.6476 32.9096C37.6823 29.9012 39.5804 25.9052 39.9923 21.6577C40.0879 20.6738 39.2969 19.8216 38.2958 19.857ZM27.8485 38.5856L21.9224 32.6595L23.8393 30.7469L29.7606 36.6734L27.8485 38.5856Z" fill="white"/>
<path d="M12.3907 9.88274L13.1698 10.3145C13.1763 10.3181 13.1817 10.3234 13.1854 10.3298L14.4043 12.4409C14.4081 12.4473 14.4099 12.4547 14.4098 12.4621L14.3942 13.3528C14.3866 13.7933 14.6188 14.2038 15.0003 14.4241L16.7659 15.4433C16.9535 15.5517 17.1629 15.6058 17.3722 15.6058C17.5885 15.6058 17.8047 15.5481 17.9966 15.4327L18.7605 14.9737C18.7667 14.97 18.7739 14.9681 18.7813 14.9681H21.2191C21.2265 14.9681 21.2338 14.97 21.2401 14.9738L22.0038 15.4327C22.3815 15.6596 22.8532 15.6638 23.2344 15.4434L25 14.4241C25.3815 14.2038 25.6136 13.7934 25.606 13.3528L25.5906 12.4621C25.5904 12.4547 25.5923 12.4474 25.596 12.441L26.815 10.3298C26.8187 10.3234 26.8241 10.3181 26.8303 10.3146L27.6096 9.88274C27.9949 9.66922 28.2343 9.26282 28.2343 8.82227V6.7836C28.2343 6.34313 27.995 5.9368 27.6096 5.72313L26.8306 5.29141C26.8241 5.28774 26.8187 5.28251 26.8149 5.27594L26.7445 5.15399C26.5827 4.87383 26.2242 4.77782 25.9441 4.93969C25.6639 5.10149 25.5679 5.45985 25.7298 5.74008L25.8 5.86188C25.91 6.05235 26.0697 6.20938 26.2623 6.31618L27.0414 6.74797C27.0543 6.75524 27.0625 6.76883 27.0625 6.7836V8.82227C27.0625 8.83704 27.0544 8.85063 27.0415 8.85782L26.2621 9.28985C26.0697 9.39649 25.91 9.5536 25.8001 9.74391L24.581 11.8552C24.4711 12.0457 24.415 12.2627 24.4189 12.4825L24.4343 13.3732C24.4346 13.388 24.4268 13.4017 24.414 13.4091L22.6484 14.4285C22.6357 14.4358 22.6197 14.4356 22.6073 14.4281L21.8437 13.9693C21.6551 13.856 21.4392 13.7961 21.2192 13.7961H18.7814C18.5612 13.7961 18.3452 13.856 18.1569 13.9693L17.3931 14.4281C17.3806 14.4357 17.3648 14.4359 17.3521 14.4284L15.5865 13.4092C15.5737 13.4017 15.5658 13.3881 15.5661 13.3732L15.5817 12.4825C15.5855 12.2627 15.5294 12.0457 15.4194 11.8551L14.2005 9.74399C14.0906 9.55352 13.9308 9.39649 13.7382 9.28969L12.959 8.85782C12.9461 8.85071 12.9381 8.83704 12.9381 8.82227V6.7836C12.9381 6.76883 12.9462 6.75516 12.9589 6.74805L13.7385 6.31602C13.9308 6.20938 14.0906 6.05227 14.2004 5.86196L15.4195 3.75071C15.5294 3.56016 15.5855 3.34321 15.5817 3.12337L15.5661 2.23266C15.5658 2.21797 15.5736 2.20422 15.5864 2.1968L17.3521 1.17735C17.3649 1.17001 17.3806 1.17016 17.3932 1.17782L18.157 1.63672C18.3455 1.74993 18.5614 1.80985 18.7814 1.80985H21.2192C21.4389 1.80985 21.6548 1.75001 21.8436 1.63665L22.6073 1.17782C22.6199 1.17016 22.6357 1.17001 22.6485 1.17743L24.4142 2.19688C24.4268 2.20422 24.4346 2.21797 24.4343 2.23266L24.4189 3.12344C24.4157 3.30766 24.4567 3.49493 24.5375 3.66485C24.6766 3.95704 25.0263 4.08133 25.3183 3.94243C25.6106 3.80344 25.7348 3.45383 25.5959 3.16165C25.5919 3.15337 25.5906 3.1468 25.5907 3.14383L25.6061 2.25313C25.6138 1.81251 25.3815 1.40204 25 1.18196L23.2344 0.162506C22.8529 -0.0578845 22.3812 -0.0539001 22.0036 0.173209L21.2403 0.631881C21.2338 0.635787 21.2264 0.637819 21.2191 0.637819H18.7813C18.7739 0.637819 18.7666 0.635787 18.7603 0.632037L17.9967 0.173287C17.6193 -0.0536657 17.1475 -0.0579626 16.766 0.162428L15.0004 1.18172C14.6189 1.40196 14.3867 1.81243 14.3942 2.25297L14.4098 3.14368C14.4099 3.1511 14.4081 3.15837 14.4044 3.16477L13.1853 5.27602C13.1817 5.28243 13.1763 5.28766 13.17 5.29118L12.3905 5.72313C12.0053 5.9368 11.7661 6.34321 11.7661 6.78352V8.82219C11.7661 9.26282 12.0054 9.66915 12.3907 9.88274Z" fill="white"/>
<path d="M20.0001 4.25952C18.0462 4.25952 16.4565 5.84921 16.4565 7.80312C16.4565 9.75702 18.0462 11.3466 20.0001 11.3466C21.954 11.3466 23.5437 9.75694 23.5437 7.80312C23.5437 5.84913 21.954 4.25952 20.0001 4.25952ZM20.0001 10.1748C18.6923 10.1748 17.6284 9.11093 17.6284 7.80319C17.6284 6.49546 18.6923 5.4314 20.0001 5.4314C21.3078 5.4314 22.3718 6.49538 22.3718 7.80312C22.3718 9.11085 21.3078 10.1748 20.0001 10.1748Z" fill="white"/>
<path d="M30.6602 19.3087C32.114 19.3087 33.2968 18.1259 33.2968 16.672C33.2968 15.2182 32.114 14.0354 30.6602 14.0354C29.2063 14.0354 28.0234 15.2182 28.0234 16.672C28.0234 18.1259 29.2063 19.3087 30.6602 19.3087ZM30.6602 15.2073C31.4678 15.2073 32.1249 15.8644 32.1249 16.672C32.1249 17.4797 31.4678 18.1368 30.6602 18.1368C29.8524 18.1368 29.1953 17.4797 29.1953 16.672C29.1953 15.8644 29.8525 15.2073 30.6602 15.2073Z" fill="white"/>
<path d="M26.5937 12.8269L26.6038 13.4024L25.8005 14.7936L25.2973 15.0726C24.973 15.2522 24.7715 15.5942 24.7715 15.9651V17.3786C24.7715 17.7493 24.9729 18.0913 25.2972 18.2711L25.8005 18.5502L26.6038 19.9412L26.5937 20.5169C26.5873 20.8875 26.7827 21.233 27.1037 21.4184L28.3279 22.1251C28.4858 22.2162 28.6619 22.2617 28.838 22.2617C29.0201 22.2617 29.202 22.2131 29.3636 22.1161L29.857 21.8196H31.4634L31.9567 22.1161C32.2745 22.3069 32.6713 22.3105 32.9925 22.1251L34.2166 21.4184C34.5377 21.233 34.733 20.8877 34.7266 20.5169L34.7166 19.9412L35.5198 18.5502L36.0234 18.271C36.3475 18.0912 36.5489 17.7492 36.5489 17.3786V15.9651C36.5489 15.5943 36.3475 15.2523 36.0233 15.0727L35.5198 14.7935L34.7166 13.4024L34.7266 12.8269C34.733 12.4561 34.5377 12.1107 34.2166 11.9254L32.9924 11.2186C32.6716 11.0332 32.2746 11.0369 31.9567 11.2277L31.4634 11.5242H29.857L29.3636 11.2277C29.0459 11.0368 28.649 11.0333 28.3278 11.2186L27.1036 11.9255C26.7827 12.1108 26.5873 12.4563 26.5937 12.8269ZM27.7669 12.8956L28.8364 12.2781L29.2895 12.5504C29.4482 12.6457 29.6298 12.696 29.815 12.696H31.5053C31.6904 12.696 31.872 12.6456 32.0309 12.5503L32.4839 12.2781L33.5534 12.8956L33.5442 13.4241C33.541 13.6094 33.5883 13.7921 33.6808 13.952L34.5258 15.4156C34.6183 15.576 34.7528 15.7083 34.9148 15.7981L35.377 16.0543V17.2894L34.9146 17.5456C34.7527 17.6355 34.6181 17.7678 34.5259 17.9278L33.6808 19.3915C33.5881 19.5519 33.5409 19.7345 33.5441 19.9197L33.5534 20.4481L32.4838 21.0655L32.0307 20.7934C31.872 20.698 31.6904 20.6477 31.5052 20.6477H29.815C29.6299 20.6477 29.4483 20.6981 29.2894 20.7934L28.8364 21.0655L27.7669 20.4481L27.7761 19.9197C27.7793 19.7345 27.7321 19.5519 27.6395 19.3916L26.7945 17.9281C26.702 17.7677 26.5675 17.6354 26.4055 17.5456L25.9433 17.2895V16.0544L26.405 15.7984C26.5672 15.7088 26.702 15.5763 26.7944 15.4159L27.6393 13.9525C27.732 13.7922 27.7793 13.6095 27.7761 13.4241L27.7669 12.8956Z" fill="white"/>
<path d="M9.34025 19.3087C10.7941 19.3087 11.9769 18.1259 11.9769 16.672C11.9769 15.2182 10.7941 14.0354 9.34025 14.0354C7.88643 14.0354 6.70361 15.2182 6.70361 16.672C6.70361 18.1259 7.88643 19.3087 9.34025 19.3087ZM9.34025 15.2073C10.1479 15.2073 10.805 15.8644 10.805 16.672C10.805 17.4797 10.1479 18.1368 9.34025 18.1368C8.5326 18.1368 7.87549 17.4797 7.87549 16.672C7.87549 15.8644 8.5326 15.2073 9.34025 15.2073Z" fill="white"/>
<path d="M3.97688 18.2709L4.48039 18.55L5.28352 19.9411L5.27336 20.5167C5.26695 20.8874 5.46242 21.2329 5.78344 21.4182L7.0075 22.1248C7.32836 22.3103 7.72531 22.3069 8.04336 22.1159L8.53672 21.8194H10.143L10.6365 22.1159C10.798 22.213 10.9799 22.2615 11.1621 22.2615C11.3382 22.2615 11.5144 22.2161 11.6722 22.1249L12.8963 21.4182C13.2173 21.2329 13.4128 20.8874 13.4064 20.5166L13.3963 19.9411L14.1994 18.55L14.703 18.2709C15.0272 18.091 15.2287 17.7491 15.2287 17.3784V15.9649C15.2287 15.5941 15.0272 15.2522 14.703 15.0725L14.1995 14.7934L13.3963 13.4023L13.4064 12.8267C13.4128 12.456 13.2173 12.1105 12.8963 11.9252L11.6723 11.2185C11.3513 11.033 10.9545 11.0366 10.6366 11.2275L10.143 11.524H8.53672L8.0432 11.2274C7.72531 11.0365 7.32852 11.0332 7.00758 11.2184L5.78352 11.9252C5.46242 12.1105 5.26695 12.456 5.27336 12.8268L5.28352 13.4023L4.48039 14.7934L3.97695 15.0724C3.65266 15.2522 3.45117 15.5941 3.45117 15.9649V17.3784C3.45117 17.7491 3.65258 18.0911 3.97688 18.2709ZM4.62305 16.0542L5.08477 15.7983C5.2468 15.7087 5.38148 15.5764 5.47422 15.4158L6.31945 13.9519C6.41195 13.7916 6.45914 13.609 6.45594 13.4239L6.44664 12.8956L7.51625 12.278L7.96914 12.5502C8.12781 12.6455 8.30953 12.6959 8.49477 12.6959H10.1852C10.3703 12.6959 10.552 12.6455 10.7106 12.5502L11.1638 12.278L12.2333 12.8956L12.224 13.424C12.2208 13.609 12.268 13.7916 12.3605 13.952L13.2058 15.4159C13.2985 15.5765 13.4331 15.7087 13.5952 15.7984L14.0569 16.0543V17.2894L13.5947 17.5455C13.4328 17.6352 13.2983 17.7674 13.2057 17.9278L12.3604 19.3919C12.2679 19.5523 12.2208 19.7348 12.224 19.9198L12.2333 20.448L11.1637 21.0655L10.7108 20.7935C10.5521 20.6981 10.3704 20.6477 10.1852 20.6477H8.49477C8.30961 20.6477 8.12789 20.6982 7.9693 20.7934L7.51625 21.0655L6.44664 20.448L6.45594 19.9197C6.45914 19.7348 6.41203 19.5523 6.31938 19.3916L5.47414 17.9276C5.38156 17.7674 5.24711 17.6353 5.08516 17.5455L4.62297 17.2894V16.0542H4.62305Z" fill="white"/>
<path d="M16.9948 29.9179C16.5818 29.5051 15.9362 29.4655 15.4769 29.7965L12.2696 24.7864C11.9144 24.2314 11.2669 23.9559 10.621 24.0858C9.76975 24.2564 9.21975 25.06 9.36913 25.9152L9.86459 28.7535C9.91545 29.0449 9.80467 29.3251 9.56811 29.5029C9.3317 29.6806 9.03163 29.7091 8.76584 29.5792C6.50233 28.4726 4.86217 26.4338 4.266 23.9859L3.63819 21.4082C3.4242 20.5294 2.64108 19.8919 1.73342 19.8578L1.70467 19.8567C0.711391 19.8187 -0.0879839 20.668 0.00779731 21.6573C0.58975 27.6581 4.07959 32.9819 9.34616 35.9109C8.95459 36.3723 8.97553 37.0665 9.41084 37.5019L11.7373 39.8283C11.8518 39.9427 12.0017 39.9999 12.1517 39.9999C12.3016 39.9999 12.4516 39.9427 12.566 39.8283L15.1662 37.2283C15.395 36.9994 15.395 36.6285 15.1662 36.3997C14.9373 36.171 14.5664 36.1708 14.3375 36.3997L12.1522 38.585L10.2396 36.6681L16.1661 30.7468L18.0783 32.659L15.994 34.7432C15.7651 34.9721 15.7651 35.343 15.994 35.5719C16.2229 35.8005 16.5939 35.8007 16.8226 35.5719L19.3212 33.0733C19.4311 32.9634 19.4928 32.8144 19.4928 32.659C19.4928 32.5035 19.4311 32.3546 19.3212 32.2446L16.9948 29.9179ZM1.1742 21.5443C1.14631 21.2564 1.38194 21.0148 1.66092 21.0279C1.66873 21.0283 1.6978 21.0293 1.68998 21.029C2.08225 21.0437 2.40764 21.3076 2.49959 21.6855L3.12741 24.2633C3.80623 27.0507 5.67381 29.372 8.25116 30.6321C8.91077 30.9545 9.68522 30.8809 10.2721 30.4397C10.8591 29.9987 11.1453 29.2754 11.019 28.552L10.5236 25.7137C10.4844 25.4899 10.6284 25.2796 10.8512 25.2349C11.0206 25.2012 11.1896 25.2729 11.2826 25.4183L14.6193 30.6307L10.2033 35.0466C10.1324 34.9808 2.11217 31.2159 1.1742 21.5443Z" fill="white"/>
</g>
<defs>
<clipPath id="clip0">
<rect width="40" height="40" fill="white"/>
</clipPath>
</defs>
</svg>
