<svg width="40" height="40" viewBox="0 0 40 40" fill="none" xmlns="http://www.w3.org/2000/svg">
<path d="M39.7962 25.4265L37.3438 23.4527V19.0312C37.3438 18.9001 37.2967 18.7734 37.2109 18.6743L35.8634 17.1118C35.8106 17.0547 35.7465 17.0092 35.6752 16.9781C35.6039 16.947 35.527 16.9309 35.4492 16.9309C35.3714 16.9309 35.2945 16.947 35.2232 16.9781C35.1519 17.0092 35.0879 17.0547 35.035 17.1118L33.6875 18.6743C33.6018 18.7734 33.5546 18.9001 33.5547 19.0312V20.4037L31.9922 19.1462V15.0855C31.9923 14.9545 31.9451 14.8278 31.8594 14.7287L30.5119 13.1662C30.459 13.1091 30.3949 13.0636 30.3237 13.0325C30.2524 13.0013 30.1754 12.9853 30.0977 12.9853C30.0199 12.9853 29.9429 13.0013 29.8717 13.0325C29.8004 13.0636 29.7363 13.1091 29.6834 13.1662L28.3359 14.7287C28.2502 14.8278 28.203 14.9545 28.2031 15.0855V16.0965L24.645 13.233L23.8859 7.54116C23.8786 7.48516 23.8626 7.43065 23.8384 7.37959L20.4944 0.312407C20.45 0.218858 20.38 0.139821 20.2925 0.0844773C20.205 0.0291339 20.1035 -0.000244141 20 -0.000244141C19.8965 -0.000244141 19.795 0.0291339 19.7075 0.0844773C19.62 0.139821 19.55 0.218858 19.5056 0.312407L16.1619 7.38022C16.1378 7.43132 16.1217 7.4858 16.1141 7.54178L15.355 13.233L11.7969 16.0965V15.0855C11.7969 14.9545 11.7499 14.8279 11.6644 14.7287L10.3166 13.1662C10.2637 13.1091 10.1996 13.0636 10.1283 13.0325C10.0571 13.0013 9.98012 12.9853 9.90234 12.9853C9.82456 12.9853 9.74762 13.0013 9.67635 13.0325C9.60507 13.0636 9.54099 13.1091 9.48812 13.1662L8.14031 14.7287C8.05481 14.8279 8.00779 14.9545 8.00781 15.0855V19.1458L6.44531 20.4033V19.0312C6.44534 18.9002 6.39832 18.7735 6.31281 18.6743L4.965 17.1118C4.91214 17.0547 4.84806 17.0092 4.77678 16.9781C4.7055 16.947 4.62856 16.9309 4.55078 16.9309C4.473 16.9309 4.39606 16.947 4.32478 16.9781C4.2535 17.0092 4.18943 17.0547 4.13656 17.1118L2.78875 18.6743C2.70324 18.7735 2.65622 18.9002 2.65625 19.0312V23.453L0.204063 25.4265C0.140347 25.4777 0.0889357 25.5425 0.0536183 25.6162C0.0183009 25.69 -2.21105e-05 25.7707 2.0023e-08 25.8524V31.9946C8.28147e-05 32.1396 0.0577264 32.2787 0.160267 32.3812C0.262808 32.4837 0.40186 32.5414 0.546875 32.5415C0.591232 32.5415 0.635421 32.536 0.678437 32.5252L13.6972 29.2933L16.1147 31.4396L11.1806 35.2302C11.0852 35.3034 11.0166 35.406 10.9854 35.5222C10.9542 35.6384 10.9622 35.7616 11.0081 35.8727L12.5706 39.6608C12.6242 39.7914 12.7263 39.8962 12.8555 39.953C12.9847 40.0099 13.1309 40.0145 13.2634 39.9658L18.3191 38.1221H21.685L27.0575 39.969C27.1959 40.0118 27.3454 39.9997 27.4751 39.9354C27.6049 39.8711 27.705 39.7594 27.7547 39.6233L29.0047 35.8352C29.0403 35.7275 29.0415 35.6114 29.0082 35.5029C28.9749 35.3945 28.9087 35.2991 28.8188 35.2299L23.8844 31.4393L26.3016 29.293L39.3203 32.5249C39.4009 32.5449 39.4851 32.5463 39.5663 32.529C39.6476 32.5117 39.7238 32.476 39.7893 32.4248C39.8547 32.3736 39.9076 32.3082 39.9439 32.2335C39.9803 32.1587 39.9991 32.0767 39.9991 31.9937V25.8524C39.9992 25.7708 39.981 25.6901 39.9459 25.6164C39.9109 25.5427 39.8597 25.4778 39.7962 25.4265ZM34.6484 19.234L35.4491 18.3049L36.25 19.234V22.5724L34.6484 21.2837V19.234ZM29.2969 15.2887L30.0975 14.3596L30.8984 15.2887V18.2655L29.2969 16.9768V15.2887ZM20 1.82459L22.8125 7.77053L22.9875 9.08303L22.5012 8.47991C22.2007 8.1057 21.8199 7.80389 21.3869 7.59682C20.9539 7.38975 20.4799 7.28272 20 7.28366C19.5199 7.28268 19.0457 7.38972 18.6126 7.59685C18.1794 7.80398 17.7984 8.10589 17.4978 8.48022L17.0119 9.08303L17.1869 7.77053L20 1.82459ZM23.1359 11.009L22.1919 10.4687C21.5238 10.0889 20.7685 9.8893 20 9.8893C19.2315 9.8893 18.4762 10.0889 17.8081 10.4687L16.8641 11.008L18.3494 9.16584C18.5481 8.91936 18.7995 8.72052 19.0851 8.5839C19.3708 8.44729 19.6834 8.37638 20 8.37638C20.3166 8.37638 20.6292 8.44729 20.9149 8.5839C21.2005 8.72052 21.4519 8.91936 21.6506 9.16584L23.1359 11.009ZM9.10156 15.2902L9.90219 14.3612L10.7031 15.2902V16.9777L9.10156 18.2668V15.2902ZM3.75 22.5724V19.234L4.55062 18.3049L5.35156 19.234V21.2837L3.75 22.5724ZM1.09375 26.1143L15.1453 14.8055L13.3522 28.2521L11.2331 28.7783L12.2794 20.9302C12.2939 20.8218 12.2755 20.7116 12.2267 20.6138C12.178 20.5159 12.101 20.4349 12.0057 20.3813C11.9104 20.3276 11.8013 20.3037 11.6923 20.3127C11.5833 20.3217 11.4795 20.3632 11.3944 20.4318L3.32906 26.9227C3.26535 26.9739 3.21394 27.0388 3.17862 27.1125C3.1433 27.1862 3.12498 27.2669 3.125 27.3487V30.7912L1.09375 31.2952V26.1143ZM4.21875 30.5205V27.6105L11.0147 22.1418L10.0919 29.0624L4.21875 30.5205ZM21.33 37.0296H18.67L17.6428 32.0177H22.3569L21.33 37.0296ZM12.1791 35.8421L16.6125 32.4374L17.175 35.1874L17.5925 37.2243L13.3819 38.7596L12.1791 35.8421ZM26.8897 38.7546L22.4088 37.2143L23.3878 32.4362L27.8438 35.8612L26.8897 38.7546ZM22.8194 30.923H17.1803L14.4256 28.4774L16.4103 13.5937L16.5644 12.4399L18.3509 11.4193C18.8536 11.1337 19.4219 10.9836 20 10.9836C20.5781 10.9836 21.1464 11.1337 21.6491 11.4193L23.4375 12.4399L23.5912 13.5933L25.3616 26.8683L25.5759 28.4765L22.8194 30.923ZM28.9856 22.1418L35.7812 27.6105V30.5196L29.9081 29.0624L28.9856 22.1418ZM38.9062 31.2952L36.875 30.7912V27.3487C36.875 27.2669 36.8567 27.1863 36.8215 27.1126C36.7862 27.0389 36.7349 26.974 36.6712 26.9227L28.6056 20.4318C28.5205 20.3632 28.4167 20.3217 28.3077 20.3127C28.1987 20.3037 28.0896 20.3276 27.9943 20.3813C27.899 20.4349 27.822 20.5159 27.7733 20.6138C27.7245 20.7116 27.7061 20.8218 27.7206 20.9302L28.7672 28.7783L26.6475 28.2521L24.8547 14.8055L38.9062 26.1143V31.2952Z" fill="white"/>
<path d="M22.0474 17.3949C22.0299 17.2635 21.9652 17.143 21.8655 17.0557C21.7658 16.9684 21.6378 16.9202 21.5052 16.9202H18.4949C18.3624 16.9202 18.2344 16.9684 18.1346 17.0557C18.0349 17.143 17.9703 17.2635 17.9527 17.3949L16.6205 27.387C16.6087 27.4758 16.6188 27.5661 16.65 27.65C16.6813 27.7339 16.7326 27.8089 16.7996 27.8683L17.7971 28.7539C17.8971 28.8427 18.0262 28.8917 18.1599 28.8917H21.8405C21.9743 28.8916 22.1035 28.8426 22.2037 28.7539L23.2009 27.8683C23.2678 27.8089 23.3192 27.7339 23.3504 27.65C23.3815 27.5661 23.3916 27.4758 23.3796 27.387L22.0474 17.3949ZM21.6327 27.798H18.3677L17.7427 27.2436L18.9733 18.0139H21.0262L22.2574 27.2436L21.6327 27.798Z" fill="white"/>
</svg>
