<svg width="40" height="40" viewBox="0 0 40 40" fill="none" xmlns="http://www.w3.org/2000/svg">
<g clip-path="url(#clip0)">
<path d="M39.9985 13.9091V12.1477C39.996 11.9682 39.9107 11.7644 39.72 11.649L21.5353 0.43796C20.5882 -0.145987 19.4114 -0.145987 18.4642 0.43796L0.279467 11.649C0.127992 11.7453 -0.000749227 11.9247 0.00104753 12.1477V13.909C-0.00981114 15.2869 1.22698 16.401 2.61525 16.2563C2.44277 16.5737 2.34465 16.9372 2.34465 17.3233C2.34465 18.5926 3.41637 19.6235 4.68825 19.562V26.9098C4.68825 27.2334 4.95057 27.4957 5.27415 27.4957C5.59772 27.4957 5.86004 27.2334 5.86004 26.9098V19.562H9.39505V33.174H5.86004V29.644C5.86004 29.3205 5.59772 29.0581 5.27415 29.0581C4.95057 29.0581 4.68825 29.3205 4.68825 29.644V33.174C3.42176 33.1339 2.34465 34.1255 2.34465 35.4127C2.34465 35.7988 2.44277 36.1623 2.61525 36.4797H1.36815C0.614367 36.4797 0.00104753 37.0937 0.00104753 37.8484V38.6313C0.00104753 39.386 0.614367 40 1.36815 40H38.6314C39.3851 40 39.9985 39.386 39.9985 38.6313V37.8484C39.9985 37.0937 39.3851 36.4797 38.6314 36.4797H37.3843C37.5568 36.1624 37.6549 35.7988 37.6549 35.4127C37.6549 34.133 36.5827 33.1197 35.3113 33.174V19.5621C36.57 19.6018 37.6549 18.6115 37.6549 17.3234C37.6549 16.9373 37.5568 16.5737 37.3843 16.2564C38.7409 16.3393 40.0087 15.3457 39.9985 13.9091ZM4.57997 18.3903C3.99352 18.3903 3.51645 17.9117 3.51645 17.3234C3.51645 16.735 3.99352 16.2564 4.57997 16.2564H10.6752C11.2617 16.2564 11.7387 16.735 11.7387 17.3234C11.7387 17.9117 11.2617 18.3903 10.6752 18.3903H4.57997ZM12.6399 16.2564H14.9875C14.815 16.5738 14.7169 16.9373 14.7169 17.3234C14.7169 18.5926 15.7886 19.6236 17.0605 19.5621V33.174C15.7943 33.1344 14.7169 34.1252 14.7169 35.4128C14.7169 35.7989 14.815 36.1624 14.9875 36.4798H12.6399C12.8124 36.1624 12.9105 35.7989 12.9105 35.4128C12.9105 34.1331 11.8383 33.1198 10.5669 33.174V19.5621C11.8262 19.6018 12.9105 18.6115 12.9105 17.3234C12.9105 16.9373 12.8124 16.5737 12.6399 16.2564ZM25.0121 16.2564H27.3597C27.1872 16.5738 27.0891 16.9373 27.0891 17.3234C27.0891 18.5926 28.1608 19.6236 29.4327 19.5621V33.174C28.1668 33.1348 27.0891 34.125 27.0891 35.4128C27.0891 35.7989 27.1872 36.1624 27.3597 36.4798H25.0121C25.1846 36.1624 25.2827 35.7989 25.2827 35.4128C25.2827 34.133 24.2105 33.1198 22.9391 33.174V19.5621C24.1981 19.6019 25.2827 18.6115 25.2827 17.3234C25.2827 16.9373 25.1846 16.5737 25.0121 16.2564ZM23.0475 34.3458C23.6338 34.3458 24.1109 34.8244 24.1109 35.4127C24.1109 36.0011 23.6338 36.4797 23.0475 36.4797H16.9522C16.3659 36.4797 15.8888 36.0011 15.8888 35.4127C15.8888 34.8244 16.3659 34.3458 16.9522 34.3458H23.0475ZM18.2323 33.174V19.5621H21.7673V33.174H18.2323V33.174ZM23.0475 18.3903H16.9522C16.3659 18.3903 15.8888 17.9117 15.8888 17.3234C15.8888 16.735 16.3659 16.2564 16.9522 16.2564H23.0475C23.6338 16.2564 24.1109 16.735 24.1109 17.3234C24.1109 17.9117 23.6338 18.3903 23.0475 18.3903ZM4.57997 34.3458H10.6752C11.2617 34.3458 11.7387 34.8244 11.7387 35.4127C11.7387 36.0011 11.2617 36.4797 10.6752 36.4797H4.57997C3.99352 36.4797 3.51645 36.0011 3.51645 35.4127C3.51645 34.8244 3.99352 34.3458 4.57997 34.3458ZM38.6314 37.6515C38.739 37.6515 38.8267 37.7398 38.8267 37.8484V38.6313C38.8267 38.7399 38.739 38.8282 38.6314 38.8282H1.36815C1.2605 38.8282 1.17285 38.7399 1.17285 38.6313V37.8484C1.17285 37.7398 1.2605 37.6515 1.36815 37.6515H38.6314ZM35.4196 34.3458C36.0061 34.3458 36.4831 34.8244 36.4831 35.4127C36.4831 36.0011 36.0061 36.4797 35.4196 36.4797H29.3244C28.7379 36.4797 28.2609 36.0011 28.2609 35.4127C28.2609 34.8244 28.7379 34.3458 29.3244 34.3458H35.4196ZM30.6045 33.174V19.5621H34.1395V33.174H30.6045V33.174ZM35.4196 18.3903H29.3244C28.7379 18.3903 28.2609 17.9117 28.2609 17.3234C28.2609 16.735 28.7379 16.2564 29.3244 16.2564H35.4196C36.0061 16.2564 36.4831 16.735 36.4831 17.3234C36.4831 17.9117 36.006 18.3903 35.4196 18.3903ZM2.34465 15.0846C1.69852 15.0846 1.17285 14.5573 1.17285 13.9091V12.7336H28.2422C28.5658 12.7336 28.8281 12.4712 28.8281 12.1477C28.8281 11.8241 28.5658 11.5618 28.2422 11.5618H2.65377L19.0793 1.43547C19.6471 1.08542 20.3525 1.08542 20.9203 1.43547L37.3457 11.5618H30.9764C30.6528 11.5618 30.3905 11.8241 30.3905 12.1477C30.3905 12.4712 30.6528 12.7336 30.9764 12.7336H38.8267V13.909C38.8267 14.5572 38.301 15.0845 37.6549 15.0845H2.34465V15.0846ZM19.4564 4.88174H21.3583C21.6818 4.88174 21.9442 4.61941 21.9442 4.29584C21.9442 3.97226 21.6818 3.70994 21.3583 3.70994H20.5857V3.27231C20.5857 2.94874 20.3233 2.68641 19.9998 2.68641C19.6762 2.68641 19.4139 2.94874 19.4139 3.27231V3.7122C18.6611 3.73665 18.0554 4.40036 18.0554 5.21468V5.82722C18.0554 6.2161 18.1925 6.58499 18.4417 6.86575C18.7045 7.16206 19.0743 7.33205 19.4564 7.33197H20.5431C20.6515 7.33197 20.7723 7.46868 20.7723 7.66499V8.27761C20.7723 8.47385 20.6515 8.61064 20.5431 8.61064H18.6412C18.3176 8.61064 18.0553 8.87296 18.0553 9.19654C18.0553 9.52011 18.3176 9.78243 18.6412 9.78243H19.4138V10.2201C19.4138 10.5436 19.6761 10.806 19.9997 10.806C20.3233 10.806 20.5856 10.5436 20.5856 10.2201V9.78017C21.3383 9.75572 21.9441 9.09201 21.9441 8.27769V7.66507C21.9441 6.83528 21.3156 6.16025 20.543 6.16025H19.4563C19.2958 6.15564 19.2286 5.96549 19.2271 5.82722V5.21468C19.2272 5.01845 19.348 4.88174 19.4564 4.88174Z" fill="white"/>
</g>
<defs>
<clipPath id="clip0">
<rect width="40" height="40" fill="white"/>
</clipPath>
</defs>
</svg>
