<svg width="40" height="40" viewBox="0 0 40 40" fill="none" xmlns="http://www.w3.org/2000/svg">
<g clip-path="url(#clip0)">
<path d="M29.7857 13.3826C30.0984 12.6517 30.2624 11.8591 30.2624 11.063V10.3657C30.2624 9.20999 30.7126 8.12331 31.5299 7.30593C31.8349 7.00084 31.8349 6.50614 31.5299 6.20105C31.2247 5.89596 30.7301 5.89596 30.4249 6.20105C29.3125 7.31351 28.6998 8.79255 28.6998 10.3657V11.063C28.6998 11.4318 28.651 11.7992 28.5581 12.1553L25.7941 9.39163C25.4891 9.08662 24.9945 9.08662 24.6892 9.39163L21.6369 12.4439C16.5335 10.4782 10.5192 11.5493 6.40947 15.6589C3.71617 18.3522 2.23291 21.9331 2.23291 25.742C2.23291 29.5509 3.71617 33.1318 6.40947 35.8252C8.70081 38.1165 11.6094 39.5268 14.821 39.9037C15.3712 39.9683 15.9235 40.0002 16.4752 40.0002C19.046 40.0002 21.5975 39.3066 23.8014 37.9893C24.1717 37.7679 24.2925 37.2881 24.0711 36.9178C23.8497 36.5474 23.3701 36.4267 22.9996 36.648C18.0034 39.6344 11.6357 38.8416 7.51428 34.7203C5.11614 32.3222 3.79539 29.1336 3.79539 25.7421C3.79539 22.3506 5.11614 19.1621 7.51428 16.7639C12.4017 11.8764 20.5855 11.8791 25.4706 16.7643C29.487 20.7772 30.3324 27.1857 27.486 32.1C27.2697 32.4734 27.397 32.9513 27.7704 33.1677C28.1438 33.3839 28.6218 33.2566 28.8381 32.8832C31.0509 29.0631 31.3115 24.5374 29.7906 20.5985L32.8438 17.5453C32.9903 17.3988 33.0726 17.2 33.0726 16.9928C33.0726 16.7855 32.9903 16.5868 32.8437 16.4403L29.7857 13.3826ZM29.1027 19.0765C28.4394 17.8207 27.5799 16.6631 26.5757 15.659C25.5713 14.6546 24.4145 13.7963 23.1585 13.1323L25.2417 11.049L31.1864 16.9928L29.1027 19.0765Z" fill="white"/>
<path d="M35.431 2.29956C35.126 1.99447 34.6314 1.99447 34.3261 2.29956L32.6902 3.93532C32.3852 4.24041 32.3852 4.73512 32.6902 5.04021C32.8428 5.19279 33.0428 5.26904 33.2427 5.26904C33.4426 5.26904 33.6425 5.19271 33.7951 5.04021L35.431 3.40444C35.7362 3.09927 35.7362 2.60465 35.431 2.29956Z" fill="white"/>
<path d="M29.3012 3.18508C29.3592 3.57259 29.6925 3.85073 30.0729 3.85073C30.1114 3.85073 30.1504 3.84783 30.1896 3.84198C30.6163 3.77807 30.9105 3.38032 30.8465 2.95358L30.5037 0.665764C30.4398 0.239029 30.0417 -0.0551225 29.6153 0.0088642C29.1886 0.0727728 28.8945 0.470522 28.9584 0.897256L29.3012 3.18508Z" fill="white"/>
<path d="M37.1009 7.26334L34.8131 6.9206C34.387 6.85692 33.9886 7.15076 33.9247 7.5775C33.8608 8.00423 34.1549 8.40198 34.5816 8.46589L36.8695 8.80863C36.9087 8.81449 36.9477 8.81738 36.9862 8.81738C37.3664 8.81738 37.6998 8.53917 37.7578 8.15174C37.8218 7.725 37.5277 7.32733 37.1009 7.26334Z" fill="white"/>
<path d="M15.3439 23.7939C15.1802 23.4009 14.7176 23.2082 14.3236 23.3713C13.9297 23.5343 13.7395 23.9989 13.9017 24.3916C14.0644 24.7852 14.5278 24.9767 14.9213 24.8142C15.3143 24.652 15.5077 24.1869 15.3439 23.7939Z" fill="white"/>
<path d="M19.0832 23.794C18.9552 23.4866 18.638 23.2891 18.305 23.314C17.9784 23.3384 17.6981 23.5698 17.6101 23.8848C17.4213 24.5611 18.1928 25.1252 18.7814 24.7519C19.0988 24.5507 19.2251 24.1402 19.0832 23.794Z" fill="white"/>
<path d="M24.0909 21.1612H24.0936C24.5238 21.1612 24.8733 20.8131 24.8748 20.3826C24.8763 19.9511 24.5277 19.6001 24.0962 19.5986C23.2966 19.5959 22.6426 18.9433 22.6379 18.1438C22.6355 17.7139 22.2862 17.367 21.8567 17.367C21.8553 17.367 21.8537 17.367 21.8522 17.367C21.4207 17.3695 21.0729 17.7212 21.0754 18.1527C21.0785 18.6977 21.2283 19.2092 21.4859 19.6508L20.6139 20.5229C19.4638 19.4143 17.9512 18.8235 16.3511 18.8615C14.8656 18.8962 13.4618 19.4856 12.384 20.5214L11.5047 19.6421C11.7593 19.2024 11.9072 18.694 11.9103 18.1526C11.9127 17.7212 11.565 17.3694 11.1335 17.3669C10.7034 17.3628 10.3502 17.7122 10.3477 18.1437C10.3431 18.9432 9.68903 19.5958 8.88947 19.5986C8.45804 19.6 8.10936 19.951 8.11084 20.3825C8.11233 20.8131 8.4618 21.1611 8.89212 21.1611H8.89478C9.44316 21.1593 9.95794 21.0089 10.4022 20.7493L11.4013 21.7484C10.8773 22.6162 10.5826 23.6051 10.5544 24.6343C10.5121 26.1736 11.0753 27.676 12.1087 28.8077V29.028L10.4022 30.7346C9.95802 30.475 9.44316 30.3247 8.89478 30.3228C8.89384 30.3228 8.89298 30.3228 8.89212 30.3228C8.46187 30.3228 8.11233 30.6708 8.11084 31.1014C8.10936 31.5329 8.45804 31.8839 8.88947 31.8853C9.68895 31.888 10.3431 32.5407 10.3477 33.3402C10.3502 33.7702 10.6995 34.117 11.1289 34.117H11.1335C11.565 34.1145 11.9127 33.7627 11.9103 33.3312C11.9072 32.7899 11.7593 32.2816 11.5048 31.8418L12.3924 30.9542C12.703 31.428 13.2385 31.7417 13.8461 31.7417H19.1396C19.7508 31.7417 20.2889 31.4242 20.5987 30.9458L21.4859 31.8331C21.2283 32.2748 21.0785 32.7862 21.0754 33.3312C21.073 33.7627 21.4207 34.1144 21.8522 34.1169H21.8567C22.2861 34.1169 22.6355 33.77 22.6379 33.3401C22.6425 32.5543 23.3087 31.888 24.0962 31.8853C24.5276 31.8838 24.8762 31.5328 24.8748 31.1013C24.8733 30.6699 24.5204 30.3206 24.0909 30.3227C23.5461 30.3245 23.0344 30.473 22.5922 30.7295L20.8769 29.0142V28.8082C21.8832 27.7108 22.4336 26.3003 22.4336 24.8005C22.4336 23.7078 22.1411 22.6633 21.5942 21.7523L22.5923 20.7542C23.0345 21.0109 23.5462 21.1593 24.0909 21.1612ZM19.3144 30.0044C19.3144 30.1008 19.2359 30.1792 19.1396 30.1792H17.2742V28.8164C17.2742 28.3849 16.9244 28.0351 16.4929 28.0351C16.0614 28.0351 15.7116 28.3849 15.7116 28.8164V30.1792H13.8461C13.7497 30.1792 13.6714 30.1008 13.6714 30.0044V28.4922C13.6714 28.2818 13.5864 28.0802 13.4358 27.9332C12.5511 27.0696 12.0826 25.9132 12.1165 24.6772C12.1804 22.3476 14.1641 20.4225 16.4935 20.4225C18.8799 20.4225 20.8711 22.413 20.8711 24.8007C20.8711 25.9892 20.4019 27.1017 19.55 27.9332C19.3994 28.0803 19.3145 28.2818 19.3145 28.4923V30.0044H19.3144Z" fill="white"/>
<path d="M26.565 34.5139C25.9747 34.1206 25.1908 34.6906 25.3791 35.3714C25.4678 35.6922 25.7603 35.9277 26.0932 35.9435C26.4269 35.9595 26.7389 35.7554 26.8595 35.4444C26.9892 35.1098 26.867 34.7116 26.565 34.5139Z" fill="white"/>
</g>
<defs>
<clipPath id="clip0">
<rect width="40" height="40" fill="white"/>
</clipPath>
</defs>
</svg>
