<svg width="18" height="18" viewBox="0 0 18 18" fill="none" xmlns="http://www.w3.org/2000/svg">
<g opacity="0.6">
<path d="M12.9375 13.5H5.0625V3H12.9375V13.5ZM10.5 15.75H7.5V15H10.5V15.75ZM12 0.75H6C5.40326 0.75 4.83097 0.987053 4.40901 1.40901C3.98705 1.83097 3.75 2.40326 3.75 3V15C3.75 15.5967 3.98705 16.169 4.40901 16.591C4.83097 17.0129 5.40326 17.25 6 17.25H12C12.5967 17.25 13.169 17.0129 13.591 16.591C14.0129 16.169 14.25 15.5967 14.25 15V3C14.25 2.40326 14.0129 1.83097 13.591 1.40901C13.169 0.987053 12.5967 0.75 12 0.75Z" fill="white"/>
</g>
</svg>
