<svg width="40" height="40" viewBox="0 0 40 40" fill="none" xmlns="http://www.w3.org/2000/svg">
<path d="M35.0005 7.26562C35.432 7.26562 35.7817 6.91586 35.7817 6.48438V2.34375C35.7817 1.05141 34.7303 0 33.438 0H2.34424C1.05189 0 0.000488281 1.05141 0.000488281 2.34375V37.6562C0.000488281 38.9486 1.05189 40 2.34424 40H33.438C34.7303 40 35.7817 38.9486 35.7817 37.6562V35.4688C35.7817 35.0373 35.432 34.6875 35.0005 34.6875C34.569 34.6875 34.2192 35.0373 34.2192 35.4688V37.6562C34.2192 38.087 33.8688 38.4375 33.438 38.4375H2.34424C1.91346 38.4375 1.56299 38.087 1.56299 37.6562V2.34375C1.56299 1.91297 1.91346 1.5625 2.34424 1.5625H33.438C33.8688 1.5625 34.2192 1.91297 34.2192 2.34375V6.48438C34.2192 6.91586 34.569 7.26562 35.0005 7.26562Z" fill="white"/>
<path d="M31.2507 3.75H4.53101C4.09952 3.75 3.74976 4.09977 3.74976 4.53125V20.8594C3.74976 21.2909 4.09952 21.6406 4.53101 21.6406C4.96249 21.6406 5.31226 21.2909 5.31226 20.8594V5.3125H30.4694V6.5625C30.4694 6.99398 30.8193 7.34375 31.2507 7.34375C31.6822 7.34375 32.0319 6.99398 32.0319 6.5625V4.53125C32.0319 4.09977 31.6822 3.75 31.2507 3.75Z" fill="white"/>
<path d="M5.08311 23.1977C4.9378 23.0523 4.73701 22.9688 4.53076 22.9688C4.32529 22.9688 4.12373 23.0523 3.97842 23.1977C3.83311 23.343 3.74951 23.5445 3.74951 23.75C3.74951 23.9555 3.83311 24.157 3.97842 24.3023C4.12373 24.4477 4.32529 24.5312 4.53076 24.5312C4.73701 24.5312 4.9378 24.4477 5.08311 24.3023C5.2292 24.157 5.31202 23.9555 5.31202 23.75C5.31202 23.5445 5.2292 23.343 5.08311 23.1977Z" fill="white"/>
<path d="M31.2507 32.9688C30.8192 32.9688 30.4694 33.3185 30.4694 33.75V34.6875H5.31226V26.7578C5.31226 26.3263 4.96249 25.9766 4.53101 25.9766C4.09952 25.9766 3.74976 26.3263 3.74976 26.7578V35.4688C3.74976 35.9002 4.09952 36.25 4.53101 36.25H31.2507C31.6822 36.25 32.0319 35.9002 32.0319 35.4688V33.75C32.0319 33.3185 31.6822 32.9688 31.2507 32.9688Z" fill="white"/>
<path d="M24.2117 27.6044C23.9066 27.2992 23.412 27.2992 23.1068 27.6043L21.5628 29.1484L20.603 28.1886C19.997 27.5826 19.0111 27.5826 18.4051 28.1886L17.7806 28.8131C17.4755 29.1182 17.4755 29.6129 17.7806 29.918C18.0856 30.2231 18.5803 30.2231 18.8855 29.918L19.5041 29.2994L20.4639 30.2593C20.7668 30.5623 21.1648 30.7137 21.5628 30.7137C21.9607 30.7137 22.3587 30.5623 22.6617 30.2593L24.2117 28.7093C24.5168 28.4042 24.5168 27.9095 24.2117 27.6044Z" fill="white"/>
<path d="M39.6406 16.3892C39.9849 15.8521 40.0877 15.1905 39.9226 14.5743C39.7574 13.958 39.3377 13.4365 38.7709 13.1435C38.5252 13.0165 38.3747 12.7559 38.3876 12.4796C38.4172 11.8422 38.1755 11.218 37.7244 10.7668C37.2733 10.3157 36.6492 10.0736 36.0117 10.1036C35.734 10.1171 35.4747 9.96597 35.3477 9.72027C35.0547 9.15355 34.5332 8.73378 33.917 8.56863C33.3005 8.40339 32.6392 8.50628 32.1021 8.85058C31.8692 8.99995 31.5683 8.99988 31.3355 8.85058C30.7984 8.5062 30.137 8.40347 29.5206 8.56863C28.9044 8.73378 28.3829 9.15355 28.0899 9.72027C27.9629 9.96605 27.7016 10.1161 27.4259 10.1036C26.7884 10.0739 26.1644 10.3157 25.7133 10.7668C25.2621 11.218 25.0204 11.8422 25.05 12.4795C25.0629 12.7559 24.9124 13.0165 24.6667 13.1435C24.0999 13.4365 23.6802 13.9579 23.515 14.5743C23.4362 14.8682 23.4191 15.1725 23.4595 15.4687H9.82665C9.39517 15.4687 9.0454 15.8185 9.0454 16.25C9.0454 16.6814 9.39517 17.0312 9.82665 17.0312H23.8586C23.8418 17.0741 23.8224 17.1162 23.7969 17.1559C23.4526 17.693 23.3498 18.3546 23.5149 18.9708C23.5376 19.0554 23.5655 19.1381 23.5975 19.2187H9.82642C9.39493 19.2187 9.04517 19.5685 9.04517 20C9.04517 20.4314 9.39493 20.7812 9.82642 20.7812H25.0034C25.0374 20.8705 25.0544 20.9668 25.0498 21.0655C25.0202 21.7028 25.2619 22.3271 25.7131 22.7782C26.1642 23.2293 26.7881 23.4715 27.4257 23.4414C27.7017 23.4279 27.9627 23.579 28.0897 23.8248C28.1835 24.0064 28.3011 24.1725 28.4374 24.3204V31.6168C28.4374 31.9324 28.6274 32.217 28.9188 32.3382C29.2101 32.4593 29.5459 32.3932 29.7697 32.1706L31.7187 30.2318L33.6677 32.1706C33.817 32.3192 34.0162 32.398 34.2188 32.398C34.3198 32.398 34.4216 32.3784 34.5186 32.3381C34.81 32.2169 34.9999 31.9323 34.9999 31.6167V24.3203C35.1363 24.1725 35.2538 24.0063 35.3477 23.8247C35.4747 23.5789 35.7356 23.4288 36.0117 23.4414C36.6496 23.4715 37.2732 23.2293 37.7243 22.7782C38.1755 22.327 38.4172 21.7028 38.3876 21.0654C38.3747 20.7891 38.5252 20.5285 38.7709 20.4014C39.3377 20.1085 39.7574 19.5871 39.9226 18.9707C40.0877 18.3544 39.9849 17.6929 39.6406 17.1557C39.4913 16.923 39.4913 16.6221 39.6406 16.3892ZM33.4374 29.7376L32.2696 28.5759C31.9649 28.2727 31.4724 28.2727 31.1677 28.5759L29.9999 29.7376V25.0507C30.4674 25.0728 30.9358 24.9506 31.3354 24.6945C31.5683 24.5451 31.8692 24.5452 32.102 24.6945C32.471 24.931 32.8987 25.0536 33.3302 25.0536C33.3659 25.0536 33.4017 25.0518 33.4374 25.0501V29.7376ZM38.4133 18.5664C38.3609 18.7618 38.2331 18.9207 38.0534 19.0135C37.2671 19.42 36.7856 20.2539 36.8267 21.1382C36.8362 21.3403 36.7625 21.5303 36.6195 21.6735C36.4764 21.8165 36.2863 21.89 36.0842 21.8807C35.1995 21.8398 34.3661 22.321 33.9596 23.1074C33.8667 23.2871 33.7079 23.415 33.5124 23.4673C33.3171 23.5196 33.1156 23.4884 32.9453 23.3792C32.5727 23.1403 32.1457 23.0209 31.7186 23.0209C31.2916 23.0209 30.8645 23.1403 30.492 23.3792C30.3216 23.4883 30.1202 23.5196 29.9248 23.4673C29.7293 23.415 29.5706 23.2871 29.4776 23.1074C29.0711 22.3211 28.2378 21.8394 27.353 21.8807C27.1513 21.89 26.9608 21.8165 26.8177 21.6735C26.6746 21.5303 26.601 21.3403 26.6105 21.1381C26.6395 20.514 26.4072 19.9157 25.9921 19.4744C25.9799 19.461 25.9675 19.4479 25.9544 19.4354C25.7895 19.2683 25.5985 19.1246 25.3838 19.0135C25.2041 18.9207 25.0763 18.7619 25.024 18.5664C24.9717 18.371 25.0029 18.1695 25.1121 17.9993C25.5899 17.2541 25.5899 16.2911 25.1121 15.546C25.003 15.3757 24.9717 15.1742 25.024 14.9787C25.0763 14.7833 25.2042 14.6245 25.3839 14.5316C26.1702 14.1251 26.6516 13.2912 26.6106 12.407C26.6011 12.2049 26.6748 12.0148 26.8178 11.8717C26.9609 11.7285 27.1513 11.6551 27.3531 11.6644C28.2378 11.7054 29.0713 11.2241 29.4777 10.4378C29.5706 10.258 29.7294 10.1302 29.9249 10.0778C30.1202 10.0256 30.3217 10.0568 30.492 10.166C31.2372 10.6438 32.2002 10.6438 32.9452 10.166C33.1156 10.0568 33.317 10.0254 33.5124 10.0778C33.7079 10.1302 33.8667 10.2581 33.9596 10.4378C34.3661 11.224 35.1999 11.7057 36.0842 11.6644C36.2864 11.6552 36.4764 11.7285 36.6195 11.8717C36.7626 12.0148 36.8362 12.2049 36.8267 12.407C36.7856 13.2911 37.267 14.1251 38.0534 14.5316C38.2331 14.6245 38.3609 14.7832 38.4133 14.9787C38.4656 15.1742 38.4344 15.3757 38.3252 15.5459C37.8474 16.291 37.8474 17.254 38.3252 17.9992C38.4344 18.1695 38.4657 18.371 38.4133 18.5664Z" fill="white"/>
<path d="M35.434 14.6473C35.1289 14.3422 34.6342 14.3422 34.3292 14.6473L31.7361 17.2404L30.7038 16.2081C30.3988 15.903 29.9041 15.903 29.5989 16.2081C29.2938 16.5132 29.2938 17.0079 29.5989 17.313L31.1836 18.8977C31.3362 19.0503 31.5361 19.1266 31.736 19.1266C31.936 19.1266 32.136 19.0503 32.2885 18.8977L35.434 15.7522C35.7391 15.4471 35.7391 14.9524 35.434 14.6473Z" fill="white"/>
<path d="M9.53721 9.44766C9.39189 9.30234 9.19033 9.21875 8.98486 9.21875C8.77939 9.21875 8.57783 9.30234 8.43252 9.44766C8.28721 9.59297 8.20361 9.79453 8.20361 10C8.20361 10.2055 8.28721 10.407 8.43252 10.5523C8.57783 10.6977 8.77939 10.7812 8.98486 10.7812C9.19033 10.7812 9.39189 10.6977 9.53721 10.5523C9.68252 10.407 9.76611 10.2055 9.76611 10C9.76611 9.79453 9.68252 9.59297 9.53721 9.44766Z" fill="white"/>
<path d="M15.7027 9.21875H11.9006C11.4692 9.21875 11.1194 9.56852 11.1194 10C11.1194 10.4315 11.4692 10.7812 11.9006 10.7812H15.7027C16.1342 10.7812 16.484 10.4315 16.484 10C16.484 9.56852 16.1342 9.21875 15.7027 9.21875Z" fill="white"/>
<path d="M23.6592 22.9688H14.7278C14.2963 22.9688 13.9465 23.3185 13.9465 23.75C13.9465 24.1815 14.2963 24.5312 14.7278 24.5312H23.6591C24.0906 24.5312 24.4404 24.1815 24.4404 23.75C24.4404 23.3185 24.0907 22.9688 23.6592 22.9688Z" fill="white"/>
</svg>
