<svg width="40" height="40" viewBox="0 0 40 40" fill="none" xmlns="http://www.w3.org/2000/svg">
<g clip-path="url(#clip0)">
<path d="M11.5659 18.4939H14.922C15.2457 18.4939 15.5079 18.2316 15.5079 17.908C15.5079 17.5844 15.2457 17.322 14.922 17.322H11.5659C11.2422 17.322 10.98 17.5844 10.98 17.908C10.98 18.2316 11.2422 18.4939 11.5659 18.4939Z" fill="white"/>
<path d="M11.5659 21.3335H25.1964C25.5201 21.3335 25.7823 21.0712 25.7823 20.7476C25.7823 20.424 25.5201 20.1616 25.1964 20.1616H11.5659C11.2422 20.1616 10.98 20.424 10.98 20.7476C10.98 21.0712 11.2422 21.3335 11.5659 21.3335Z" fill="white"/>
<path d="M25.1962 23.0012H21.5625C21.2388 23.0012 20.9766 23.2636 20.9766 23.5872C20.9766 23.9108 21.2388 24.1731 21.5625 24.1731H25.1962C25.5199 24.1731 25.7822 23.9108 25.7822 23.5872C25.7822 23.2636 25.5198 23.0012 25.1962 23.0012Z" fill="white"/>
<path d="M38.3498 3.93389L30.7655 0.143496C30.3828 -0.047832 29.9259 -0.047832 29.5431 0.143496L21.9587 3.93389C21.9587 3.93389 21.9587 3.93389 21.9587 3.93389C21.4924 4.16693 21.2027 4.63553 21.2027 5.15686V6.24725H12.9689C12.6452 6.24725 12.383 6.50959 12.383 6.83318C12.383 7.15678 12.6452 7.41912 12.9689 7.41912H21.2028V9.20107C21.2028 10.0558 21.2669 10.8683 21.3951 11.6426H11.5659C11.2423 11.6426 10.98 11.905 10.98 12.2286C10.98 12.5522 11.2423 12.8145 11.5659 12.8145H21.6459C21.7995 13.3926 21.9937 13.9479 22.2283 14.4823H11.5659C11.2423 14.4823 10.98 14.7447 10.98 15.0683C10.98 15.3919 11.2423 15.6542 11.5659 15.6542H22.8273C23.0331 16.004 23.2585 16.3442 23.5041 16.6754C23.6659 16.8936 23.8368 17.1088 24.0177 17.322H17.2658C16.9421 17.322 16.6798 17.5844 16.6798 17.9079C16.6798 18.2315 16.9421 18.4939 17.2658 18.4939H25.1355C26.2402 19.5335 27.6364 20.557 29.4393 21.6603C29.6598 21.7952 29.9069 21.8626 30.1542 21.8626C30.4015 21.8626 30.6487 21.7952 30.8692 21.6603C30.9291 21.6237 30.9879 21.5872 31.0469 21.5508V35.78H15.7164V34.6875C15.7164 34.3639 15.4541 34.1015 15.1305 34.1015C14.8068 34.1015 14.5445 34.3639 14.5445 34.6875V38.6328C14.5445 38.7404 14.457 38.8281 14.3492 38.8281H2.26172C2.15398 38.8281 2.06641 38.7404 2.06641 38.6328V30.1932C2.06641 30.0855 2.15398 29.9979 2.26172 29.9979H14.3492C14.457 29.9979 14.5445 30.0855 14.5445 30.1932V31.9531C14.5445 32.2767 14.8068 32.539 15.1305 32.539C15.4541 32.539 15.7164 32.2767 15.7164 31.9531V30.1932C15.7164 30.0754 15.6998 29.9617 15.6717 29.8526H25.1964C25.5201 29.8526 25.7823 29.5903 25.7823 29.2667C25.7823 28.9431 25.5201 28.6808 25.1964 28.6808H13.8336V27.0129H25.1963C25.52 27.0129 25.7823 26.7506 25.7823 26.427C25.7823 26.1034 25.52 25.8411 25.1963 25.8411H13.8091C13.7549 25.254 13.6091 24.6932 13.3852 24.1733H19.4533C19.777 24.1733 20.0392 23.9109 20.0392 23.5873C20.0392 23.2637 19.777 23.0014 19.4533 23.0014H12.698C11.687 21.6793 10.0945 20.8243 8.30547 20.8243C7.36992 20.8243 6.48844 21.0587 5.71523 21.4706V7.41912H10.2345C10.5582 7.41912 10.8205 7.15678 10.8205 6.83318C10.8205 6.50959 10.5582 6.24725 10.2345 6.24725H5.51992C4.98141 6.24725 4.54336 6.68529 4.54336 7.22381V22.3069C3.45797 23.3169 2.77734 24.7564 2.77734 26.3524V28.8259H2.26172C1.50789 28.8259 0.894531 29.4393 0.894531 30.1931V38.6328C0.894531 39.3866 1.50789 40 2.26172 40H14.3492C15.103 40 15.7164 39.3866 15.7164 38.6328V36.9518H31.2423C31.7808 36.9518 32.2188 36.5137 32.2188 35.9752V20.798C34.3044 19.4023 35.7484 18.0995 36.8044 16.6754C38.3529 14.5872 39.1057 12.1422 39.1057 9.20115V5.15686C39.1058 4.63561 38.8161 4.16701 38.3498 3.93389ZM10.318 28.826H6.29297V26.3525C6.29297 25.2427 7.19586 24.3399 8.30555 24.3399C9.41523 24.3399 10.3181 25.2427 10.3181 26.3525V28.826H10.318ZM3.94922 26.3525C3.94922 23.9504 5.90352 21.9962 8.30555 21.9962C10.7076 21.9962 12.6618 23.9504 12.6618 26.3525V28.826H11.49V26.3525C11.49 24.5965 10.0615 23.168 8.30555 23.168C6.54961 23.168 5.12109 24.5965 5.12109 26.3525V28.826H3.94922V26.3525ZM37.9339 9.20115C37.9339 14.8321 34.9967 17.7607 30.2577 20.6607C30.1947 20.6992 30.1136 20.6991 30.0509 20.6607C25.3118 17.7606 22.3746 14.8321 22.3746 9.20115V5.15686C22.3746 5.08232 22.416 5.01537 22.4827 4.98209L30.067 1.19162C30.1216 1.16428 30.1868 1.16428 30.2416 1.19162L37.8258 4.98201C37.8924 5.01529 37.9338 5.08225 37.9338 5.15678V9.20115H37.9339Z" fill="white"/>
<path d="M30.1193 4.07251C26.8498 4.07251 24.1899 6.73243 24.1899 10.0019C24.1899 13.2713 26.8499 15.9313 30.1193 15.9313C32.6206 15.9313 34.8654 14.3484 35.7051 11.9926C35.8138 11.6878 35.6547 11.3526 35.3499 11.2439C35.0452 11.1352 34.7099 11.2943 34.6013 11.5991C33.9274 13.4893 32.1263 14.7593 30.1193 14.7593C27.496 14.7593 25.3618 12.6251 25.3618 10.0018C25.3618 7.37852 27.496 5.24431 30.1193 5.24431C32.429 5.24431 34.3983 6.89282 34.8017 9.16399C34.8584 9.48259 35.1627 9.69532 35.4811 9.63845C35.7997 9.58188 36.0121 9.27767 35.9556 8.95907C35.4526 6.12759 32.9981 4.07251 30.1193 4.07251Z" fill="white"/>
<path d="M32.1514 8.39861L29.8427 10.7073L28.5003 9.36479C28.2715 9.13596 27.9005 9.13588 27.6716 9.36479C27.4428 9.59361 27.4428 9.96463 27.6716 10.1934L29.4283 11.9502C29.5383 12.0601 29.6872 12.1218 29.8427 12.1218C29.9982 12.1218 30.1471 12.0601 30.2571 11.9502L32.9801 9.22721C33.2089 8.99838 33.2089 8.62736 32.9801 8.39861C32.7512 8.16986 32.3803 8.16986 32.1514 8.39861Z" fill="white"/>
</g>
<defs>
<clipPath id="clip0">
<rect width="40" height="40" fill="white"/>
</clipPath>
</defs>
</svg>
