<svg width="40" height="40" viewBox="0 0 40 40" fill="none" xmlns="http://www.w3.org/2000/svg">
<path d="M38.5156 36.4063H38.3594V17.3788L39.5881 13.1985C39.6028 13.1484 39.6103 13.0966 39.6103 13.0444V9.37504C39.6104 9.30314 39.5962 9.23193 39.5687 9.1655C39.5412 9.09907 39.5008 9.03872 39.4499 8.98792C39.399 8.93712 39.3386 8.89686 39.2721 8.86944C39.2056 8.84203 39.1344 8.82801 39.0625 8.82817H36.21C36.1382 8.82813 36.067 8.84225 36.0007 8.86971C35.9343 8.89718 35.874 8.93746 35.8232 8.98825C35.7724 9.03904 35.7321 9.09935 35.7047 9.16572C35.6772 9.23209 35.6631 9.30322 35.6631 9.37504V12.4975H32.6944V9.37504C32.6944 9.30322 32.6803 9.23209 32.6528 9.16572C32.6254 9.09935 32.5851 9.03904 32.5343 8.98825C32.4835 8.93746 32.4232 8.89718 32.3568 8.86971C32.2905 8.84225 32.2193 8.82813 32.1475 8.82817H29.2959C29.151 8.82834 29.0121 8.88604 28.9098 8.98859C28.8074 9.09114 28.7499 9.23014 28.75 9.37504V13.0444C28.7499 13.0966 28.7573 13.1485 28.7722 13.1985L30 17.3788V19.881H27.7813C27.6362 19.881 27.4971 19.9386 27.3946 20.0412C27.292 20.1437 27.2344 20.2828 27.2344 20.4279V23.7188H24.9844V13.6638L26.2059 10.0785C26.2291 10.0023 26.2365 9.92219 26.2279 9.84302C26.2192 9.76386 26.1947 9.68727 26.1556 9.61786L20.4688 0.26192C20.42 0.18166 20.3514 0.115308 20.2696 0.0692605C20.1878 0.0232131 20.0955 -0.000976563 20.0016 -0.000976562C19.9077 -0.000976563 19.8154 0.0232131 19.7335 0.0692605C19.6517 0.115308 19.5831 0.18166 19.5344 0.26192L13.8438 9.61786C13.8047 9.68727 13.7801 9.76386 13.7715 9.84302C13.7628 9.92219 13.7703 10.0023 13.7934 10.0785L15.0156 13.6638V23.7188H12.7656V20.4279C12.7656 20.2828 12.708 20.1437 12.6054 20.0412C12.5029 19.9386 12.3638 19.881 12.2188 19.881H10V17.3788L11.2288 13.1985C11.2431 13.1484 11.2503 13.0965 11.25 13.0444V9.37504C11.25 9.30322 11.2359 9.23209 11.2085 9.16572C11.181 9.09935 11.1407 9.03904 11.0899 8.98825C11.0391 8.93746 10.9788 8.89718 10.9125 8.86971C10.8461 8.84225 10.775 8.82813 10.7031 8.82817H7.85156C7.77974 8.82813 7.7086 8.84225 7.64224 8.86971C7.57587 8.89718 7.51556 8.93746 7.46477 8.98825C7.41398 9.03904 7.3737 9.09935 7.34623 9.16572C7.31876 9.23209 7.30465 9.30322 7.30469 9.37504V12.4975H4.33594V9.37504C4.33598 9.30322 4.32186 9.23209 4.29439 9.16572C4.26693 9.09935 4.22664 9.03904 4.17585 8.98825C4.12506 8.93746 4.06476 8.89718 3.99839 8.86971C3.93202 8.84225 3.86089 8.82813 3.78906 8.82817H0.937501C0.865594 8.82801 0.794362 8.84203 0.727885 8.86944C0.661408 8.89686 0.600994 8.93712 0.550104 8.98792C0.499215 9.03872 0.45885 9.09907 0.431323 9.1655C0.403796 9.23193 0.389648 9.30314 0.389689 9.37504V13.0444C0.389544 13.0966 0.397018 13.1485 0.411876 13.1985L1.64063 17.3788V36.4063H1.48438C1.09101 36.4068 0.713883 36.5632 0.435643 36.8413C0.157403 37.1193 0.000745503 37.4964 1.42972e-06 37.8897V39.4522C-0.000163035 39.5241 0.0138632 39.5954 0.0412765 39.6618C0.0686897 39.7283 0.108951 39.7887 0.159754 39.8396C0.210556 39.8905 0.270901 39.9309 0.337331 39.9584C0.403761 39.9859 0.474969 40.0001 0.546876 40H39.4531C39.525 40.0001 39.5961 39.986 39.6625 39.9585C39.7288 39.931 39.7891 39.8908 39.8399 39.84C39.8907 39.7892 39.931 39.7289 39.9585 39.6625C39.9859 39.5961 40 39.525 40 39.4532V37.8907C39.9995 37.4971 39.843 37.1199 39.5647 36.8416C39.2864 36.5633 38.9092 36.4068 38.5156 36.4063ZM23.8672 36.4063V31.1329C23.8665 30.5736 23.6441 30.0375 23.2486 29.642C22.8532 29.2466 22.3171 29.0241 21.7578 29.0235H18.2422C17.683 29.0241 17.1468 29.2466 16.7514 29.642C16.3559 30.0375 16.1335 30.5736 16.1328 31.1329V36.4063H10V27.4219H30V36.4063H23.8672ZM22.7734 36.4063H17.2266V31.1329C17.2269 30.8636 17.334 30.6055 17.5244 30.4151C17.7148 30.2247 17.9729 30.1176 18.2422 30.1172H21.7578C22.0271 30.1176 22.2852 30.2247 22.4756 30.4151C22.666 30.6055 22.7731 30.8636 22.7734 31.1329V36.4063ZM31.0938 20.4279V17.8472H37.2656V36.4063H31.0938V20.4279ZM29.8438 9.92192H31.6025V13.0444C31.6025 13.1162 31.6166 13.1874 31.644 13.2537C31.6715 13.3201 31.7118 13.3804 31.7626 13.4312C31.8134 13.482 31.8737 13.5223 31.94 13.5498C32.0064 13.5772 32.0775 13.5913 32.1494 13.5913H36.2119C36.2837 13.5913 36.3548 13.5772 36.4212 13.5498C36.4876 13.5223 36.5479 13.482 36.5987 13.4312C36.6495 13.3804 36.6897 13.3201 36.7172 13.2537C36.7447 13.1874 36.7588 13.1162 36.7588 13.0444V9.92192H38.5175V12.9657L37.4031 16.7535H30.9563L29.8438 12.9657V9.92192ZM18.3278 19.881H16.1091V14.1204H23.8903V19.881H21.6716C21.5997 19.8809 21.5286 19.8951 21.4622 19.9225C21.3959 19.95 21.3356 19.9903 21.2848 20.0411C21.234 20.0919 21.1937 20.1522 21.1662 20.2185C21.1388 20.2849 21.1246 20.356 21.1247 20.4279V23.7188H18.875V20.4279C18.875 20.356 18.8609 20.2848 18.8334 20.2185C18.8059 20.1521 18.7656 20.0917 18.7148 20.041C18.664 19.9902 18.6036 19.9499 18.5372 19.9224C18.4708 19.895 18.3997 19.8809 18.3278 19.881ZM24.0466 13.0266H15.9541L15.0756 10.4488H24.9244L24.0466 13.0266ZM20 1.59848L24.7159 9.35505H15.2841L20 1.59848ZM11.6719 20.9735V24.2641C11.6717 24.3361 11.6857 24.4073 11.7131 24.4739C11.7404 24.5404 11.7807 24.6009 11.8315 24.6518C11.8823 24.7028 11.9427 24.7432 12.0091 24.7708C12.0756 24.7983 12.1468 24.8125 12.2188 24.8125H15.5625C15.7075 24.8125 15.8466 24.7549 15.9492 24.6524C16.0518 24.5498 16.1094 24.4107 16.1094 24.2657V20.9747H17.7813V24.2641C17.7813 24.4091 17.839 24.5482 17.9415 24.6507C18.0441 24.7533 18.1831 24.8109 18.3281 24.811H21.6719C21.8169 24.8109 21.9559 24.7533 22.0585 24.6507C22.161 24.5482 22.2187 24.4091 22.2188 24.2641V20.9747H23.8906V24.2641C23.8904 24.3361 23.9044 24.4073 23.9318 24.4739C23.9592 24.5404 23.9994 24.6009 24.0503 24.6518C24.1011 24.7028 24.1614 24.7432 24.2279 24.7708C24.2943 24.7983 24.3656 24.8125 24.4375 24.8125H27.7813C27.9263 24.8125 28.0654 24.7549 28.168 24.6524C28.2705 24.5498 28.3281 24.4107 28.3281 24.2657V20.9747H30V26.3282H10V20.9747L11.6719 20.9735ZM1.48344 9.92192H3.24219V13.0444C3.24215 13.1162 3.25627 13.1874 3.28373 13.2537C3.3112 13.3201 3.35148 13.3804 3.40227 13.4312C3.45306 13.482 3.51337 13.5223 3.57974 13.5498C3.6461 13.5772 3.71724 13.5913 3.78906 13.5913H7.85156C7.92339 13.5913 7.99452 13.5772 8.06089 13.5498C8.12726 13.5223 8.18756 13.482 8.23835 13.4312C8.28914 13.3804 8.32943 13.3201 8.35689 13.2537C8.38436 13.1874 8.39848 13.1162 8.39844 13.0444V9.92192H10.1563V12.9657L9.04375 16.7535H2.59688L1.48344 12.9657V9.92192ZM2.73344 17.8472H8.90625V36.4063H2.73438L2.73344 17.8472ZM38.9063 38.9063H1.09375V37.8907C1.09383 37.7871 1.13502 37.6878 1.20825 37.6145C1.28149 37.5413 1.3808 37.5001 1.48438 37.5H38.5156C38.6192 37.5002 38.7184 37.5414 38.7917 37.6146C38.8649 37.6879 38.9061 37.7871 38.9063 37.8907V38.9063Z" fill="white"/>
<path d="M34.1797 19.2534C33.7344 19.2539 33.3074 19.431 32.9925 19.7459C32.6776 20.0608 32.5005 20.4878 32.5 20.9331V24.0015C32.5 24.0734 32.5141 24.1445 32.5415 24.2109C32.569 24.2772 32.6093 24.3375 32.6601 24.3883C32.7109 24.4391 32.7712 24.4794 32.8375 24.5069C32.9039 24.5343 32.975 24.5485 33.0469 24.5484H35.3125C35.3843 24.5485 35.4555 24.5343 35.5218 24.5069C35.5882 24.4794 35.6485 24.4391 35.6993 24.3883C35.7501 24.3375 35.7904 24.2772 35.8178 24.2109C35.8453 24.1445 35.8594 24.0734 35.8594 24.0015V20.9331C35.8589 20.4878 35.6818 20.0608 35.3669 19.7459C35.052 19.431 34.625 19.2539 34.1797 19.2534ZM34.7656 23.4547H33.5938V20.9331C33.5938 20.7777 33.6555 20.6287 33.7654 20.5188C33.8753 20.4089 34.0243 20.3472 34.1797 20.3472C34.3351 20.3472 34.4841 20.4089 34.594 20.5188C34.7039 20.6287 34.7656 20.7777 34.7656 20.9331V23.4547Z" fill="white"/>
<path d="M5.82031 19.2534C5.37499 19.2539 4.94804 19.431 4.63314 19.7459C4.31825 20.0608 4.14112 20.4878 4.14063 20.9331V24.0015C4.14058 24.0734 4.1547 24.1445 4.18217 24.2109C4.20964 24.2772 4.24992 24.3375 4.30071 24.3883C4.3515 24.4391 4.4118 24.4794 4.47817 24.5069C4.54454 24.5343 4.61567 24.5485 4.6875 24.5484H6.95313C7.02496 24.5485 7.09609 24.5343 7.16246 24.5069C7.22883 24.4794 7.28913 24.4391 7.33992 24.3883C7.39071 24.3375 7.43099 24.2772 7.45846 24.2109C7.48593 24.1445 7.50004 24.0734 7.5 24.0015V20.9331C7.49951 20.4878 7.32238 20.0608 7.00749 19.7459C6.69259 19.431 6.26564 19.2539 5.82031 19.2534ZM6.40625 23.4547H5.23438V20.9331C5.23438 20.7777 5.29611 20.6287 5.40599 20.5188C5.51588 20.4089 5.66491 20.3472 5.82031 20.3472C5.97571 20.3472 6.12475 20.4089 6.23464 20.5188C6.34452 20.6287 6.40625 20.7777 6.40625 20.9331V23.4547Z" fill="white"/>
</svg>
