<svg width="40" height="40" viewBox="0 0 40 40" fill="none" xmlns="http://www.w3.org/2000/svg">
<path d="M10 35H11.25V36.25H10V35Z" fill="white"/>
<path d="M10 23.75H11.25V25H10V23.75Z" fill="white"/>
<path d="M13.125 3.75H1.875C1.70924 3.75 1.55027 3.81585 1.43306 3.93306C1.31585 4.05027 1.25 4.20924 1.25 4.375V38.125C1.25 38.2908 1.31585 38.4497 1.43306 38.5669C1.55027 38.6842 1.70924 38.75 1.875 38.75H13.125C13.2908 38.75 13.4497 38.6842 13.5669 38.5669C13.6842 38.4497 13.75 38.2908 13.75 38.125V4.375C13.75 4.20924 13.6842 4.05027 13.5669 3.93306C13.4497 3.81585 13.2908 3.75 13.125 3.75ZM6.25 5H8.75V7.5H6.25V5ZM5 5V8.125C5 8.29076 5.06585 8.44973 5.18306 8.56694C5.30027 8.68415 5.45924 8.75 5.625 8.75H9.375C9.54076 8.75 9.69973 8.68415 9.81694 8.56694C9.93415 8.44973 10 8.29076 10 8.125V5H12.5V15H2.5V5H5ZM6.25 27.5H8.75V30H6.25V27.5ZM2.5 26.25V16.25H5V19.375C5 19.5408 5.06585 19.6997 5.18306 19.8169C5.30027 19.9342 5.45924 20 5.625 20H9.375C9.54076 20 9.69973 19.9342 9.81694 19.8169C9.93415 19.6997 10 19.5408 10 19.375V16.25H12.5V26.25H2.5ZM6.25 16.25H8.75V18.75H6.25V16.25ZM2.5 37.5V27.5H5V30.625C5 30.7908 5.06585 30.9497 5.18306 31.0669C5.30027 31.1842 5.45924 31.25 5.625 31.25H9.375C9.54076 31.25 9.69973 31.1842 9.81694 31.0669C9.93415 30.9497 10 30.7908 10 30.625V27.5H12.5V37.5H2.5Z" fill="white"/>
<path d="M10 12.5H11.25V13.75H10V12.5Z" fill="white"/>
<path d="M36.25 24.375H35.5708L35.0594 18.75H36.25C36.4158 18.75 36.5747 18.6842 36.6919 18.5669C36.8092 18.4497 36.875 18.2908 36.875 18.125V15.625C36.875 15.4712 36.8183 15.3228 36.7157 15.2082C36.6131 15.0936 36.4719 15.0208 36.319 15.0038L25.625 13.8156V9.375C25.625 9.20924 25.5592 9.05027 25.4419 8.93306C25.3247 8.81585 25.1658 8.75 25 8.75H15V10H24.375V25H15V26.25H18.75V33.75H15V35H24.4204C24.5705 36.0412 25.0908 36.9935 25.886 37.6823C26.6812 38.371 27.698 38.7502 28.75 38.7502C29.802 38.7502 30.8188 38.371 31.614 37.6823C32.4092 36.9935 32.9295 36.0412 33.0796 35H38.125C38.2908 35 38.4497 34.9342 38.5669 34.8169C38.6842 34.6997 38.75 34.5408 38.75 34.375V26.875C38.7493 26.2122 38.4856 25.5767 38.0169 25.1081C37.5483 24.6394 36.9128 24.3757 36.25 24.375ZM37.5 26.875V27.5H36.25V25.625C36.5814 25.6254 36.8991 25.7572 37.1334 25.9916C37.3678 26.2259 37.4996 26.5436 37.5 26.875ZM34.3156 24.375H29.375V18.75H33.8042L34.3156 24.375ZM20 26.25H25C25.1658 26.25 25.3247 26.1842 25.4419 26.0669C25.5592 25.9497 25.625 25.7908 25.625 25.625V15.0733L35.625 16.1844V17.5H28.75C28.5842 17.5 28.4253 17.5658 28.3081 17.6831C28.1908 17.8003 28.125 17.9592 28.125 18.125V27.5287C26.5251 27.677 25.0274 28.3801 23.8912 29.5162C22.7551 30.6524 22.052 32.1501 21.9037 33.75H20V26.25ZM28.75 30C27.6984 30.0014 26.6824 30.381 25.8875 31.0695C25.0926 31.7579 24.5719 32.7094 24.4204 33.75H23.1605C23.3141 32.375 23.9691 31.1049 25.0003 30.1825C26.0315 29.2601 27.3665 28.7502 28.75 28.7502C30.1335 28.7502 31.4685 29.2601 32.4997 30.1825C33.5309 31.1049 34.1859 32.375 34.3395 33.75H33.0796C32.9281 32.7094 32.4074 31.7579 31.6125 31.0695C30.8176 30.381 29.8016 30.0014 28.75 30ZM28.75 37.5C28.1319 37.5 27.5277 37.3167 27.0138 36.9733C26.4999 36.63 26.0994 36.1419 25.8629 35.5709C25.6264 34.9999 25.5645 34.3715 25.685 33.7653C25.8056 33.1592 26.1033 32.6023 26.5403 32.1653C26.9773 31.7283 27.5342 31.4306 28.1403 31.31C28.7465 31.1895 29.3749 31.2514 29.9459 31.4879C30.5169 31.7244 31.005 32.1249 31.3483 32.6388C31.6917 33.1527 31.875 33.7569 31.875 34.375C31.8741 35.2035 31.5445 35.9978 30.9587 36.5837C30.3728 37.1695 29.5785 37.4991 28.75 37.5ZM35.5963 33.75C35.448 32.1501 34.7449 30.6524 33.6088 29.5162C32.4726 28.3801 30.9749 27.677 29.375 27.5287V25.625H35V28.125C35 28.2908 35.0658 28.4497 35.1831 28.5669C35.3003 28.6842 35.4592 28.75 35.625 28.75H37.5V30H36.25V31.25H37.5V33.75H35.5963Z" fill="white"/>
<path d="M21.25 11.25H22.5V23.75H21.25V11.25Z" fill="white"/>
<path d="M18.75 11.25H20V23.75H18.75V11.25Z" fill="white"/>
<path d="M16.25 11.25H17.5V23.75H16.25V11.25Z" fill="white"/>
<path d="M28.75 32.5C28.3792 32.5 28.0167 32.61 27.7083 32.816C27.4 33.022 27.1596 33.3149 27.0177 33.6575C26.8758 34.0001 26.8387 34.3771 26.911 34.7408C26.9834 35.1045 27.162 35.4386 27.4242 35.7008C27.6864 35.9631 28.0205 36.1416 28.3842 36.214C28.7479 36.2863 29.1249 36.2492 29.4675 36.1073C29.8101 35.9654 30.103 35.725 30.309 35.4167C30.515 35.1084 30.625 34.7458 30.625 34.375C30.6244 33.8779 30.4267 33.4013 30.0752 33.0498C29.7237 32.6983 29.2471 32.5006 28.75 32.5ZM28.75 35C28.6264 35 28.5056 34.9633 28.4028 34.8947C28.3 34.826 28.2199 34.7284 28.1726 34.6142C28.1253 34.5 28.1129 34.3743 28.137 34.2531C28.1611 34.1318 28.2207 34.0205 28.3081 33.9331C28.3955 33.8457 28.5068 33.7861 28.6281 33.762C28.7493 33.7379 28.875 33.7503 28.9892 33.7976C29.1034 33.8449 29.201 33.925 29.2697 34.0278C29.3384 34.1306 29.375 34.2514 29.375 34.375C29.3748 34.5407 29.3089 34.6996 29.1917 34.8167C29.0746 34.9339 28.9157 34.9998 28.75 35Z" fill="white"/>
</svg>
