<svg width="40" height="40" viewBox="0 0 40 40" fill="none" xmlns="http://www.w3.org/2000/svg">
<g clip-path="url(#clip0)">
<path d="M39.9849 15.901C39.9809 15.8726 39.9749 15.8446 39.9669 15.817C39.9624 15.7956 39.9566 15.7744 39.9495 15.7536C39.9406 15.7357 39.9305 15.7184 39.9195 15.7017L39.9029 15.6723C39.8909 15.6495 39.8777 15.6272 39.8635 15.6057C39.8509 15.589 39.8362 15.5737 39.8222 15.5583C39.8016 15.5368 39.7793 15.517 39.7556 15.499C39.7347 15.4775 39.7125 15.4574 39.6889 15.439L38.6577 14.7944C38.6637 14.7532 38.6659 14.7114 38.6644 14.6698V9.33711V9.32444C38.6622 9.29895 38.6586 9.27353 38.6537 9.24845C38.6494 9.20829 38.6416 9.16863 38.6304 9.1298C38.6304 9.12314 38.6304 9.11647 38.6264 9.1098C38.6176 9.09122 38.6079 9.07323 38.597 9.05581C38.5812 9.0209 38.5627 8.98724 38.5417 8.95516C38.5248 8.93174 38.5063 8.90941 38.4864 8.8885C38.4626 8.86183 38.4367 8.83709 38.4091 8.81451C38.3851 8.79643 38.3599 8.78001 38.3337 8.76518C38.3157 8.75451 38.3011 8.74052 38.2824 8.73185C38.2687 8.72693 38.2546 8.72268 38.2404 8.71918C38.2119 8.70827 38.1828 8.69935 38.1531 8.69252C38.1183 8.68402 38.0828 8.67844 38.0471 8.67586C38.0311 8.67586 38.0158 8.66853 37.9998 8.66853H30.4654C29.371 2.89049 23.7999 -0.906375 18.0219 0.187907C13.7204 1.00256 10.3559 4.36706 9.54127 8.66853H2.0022C1.98686 8.66853 1.9722 8.67452 1.95687 8.67586C1.91979 8.67811 1.88296 8.68369 1.84688 8.69252C1.81797 8.69944 1.78947 8.70819 1.76156 8.71852C1.74823 8.72385 1.7329 8.72518 1.71956 8.73185C1.70623 8.73852 1.68623 8.75451 1.66824 8.76518C1.64207 8.78001 1.61691 8.79643 1.59291 8.81451C1.56525 8.83709 1.53934 8.86183 1.51559 8.8885C1.49567 8.90941 1.47718 8.93174 1.46026 8.95516C1.43926 8.98724 1.42077 9.0209 1.40494 9.05581C1.3941 9.07323 1.38435 9.09122 1.37561 9.1098C1.37561 9.11647 1.37561 9.12314 1.37161 9.1298C1.36036 9.16863 1.35261 9.20829 1.34828 9.24845C1.34269 9.27353 1.33844 9.29895 1.33561 9.32444V9.33711V14.6698C1.33569 14.7111 1.33944 14.7524 1.34694 14.7931L0.315736 15.4377C0.292156 15.4561 0.269909 15.4762 0.249078 15.4977C0.225331 15.5157 0.203083 15.5355 0.182419 15.557C0.168421 15.5723 0.153756 15.5877 0.141091 15.6043C0.126926 15.6259 0.113761 15.6482 0.101763 15.671L0.0850979 15.7003C0.0740993 15.7171 0.0640172 15.7344 0.0551016 15.7523C0.0480191 15.7731 0.0421865 15.7942 0.0377704 15.8156C0.0297714 15.8431 0.0237721 15.8712 0.0197726 15.8996C0.0119402 15.9292 0.00610762 15.9593 0.00244141 15.9896V16.003V39.3334C0.00244141 39.7015 0.300905 40 0.669026 40H39.3309C39.6991 40 39.9975 39.7015 39.9975 39.3334V16.003C39.9975 15.9983 39.9975 15.9943 39.9975 15.9896C39.9953 15.9599 39.991 15.9302 39.9849 15.901ZM36.1567 10.0037L33.5717 12.1574C33.2887 12.3929 33.2501 12.8132 33.4856 13.0961C33.531 13.1507 33.5848 13.1977 33.645 13.2353L37.0066 15.3364H30.6273C30.5171 13.4273 29.8902 11.5841 28.8136 10.0037H36.1567ZM37.3312 10.7603V13.9665L35.1315 12.5927L37.3312 10.7603ZM27.1484 10.0037C28.4135 11.5073 29.1654 13.3756 29.2942 15.3364H10.7058C10.8347 13.3756 11.5864 11.5073 12.8515 10.0037H27.1484ZM14.2427 8.67052C14.2974 8.6272 14.3453 8.57854 14.4013 8.53721C17.7194 6.0486 22.2819 6.0486 25.6 8.53721C25.656 8.5792 25.704 8.62786 25.7586 8.67052H14.2427ZM20 1.3381C24.3791 1.34643 28.1653 4.39422 29.1089 8.67052H27.723C27.3154 8.23491 26.8726 7.83363 26.3992 7.47067C22.6071 4.62661 17.3929 4.62661 13.6008 7.47067C13.1274 7.83379 12.6846 8.23508 12.2769 8.67052H10.8911C11.8347 4.39422 15.6209 1.34643 20 1.3381ZM11.1864 10.0037C10.1094 11.5839 9.48253 13.4273 9.37262 15.3364H2.99341L6.35499 13.2353C6.66729 13.0403 6.76236 12.6291 6.56747 12.3168C6.52989 12.2566 6.4829 12.2028 6.42832 12.1574L3.8433 10.0037H11.1864ZM2.66878 10.7603L4.86851 12.5927L2.66878 13.9665V10.7603ZM38.6644 38.6668H1.33561V16.6695H38.6644V38.6668Z" fill="white"/>
<path d="M12.6444 34.7527C16.3446 38.8156 22.6378 39.1095 26.7006 35.4092C26.9364 35.1944 27.1618 34.9685 27.3759 34.7321C27.4239 34.6924 27.466 34.6462 27.5012 34.5948C30.8692 30.7927 30.8284 25.0629 27.4065 21.3091L27.4052 21.3071C27.39 21.2877 27.3735 21.2695 27.3559 21.2524C23.6551 17.1902 17.3619 16.8971 13.2995 20.5979C13.0713 20.8058 12.8529 21.0242 12.645 21.2524C12.6236 21.2733 12.6036 21.2956 12.585 21.3191C9.13696 25.113 9.14071 30.9073 12.5937 34.6968C12.6095 34.7164 12.6264 34.7351 12.6444 34.7527ZM23.1917 36.0499C23.6621 35.3831 24.0443 34.6583 24.3289 33.8935L24.3296 33.8929C24.8358 34.0307 25.332 34.2028 25.8147 34.4081C25.0459 35.1083 24.1574 35.6644 23.1917 36.0499ZM26.778 33.3849C26.1237 33.0717 25.4429 32.8174 24.7435 32.625C25.0862 31.3326 25.2782 30.0047 25.3155 28.6682H28.6317C28.501 30.3908 27.8551 32.0342 26.778 33.3849ZM28.6317 27.335H25.3155C25.2782 25.9984 25.0862 24.6706 24.7435 23.3781C25.4429 23.1855 26.1236 22.9312 26.778 22.6182C27.8551 23.9689 28.501 25.6124 28.6317 27.335ZM24.3296 22.1103C24.0445 21.3451 23.6618 20.6199 23.1911 19.9526C24.1568 20.3381 25.0453 20.8942 25.8141 21.5944C25.3314 21.7996 24.8354 21.9719 24.3296 22.1103ZM20.6667 19.476C21.5473 19.8292 22.3998 20.8598 23.0264 22.4043C22.2463 22.5397 21.4579 22.6215 20.6667 22.6489V19.476ZM20.6667 23.9841C21.6031 23.9541 22.5357 23.8518 23.4564 23.6781C23.772 24.8728 23.9487 26.0998 23.983 27.335H20.6667V23.9841ZM20.6667 28.6682H23.983C23.9488 29.9033 23.7719 31.1305 23.4557 32.325C22.5351 32.1529 21.6028 32.051 20.6667 32.0204V28.6682ZM20.6667 33.3543C21.4579 33.3816 22.2463 33.4633 23.0264 33.5989C22.3998 35.1434 21.5473 36.1739 20.6667 36.5272V33.3543ZM14.1868 34.4088C14.6693 34.2036 15.1651 34.0313 15.6707 33.8929H15.6713C15.9565 34.6581 16.3392 35.3833 16.8098 36.0506C15.8441 35.6651 14.9557 35.109 14.1868 34.4088ZM19.3335 36.5272C18.453 36.1739 17.6004 35.1434 16.9738 33.5989C17.7539 33.4634 18.5423 33.3817 19.3335 33.3543V36.5272ZM19.3335 32.0204C18.3975 32.0512 17.4652 32.153 16.5445 32.325C16.2283 31.1305 16.0514 29.9033 16.0173 28.6682H19.3335V32.0204ZM19.3335 27.335H16.0173C16.0514 26.0998 16.2283 24.8726 16.5445 23.6781C17.4649 23.8519 18.3974 23.9542 19.3335 23.9841V27.335ZM19.3335 19.476V22.6489C18.5423 22.6216 17.7539 22.5398 16.9738 22.4043C17.6004 20.8598 18.453 19.8292 19.3335 19.476ZM16.8092 19.9526C16.3386 20.6196 15.9561 21.3446 15.6713 22.1096C15.1651 21.9718 14.6689 21.7997 14.1862 21.5944C14.955 20.8943 15.8435 20.3382 16.8092 19.9526ZM13.2223 22.6182C13.8765 22.9314 14.5574 23.1858 15.2567 23.3781C14.914 24.6706 14.722 25.9984 14.6848 27.335H11.3685C11.4993 25.6124 12.1452 23.9689 13.2223 22.6182ZM14.6848 28.6682C14.722 30.0047 14.914 31.3326 15.2567 32.625C14.5574 32.8176 13.8766 33.072 13.2223 33.3849C12.1453 32.0342 11.4993 30.3908 11.3685 28.6682H14.6848Z" fill="white"/>
</g>
<defs>
<clipPath id="clip0">
<rect width="40" height="40" fill="white"/>
</clipPath>
</defs>
</svg>
