<svg width="40" height="40" viewBox="0 0 40 40" fill="none" xmlns="http://www.w3.org/2000/svg">
<path d="M39.4141 38.3166H38.4066L36.0569 17.3662L36.4101 17.3645C36.7337 17.363 36.9948 17.0994 36.9933 16.7759C36.9917 16.4532 36.7298 16.1926 36.4074 16.1926H36.4046L35.3352 16.1976V14.0875H36.048C36.3717 14.0875 36.634 13.8252 36.634 13.5016C36.634 13.1779 36.3717 12.9156 36.048 12.9156H35.3352V12.1255H35.3449C35.6686 12.1255 35.9309 11.8632 35.9309 11.5395C35.9309 11.2158 35.6686 10.9536 35.3449 10.9536H35.3352V10.7765C35.3352 10.4528 35.0729 10.1905 34.7492 10.1905C34.4255 10.1905 34.1633 10.4528 34.1633 10.7765V10.9536H34.1535C33.8298 10.9536 33.5676 11.2158 33.5676 11.5395C33.5676 11.8632 33.8298 12.1255 34.1535 12.1255H34.1633V12.9156H33.4504C33.1267 12.9156 32.8645 13.1779 32.8645 13.5016C32.8645 13.8252 33.1267 14.0875 33.4504 14.0875H34.1633V16.2031L30.7189 16.2193V14.0875H31.4317C31.7554 14.0875 32.0177 13.8252 32.0177 13.5016C32.0177 13.1779 31.7554 12.9156 31.4317 12.9156H30.7189V12.1255H30.7286C31.0523 12.1255 31.3145 11.8632 31.3145 11.5395C31.3145 11.2158 31.0523 10.9536 30.7286 10.9536H30.7189V10.7765C30.7189 10.4528 30.4566 10.1905 30.133 10.1905C29.8093 10.1905 29.547 10.4528 29.547 10.7765V10.9536H29.5373C29.2136 10.9536 28.9513 11.2158 28.9513 11.5395C28.9513 11.8632 29.2136 12.1255 29.5373 12.1255H29.547V12.9156H28.8341C28.5105 12.9156 28.2482 13.1779 28.2482 13.5016C28.2482 13.8252 28.5105 14.0875 28.8341 14.0875H29.547V16.2248L28.472 16.2298C28.1484 16.2313 27.8873 16.4948 27.8888 16.8184C27.8904 17.1411 28.1523 17.4016 28.4747 17.4016H28.4775L28.8213 17.4L28.4629 20.5959C27.8754 20.3807 27.0343 20.2627 26.0825 20.7085C25.2182 21.1134 24.843 21.8726 24.5691 22.4271C24.4832 22.6009 24.4138 22.7342 24.3537 22.8359V8.16093C24.3537 7.83726 24.0914 7.57499 23.7677 7.57499H21.6599V1.09741C21.6599 0.77374 21.3977 0.511475 21.074 0.511475H18.4608C18.1371 0.511475 17.8748 0.77374 17.8748 1.09741C17.8748 1.42108 18.1371 1.68335 18.4608 1.68335H20.488V7.57499H5.71008V1.68335H16.118C16.4416 1.68335 16.7039 1.42108 16.7039 1.09741C16.7039 0.77374 16.4416 0.511475 16.118 0.511475H5.12414C4.80047 0.511475 4.5382 0.77374 4.5382 1.09741V7.57499H2.43039C2.10672 7.57499 1.84445 7.83726 1.84445 8.16093V25.5915H1.37461C0.887187 25.5915 0.490703 25.988 0.490703 26.4755V27.9415C0.490703 28.4289 0.887187 28.8255 1.37461 28.8255H1.84445V38.3165H0.585938C0.262266 38.3165 0 38.5787 0 38.9024C0 39.2261 0.262266 39.4883 0.585938 39.4883H39.4141C39.7377 39.4883 40 39.2261 40 38.9024C40 38.5787 39.7377 38.3166 39.4141 38.3166ZM27.6546 38.3166L28.2116 33.3509L35.8559 35.839L30.4384 38.3166H27.6546ZM29.5312 21.584C29.5313 21.5833 29.5314 21.5826 29.5315 21.5819L29.6154 20.8338L34.6268 23.1016L29.1047 25.3867L29.5312 21.584ZM36.8475 34.9293L29.6052 32.5721L36.3205 30.23L36.8475 34.9293ZM36.132 28.5503L30.068 26.2563L35.6172 23.9599L36.132 28.5503ZM28.9156 27.0733L35.1023 29.4137L28.3906 31.7546L28.9156 27.0733ZM37.0336 36.589L37.2273 38.3166H33.2559L37.0336 36.589ZM35.4168 22.1727L30.3819 19.8943L34.5269 17.3734L34.8784 17.3717L35.4168 22.1727ZM32.2541 17.384L29.8375 18.8537L30.0012 17.3945L32.2541 17.384ZM3.01625 8.74687H23.1817V25.5915H3.01625V8.74687ZM1.6625 26.7634H24.5355V27.6537H1.6625V26.7634ZM8.88406 33.9363H12.513V38.3166H8.88406V33.9363ZM13.6849 38.3166V33.9364H17.314V38.3166H13.6849ZM18.4859 38.3166V33.9364H18.5565C18.8802 33.9364 19.1424 33.6741 19.1424 33.3505C19.1424 33.0268 18.8802 32.7645 18.5565 32.7645H7.64148C7.31781 32.7645 7.05555 33.0268 7.05555 33.3505C7.05555 33.6741 7.31781 33.9364 7.64148 33.9364H7.71219V38.3166H3.01625V28.8255H23.1817V32.1791C23.1817 32.5027 23.444 32.765 23.7677 32.765C24.0913 32.765 24.3536 32.5027 24.3536 32.1791V28.8255H24.8234C25.3108 28.8255 25.7073 28.429 25.7073 27.9416V26.4755C25.7073 25.9881 25.3108 25.5916 24.8234 25.5916H24.3536V24.2687C25.0491 24.0997 25.3705 23.4505 25.6196 22.9464C25.8599 22.4601 26.0869 22.0008 26.5795 21.7699C27.3407 21.4132 27.9888 21.6345 28.3263 21.8131L26.4754 38.3166H24.3536V34.5218C24.3536 34.1981 24.0913 33.9358 23.7677 33.9358C23.444 33.9358 23.1817 34.1981 23.1817 34.5218V38.3166H18.4859Z" fill="white"/>
<path d="M7.8042 6.84178C7.9067 6.91381 8.0242 6.94842 8.14069 6.94842C8.32498 6.94834 8.50655 6.86162 8.62061 6.69935L10.0828 4.61943C10.2085 4.44053 10.2243 4.20647 10.1235 4.01233C10.0226 3.81826 9.82217 3.69647 9.6035 3.69647H8.95006L9.28342 3.24272C9.47498 2.98194 9.41889 2.61522 9.15811 2.42365C8.89733 2.23194 8.53061 2.28811 8.33905 2.54897L7.3203 3.93553C7.18952 4.1135 7.16991 4.34998 7.26975 4.54701C7.36944 4.74412 7.57163 4.86834 7.79248 4.86834H8.47537L7.66202 6.02537C7.47569 6.29014 7.53944 6.65568 7.8042 6.84178Z" fill="white"/>
<path d="M17.9218 2.81299H12.0117C11.688 2.81299 11.4258 3.07525 11.4258 3.39893C11.4258 3.7226 11.688 3.98486 12.0117 3.98486H17.9218C18.2455 3.98486 18.5077 3.7226 18.5077 3.39893C18.5077 3.07525 18.2455 2.81299 17.9218 2.81299Z" fill="white"/>
<path d="M17.9218 5.27344H12.0117C11.688 5.27344 11.4258 5.5357 11.4258 5.85938C11.4258 6.18305 11.688 6.44531 12.0117 6.44531H17.9218C18.2455 6.44531 18.5077 6.18305 18.5077 5.85938C18.5077 5.5357 18.2455 5.27344 17.9218 5.27344Z" fill="white"/>
<path d="M8.10346 18.1868H5.65822C5.22768 18.1868 4.87744 18.537 4.87744 18.9675V23.5106C4.87744 23.9412 5.22768 24.2914 5.65822 24.2914H8.10346C8.534 24.2914 8.88424 23.9412 8.88424 23.5106V18.9675C8.88424 18.5371 8.53393 18.1868 8.10346 18.1868ZM7.71236 23.1196H6.04932V19.3586H7.71236V23.1196Z" fill="white"/>
<path d="M20.54 18.1868H18.0947C17.6642 18.1868 17.314 18.537 17.314 18.9675V23.5106C17.314 23.9412 17.6642 24.2914 18.0947 24.2914H20.54C20.9704 24.2914 21.3207 23.9412 21.3207 23.5106V18.9675C21.3207 18.5371 20.9704 18.1868 20.54 18.1868ZM20.1488 23.1196H18.4858V19.3586H20.1488V23.1196Z" fill="white"/>
<path d="M8.10346 10.0469H5.65822C5.22768 10.0469 4.87744 10.3971 4.87744 10.8277V15.3708C4.87744 15.8013 5.22768 16.1515 5.65822 16.1515H8.10346C8.534 16.1515 8.88424 15.8013 8.88424 15.3708V10.8277C8.88424 10.3971 8.53393 10.0469 8.10346 10.0469ZM7.71236 14.9797H6.04932V11.2188H7.71236V14.9797Z" fill="white"/>
<path d="M14.3218 10.0469H11.8765C11.4459 10.0469 11.0957 10.3971 11.0957 10.8277V15.3708C11.0957 15.8013 11.4459 16.1515 11.8765 16.1515H14.3218C14.7523 16.1515 15.1025 15.8013 15.1025 15.3708V10.8277C15.1026 10.3971 14.7523 10.0469 14.3218 10.0469ZM13.9307 14.9797H12.2677V11.2188H13.9307V14.9797Z" fill="white"/>
<path d="M20.54 10.0469H18.0947C17.6642 10.0469 17.314 10.3971 17.314 10.8277V15.3708C17.314 15.8013 17.6642 16.1515 18.0947 16.1515H20.54C20.9704 16.1515 21.3207 15.8013 21.3207 15.3708V10.8277C21.3207 10.3971 20.9704 10.0469 20.54 10.0469ZM20.1488 14.9797H18.4858V11.2188H20.1488V14.9797Z" fill="white"/>
<path d="M14.3217 18.1868H11.8764C11.4459 18.1868 11.0957 18.537 11.0957 18.9675V20.3913C11.0957 20.715 11.358 20.9772 11.6816 20.9772C12.0053 20.9772 12.2676 20.715 12.2676 20.3913V19.3586H13.9305V23.1196H12.2676V22.734C12.2676 22.4104 12.0053 22.1481 11.6816 22.1481C11.358 22.1481 11.0957 22.4104 11.0957 22.734V23.5106C11.0957 23.9412 11.4459 24.2914 11.8764 24.2914H14.3217C14.7522 24.2914 15.1024 23.9412 15.1024 23.5106V18.9675C15.1025 18.5371 14.7522 18.1868 14.3217 18.1868Z" fill="white"/>
</svg>
