<svg width="41" height="40" viewBox="0 0 41 40" fill="none" xmlns="http://www.w3.org/2000/svg">
<path d="M20.0307 36.8752C19.8138 36.8752 19.5988 36.8714 19.3838 36.8633L19.4275 35.6133C19.8282 35.6277 20.2332 35.6277 20.6338 35.6133L20.6775 36.8633C20.4625 36.8714 20.2475 36.8752 20.0307 36.8752Z" fill="white"/>
<path d="M36.1027 16.9672C36.0402 16.5672 35.9671 16.1622 35.8765 15.7641L37.0958 15.4866C37.1927 15.9159 37.2752 16.3522 37.339 16.7834L36.1027 16.9672Z" fill="white"/>
<path d="M35.5525 14.5624C34.6167 11.5434 32.8208 8.86286 30.3847 6.84903C27.9486 4.8352 24.9781 3.57553 21.8369 3.2243L21.9744 1.98242C25.3567 2.36005 28.5556 3.71574 31.1792 5.88349C33.8029 8.05125 35.7375 10.937 36.7463 14.1874L35.5525 14.5624Z" fill="white"/>
<path d="M18.8261 3.16957L18.7349 1.9227C19.3812 1.87528 20.0297 1.86339 20.6773 1.88707L20.6336 3.13707C20.031 3.11516 19.4276 3.12601 18.8261 3.16957Z" fill="white"/>
<path d="M4.18451 15.7632L2.96826 15.4857C3.76429 12.0595 5.56807 8.95011 8.14716 6.55827C10.7263 4.16643 13.9625 2.60169 17.4389 2.06567L17.6226 3.30255C14.3945 3.80007 11.3893 5.25285 8.9942 7.4737C6.59913 9.69455 4.92396 12.5817 4.18451 15.7632Z" fill="white"/>
<path d="M3.82486 18.1715L2.57861 18.079C2.61049 17.6415 2.65924 17.2077 2.72299 16.7827L3.95924 16.9702C3.89986 17.3621 3.85486 17.7671 3.82486 18.1715Z" fill="white"/>
<path d="M18.0866 36.7684C17.6541 36.7203 17.2184 36.6547 16.7891 36.5747L17.0216 35.3459C17.4184 35.4209 17.8234 35.4816 18.2241 35.5253L18.0866 36.7684Z" fill="white"/>
<path d="M10.9007 31.2778C8.28038 29.2671 6.39669 26.4481 5.54172 23.2578C4.68675 20.0676 4.90827 16.6844 6.17192 13.6328L7.32692 14.1122C6.16843 16.9092 5.9652 20.0103 6.74876 22.9346C7.53232 25.8589 9.25888 28.4429 11.6607 30.2859L10.9007 31.2778Z" fill="white"/>
<path d="M20.0308 34.3666C17.3986 34.3693 14.8121 33.6795 12.5308 32.3666L13.1558 31.2834C14.8061 32.2319 16.6348 32.8285 18.527 33.0358C20.4191 33.2431 22.3336 33.0565 24.1501 32.4878L24.5251 33.6803C23.0705 34.1358 21.555 34.3672 20.0308 34.3666Z" fill="white"/>
<path d="M25.769 33.2284L25.2915 32.0728C26.0305 31.7679 26.7415 31.3992 27.4165 30.9709L28.0871 32.0266C27.3504 32.4931 26.5748 32.8952 25.769 33.2284Z" fill="white"/>
<path d="M29.1603 31.277L28.4015 30.2839C29.8362 29.1869 31.0387 27.8158 31.939 26.2502C33.6008 23.3592 34.158 19.9638 33.5074 16.6934C32.8568 13.423 31.0425 10.4994 28.4009 8.46453L29.1609 7.47266C32.0429 9.69233 34.0223 12.8817 34.7322 16.4494C35.4421 20.0172 34.8343 23.7213 33.0215 26.8752C32.0388 28.5838 30.7263 30.0801 29.1603 31.277Z" fill="white"/>
<path d="M9.12092 11.0047L8.12842 10.2453C10.3483 7.3635 13.5376 5.38424 17.1053 4.67436C20.673 3.96448 24.377 4.57212 27.5309 6.38465L26.9059 7.46778C24.0153 5.8058 20.62 5.24832 17.3497 5.89869C14.0794 6.54905 11.1558 8.36315 9.12092 11.0047Z" fill="white"/>
<path d="M7.83393 13.0259L6.72705 12.4459C6.82705 12.254 6.93143 12.0646 7.03955 11.8759C7.14768 11.6871 7.26143 11.5009 7.37705 11.3184L8.43268 11.9877C8.32559 12.1544 8.22143 12.3254 8.12018 12.5009C8.02268 12.6734 7.92705 12.8496 7.83393 13.0259Z" fill="white"/>
<path d="M7.54764 20.0333C7.53639 19.8158 7.53076 19.5958 7.53076 19.3752C7.53076 19.1545 7.53639 18.9377 7.54764 18.717L8.79764 18.7833C8.78764 18.9795 8.78201 19.1764 8.78201 19.3752C8.78201 19.5739 8.78764 19.7708 8.79764 19.967L7.54764 20.0333Z" fill="white"/>
<path d="M20.0309 31.8752C17.0628 31.8562 14.1968 30.7896 11.9383 28.8637C9.67989 26.9378 8.17408 24.2762 7.68652 21.3484L8.9209 21.1521C9.34192 23.7958 10.6919 26.2027 12.7282 27.9405C14.7646 29.6782 17.3539 30.6328 20.0309 30.6328C22.7079 30.6328 25.2972 29.6782 27.3336 27.9405C29.3699 26.2027 30.7199 23.7958 31.1409 21.1521L32.3753 21.3484C31.8877 24.2762 30.3819 26.9378 28.1235 28.8637C25.865 30.7896 22.999 31.8562 20.0309 31.8752Z" fill="white"/>
<path d="M32.5308 19.3752H31.2808C31.2821 17.283 30.6975 15.2322 29.5933 13.4552L30.6558 12.7952C31.8829 14.7704 32.5324 17.0498 32.5308 19.3752Z" fill="white"/>
<path d="M28.7469 12.2708C28.4316 11.8846 28.091 11.5197 27.7275 11.1783L28.5838 10.2671C28.9868 10.6463 29.3647 11.0513 29.715 11.4796L28.7469 12.2708Z" fill="white"/>
<path d="M26.5434 10.2069C24.9268 9.05587 23.0342 8.35367 21.0581 8.17176C19.082 7.98985 17.0929 8.33471 15.2934 9.17126L14.7646 8.03813C16.7642 7.10896 18.9742 6.72594 21.1698 6.92805C23.3654 7.13015 25.4683 7.91017 27.2647 9.18876L26.5434 10.2069Z" fill="white"/>
<path d="M8.9209 17.5981L7.68652 17.4019C7.97061 15.6306 8.63249 13.9412 9.62722 12.4484C10.6219 10.9555 11.9262 9.6942 13.4515 8.75L14.1103 9.8125C12.7376 10.6622 11.5637 11.7972 10.6683 13.1406C9.77292 14.4839 9.17697 16.0042 8.9209 17.5981Z" fill="white"/>
<path d="M20.6142 10.6446C20.2255 10.619 19.8355 10.619 19.4468 10.6446L19.3643 9.39776C19.8079 9.36839 20.2531 9.36839 20.6967 9.39776L20.6142 10.6446Z" fill="white"/>
<path d="M19.3642 29.3534C16.9476 29.1937 14.6711 28.1623 12.9575 26.4509C11.2439 24.7395 10.2096 22.4644 10.0466 20.0481C9.88365 17.6317 10.6031 15.2383 12.0715 13.3123C13.5398 11.3864 15.6572 10.0587 18.0305 9.57593L18.2805 10.8009C16.2041 11.2236 14.3517 12.3854 13.0671 14.0705C11.7826 15.7556 11.1531 17.8496 11.2957 19.9638C11.4383 22.0779 12.3431 24.0684 13.8423 25.5659C15.3414 27.0633 17.3331 27.9658 19.4473 28.1059L19.3642 29.3534Z" fill="white"/>
<path d="M20.6968 29.3533L20.6143 28.1033C22.4245 27.9822 24.1525 27.3018 25.5594 26.1562C26.9662 25.0107 27.9826 23.4564 28.468 21.7083L29.673 22.042C29.1184 24.0403 27.9568 25.817 26.3489 27.1267C24.7409 28.4364 22.7659 29.2144 20.6968 29.3533Z" fill="white"/>
<path d="M29.9419 20.7081L28.7031 20.5419C28.7547 20.1551 28.7806 19.7652 28.7806 19.375H30.0306C30.0306 19.8209 30.001 20.2662 29.9419 20.7081Z" fill="white"/>
<path d="M28.7033 18.2084C28.4612 16.4078 27.6647 14.7273 26.4242 13.3999C25.1837 12.0725 23.5609 11.1642 21.7808 10.8009L22.0308 9.57593C24.0652 9.99113 25.9199 11.0293 27.3376 12.5464C28.7552 14.0635 29.6655 15.9843 29.942 18.0422L28.7033 18.2084Z" fill="white"/>
<path d="M25.7053 16.7552C25.6266 16.5845 25.5385 16.4158 25.4428 16.2495C25.3472 16.0833 25.246 15.9245 25.1372 15.7708L26.1591 15.0508C26.2883 15.2345 26.4105 15.4258 26.526 15.6245C26.6414 15.8233 26.7455 16.0254 26.8385 16.2308L25.7053 16.7552Z" fill="white"/>
<path d="M12.7583 21.2116C12.3578 19.6284 12.4851 17.9578 13.1207 16.4535C13.7563 14.9492 14.8655 13.6935 16.2798 12.8771C17.6941 12.0607 19.3362 11.7282 20.9567 11.9301C22.5772 12.1321 24.0876 12.8574 25.2583 13.996L24.387 14.8922C23.4116 13.9423 22.1526 13.3369 20.8016 13.168C19.4506 12.9992 18.0813 13.2761 16.9021 13.9568C15.7229 14.6374 14.7982 15.6845 14.2687 16.9389C13.7391 18.1932 13.6336 19.5862 13.9683 20.9059L12.7583 21.2116Z" fill="white"/>
<path d="M13.9059 23.6997C13.7764 23.516 13.6541 23.3247 13.5391 23.126C13.4241 22.9272 13.3199 22.7251 13.2266 22.5197L14.3622 21.9954C14.4409 22.1662 14.5284 22.3347 14.6247 22.501C14.7209 22.6672 14.8228 22.8268 14.9303 22.9797L13.9059 23.6997Z" fill="white"/>
<path d="M20.0422 26.8684C18.0879 26.872 16.2091 26.1138 14.8047 24.7547L15.6747 23.8584C16.6501 24.8084 17.9091 25.4138 19.2601 25.5826C20.6111 25.7515 21.9804 25.4745 23.1596 24.7939C24.3388 24.1132 25.2635 23.0661 25.793 21.8118C26.3226 20.5574 26.4281 19.1645 26.0934 17.8447L27.3059 17.5391C27.5867 18.6447 27.611 19.7998 27.3772 20.9163C27.1434 22.0327 26.6575 23.081 25.9568 23.9811C25.256 24.8811 24.3588 25.6091 23.3338 26.1095C22.3087 26.61 21.1829 26.8695 20.0422 26.8684Z" fill="white"/>
<path d="M16.5477 17.9839L15.3877 17.5182C15.4769 17.297 15.5811 17.0821 15.6996 16.8751C15.8198 16.6683 15.9543 16.4701 16.1021 16.282L17.0846 17.0539C16.9726 17.195 16.8711 17.3442 16.7808 17.5001C16.6918 17.6556 16.6139 17.8173 16.5477 17.9839Z" fill="white"/>
<path d="M20.0189 24.3752C19.145 24.3748 18.2867 24.1437 17.5308 23.7052C16.714 23.2295 16.0477 22.5333 15.6084 21.6964C15.1691 20.8595 14.9746 19.9157 15.047 18.9733L16.297 19.072C16.2415 19.7791 16.3865 20.4875 16.7152 21.116C17.044 21.7445 17.5433 22.2675 18.1558 22.6252C19.0177 23.1224 20.0419 23.2569 21.0031 22.9991C21.9642 22.7412 22.7835 22.1121 23.2808 21.2501C23.7781 20.3882 23.9126 19.364 23.6547 18.4029C23.3969 17.4417 22.7677 16.6224 21.9058 16.1251C21.2902 15.773 20.588 15.6015 19.8794 15.6301C19.1708 15.6587 18.4847 15.8864 17.8995 16.287L17.1914 15.2576C17.9715 14.7241 18.8862 14.4212 19.8305 14.3836C20.7749 14.346 21.7107 14.5753 22.5308 15.0451C23.3865 15.5399 24.0763 16.2772 24.5132 17.1638C24.95 18.0505 25.1143 19.0467 24.9852 20.0266C24.8561 21.0066 24.4395 21.9263 23.7879 22.6696C23.1364 23.4129 22.2792 23.9464 21.3245 24.2027C20.8987 24.317 20.4598 24.375 20.0189 24.3752Z" fill="white"/>
<path d="M38.7807 38.7101L37.5307 19.3351C37.5307 18.9145 37.515 18.492 37.4844 18.0789L36.2382 18.1714C36.2675 18.567 36.2819 18.972 36.2819 19.3751C36.2872 23.3739 34.8157 27.2339 32.1499 30.2145C29.4841 33.1951 25.8116 35.0865 21.8369 35.5257L21.9744 36.7676C25.2962 36.4012 28.4432 35.0897 31.0421 32.9886C33.641 30.8876 35.5827 28.0852 36.6369 24.9139L37.5307 38.7901L38.7807 38.7101Z" fill="white"/>
<path d="M3.78076 19.375H3.15576L2.53076 19.335L1.28076 38.71L2.53076 38.79L3.42701 24.875C4.33949 27.6247 5.91917 30.1055 8.0248 32.0956C10.1304 34.0856 12.6964 35.5228 15.4933 36.2787L15.8183 35.0712C12.3667 34.1398 9.31766 32.098 7.14205 29.2611C4.96644 26.4242 3.78522 22.95 3.78076 19.375Z" fill="white"/>
<path d="M20.0308 21.875C19.3677 21.875 18.7318 21.6116 18.263 21.1428C17.7942 20.6739 17.5308 20.038 17.5308 19.375C17.5308 18.712 17.7942 18.0761 18.263 17.6072C18.7318 17.1384 19.3677 16.875 20.0308 16.875V18.125C19.7654 18.1251 19.507 18.2096 19.2929 18.3663C19.0787 18.523 18.92 18.7437 18.8397 18.9966C18.7594 19.2495 18.7616 19.5214 18.8461 19.773C18.9306 20.0245 19.0929 20.2426 19.3096 20.3958C19.5263 20.5489 19.7861 20.6291 20.0514 20.6248C20.3167 20.6205 20.5737 20.5319 20.7853 20.3718C20.9969 20.2117 21.1521 19.9884 21.2283 19.7342C21.3046 19.4801 21.298 19.2083 21.2095 18.9581L22.3882 18.5419C22.5215 18.919 22.5624 19.3226 22.5074 19.7187C22.4524 20.1149 22.3032 20.4921 22.0722 20.8186C21.8413 21.1452 21.5353 21.4115 21.1801 21.5953C20.8249 21.7792 20.4307 21.8751 20.0308 21.875Z" fill="white"/>
</svg>
