<svg width="40" height="40" viewBox="0 0 40 40" fill="none" xmlns="http://www.w3.org/2000/svg">
<path d="M37.5001 18.1251C37.1125 18.1256 36.7346 18.246 36.4182 18.4698C36.1018 18.6936 35.8624 19.0098 35.7329 19.3751H28.7274C28.6423 18.19 28.3166 17.0347 27.77 15.9797C27.2234 14.9247 26.4676 13.9922 25.5485 13.2392L28.1587 9.06259H31.0454C31.1928 9.4796 31.4829 9.83106 31.8645 10.0549C32.246 10.2787 32.6943 10.3604 33.1302 10.2856C33.5662 10.2108 33.9616 9.9843 34.2467 9.64613C34.5318 9.30796 34.6882 8.8799 34.6882 8.43759C34.6882 7.99529 34.5318 7.56722 34.2467 7.22905C33.9616 6.89089 33.5662 6.66439 33.1302 6.58959C32.6943 6.5148 32.246 6.59652 31.8645 6.82032C31.4829 7.04412 31.1928 7.39558 31.0454 7.81259H27.8126C27.7066 7.81255 27.6024 7.83949 27.5097 7.89089C27.417 7.94228 27.339 8.01643 27.2829 8.10634L24.5274 12.5149C23.3442 11.7958 22.0063 11.3699 20.6251 11.2727V4.26728C21.0421 4.11984 21.3936 3.82974 21.6174 3.44823C21.8412 3.06672 21.9229 2.61838 21.8481 2.18245C21.7733 1.74651 21.5468 1.35105 21.2086 1.06596C20.8705 0.780874 20.4424 0.624512 20.0001 0.624512C19.5578 0.624512 19.1297 0.780874 18.7916 1.06596C18.4534 1.35105 18.2269 1.74651 18.1521 2.18245C18.0773 2.61838 18.159 3.06672 18.3828 3.44823C18.6066 3.82974 18.9581 4.11984 19.3751 4.26728V11.2727C18.1172 11.3633 16.8938 11.7248 15.7888 12.3324C14.6837 12.9401 13.7231 13.7795 12.9727 14.7931L8.75009 12.154V9.26728C9.1671 9.11984 9.51856 8.82974 9.74236 8.44823C9.96616 8.06672 10.0479 7.61838 9.97309 7.18245C9.89829 6.74651 9.6718 6.35105 9.33363 6.06596C8.99546 5.78087 8.5674 5.62451 8.12509 5.62451C7.68279 5.62451 7.25472 5.78087 6.91655 6.06596C6.57839 6.35105 6.35189 6.74651 6.27709 7.18245C6.2023 7.61838 6.28402 8.06672 6.50782 8.44823C6.73162 8.82974 7.08308 9.11984 7.50009 9.26728V12.5001C7.50005 12.6061 7.52699 12.7103 7.57839 12.803C7.62978 12.8956 7.70393 12.9737 7.79384 13.0298L12.3001 15.847C11.7099 16.9362 11.3596 18.1392 11.2727 19.3751H4.26728C4.11984 18.9581 3.82974 18.6066 3.44823 18.3828C3.06672 18.159 2.61838 18.0773 2.18245 18.1521C1.74651 18.2269 1.35105 18.4534 1.06596 18.7916C0.780874 19.1297 0.624512 19.5578 0.624512 20.0001C0.624512 20.4424 0.780874 20.8705 1.06596 21.2086C1.35105 21.5468 1.74651 21.7733 2.18245 21.8481C2.61838 21.9229 3.06672 21.8412 3.44823 21.6174C3.82974 21.3936 4.11984 21.0421 4.26728 20.6251H11.2727C11.3619 21.8662 11.715 23.0739 12.3083 24.1676C12.9017 25.2613 13.7216 26.2158 14.7134 26.9673L11.8415 31.5626H8.95478C8.80734 31.1456 8.51724 30.7941 8.13573 30.5703C7.75422 30.3465 7.30588 30.2648 6.86995 30.3396C6.43401 30.4144 6.03855 30.6409 5.75346 30.9791C5.46837 31.3172 5.31201 31.7453 5.31201 32.1876C5.31201 32.6299 5.46837 33.058 5.75346 33.3961C6.03855 33.7343 6.43401 33.9608 6.86995 34.0356C7.30588 34.1104 7.75422 34.0287 8.13573 33.8049C8.51724 33.5811 8.80734 33.2296 8.95478 32.8126H12.1876C12.2936 32.8126 12.3978 32.7857 12.4905 32.7343C12.5831 32.6829 12.6612 32.6088 12.7173 32.5188L15.7595 27.6517C16.8713 28.2709 18.1056 28.6382 19.3751 28.7274V35.7329C18.9581 35.8803 18.6066 36.1704 18.3828 36.552C18.159 36.9335 18.0773 37.3818 18.1521 37.8177C18.2269 38.2537 18.4534 38.6491 18.7916 38.9342C19.1297 39.2193 19.5578 39.3757 20.0001 39.3757C20.4424 39.3757 20.8705 39.2193 21.2086 38.9342C21.5468 38.6491 21.7733 38.2537 21.8481 37.8177C21.9229 37.3818 21.8412 36.9335 21.6174 36.552C21.3936 36.1704 21.0421 35.8803 20.6251 35.7329V28.7274C21.7933 28.6437 22.9328 28.3258 23.9757 27.7929C25.0187 27.2599 25.9438 26.5227 26.6962 25.6251L31.2501 28.4712V31.3579C30.8331 31.5053 30.4816 31.7954 30.2578 32.177C30.034 32.5585 29.9523 33.0068 30.0271 33.4427C30.1019 33.8787 30.3284 34.2741 30.6666 34.5592C31.0047 34.8443 31.4328 35.0007 31.8751 35.0007C32.3174 35.0007 32.7455 34.8443 33.0836 34.5592C33.4218 34.2741 33.6483 33.8787 33.7231 33.4427C33.7979 33.0068 33.7162 32.5585 33.4924 32.177C33.2686 31.7954 32.9171 31.5053 32.5001 31.3579V28.1251C32.5001 28.0191 32.4732 27.9149 32.4218 27.8222C32.3704 27.7295 32.2963 27.6515 32.2063 27.5954L27.4329 24.6118C28.1832 23.4084 28.6276 22.0397 28.7274 20.6251H35.7329C35.8475 20.9492 36.049 21.2356 36.3153 21.4529C36.5817 21.6702 36.9027 21.8101 37.2432 21.8573C37.5837 21.9045 37.9307 21.8572 38.2461 21.7205C38.5615 21.5839 38.8333 21.3631 39.0318 21.0824C39.2302 20.8017 39.3476 20.4718 39.3712 20.1288C39.3949 19.7859 39.3237 19.443 39.1656 19.1378C39.0075 18.8325 38.7685 18.5766 38.4748 18.398C38.181 18.2194 37.8439 18.125 37.5001 18.1251ZM32.8126 7.81259C32.9362 7.81259 33.057 7.84925 33.1598 7.91792C33.2626 7.9866 33.3427 8.08421 33.39 8.19841C33.4373 8.31262 33.4497 8.43828 33.4256 8.55952C33.4015 8.68076 33.3419 8.79212 33.2545 8.87953C33.1671 8.96694 33.0558 9.02647 32.9345 9.05058C32.8133 9.0747 32.6876 9.06232 32.5734 9.01502C32.4592 8.96771 32.3616 8.8876 32.2929 8.78482C32.2242 8.68204 32.1876 8.5612 32.1876 8.43759C32.1878 8.2719 32.2537 8.11306 32.3709 7.9959C32.4881 7.87874 32.6469 7.81282 32.8126 7.81259ZM8.12509 8.12509C8.00148 8.12509 7.88064 8.08844 7.77786 8.01976C7.67508 7.95108 7.59497 7.85347 7.54767 7.73927C7.50036 7.62506 7.48798 7.4994 7.5121 7.37816C7.53622 7.25692 7.59574 7.14556 7.68315 7.05815C7.77056 6.97074 7.88192 6.91122 8.00316 6.8871C8.1244 6.86298 8.25006 6.87536 8.36427 6.92267C8.47847 6.96997 8.57608 7.05008 8.64476 7.15286C8.71344 7.25564 8.75009 7.37648 8.75009 7.50009C8.74986 7.66578 8.68394 7.82462 8.56678 7.94178C8.44962 8.05894 8.29078 8.12486 8.12509 8.12509ZM2.50009 20.6251C2.37648 20.6251 2.25564 20.5884 2.15286 20.5198C2.05008 20.4511 1.96997 20.3535 1.92267 20.2393C1.87536 20.1251 1.86298 19.9994 1.8871 19.8782C1.91122 19.7569 1.97074 19.6456 2.05815 19.5581C2.14556 19.4707 2.25692 19.4112 2.37816 19.3871C2.4994 19.363 2.62506 19.3754 2.73927 19.4227C2.85347 19.47 2.95108 19.5501 3.01976 19.6529C3.08844 19.7556 3.12509 19.8765 3.12509 20.0001C3.12486 20.1658 3.05894 20.3246 2.94178 20.4418C2.82462 20.5589 2.66578 20.6249 2.50009 20.6251ZM7.18759 32.8126C7.06398 32.8126 6.94314 32.7759 6.84036 32.7073C6.73758 32.6386 6.65747 32.541 6.61017 32.4268C6.56286 32.3126 6.55048 32.1869 6.5746 32.0657C6.59872 31.9444 6.65824 31.8331 6.74565 31.7456C6.83306 31.6582 6.94442 31.5987 7.06566 31.5746C7.1869 31.5505 7.31256 31.5629 7.42677 31.6102C7.54097 31.6575 7.63858 31.7376 7.70726 31.8404C7.77594 31.9431 7.81259 32.064 7.81259 32.1876C7.81236 32.3533 7.74644 32.5121 7.62928 32.6293C7.51212 32.7464 7.35328 32.8124 7.18759 32.8126ZM31.8751 32.5001C31.9987 32.5001 32.1195 32.5367 32.2223 32.6054C32.3251 32.6741 32.4052 32.7717 32.4525 32.8859C32.4998 33.0001 32.5122 33.1258 32.4881 33.247C32.464 33.3683 32.4044 33.4796 32.317 33.567C32.2296 33.6544 32.1183 33.714 31.997 33.7381C31.8758 33.7622 31.7501 33.7498 31.6359 33.7025C31.5217 33.6552 31.4241 33.5751 31.3554 33.4723C31.2867 33.3695 31.2501 33.2487 31.2501 33.1251C31.2503 32.9594 31.3162 32.8006 31.4334 32.6834C31.5506 32.5662 31.7094 32.5003 31.8751 32.5001ZM20.0001 1.87509C20.1237 1.87509 20.2445 1.91175 20.3473 1.98042C20.4501 2.0491 20.5302 2.14671 20.5775 2.26091C20.6248 2.37512 20.6372 2.50078 20.6131 2.62202C20.589 2.74326 20.5294 2.85462 20.442 2.94203C20.3546 3.02944 20.2433 3.08897 20.122 3.11308C20.0008 3.1372 19.8751 3.12482 19.7609 3.07752C19.6467 3.03021 19.5491 2.9501 19.4804 2.84732C19.4117 2.74454 19.3751 2.6237 19.3751 2.50009C19.3753 2.3344 19.4412 2.17556 19.5584 2.0584C19.6756 1.94124 19.8344 1.87532 20.0001 1.87509ZM20.0001 38.1251C19.8765 38.1251 19.7556 38.0884 19.6529 38.0198C19.5501 37.9511 19.47 37.8535 19.4227 37.7393C19.3754 37.6251 19.363 37.4994 19.3871 37.3782C19.4112 37.2569 19.4707 37.1456 19.5581 37.0581C19.6456 36.9707 19.7569 36.9112 19.8782 36.8871C19.9994 36.863 20.1251 36.8754 20.2393 36.9227C20.3535 36.97 20.4511 37.0501 20.5198 37.1529C20.5884 37.2556 20.6251 37.3765 20.6251 37.5001C20.6249 37.6658 20.5589 37.8246 20.4418 37.9418C20.3246 38.0589 20.1658 38.1249 20.0001 38.1251ZM20.0001 27.5001C18.5167 27.5001 17.0667 27.0602 15.8333 26.2361C14.5999 25.412 13.6387 24.2407 13.071 22.8702C12.5033 21.4998 12.3548 19.9918 12.6442 18.5369C12.9336 17.0821 13.6479 15.7457 14.6968 14.6968C15.7457 13.6479 17.0821 12.9336 18.5369 12.6442C19.9918 12.3548 21.4998 12.5033 22.8702 13.071C24.2407 13.6387 25.412 14.5999 26.2361 15.8333C27.0602 17.0667 27.5001 18.5167 27.5001 20.0001C27.4977 21.9885 26.7068 23.8948 25.3008 25.3008C23.8948 26.7068 21.9885 27.4977 20.0001 27.5001ZM37.5001 20.6251C37.3765 20.6251 37.2556 20.5884 37.1529 20.5198C37.0501 20.4511 36.97 20.3535 36.9227 20.2393C36.8754 20.1251 36.863 19.9994 36.8871 19.8782C36.9112 19.7569 36.9707 19.6456 37.0581 19.5581C37.1456 19.4707 37.2569 19.4112 37.3782 19.3871C37.4994 19.363 37.6251 19.3754 37.7393 19.4227C37.8535 19.47 37.9511 19.5501 38.0198 19.6529C38.0884 19.7556 38.1251 19.8765 38.1251 20.0001C38.1249 20.1658 38.0589 20.3246 37.9418 20.4418C37.8246 20.5589 37.6658 20.6249 37.5001 20.6251Z" fill="white"/>
</svg>
