<svg width="66" height="68" viewBox="0 0 66 68" fill="none" xmlns="http://www.w3.org/2000/svg">
<path opacity="0.2" fill-rule="evenodd" clip-rule="evenodd" d="M33 49C46.2548 49 57 38.2548 57 25C57 11.7452 46.2548 1 33 1C19.7452 1 9 11.7452 9 25C9 38.2548 19.7452 49 33 49Z" stroke="#FC6537"/>
<g filter="url(#filter0_d)">
<path fill-rule="evenodd" clip-rule="evenodd" d="M33 43C42.9411 43 51 34.9411 51 25C51 15.0589 42.9411 7 33 7C23.0589 7 15 15.0589 15 25C15 34.9411 23.0589 43 33 43Z" fill="#FC6537"/>
<path d="M34.1101 29.576H36.9901V31H29.6621V29.576H32.5421V22.12H29.6301V21.096C30.8995 20.968 32.1901 20.6107 33.5021 20.024H34.1101V29.576Z" fill="white"/>
</g>
<defs>
<filter id="filter0_d" x="0" y="2" width="66" height="66" filterUnits="userSpaceOnUse" color-interpolation-filters="sRGB">
<feFlood flood-opacity="0" result="BackgroundImageFix"/>
<feColorMatrix in="SourceAlpha" type="matrix" values="0 0 0 0 0 0 0 0 0 0 0 0 0 0 0 0 0 0 127 0"/>
<feOffset dy="10"/>
<feGaussianBlur stdDeviation="7.5"/>
<feColorMatrix type="matrix" values="0 0 0 0 0.0823529 0 0 0 0 0.145098 0 0 0 0 0.278431 0 0 0 0.15 0"/>
<feBlend mode="normal" in2="BackgroundImageFix" result="effect1_dropShadow"/>
<feBlend mode="normal" in="SourceGraphic" in2="effect1_dropShadow" result="shape"/>
</filter>
</defs>
</svg>
