<svg width="40" height="40" viewBox="0 0 40 40" fill="none" xmlns="http://www.w3.org/2000/svg">
<path d="M27.5783 26.8841C27.27 26.5821 26.7754 26.5872 26.4734 26.8953L26.4512 26.918C26.1493 27.2262 26.1543 27.7208 26.4625 28.0228C26.6146 28.1718 26.812 28.246 27.0093 28.246C27.2118 28.246 27.4143 28.1677 27.5674 28.0116L27.5896 27.9889C27.8915 27.6807 27.8865 27.1861 27.5783 26.8841Z" fill="white"/>
<path d="M35.9824 18.6935H33.9063V16.6174C33.9063 16.1859 33.5565 15.8362 33.1251 15.8362C32.6936 15.8362 32.3438 16.1859 32.3438 16.6174V18.6935H30.2677C29.8362 18.6935 29.4865 19.0433 29.4865 19.4748C29.4865 19.9063 29.8362 20.256 30.2677 20.256H32.3438V22.3321C32.3438 22.7636 32.6936 23.1134 33.1251 23.1134C33.5565 23.1134 33.9063 22.7636 33.9063 22.3321V20.256H35.9824C36.4139 20.256 36.7637 19.9063 36.7637 19.4748C36.7637 19.0433 36.4139 18.6935 35.9824 18.6935Z" fill="white"/>
<path d="M35.6793 13.092C34.9496 7.69907 30.4412 3.66406 25.0898 3.66406C22.3885 3.66406 19.8615 4.67102 17.8907 6.51672C15.9197 4.67102 13.3928 3.66406 10.6915 3.66406C4.79618 3.66406 0 8.57446 0 14.6102C0 15.8027 0.347891 17.1393 1.04 18.6148H0.781252C0.349766 18.6148 0 18.9646 0 19.396C0 19.8275 0.349766 20.1773 0.781252 20.1773H1.87204C3.33118 22.6476 5.63868 25.4568 8.7851 28.5854C13.0492 32.8253 17.3729 36.1424 17.4161 36.1755C17.5561 36.2826 17.7234 36.3361 17.8907 36.3361C18.0579 36.3361 18.2251 36.2826 18.3652 36.1755C18.3982 36.1502 21.705 33.6144 25.3697 30.1593C25.6837 29.8633 25.6983 29.3688 25.4022 29.0549C25.1063 28.741 24.6118 28.7264 24.2979 29.0224C21.503 31.6575 18.9228 33.7468 17.8907 34.563C16.6643 33.5927 13.2501 30.8229 9.87564 27.4663C7.17408 24.7789 5.10595 22.3298 3.70774 20.1773H10.702C11.0505 20.1773 11.3568 19.9464 11.4529 19.6115L12.8179 14.8535L16.5979 26.9643C16.6998 27.2906 17.0019 27.5129 17.3437 27.5129C17.6855 27.5129 17.9876 27.2906 18.0894 26.9643L20.1828 20.2555H23.6706C24.1021 20.2555 24.4518 19.9057 24.4518 19.4742C24.4518 19.0428 24.1021 18.693 23.6706 18.693H19.6082C19.2664 18.693 18.9642 18.9152 18.8624 19.2415L17.3435 24.1091L13.5321 11.8977C13.4292 11.5682 13.1232 11.3445 12.7772 11.3492C12.4321 11.3532 12.1305 11.5832 12.0353 11.915L10.1131 18.6149H2.78313C1.97555 17.0902 1.5625 15.7464 1.5625 14.6102C1.5625 9.43603 5.65775 5.22657 10.6915 5.22657C13.2215 5.22657 15.5743 6.26657 17.3164 8.15485C17.4644 8.31517 17.6725 8.40634 17.8907 8.40634C18.1088 8.40634 18.317 8.31517 18.4649 8.15485C20.207 6.26657 22.5598 5.22657 25.0898 5.22657C29.4419 5.22657 33.142 8.36517 34.0215 12.6582C33.728 12.6199 33.4288 12.5998 33.125 12.5998C29.3341 12.5998 26.25 15.6839 26.25 19.4748C26.25 23.2657 29.3341 26.3498 33.125 26.3498C36.9159 26.3498 40 23.2657 40 19.4748C40.0001 16.586 38.2091 14.1081 35.6793 13.092ZM33.1251 24.7873C30.1958 24.7873 27.8126 22.4041 27.8126 19.4748C27.8126 16.5455 30.1958 14.1623 33.1251 14.1623C36.0544 14.1623 38.4376 16.5455 38.4376 19.4748C38.4376 22.4041 36.0544 24.7873 33.1251 24.7873Z" fill="white"/>
</svg>
