<svg width="40" height="40" viewBox="0 0 40 40" fill="none" xmlns="http://www.w3.org/2000/svg">
<g clip-path="url(#clip0)">
<path d="M1.84686 13.8352H3.40287V28.1644C3.40287 28.488 3.66514 28.7503 3.98881 28.7503C4.31248 28.7503 4.57475 28.488 4.57475 28.1644V13.5941L19.9019 5.08773C19.9638 5.05336 20.0378 5.05336 20.0994 5.08742L35.427 13.5941V15.9819C35.427 16.3055 35.6893 16.5678 36.013 16.5678C36.3365 16.5678 36.5989 16.3055 36.5989 15.9819V13.8352H38.1549C39.1725 13.8352 40.0003 13.0073 40.0003 11.9897C40.0003 11.6606 39.9119 11.3368 39.7453 11.0541C39.5779 10.7688 39.3369 10.5338 39.05 10.3758L20.6684 0.174375C20.2505 -0.058125 19.7514 -0.0580469 19.3338 0.174141L0.95209 10.3755C0.365684 10.7005 0.00146484 11.319 0.00146484 11.9897C0.00146484 13.0073 0.829277 13.8352 1.84686 13.8352ZM1.52045 11.4003L19.9029 1.19852C19.9644 1.16437 20.0377 1.16437 20.0994 1.19875L38.483 11.4012C38.5869 11.4584 38.674 11.5434 38.7352 11.648C38.7962 11.7515 38.8285 11.8697 38.8285 11.9897C38.8285 12.3612 38.5263 12.6634 38.1549 12.6634H36.1647L20.6676 4.06258C20.25 3.83148 19.7517 3.83148 19.3337 4.06289L3.83701 12.6634H1.84686C1.47545 12.6634 1.17326 12.3612 1.17326 11.9897C1.17334 11.7448 1.30623 11.519 1.52045 11.4003Z" fill="white"/>
<path d="M38.6902 36.1315H37.9476V34.7048C37.9476 34.0044 37.3778 33.4347 36.6774 33.4347H36.598V18.7163C36.598 18.3927 36.3357 18.1304 36.0121 18.1304C35.6885 18.1304 35.4261 18.3926 35.4261 18.7163V33.4346H4.57385V30.8988C4.57385 30.5752 4.31158 30.3129 3.98791 30.3129C3.66424 30.3129 3.40197 30.5751 3.40197 30.8988V33.4346H3.32252C2.62213 33.4346 2.05236 34.0044 2.05236 34.7047V36.1315H1.30979C0.587832 36.1315 0.000488281 36.7188 0.000488281 37.4408V38.6908C0.000488281 39.4127 0.587832 40.0001 1.30979 40.0001H30.3067C30.6303 40.0001 30.8926 39.7378 30.8926 39.4141C30.8926 39.0905 30.6303 38.8282 30.3067 38.8282H1.30986C1.234 38.8282 1.17236 38.7665 1.17236 38.6907V37.4407C1.17236 37.3648 1.234 37.3032 1.30986 37.3032H38.6901C38.766 37.3032 38.8276 37.3648 38.8276 37.4407V38.6907C38.8276 38.7665 38.766 38.8282 38.6901 38.8282H33.041C32.7174 38.8282 32.455 39.0905 32.455 39.4141C32.455 39.7377 32.7173 40.0001 33.041 40.0001H38.6901C39.4121 40.0001 39.9994 39.4127 39.9994 38.6908V37.4408C39.9995 36.7189 39.4121 36.1315 38.6902 36.1315ZM3.22424 34.7048C3.22424 34.6506 3.2683 34.6065 3.3226 34.6065H36.6774C36.7317 34.6065 36.7758 34.6505 36.7758 34.7048V36.1315H3.22424V34.7048Z" fill="white"/>
<path d="M26.8993 17.5087H28.3486C28.5942 18.2416 29.2869 18.7714 30.1014 18.7714C31.1207 18.7714 31.95 17.9421 31.95 16.9229C31.95 15.9036 31.1207 15.0743 30.1014 15.0743C29.2869 15.0743 28.5943 15.6041 28.3486 16.337H26.8036C26.5579 15.6041 25.8652 15.0743 25.0507 15.0743H14.9493C14.1348 15.0743 13.4422 15.6041 13.1965 16.337H11.6515C11.4058 15.6041 10.7131 15.0743 9.89864 15.0743C8.87927 15.0743 8.05005 15.9036 8.05005 16.9229C8.05005 17.9422 8.87935 18.7714 9.89864 18.7714C10.7131 18.7714 11.4058 18.2417 11.6515 17.5087H13.1007V21.3875H11.6515C11.4058 20.6546 10.7131 20.1249 9.89864 20.1249C8.87927 20.1249 8.05005 20.9542 8.05005 21.9734C8.05005 22.9927 8.87935 23.822 9.89864 23.822C10.7131 23.822 11.4058 23.2922 11.6515 22.5593H13.1007V26.4381H11.6515C11.4058 25.7052 10.7131 25.1754 9.89864 25.1754C8.87927 25.1754 8.05005 26.0047 8.05005 27.0239C8.05005 28.0432 8.87935 28.8725 9.89864 28.8725C10.7131 28.8725 11.4058 28.3428 11.6515 27.6098H13.1964C13.442 28.3427 14.1347 28.8725 14.9493 28.8725H25.0506C25.8651 28.8725 26.5579 28.3428 26.8035 27.6098H28.3484C28.594 28.3427 29.2868 28.8725 30.1012 28.8725C31.1205 28.8725 31.9498 28.0432 31.9498 27.0239C31.9498 26.0046 31.1205 25.1754 30.1012 25.1754C29.2868 25.1754 28.5941 25.7052 28.3484 26.4381H26.8992V22.5594H28.3484C28.594 23.2923 29.2868 23.8221 30.1012 23.8221C31.1205 23.8221 31.9498 22.9928 31.9498 21.9736C31.9498 20.9543 31.1205 20.125 30.1012 20.125C29.2868 20.125 28.5941 20.6548 28.3484 21.3877H26.8992V17.5087H26.8993ZM9.89872 22.6503C9.5256 22.6503 9.22192 22.3466 9.22192 21.9735C9.22192 21.6003 9.5256 21.2968 9.89872 21.2968C10.2718 21.2968 10.5754 21.6003 10.5754 21.9735C10.5754 22.3466 10.2718 22.6503 9.89872 22.6503ZM30.1014 21.2968C30.4745 21.2968 30.7782 21.6003 30.7782 21.9735C30.7782 22.3466 30.4745 22.6503 30.1014 22.6503C29.7283 22.6503 29.4247 22.3466 29.4247 21.9735C29.4247 21.6003 29.7283 21.2968 30.1014 21.2968ZM30.1014 16.2461C30.4745 16.2461 30.7782 16.5497 30.7782 16.9229C30.7782 17.296 30.4745 17.5996 30.1014 17.5996C29.7283 17.5996 29.4247 17.296 29.4247 16.9229C29.4247 16.5497 29.7283 16.2461 30.1014 16.2461ZM9.89872 17.5996C9.5256 17.5996 9.22192 17.2959 9.22192 16.9228C9.22192 16.5497 9.5256 16.2461 9.89872 16.2461C10.2718 16.2461 10.5754 16.5497 10.5754 16.9228C10.5754 17.296 10.2718 17.5996 9.89872 17.5996ZM9.89872 27.701C9.5256 27.701 9.22192 27.3973 9.22192 27.0242C9.22192 26.651 9.5256 26.3475 9.89872 26.3475C10.2718 26.3475 10.5754 26.651 10.5754 27.0242C10.5754 27.3973 10.2718 27.701 9.89872 27.701ZM25.0508 27.701H14.9493C14.5762 27.701 14.2725 27.3973 14.2725 27.0242V16.9229C14.2725 16.5497 14.5762 16.2461 14.9493 16.2461H25.0507C25.4238 16.2461 25.7275 16.5497 25.7275 16.9229V27.0242C25.7275 27.3973 25.4239 27.701 25.0508 27.701ZM30.1014 26.3475C30.4745 26.3475 30.7782 26.651 30.7782 27.0242C30.7782 27.3973 30.4745 27.701 30.1014 27.701C29.7283 27.701 29.4247 27.3973 29.4247 27.0242C29.4247 26.651 29.7283 26.3475 30.1014 26.3475Z" fill="white"/>
<path d="M22.9988 17.5996H17.0013C16.243 17.5996 15.6261 18.2165 15.6261 18.9747V24.9724C15.6261 25.7306 16.243 26.3474 17.0013 26.3474H22.9988C23.7571 26.3474 24.374 25.7306 24.374 24.9724V18.9747C24.374 18.2166 23.757 17.5996 22.9988 17.5996ZM19.3232 22.6503V21.2968H20.6768V22.6503H19.3232ZM20.6768 23.8222V25.1757H19.3232V23.8222H20.6768ZM16.7979 21.2968H18.1514V22.6503H16.7979V21.2968ZM19.3232 20.125V18.7715H20.6768V20.125H19.3232ZM21.8486 21.2968H23.2021V22.6503H21.8486V21.2968ZM23.2021 18.9747V20.1249H21.8486V18.7714H22.9988C23.1109 18.7715 23.2021 18.8627 23.2021 18.9747ZM17.0012 18.7715H18.1513V20.125H16.7978V18.9748C16.7979 18.8627 16.8891 18.7715 17.0012 18.7715ZM16.7979 24.9724V23.8222H18.1514V25.1757H17.0013C16.8891 25.1756 16.7979 25.0845 16.7979 24.9724ZM22.9988 25.1756H21.8487V23.8221H23.2022V24.9724C23.2021 25.0845 23.1109 25.1756 22.9988 25.1756Z" fill="white"/>
</g>
<defs>
<clipPath id="clip0">
<rect width="40" height="40" fill="white"/>
</clipPath>
</defs>
</svg>
