<svg width="40" height="40" viewBox="0 0 40 40" fill="none" xmlns="http://www.w3.org/2000/svg">
<g clip-path="url(#clip0)">
<path d="M38.2958 19.8569L38.2663 19.858C37.359 19.8921 36.5759 20.5296 36.3619 21.4084L35.7342 23.9861C35.1379 26.4342 33.4978 28.4729 31.2343 29.5795C30.9685 29.7093 30.6686 29.6809 30.432 29.5031C30.1954 29.3253 30.0847 29.0452 30.1355 28.7537L30.6311 25.9154C30.7804 25.0602 30.2304 24.2566 29.3791 24.086C28.7329 23.9567 28.0859 24.2315 27.7306 24.7866L24.5232 29.7967C24.064 29.4657 23.4184 29.5053 23.0054 29.9182L20.6789 32.2446C20.4501 32.4735 20.4501 32.8445 20.6789 33.0733L27.4341 39.8285C27.5486 39.9428 27.6986 40 27.8485 40C27.9984 40 28.1484 39.9428 28.2629 39.8285L30.5893 37.502C31.0244 37.0668 31.0457 36.3729 30.6543 35.9114C31.4006 35.4963 32.129 35.0207 32.8201 34.4963C33.0779 34.3007 33.1283 33.9332 32.9327 33.6753C32.7373 33.4176 32.3697 33.3671 32.1118 33.5628C30.9236 34.4641 29.9279 34.9689 29.7968 35.0468L25.3808 30.6309L28.7175 25.4185C28.8105 25.2733 28.9798 25.2018 29.1489 25.2351C29.3718 25.2798 29.5157 25.4901 29.4765 25.7139L28.981 28.5522C28.8547 29.2756 29.141 29.9989 29.7279 30.4399C30.315 30.881 31.0893 30.9547 31.7489 30.6323C34.3261 29.3723 36.1938 27.051 36.8727 24.2635L37.5004 21.6857C37.7025 20.8557 38.8964 20.8171 38.826 21.5445C38.4404 25.5203 36.6635 29.261 33.8226 32.0773C33.5929 32.3051 33.5912 32.6761 33.819 32.9059C34.0468 33.1357 34.4177 33.1374 34.6476 32.9095C37.6823 29.901 39.5804 25.905 39.9923 21.6575C40.0879 20.6737 39.2969 19.8214 38.2958 19.8569ZM27.8485 38.5855L21.9224 32.6594L23.8393 30.7468L29.7606 36.6732L27.8485 38.5855Z" fill="#FC6537"/>
<path d="M12.3907 9.88268L13.1698 10.3144C13.1763 10.3181 13.1817 10.3233 13.1854 10.3298L14.4043 12.4409C14.4081 12.4473 14.4099 12.4546 14.4098 12.4621L14.3942 13.3528C14.3866 13.7932 14.6188 14.2037 15.0003 14.424L16.7659 15.4432C16.9535 15.5517 17.1629 15.6057 17.3722 15.6057C17.5885 15.6057 17.8047 15.548 17.9966 15.4326L18.7605 14.9736C18.7667 14.9699 18.7739 14.968 18.7813 14.968H21.2191C21.2265 14.968 21.2338 14.9699 21.2401 14.9738L22.0038 15.4327C22.3815 15.6596 22.8532 15.6637 23.2344 15.4433L25 14.424C25.3815 14.2038 25.6136 13.7933 25.606 13.3528L25.5906 12.4621C25.5904 12.4546 25.5923 12.4474 25.596 12.441L26.815 10.3297C26.8187 10.3233 26.8241 10.3181 26.8303 10.3146L27.6096 9.88268C27.9949 9.66916 28.2343 9.26276 28.2343 8.82221V6.78354C28.2343 6.34307 27.995 5.93674 27.6096 5.72307L26.8306 5.29135C26.8241 5.28768 26.8187 5.28244 26.8149 5.27588L26.7445 5.15393C26.5827 4.87377 26.2242 4.77776 25.9441 4.93963C25.6639 5.10143 25.5679 5.45979 25.7298 5.74002L25.8 5.86182C25.91 6.05229 26.0697 6.20932 26.2623 6.31612L27.0414 6.74791C27.0543 6.75518 27.0625 6.76877 27.0625 6.78354V8.82221C27.0625 8.83698 27.0544 8.85057 27.0415 8.85776L26.2621 9.28979C26.0697 9.39643 25.91 9.55354 25.8001 9.74385L24.581 11.8551C24.4711 12.0456 24.415 12.2626 24.4189 12.4824L24.4343 13.3731C24.4346 13.3879 24.4268 13.4017 24.414 13.4091L22.6484 14.4285C22.6357 14.4357 22.6197 14.4356 22.6073 14.4281L21.8437 13.9692C21.6551 13.856 21.4392 13.796 21.2192 13.796H18.7814C18.5612 13.796 18.3452 13.856 18.1569 13.9692L17.3931 14.4281C17.3806 14.4356 17.3648 14.4358 17.3521 14.4284L15.5865 13.4092C15.5737 13.4017 15.5658 13.388 15.5661 13.3731L15.5817 12.4824C15.5855 12.2626 15.5294 12.0456 15.4194 11.855L14.2005 9.74393C14.0906 9.55346 13.9308 9.39643 13.7382 9.28963L12.959 8.85776C12.9461 8.85065 12.9381 8.83698 12.9381 8.82221V6.78354C12.9381 6.76877 12.9462 6.7551 12.9589 6.74799L13.7385 6.31596C13.9308 6.20932 14.0906 6.05221 14.2004 5.8619L15.4195 3.75065C15.5294 3.5601 15.5855 3.34315 15.5817 3.1233L15.5661 2.2326C15.5658 2.21791 15.5736 2.20416 15.5864 2.19674L17.3521 1.17729C17.3649 1.16995 17.3806 1.1701 17.3932 1.17776L18.157 1.63666C18.3455 1.74987 18.5614 1.80979 18.7814 1.80979H21.2192C21.4389 1.80979 21.6548 1.74995 21.8436 1.63659L22.6073 1.17776C22.6199 1.1701 22.6357 1.16995 22.6485 1.17737L24.4142 2.19682C24.4268 2.20416 24.4346 2.21791 24.4343 2.2326L24.4189 3.12338C24.4157 3.3076 24.4567 3.49487 24.5375 3.66479C24.6766 3.95698 25.0263 4.08127 25.3183 3.94237C25.6106 3.80338 25.7348 3.45377 25.5959 3.16159C25.5919 3.1533 25.5906 3.14674 25.5907 3.14377L25.6061 2.25307C25.6138 1.81245 25.3815 1.40198 25 1.1819L23.2344 0.162445C22.8529 -0.0579455 22.3812 -0.0539611 22.0036 0.173148L21.2403 0.63182C21.2338 0.635726 21.2264 0.637758 21.2191 0.637758H18.7813C18.7739 0.637758 18.7666 0.635726 18.7603 0.631976L17.9967 0.173226C17.6193 -0.0537268 17.1475 -0.0580236 16.766 0.162367L15.0004 1.18166C14.6189 1.4019 14.3867 1.81237 14.3942 2.25291L14.4098 3.14362C14.4099 3.15104 14.4081 3.1583 14.4044 3.16471L13.1853 5.27596C13.1817 5.28237 13.1763 5.2876 13.17 5.29112L12.3905 5.72307C12.0053 5.93674 11.7661 6.34315 11.7661 6.78346V8.82213C11.7661 9.26276 12.0054 9.66909 12.3907 9.88268Z" fill="#FC6537"/>
<path d="M20.0001 4.2594C18.0462 4.2594 16.4565 5.84909 16.4565 7.80299C16.4565 9.7569 18.0462 11.3465 20.0001 11.3465C21.954 11.3465 23.5437 9.75682 23.5437 7.80299C23.5437 5.84901 21.954 4.2594 20.0001 4.2594ZM20.0001 10.1747C18.6923 10.1747 17.6284 9.11081 17.6284 7.80307C17.6284 6.49534 18.6923 5.43127 20.0001 5.43127C21.3078 5.43127 22.3718 6.49526 22.3718 7.80299C22.3718 9.11073 21.3078 10.1747 20.0001 10.1747Z" fill="#FC6537"/>
<path d="M30.6602 19.3087C32.114 19.3087 33.2968 18.1259 33.2968 16.672C33.2968 15.2182 32.114 14.0354 30.6602 14.0354C29.2063 14.0354 28.0234 15.2182 28.0234 16.672C28.0234 18.1259 29.2063 19.3087 30.6602 19.3087ZM30.6602 15.2073C31.4678 15.2073 32.1249 15.8644 32.1249 16.672C32.1249 17.4797 31.4678 18.1368 30.6602 18.1368C29.8524 18.1368 29.1953 17.4797 29.1953 16.672C29.1953 15.8644 29.8525 15.2073 30.6602 15.2073Z" fill="#FC6537"/>
<path d="M26.5937 12.8268L26.6038 13.4023L25.8005 14.7935L25.2973 15.0725C24.973 15.2521 24.7715 15.5941 24.7715 15.965V17.3785C24.7715 17.7492 24.9729 18.0912 25.2972 18.271L25.8005 18.55L26.6038 19.9411L26.5937 20.5167C26.5873 20.8874 26.7827 21.2328 27.1037 21.4182L28.3279 22.1249C28.4858 22.2161 28.6619 22.2616 28.838 22.2616C29.0201 22.2616 29.202 22.213 29.3636 22.116L29.857 21.8195H31.4634L31.9567 22.116C32.2745 22.3068 32.6713 22.3103 32.9925 22.1249L34.2166 21.4182C34.5377 21.2329 34.733 20.8875 34.7266 20.5167L34.7166 19.9411L35.5198 18.55L36.0234 18.2709C36.3475 18.091 36.5489 17.7491 36.5489 17.3785V15.965C36.5489 15.5942 36.3475 15.2522 36.0233 15.0725L35.5198 14.7934L34.7166 13.4023L34.7266 12.8268C34.733 12.456 34.5377 12.1106 34.2166 11.9253L32.9924 11.2185C32.6716 11.0331 32.2746 11.0368 31.9567 11.2275L31.4634 11.524H29.857L29.3636 11.2275C29.0459 11.0367 28.649 11.0332 28.3278 11.2185L27.1036 11.9254C26.7827 12.1107 26.5873 12.4561 26.5937 12.8268ZM27.7669 12.8955L28.8364 12.278L29.2895 12.5503C29.4482 12.6456 29.6298 12.6959 29.815 12.6959H31.5053C31.6904 12.6959 31.872 12.6455 32.0309 12.5502L32.4839 12.278L33.5534 12.8955L33.5442 13.4239C33.541 13.6093 33.5883 13.792 33.6808 13.9519L34.5258 15.4154C34.6183 15.5759 34.7528 15.7082 34.9148 15.7979L35.377 16.0542V17.2893L34.9146 17.5455C34.7527 17.6353 34.6181 17.7677 34.5259 17.9277L33.6808 19.3914C33.5881 19.5518 33.5409 19.7343 33.5441 19.9196L33.5534 20.448L32.4838 21.0654L32.0307 20.7932C31.872 20.6979 31.6904 20.6476 31.5052 20.6476H29.815C29.6299 20.6476 29.4483 20.698 29.2894 20.7933L28.8364 21.0654L27.7669 20.448L27.7761 19.9196C27.7793 19.7343 27.7321 19.5518 27.6395 19.3915L26.7945 17.928C26.702 17.7675 26.5675 17.6353 26.4055 17.5455L25.9433 17.2893V16.0543L26.405 15.7983C26.5672 15.7086 26.702 15.5762 26.7944 15.4158L27.6393 13.9524C27.732 13.7921 27.7793 13.6093 27.7761 13.424L27.7669 12.8955Z" fill="#FC6537"/>
<path d="M9.34025 19.3087C10.7941 19.3087 11.9769 18.1259 11.9769 16.672C11.9769 15.2182 10.7941 14.0354 9.34025 14.0354C7.88643 14.0354 6.70361 15.2182 6.70361 16.672C6.70361 18.1259 7.88643 19.3087 9.34025 19.3087ZM9.34025 15.2073C10.1479 15.2073 10.805 15.8644 10.805 16.672C10.805 17.4797 10.1479 18.1368 9.34025 18.1368C8.5326 18.1368 7.87549 17.4797 7.87549 16.672C7.87549 15.8644 8.5326 15.2073 9.34025 15.2073Z" fill="#FC6537"/>
<path d="M3.97688 18.2708L4.48039 18.5499L5.28352 19.941L5.27336 20.5166C5.26695 20.8873 5.46242 21.2328 5.78344 21.4181L7.0075 22.1247C7.32836 22.3102 7.72531 22.3067 8.04336 22.1158L8.53672 21.8193H10.143L10.6365 22.1158C10.798 22.2128 10.9799 22.2614 11.1621 22.2614C11.3382 22.2614 11.5144 22.216 11.6722 22.1248L12.8963 21.4181C13.2173 21.2328 13.4128 20.8873 13.4064 20.5165L13.3963 19.941L14.1994 18.5499L14.703 18.2707C15.0272 18.0909 15.2287 17.7489 15.2287 17.3783V15.9648C15.2287 15.594 15.0272 15.2521 14.703 15.0724L14.1995 14.7932L13.3963 13.4021L13.4064 12.8266C13.4128 12.4559 13.2173 12.1104 12.8963 11.9251L11.6723 11.2184C11.3513 11.0328 10.9545 11.0364 10.6366 11.2274L10.143 11.5239H8.53672L8.0432 11.2273C7.72531 11.0364 7.32852 11.0331 7.00758 11.2183L5.78352 11.9251C5.46242 12.1104 5.26695 12.4559 5.27336 12.8267L5.28352 13.4021L4.48039 14.7932L3.97695 15.0723C3.65266 15.2521 3.45117 15.594 3.45117 15.9648V17.3783C3.45117 17.749 3.65258 18.091 3.97688 18.2708ZM4.62305 16.0541L5.08477 15.7982C5.2468 15.7085 5.38148 15.5763 5.47422 15.4157L6.31945 13.9517C6.41195 13.7914 6.45914 13.6089 6.45594 13.4238L6.44664 12.8955L7.51625 12.2779L7.96914 12.55C8.12781 12.6454 8.30953 12.6958 8.49477 12.6958H10.1852C10.3703 12.6958 10.552 12.6453 10.7106 12.5501L11.1638 12.2779L12.2333 12.8955L12.224 13.4239C12.2208 13.6089 12.268 13.7914 12.3605 13.9518L13.2058 15.4158C13.2985 15.5764 13.4331 15.7085 13.5952 15.7982L14.0569 16.0542V17.2892L13.5947 17.5454C13.4328 17.6351 13.2983 17.7673 13.2057 17.9277L12.3604 19.3918C12.2679 19.5522 12.2208 19.7346 12.224 19.9196L12.2333 20.4479L11.1637 21.0654L10.7108 20.7934C10.5521 20.698 10.3704 20.6476 10.1852 20.6476H8.49477C8.30961 20.6476 8.12789 20.6981 7.9693 20.7933L7.51625 21.0654L6.44664 20.4479L6.45594 19.9196C6.45914 19.7346 6.41203 19.5522 6.31938 19.3915L5.47414 17.9275C5.38156 17.7673 5.24711 17.6352 5.08516 17.5454L4.62297 17.2892V16.0541H4.62305Z" fill="#FC6537"/>
<path d="M16.9948 29.9179C16.5818 29.5051 15.9362 29.4655 15.4769 29.7965L12.2696 24.7864C11.9144 24.2314 11.2669 23.9559 10.621 24.0858C9.76975 24.2564 9.21975 25.06 9.36913 25.9152L9.86459 28.7535C9.91545 29.0449 9.80467 29.3251 9.56811 29.5029C9.3317 29.6806 9.03163 29.7091 8.76584 29.5792C6.50233 28.4726 4.86217 26.4338 4.266 23.9859L3.63819 21.4082C3.4242 20.5294 2.64108 19.8919 1.73342 19.8578L1.70467 19.8567C0.711391 19.8187 -0.0879839 20.668 0.00779731 21.6573C0.58975 27.6581 4.07959 32.9819 9.34616 35.9109C8.95459 36.3723 8.97553 37.0665 9.41084 37.5019L11.7373 39.8283C11.8518 39.9427 12.0017 39.9999 12.1517 39.9999C12.3016 39.9999 12.4516 39.9427 12.566 39.8283L15.1662 37.2283C15.395 36.9994 15.395 36.6285 15.1662 36.3997C14.9373 36.171 14.5664 36.1708 14.3375 36.3997L12.1522 38.585L10.2396 36.6681L16.1661 30.7468L18.0783 32.659L15.994 34.7432C15.7651 34.9721 15.7651 35.343 15.994 35.5719C16.2229 35.8005 16.5939 35.8007 16.8226 35.5719L19.3212 33.0733C19.4311 32.9634 19.4928 32.8144 19.4928 32.659C19.4928 32.5035 19.4311 32.3546 19.3212 32.2446L16.9948 29.9179ZM1.1742 21.5443C1.14631 21.2564 1.38194 21.0148 1.66092 21.0279C1.66873 21.0283 1.6978 21.0293 1.68998 21.029C2.08225 21.0437 2.40764 21.3076 2.49959 21.6855L3.12741 24.2633C3.80623 27.0507 5.67381 29.372 8.25116 30.6321C8.91077 30.9545 9.68522 30.8809 10.2721 30.4397C10.8591 29.9987 11.1453 29.2754 11.019 28.552L10.5236 25.7137C10.4844 25.4899 10.6284 25.2796 10.8512 25.2349C11.0206 25.2012 11.1896 25.2729 11.2826 25.4183L14.6193 30.6307L10.2033 35.0466C10.1324 34.9808 2.11217 31.2159 1.1742 21.5443Z" fill="#FC6537"/>
</g>
<defs>
<clipPath id="clip0">
<rect width="40" height="40" fill="white"/>
</clipPath>
</defs>
</svg>
