<svg width="40" height="40" viewBox="0 0 40 40" fill="none" xmlns="http://www.w3.org/2000/svg">
<path d="M31.0396 35.7186C30.716 35.7186 30.4536 35.9809 30.4536 36.3046C30.4536 36.6282 30.716 36.8905 31.0396 36.8905H34.8463C35.1699 36.8905 35.4322 36.6282 35.4322 36.3046C35.4322 35.9809 35.1699 35.7186 34.8463 35.7186H31.0396Z" fill="white"/>
<path d="M27.2046 5.49817H21.1377C20.8141 5.49817 20.5518 5.76043 20.5518 6.08411C20.5518 6.40778 20.814 6.67004 21.1377 6.67004H27.2046C27.5282 6.67004 27.7905 6.40778 27.7905 6.08411C27.7905 5.76043 27.5282 5.49817 27.2046 5.49817Z" fill="white"/>
<path d="M3.55518 20.5516C3.23158 20.5516 2.96924 20.8139 2.96924 21.1376C2.96924 21.4612 3.23158 21.7235 3.55518 21.7235H6.60049C6.92409 21.7235 7.18643 21.4612 7.18643 21.1376C7.18643 20.8139 6.92409 20.5516 6.60049 20.5516H3.55518Z" fill="white"/>
<path d="M21.1377 15.0119H24.1711C24.4947 15.0119 24.7571 14.7496 24.7571 14.426C24.7571 14.1023 24.4947 13.84 24.1711 13.84H21.1377C20.8141 13.84 20.5518 14.1023 20.5518 14.426C20.5518 14.7496 20.814 15.0119 21.1377 15.0119Z" fill="white"/>
<path d="M24.6045 7.39404H21.1377C20.8141 7.39404 20.5518 7.65631 20.5518 7.97998C20.5518 8.30357 20.814 8.56592 21.1377 8.56592H24.6045C24.9281 8.56592 25.1904 8.30365 25.1904 7.97998C25.1904 7.65631 24.9281 7.39404 24.6045 7.39404Z" fill="white"/>
<path d="M5.15381 35.7186C4.83021 35.7186 4.56787 35.9809 4.56787 36.3046C4.56787 36.6282 4.83021 36.8905 5.15381 36.8905H8.96045C9.28404 36.8905 9.54639 36.6282 9.54639 36.3046C9.54639 35.9809 9.28404 35.7186 8.96045 35.7186H5.15381Z" fill="white"/>
<path d="M7.05717 29.652C5.68459 29.652 4.56787 30.7654 4.56787 32.1339C4.56787 33.5024 5.68451 34.6158 7.05717 34.6158C8.42982 34.6158 9.54646 33.5024 9.54646 32.1339C9.54646 30.7654 8.42982 29.652 7.05717 29.652ZM7.05717 33.4438C6.33076 33.4438 5.73975 32.8563 5.73975 32.1338C5.73975 31.4114 6.33068 30.8238 7.05717 30.8238C7.78365 30.8238 8.37459 31.4114 8.37459 32.1338C8.37459 32.8563 7.78365 33.4438 7.05717 33.4438Z" fill="white"/>
<path d="M17.1942 5.08105C16.1184 5.08105 15.2432 5.95637 15.2432 7.03215C15.2432 8.10793 16.1184 8.98309 17.1942 8.98309C18.27 8.98309 19.1452 8.10785 19.1452 7.03207C19.1452 5.95629 18.27 5.08105 17.1942 5.08105ZM17.1942 7.81129C16.7646 7.81129 16.415 7.46176 16.415 7.03215C16.415 6.60254 16.7646 6.25301 17.1942 6.25301C17.6238 6.25301 17.9733 6.60254 17.9733 7.03215C17.9733 7.46176 17.6238 7.81129 17.1942 7.81129Z" fill="white"/>
<path d="M17.1942 13.423C16.1184 13.423 15.2432 14.2982 15.2432 15.374C15.2432 16.4498 16.1184 17.325 17.1942 17.325C18.27 17.325 19.1452 16.4498 19.1452 15.374C19.1452 14.2982 18.27 13.423 17.1942 13.423ZM17.1942 16.1531C16.7646 16.1531 16.415 15.8036 16.415 15.374C16.415 14.9444 16.7646 14.5948 17.1942 14.5948C17.6238 14.5948 17.9733 14.9444 17.9733 15.374C17.9733 15.8036 17.6238 16.1531 17.1942 16.1531Z" fill="white"/>
<path d="M32.5129 5.49817H29.4795C29.1559 5.49817 28.8936 5.76043 28.8936 6.08411C28.8936 6.40778 29.1559 6.67004 29.4795 6.67004H32.5129C32.8365 6.67004 33.0989 6.40778 33.0989 6.08411C33.0989 5.76043 32.8365 5.49817 32.5129 5.49817Z" fill="white"/>
<path d="M22.4111 35.7186C22.0875 35.7186 21.8252 35.9809 21.8252 36.3046C21.8252 36.6282 22.0875 36.8905 22.4111 36.8905H26.2178C26.5414 36.8905 26.8038 36.6282 26.8038 36.3046C26.8038 35.9809 26.5414 35.7186 26.2178 35.7186H22.4111Z" fill="white"/>
<path d="M24.3145 29.652C22.9419 29.652 21.8252 30.7654 21.8252 32.1339C21.8252 33.5024 22.9418 34.6158 24.3145 34.6158C25.6871 34.6158 26.8038 33.5024 26.8038 32.1339C26.8038 30.7654 25.6871 29.652 24.3145 29.652ZM24.3145 33.4438C23.5881 33.4438 22.9971 32.8563 22.9971 32.1338C22.9971 31.4114 23.588 30.8238 24.3145 30.8238C25.041 30.8238 25.6319 31.4114 25.6319 32.1338C25.6319 32.8563 25.041 33.4438 24.3145 33.4438Z" fill="white"/>
<path d="M28.3963 15.7361H21.1377C20.8141 15.7361 20.5518 15.9983 20.5518 16.322C20.5518 16.6456 20.814 16.908 21.1377 16.908H28.3963C28.7199 16.908 28.9822 16.6457 28.9822 16.322C28.9822 15.9983 28.7199 15.7361 28.3963 15.7361Z" fill="white"/>
<path d="M32.9429 29.652C31.5703 29.652 30.4536 30.7654 30.4536 32.1339C30.4536 33.5024 31.5703 34.6158 32.9429 34.6158C34.3156 34.6158 35.4322 33.5024 35.4322 32.1339C35.4322 30.7654 34.3155 29.652 32.9429 29.652ZM32.9429 33.4438C32.2165 33.4438 31.6255 32.8563 31.6255 32.1338C31.6255 31.4114 32.2164 30.8238 32.9429 30.8238C33.6694 30.8238 34.2603 31.4114 34.2603 32.1338C34.2603 32.8563 33.6693 33.4438 32.9429 33.4438Z" fill="white"/>
<path d="M13.1963 32.1338C13.1963 33.5023 14.3129 34.6157 15.6856 34.6157C17.0582 34.6157 18.1749 33.5023 18.1749 32.1338C18.1749 31.2724 17.7154 30.4745 16.9971 30.0269L17.5769 28.2876C17.6004 28.217 17.6661 28.1696 17.7405 28.1696H34.0296C35.1889 28.1696 36.1322 27.2264 36.1322 26.067V2.10266C36.1322 0.943203 35.1889 0 34.0295 0H15.0704C13.9111 0 12.9678 0.943203 12.9678 2.10266V30.9204C12.9678 31.2188 13.0667 31.4938 13.2318 31.7171C13.2086 31.8541 13.1963 31.994 13.1963 32.1338ZM17.003 32.1338C17.003 32.8562 16.4121 33.4438 15.6856 33.4438C15.0036 33.4438 14.4411 32.9259 14.3749 32.2648H15.2822C15.8618 32.2648 16.3743 31.8953 16.5575 31.3455L16.6072 31.1966C16.856 31.4373 17.003 31.7709 17.003 32.1338ZM14.1396 2.10266C14.1396 1.58945 14.5572 1.17188 15.0704 1.17188H34.0295C34.5427 1.17188 34.9603 1.58945 34.9603 2.10266V2.41508H14.1396V2.10266ZM14.1396 3.58695H34.9603V10.617H14.1396V3.58695ZM14.1396 11.789H34.9603V18.9591H14.1396V11.789ZM14.1396 20.1309H34.9603V26.0669C34.9603 26.5802 34.5427 26.9977 34.0295 26.9977H17.7404C17.1609 26.9977 16.6484 27.3671 16.4651 27.9169L15.4457 30.9749C15.4222 31.0455 15.3565 31.0929 15.2821 31.0929H14.3121C14.217 31.0929 14.1396 31.0155 14.1396 30.9205V20.1309Z" fill="white"/>
<path d="M17.118 25.2122H27.5834C28.5338 25.2122 29.307 24.4391 29.307 23.4887C29.307 22.5383 28.5338 21.7652 27.5834 21.7652H17.118C16.1677 21.7652 15.3945 22.5383 15.3945 23.4887C15.3945 24.4391 16.1677 25.2122 17.118 25.2122ZM17.118 22.937H27.5834C27.8876 22.937 28.1351 23.1844 28.1351 23.4886C28.1351 23.7929 27.8876 24.0403 27.5834 24.0403H17.118C16.8139 24.0403 16.5664 23.7929 16.5664 23.4886C16.5664 23.1844 16.8138 22.937 17.118 22.937Z" fill="white"/>
<path d="M37.8973 15.0154H37.3475C37.0239 15.0154 36.7616 15.2777 36.7616 15.6014C36.7616 15.925 37.0239 16.1873 37.3475 16.1873H37.8973C38.4105 16.1873 38.8281 16.6049 38.8281 17.1181V17.6172H37.4676C37.144 17.6172 36.8816 17.8795 36.8816 18.2032C36.8816 18.5268 37.144 18.7891 37.4676 18.7891H38.8281V26.6184H37.3665C37.0429 26.6184 36.7805 26.8807 36.7805 27.2043C36.7805 27.528 37.0429 27.7903 37.3665 27.7903H38.8281V37.8972C38.8281 38.4104 38.4105 38.828 37.8973 38.828H2.10266C1.58945 38.828 1.17188 38.4104 1.17188 37.8972V27.7812C1.20422 27.7868 1.23727 27.7902 1.27117 27.7902H11.7149C12.0385 27.7902 12.3009 27.5279 12.3009 27.2043C12.3009 26.8806 12.0385 26.6183 11.7149 26.6183H1.27117C1.23727 26.6183 1.20422 26.6218 1.17188 26.6273V18.789H11.5632C11.8868 18.789 12.1491 18.5268 12.1491 18.2031C12.1491 17.8794 11.8868 17.6172 11.5632 17.6172H1.17188V17.118C1.17188 16.6048 1.58945 16.1872 2.10266 16.1872H2.86844C2.86898 16.1872 2.86945 16.1873 2.86992 16.1873H10.4833C10.4838 16.1873 10.4843 16.1872 10.4848 16.1872H11.5632C11.8868 16.1872 12.1491 15.925 12.1491 15.6013C12.1491 15.2776 11.8868 15.0154 11.5632 15.0154H11.0692V14.1075C11.0692 13.3537 10.4559 12.7404 9.70203 12.7404H3.65117C2.89734 12.7404 2.28398 13.3537 2.28398 14.1075V15.0154H2.10266C0.943281 15.0154 0 15.9586 0 17.1181V37.8972C0 39.0567 0.943281 39.9999 2.10266 39.9999H37.8973C39.0567 39.9999 40 39.0567 40 37.8972V17.1181C40 15.9586 39.0567 15.0154 37.8973 15.0154ZM3.45586 14.1076C3.45586 13.9999 3.54352 13.9123 3.65117 13.9123H9.70203C9.80969 13.9123 9.89734 13.9999 9.89734 14.1076V15.0154H3.45586V14.1076Z" fill="white"/>
<path d="M32.5132 13.84H26.4463C26.1227 13.84 25.8604 14.1023 25.8604 14.426C25.8604 14.7496 26.1227 15.0119 26.4463 15.0119H32.5132C32.8368 15.0119 33.0991 14.7496 33.0991 14.426C33.0991 14.1023 32.8368 13.84 32.5132 13.84Z" fill="white"/>
<path d="M32.1337 25.2122C33.084 25.2122 33.8572 24.4391 33.8572 23.4887C33.8572 22.5383 33.0841 21.7652 32.1337 21.7652C31.1834 21.7652 30.4102 22.5383 30.4102 23.4887C30.4102 24.4391 31.1833 25.2122 32.1337 25.2122ZM32.1337 22.937C32.4378 22.937 32.6853 23.1844 32.6853 23.4886C32.6853 23.7929 32.4379 24.0403 32.1337 24.0403C31.8295 24.0403 31.582 23.7929 31.582 23.4886C31.582 23.1844 31.8295 22.937 32.1337 22.937Z" fill="white"/>
<path d="M13.7822 35.7186C13.4586 35.7186 13.1963 35.9809 13.1963 36.3046C13.1963 36.6282 13.4586 36.8905 13.7822 36.8905H17.5889C17.9125 36.8905 18.1749 36.6282 18.1749 36.3046C18.1749 35.9809 17.9125 35.7186 17.5889 35.7186H13.7822Z" fill="white"/>
</svg>
