<svg width="20" height="20" viewBox="0 0 20 20" fill="none" xmlns="http://www.w3.org/2000/svg">
<path d="M10.9766 10C10.9766 9.46152 10.5385 9.02344 10 9.02344C9.46152 9.02344 9.02344 9.46152 9.02344 10C9.02344 10.5385 9.46152 10.9766 10 10.9766C10.5385 10.9766 10.9766 10.5385 10.9766 10Z" fill="#FC6537"/>
<path d="M10.3906 12.1484H9.60938C9.07089 12.1484 8.63281 12.5865 8.63281 13.125V14.6878C9.06677 14.8146 9.5256 14.8828 10 14.8828C10.4744 14.8828 10.9332 14.8146 11.3672 14.6878V13.125C11.3672 12.5865 10.9291 12.1484 10.3906 12.1484Z" fill="#FC6537"/>
<path d="M10 5.11719C7.30759 5.11719 5.11719 7.30759 5.11719 10C5.11719 11.763 6.05652 13.3109 7.46094 14.1693V13.125C7.46094 12.4077 7.81464 11.7719 8.35632 11.3814C8.04169 11.0077 7.85156 10.5257 7.85156 10C7.85156 8.81531 8.81531 7.85156 10 7.85156C11.1847 7.85156 12.1484 8.81531 12.1484 10C12.1484 10.5257 11.9583 11.0077 11.6437 11.3814C12.1854 11.7719 12.5391 12.4077 12.5391 13.125V14.1693C13.9435 13.3109 14.8828 11.7632 14.8828 10C14.8828 7.30759 12.6924 5.11719 10 5.11719Z" fill="#FC6537"/>
<path d="M2.34375 4.6875C2.77771 4.6875 3.18436 4.56848 3.53333 4.36203L5.32639 6.15494C5.57526 5.85297 5.85297 5.57526 6.15494 5.32639L4.36203 3.53333C4.56848 3.18436 4.6875 2.77771 4.6875 2.34375C4.6875 1.05133 3.63617 0 2.34375 0C1.05133 0 0 1.05133 0 2.34375C0 3.63617 1.05133 4.6875 2.34375 4.6875Z" fill="#FC6537"/>
<path d="M17.6559 15.3125C17.222 15.3125 16.8153 15.4315 16.4663 15.638L14.6733 13.8451C14.4244 14.147 14.1467 14.4247 13.8447 14.6736L15.6376 16.4667C15.4312 16.8156 15.3122 17.2223 15.3122 17.6562C15.3122 18.9487 16.3635 20 17.6559 20C18.9483 20 19.9997 18.9487 19.9997 17.6562C19.9997 16.3638 18.9483 15.3125 17.6559 15.3125Z" fill="#FC6537"/>
<path d="M5.32639 13.8451L3.53333 15.638C3.18436 15.4315 2.77771 15.3125 2.34375 15.3125C1.05133 15.3125 0 16.3638 0 17.6562C0 18.9487 1.05133 20 2.34375 20C3.63617 20 4.6875 18.9487 4.6875 17.6562C4.6875 17.2223 4.56848 16.8156 4.36203 16.4667L6.15494 14.6736C5.85297 14.4247 5.57526 14.147 5.32639 13.8451Z" fill="#FC6537"/>
<path d="M14.6815 6.16455L16.4776 4.36829C16.8242 4.57077 17.2268 4.6875 17.6564 4.6875C18.9488 4.6875 20.0001 3.63617 20.0001 2.34375C20.0001 1.05133 18.9488 0 17.6564 0C16.364 0 15.3126 1.05133 15.3126 2.34375C15.3126 2.78229 15.4339 3.1929 15.6443 3.54431L13.8545 5.33417C14.1562 5.58365 14.4331 5.86197 14.6815 6.16455Z" fill="#FC6537"/>
</svg>
