<svg width="66" height="68" viewBox="0 0 66 68" fill="none" xmlns="http://www.w3.org/2000/svg">
<path opacity="0.2" fill-rule="evenodd" clip-rule="evenodd" d="M33 49C46.2548 49 57 38.2548 57 25C57 11.7452 46.2548 1 33 1C19.7452 1 9 11.7452 9 25C9 38.2548 19.7452 49 33 49Z" stroke="#FC6537"/>
<g filter="url(#filter0_d)">
<path fill-rule="evenodd" clip-rule="evenodd" d="M33 43C42.9411 43 51 34.9411 51 25C51 15.0589 42.9411 7 33 7C23.0589 7 15 15.0589 15 25C15 34.9411 23.0589 43 33 43Z" fill="#FC6537"/>
<path d="M33.1341 19.864C33.9021 19.864 34.5528 20.0187 35.0861 20.328C35.6195 20.6373 36.0195 21.0373 36.2861 21.528C36.5528 22.0187 36.6861 22.536 36.6861 23.08C36.6861 23.848 36.5315 24.4773 36.2221 24.968C35.9128 25.4587 35.4168 25.9653 34.7341 26.488L31.6781 28.824C31.4328 28.9947 31.2408 29.1493 31.1021 29.288C30.9741 29.416 30.9101 29.512 30.9101 29.576H36.7341V31H29.1981V30.616C29.1981 30.072 29.3261 29.5547 29.5821 29.064C29.8488 28.5627 30.2168 28.136 30.6861 27.784L33.8701 25.384C34.3181 25.0213 34.6381 24.664 34.8301 24.312C35.0221 23.96 35.1181 23.5707 35.1181 23.144C35.1181 22.824 35.0381 22.5253 34.8781 22.248C34.7181 21.96 34.4835 21.7307 34.1741 21.56C33.8648 21.3787 33.4915 21.288 33.0541 21.288C32.6061 21.288 32.2061 21.384 31.8541 21.576C31.5128 21.768 31.2461 22.024 31.0541 22.344C30.8621 22.664 30.7661 23.016 30.7661 23.4V23.624C30.7661 23.7093 30.7715 23.7733 30.7821 23.816H29.2141L29.1981 23.656V23.528C29.1981 22.9093 29.3368 22.3227 29.6141 21.768C29.8915 21.2027 30.3235 20.744 30.9101 20.392C31.4968 20.04 32.2381 19.864 33.1341 19.864Z" fill="white"/>
</g>
<defs>
<filter id="filter0_d" x="0" y="2" width="66" height="66" filterUnits="userSpaceOnUse" color-interpolation-filters="sRGB">
<feFlood flood-opacity="0" result="BackgroundImageFix"/>
<feColorMatrix in="SourceAlpha" type="matrix" values="0 0 0 0 0 0 0 0 0 0 0 0 0 0 0 0 0 0 127 0"/>
<feOffset dy="10"/>
<feGaussianBlur stdDeviation="7.5"/>
<feColorMatrix type="matrix" values="0 0 0 0 0.0823529 0 0 0 0 0.145098 0 0 0 0 0.278431 0 0 0 0.15 0"/>
<feBlend mode="normal" in2="BackgroundImageFix" result="effect1_dropShadow"/>
<feBlend mode="normal" in="SourceGraphic" in2="effect1_dropShadow" result="shape"/>
</filter>
</defs>
</svg>
