<svg width="93" height="79" viewBox="0 0 93 79" fill="none" xmlns="http://www.w3.org/2000/svg">
<circle cx="37.5701" cy="37.5701" r="36.5701" stroke="#DDDDDD" stroke-miterlimit="10"/>
<path d="M37.5703 1V74.1402" stroke="#FC6537" stroke-miterlimit="10" stroke-dasharray="2 2"/>
<path d="M37.5704 1C37.5704 1 17.1592 10.954 17.1592 35.6226C17.1592 64.1862 37.5704 74.1402 37.5704 74.1402" stroke="#DDDDDD" stroke-miterlimit="10"/>
<path d="M37.5703 1C37.5703 1 57.9814 10.954 57.9814 35.6226C57.9814 64.1862 37.5702 74.1402 37.5702 74.1402" stroke="#DDDDDD" stroke-miterlimit="10"/>
<path d="M2.70117 27.3645L72.4395 27.3645" stroke="#DDDDDD" stroke-miterlimit="10"/>
<path d="M3.55176 50.3271L71.5891 50.3271" stroke="#DDDDDD" stroke-miterlimit="10"/>
<path d="M74.0098 37.3172L82.6418 32.8503C83.9697 32.1632 84.8035 30.7929 84.8035 29.2978V20.5608M77.6077 49.419L89.0013 52.367C90.7664 52.8237 91.9993 54.4162 91.9993 56.2394V64.3136M74.9092 63.3827L82.264 68.2265C83.7648 69.215 84.4222 71.0829 83.8713 72.7934L82.1051 78.2773" stroke="#7C7C7C"/>
<path d="M66.5146 37.3172L57.4916 32.8348C56.1314 32.159 55.2712 30.7712 55.2712 29.2524V20.5608M62.7668 49.419L50.8113 52.3886C49.0278 52.8316 47.7755 54.4329 47.7755 56.2707V64.3136M64.6407 63.3827L57.7336 68.1865C56.2743 69.2014 55.6598 71.0575 56.2252 72.7427L58.082 78.2773" stroke="#7C7C7C"/>
<path d="M78.1318 35.552H61.6433C60.9446 35.552 60.2934 35.9127 59.9544 36.5236C54.5415 46.279 49.4466 67.7833 69.2655 67.7833C91.7884 67.7833 85.3315 46.2758 79.8244 36.5214C79.4809 35.913 78.8305 35.552 78.1318 35.552Z" fill="#FC6537"/>
<path d="M69.8871 25.8076C65.3674 25.8076 61.5951 29.1359 60.7126 33.5644C60.4968 34.6477 61.413 35.552 62.5176 35.552H77.2567C78.3613 35.552 79.2775 34.6477 79.0616 33.5644C78.1792 29.1359 74.4069 25.8076 69.8871 25.8076Z" fill="#FC6537"/>
<line x1="60.5176" y1="35.052" x2="79.2567" y2="35.052" stroke="white"/>
<line x1="70.0127" y1="35.552" x2="70.0127" y2="67.7833" stroke="white"/>
</svg>
