<svg width="91" height="85" viewBox="0 0 91 85" fill="none" xmlns="http://www.w3.org/2000/svg">
<path d="M1 84.3018H89.9743" stroke="#7C7C7C" stroke-miterlimit="10"/>
<path d="M1.0166 78.166L30.1299 79.8604" stroke="#FC6537" stroke-miterlimit="10" stroke-dasharray="2 2"/>
<path d="M1.0166 70.3784C32.3035 70.9518 42.6498 79.287 41.0752 84.3018" stroke="#DDDDDD" stroke-miterlimit="10"/>
<path d="M89.9998 78.166L60.8779 79.8604" stroke="#FC6537" stroke-miterlimit="10" stroke-dasharray="2 2"/>
<path d="M90.0001 70.3784C58.7132 70.9518 48.367 79.2955 49.9416 84.3018" stroke="#DDDDDD" stroke-miterlimit="10"/>
<path d="M45.4658 0V7.66769" stroke="#7C7C7C"/>
<path d="M22.4974 50.5845L13.2979 55.18" stroke="#7C7C7C"/>
<path d="M16.3609 32.1855H7.16992" stroke="#7C7C7C"/>
<path d="M21.3245 14.8648L12.125 10.2693" stroke="#7C7C7C"/>
<path d="M68.4775 50.5845L77.6771 55.18" stroke="#7C7C7C"/>
<path d="M74.6045 32.1855H83.804" stroke="#7C7C7C"/>
<path d="M69.4619 14.5053L79.1749 11.125" stroke="#7C7C7C"/>
<path d="M45.2347 64.1825C29.8539 64.1825 23.8546 38.4246 22.5545 23.7112C22.453 22.5621 23.3708 21.5997 24.5242 21.5829C33.5778 21.4515 39.6162 20.4326 44.0036 17.8089C44.671 17.4098 45.5 17.3701 46.198 17.713C51.5 20.3177 59.6449 21.6313 66.172 21.6536C67.4331 21.6579 68.452 22.749 68.3043 24.0014C67.0568 34.5867 63.7163 64.1825 45.2347 64.1825Z" fill="#FC6537"/>
<path d="M45.0112 17.1152V64.1826M25.3896 41.0348H65.6108" stroke="white"/>
</svg>
