<svg width="98" height="98" viewBox="0 0 98 98" fill="none" xmlns="http://www.w3.org/2000/svg">
<ellipse rx="2.69158" ry="2.68058" transform="matrix(1 0 0 -1 94.3088 24.2489)" stroke="#DDDDDD" stroke-miterlimit="10"/>
<ellipse rx="2.69157" ry="2.68058" transform="matrix(1 0 0 -1 90.7199 61.7769)" stroke="#DDDDDD" stroke-miterlimit="10"/>
<path d="M71.8789 37.6517H80.8508L92.5143 26.0359M71.8789 61.777H88.9255" stroke="#DDDDDD" stroke-miterlimit="10"/>
<ellipse rx="2.69158" ry="2.68058" transform="matrix(-1 -1.10637e-07 -6.90811e-08 1 3.69124 72.4994)" stroke="#DDDDDD" stroke-miterlimit="10"/>
<ellipse rx="2.69158" ry="2.68058" transform="matrix(-1 -1.10637e-07 -6.90807e-08 1 7.2801 34.9714)" stroke="#DDDDDD" stroke-miterlimit="10"/>
<path d="M26.1211 59.0965L17.1492 59.0965L5.48569 70.7124M26.1211 34.9713L9.07446 34.9713" stroke="#DDDDDD" stroke-miterlimit="10"/>
<ellipse rx="2.68058" ry="2.69158" transform="matrix(-3.45406e-08 1 1 5.53184e-08 74.5695 93.944)" stroke="#DDDDDD" stroke-miterlimit="10"/>
<ellipse rx="2.68058" ry="2.69158" transform="matrix(-3.45379e-08 1 1 5.53223e-08 36.8869 90.37)" stroke="#DDDDDD" stroke-miterlimit="10"/>
<path d="M61.1119 71.6057L61.1119 80.541L72.7754 92.1569M36.8877 71.6057L36.8877 88.5827" stroke="#DDDDDD" stroke-miterlimit="10"/>
<ellipse rx="2.68058" ry="2.69157" transform="matrix(-3.45334e-08 -1 -1 5.53278e-08 26.1209 3.6971)" stroke="#DDDDDD" stroke-miterlimit="10"/>
<ellipse rx="2.68058" ry="2.69157" transform="matrix(-3.45333e-08 -1 -1 5.53276e-08 63.8035 7.27132)" stroke="#DDDDDD" stroke-miterlimit="10"/>
<path d="M39.5795 26.0354L39.5795 17.1001L27.916 5.48426M63.8037 26.0354L63.8037 9.05837" stroke="#DDDDDD" stroke-miterlimit="10"/>
<line x1="88.3213" y1="47.1587" x2="9.67826" y2="47.1587" stroke="#7C7C7C"/>
<line x1="49.9219" y1="87.4014" x2="49.9219" y2="9.70584" stroke="#7C7C7C"/>
<path d="M71.8789 41.9629L80.8508 41.9629" stroke="#FC6537" stroke-miterlimit="10" stroke-dasharray="2 2"/>
<path d="M45.6689 25.1421L45.6689 17.9939" stroke="#FC6537" stroke-miterlimit="10" stroke-dasharray="2 2"/>
<path d="M54.0439 71.6055L54.0439 80.5407" stroke="#FC6537" stroke-miterlimit="10" stroke-dasharray="2 2"/>
<path d="M25.2246 51.2688L18.0471 51.2688" stroke="#FC6537" stroke-miterlimit="10" stroke-dasharray="2 2"/>
<rect x="25.2246" y="25.1421" width="46.654" height="46.4634" rx="2" fill="#FC6537"/>
<path d="M39.1157 44.0367V55.3767H36.9197V44.0367H39.1157ZM46.7225 43.8567C47.5145 43.8567 48.2465 43.9887 48.9185 44.2527C49.5905 44.5047 50.1665 44.8827 50.6465 45.3867C51.1385 45.8787 51.5225 46.4907 51.7985 47.2227C52.0745 47.9427 52.2125 48.7767 52.2125 49.7247C52.2125 50.6487 52.0685 51.4707 51.7805 52.1907C51.5045 52.9107 51.1145 53.5227 50.6105 54.0267C50.1185 54.5187 49.5305 54.8967 48.8465 55.1607C48.1745 55.4247 47.4425 55.5567 46.6505 55.5567C45.8585 55.5567 45.1265 55.4307 44.4545 55.1787C43.7825 54.9267 43.2005 54.5547 42.7085 54.0627C42.2285 53.5707 41.8505 52.9647 41.5745 52.2447C41.2985 51.5127 41.1605 50.6727 41.1605 49.7247C41.1605 48.8007 41.2985 47.9787 41.5745 47.2587C41.8625 46.5267 42.2525 45.9087 42.7445 45.4047C43.2485 44.9007 43.8365 44.5167 44.5085 44.2527C45.1925 43.9887 45.9305 43.8567 46.7225 43.8567ZM43.5005 49.7247C43.5005 50.4327 43.5845 51.0447 43.7525 51.5607C43.9205 52.0767 44.1485 52.5087 44.4365 52.8567C44.7365 53.1927 45.0785 53.4447 45.4625 53.6127C45.8585 53.7807 46.2785 53.8647 46.7225 53.8647C47.1665 53.8647 47.5805 53.7807 47.9645 53.6127C48.3485 53.4447 48.6785 53.1927 48.9545 52.8567C49.2425 52.5087 49.4645 52.0767 49.6205 51.5607C49.7885 51.0447 49.8725 50.4327 49.8725 49.7247C49.8725 49.0047 49.7885 48.3807 49.6205 47.8527C49.4525 47.3247 49.2185 46.8927 48.9185 46.5567C48.6305 46.2087 48.2885 45.9567 47.8925 45.8007C47.5085 45.6327 47.0945 45.5487 46.6505 45.5487C46.2065 45.5487 45.7925 45.6387 45.4085 45.8187C45.0245 45.9867 44.6885 46.2447 44.4005 46.5927C44.1245 46.9287 43.9025 47.3607 43.7345 47.8887C43.5785 48.4167 43.5005 49.0287 43.5005 49.7247ZM61.286 44.0367V45.8007H57.956V55.3767H55.76V45.8007H52.52V44.0367H61.286Z" fill="white"/>
</svg>
