<svg width="40" height="40" viewBox="0 0 40 40" fill="none" xmlns="http://www.w3.org/2000/svg">
<path d="M39.6911 35.548L39.1205 34.9773C38.8916 34.7484 38.5206 34.7484 38.2919 34.9772C38.063 35.206 38.063 35.577 38.2918 35.8058L38.7795 36.2936L36.2938 38.7795L32.0677 34.5534L34.5535 32.0676L36.5251 34.0391C36.754 34.2679 37.1249 34.2679 37.3537 34.0391C37.5826 33.8102 37.5826 33.4393 37.3537 33.2105L34.9689 30.8257C34.9685 30.8253 34.9682 30.8249 34.9679 30.8245L33.3106 29.1673C33.3102 29.1668 33.3097 29.1665 33.3092 29.166L31.8466 27.7034C31.6474 27.5041 31.3826 27.3944 31.1008 27.3944C30.819 27.3944 30.5541 27.5041 30.355 27.7033L30.2721 27.7863L28.1755 25.6891C29.6741 23.8167 30.7564 21.5979 31.2817 19.1736H35.4102C35.7339 19.1736 35.9962 18.9113 35.9962 18.5877C35.9962 18.264 35.7339 18.0017 35.4102 18.0017H31.4895C31.5411 17.6291 31.5797 17.2523 31.6048 16.872H38.2031C38.5268 16.872 38.7891 16.6097 38.7891 16.286C38.7891 15.9623 38.5268 15.7001 38.2031 15.7001H31.6394C31.6366 15.3209 31.6209 14.9442 31.5921 14.5702H35.4103C35.734 14.5702 35.9963 14.308 35.9963 13.9843C35.9963 13.6606 35.734 13.3984 35.4103 13.3984H31.4583C31.0489 10.7047 29.9541 8.185 28.2314 6.00859C28.0305 5.75492 27.6621 5.71211 27.4083 5.91281C27.1546 6.11367 27.1117 6.48219 27.3125 6.73594C29.3773 9.34445 30.4688 12.4858 30.4688 15.8203C30.4688 23.8975 23.8975 30.4688 15.8203 30.4688C7.74312 30.4688 1.17188 23.8975 1.17188 15.8203C1.17188 7.74312 7.74312 1.17188 15.8203 1.17188C19.4717 1.17188 22.9696 2.52328 25.6695 4.97711C25.9088 5.19492 26.2796 5.17711 26.4971 4.93766C26.7148 4.6982 26.6971 4.32758 26.4576 4.10992C23.5416 1.45961 19.7639 0 15.8203 0C7.09695 0 0 7.09695 0 15.8203C0 23.522 5.53234 29.9548 12.8315 31.3562V35.3092C12.8315 35.6329 13.0938 35.8952 13.4174 35.8952C13.7411 35.8952 14.0034 35.6329 14.0034 35.3092V31.5357C14.3762 31.5785 14.753 31.6085 15.1332 31.6248V38.0647C15.1332 38.3884 15.3955 38.6506 15.7191 38.6506C16.0428 38.6506 16.3051 38.3884 16.3051 38.0647V31.6325C16.6851 31.621 17.062 31.5968 17.4349 31.5588V35.3092C17.4349 35.6329 17.6972 35.8952 18.0209 35.8952C18.3445 35.8952 18.6068 35.6329 18.6068 35.3092V31.3948C21.2523 30.9228 23.6716 29.7903 25.6891 28.1755L27.7863 30.2722L27.7035 30.355C27.5042 30.5542 27.3945 30.8191 27.3945 31.1009C27.3945 31.3827 27.5042 31.6475 27.7034 31.8466L29.1665 33.3097C29.1668 33.31 29.167 33.3103 29.1673 33.3106L30.8246 34.9679C30.8249 34.9682 30.8254 34.9685 30.8257 34.9689L35.5478 39.6909C35.747 39.8903 36.0119 40 36.2937 40C36.5755 40 36.8402 39.8903 37.0395 39.6911L39.6911 37.0395C39.8903 36.8402 40 36.5755 40 36.2937C40 36.0119 39.8903 35.747 39.6911 35.548ZM27.4079 26.5788L29.4434 28.6147L28.6148 29.4433L26.5788 27.4078C26.8652 27.1418 27.1418 26.8652 27.4079 26.5788ZM31.239 33.7248L30.4103 32.8962L32.8962 30.4104L33.7248 31.2391L31.239 33.7248ZM31.1009 28.6149L32.0676 29.5816L29.5817 32.0675L28.615 31.1008L31.1009 28.6149Z" fill="white"/>
<path d="M7.66064 26.5462C10.0074 28.3102 12.8267 29.2614 15.8203 29.2969C23.2513 29.2969 29.2969 23.2513 29.2969 15.8203C29.2969 8.3893 23.2513 2.34375 15.8203 2.34375C12.2342 2.34375 8.86111 3.74742 6.32275 6.29617C3.79509 8.83406 2.38205 12.2143 2.34377 15.8141C2.30861 19.128 3.51275 22.3134 5.73431 24.7832C5.95072 25.0238 6.32119 25.0434 6.56181 24.827C6.80244 24.6106 6.82205 24.2401 6.60564 23.9995C4.58095 21.7486 3.48353 18.846 3.51564 15.8266C3.55056 12.5341 4.84236 9.4432 7.15306 7.1232C9.46994 4.7968 12.548 3.51562 15.8203 3.51562C22.6052 3.51562 28.125 9.03547 28.125 15.8203C28.125 22.6052 22.6052 28.125 15.8273 28.1251C13.0914 28.0926 10.511 27.2227 8.3647 25.6095C8.10619 25.4149 7.73869 25.4672 7.54431 25.7259C7.34978 25.9845 7.40189 26.3519 7.66064 26.5462Z" fill="white"/>
<path d="M18.0469 5.35156H13.9844C13.489 5.35156 13.0859 5.75461 13.0859 6.25V8.32031H9.29685C8.80146 8.32031 8.39842 8.72336 8.39842 9.21875V15.5078H7.6142C7.29052 15.5078 7.02826 15.7701 7.02826 16.0938C7.02826 16.4174 7.29052 16.6797 7.6142 16.6797H24.417C24.7407 16.6797 25.0029 16.4174 25.0029 16.0938C25.0029 15.7701 24.7407 15.5078 24.417 15.5078H23.6328V12.1875C23.6328 11.6921 23.2297 11.2891 22.7344 11.2891H18.9453V6.25C18.9453 5.75461 18.5422 5.35156 18.0469 5.35156ZM9.57029 9.49219H13.0859V15.5078H9.57029V9.49219ZM14.2578 6.52344H17.7734V15.5078H14.2578V6.52344ZM22.4609 12.4609V15.5078H18.9453V12.4609H22.4609Z" fill="white"/>
<path d="M22.5781 21.6447H19.8196L18.5665 18.4413C18.4779 18.215 18.2608 18.0685 18.0156 18.0688C17.7725 18.071 17.5559 18.2231 17.4714 18.4511L15.7589 23.069L14.562 19.6766C14.4854 19.4594 14.2887 19.3072 14.0592 19.2877C13.83 19.2678 13.6101 19.3849 13.4978 19.5858L12.3484 21.6446H9.59717C9.2735 21.6446 9.01123 21.9069 9.01123 22.2306C9.01123 22.5542 9.2735 22.8165 9.59717 22.8165H12.6923C12.9047 22.8165 13.1004 22.7016 13.204 22.5162L13.8886 21.29L15.1926 24.9861C15.2747 25.2188 15.4937 25.3751 15.7404 25.3771H15.7452C15.99 25.3771 16.2093 25.2248 16.2945 24.9949L18.0354 20.3005L18.8739 22.4441C18.9618 22.6687 19.1783 22.8166 19.4195 22.8166H22.5781C22.9018 22.8166 23.164 22.5543 23.164 22.2306C23.164 21.907 22.9018 21.6447 22.5781 21.6447Z" fill="white"/>
</svg>
