<svg width="40" height="40" viewBox="0 0 40 40" fill="none" xmlns="http://www.w3.org/2000/svg">
<g clip-path="url(#clip0)">
<path d="M18.132 11.0371C18.2382 11.127 18.3725 11.1759 18.5107 11.1759C18.5273 11.1759 18.544 11.1752 18.5606 11.1738C18.7159 11.1605 18.8596 11.0859 18.9598 10.9664L22.698 6.50594C22.9059 6.2579 22.8734 5.88836 22.6253 5.68055C22.3774 5.47258 22.0078 5.50516 21.7999 5.75329L18.4398 9.76226L16.9028 8.46055C16.6559 8.25133 16.2861 8.28203 16.077 8.52899C15.8679 8.77594 15.8986 9.1457 16.1455 9.35477L18.132 11.0371Z" fill="#FC6537"/>
<path d="M19.6146 16.3885C21.6145 16.3885 23.6143 15.6275 25.1368 14.1057C26.611 12.6322 27.4228 10.6724 27.4228 8.58747C27.4228 6.50262 26.6111 4.54239 25.1368 3.06754C23.5382 1.46958 21.3296 0.642545 19.0782 0.800201C16.817 0.957935 14.7396 2.0827 13.379 3.88614C13.1842 4.1445 13.2356 4.51184 13.4939 4.70676C13.7524 4.90176 14.1196 4.85028 14.3146 4.59192C15.4709 3.05926 17.2369 2.10333 19.1599 1.96926C21.0726 1.83622 22.9497 2.53825 24.3082 3.89622C25.561 5.1495 26.251 6.81559 26.251 8.58747C26.251 10.3593 25.5611 12.0247 24.3084 13.2769C21.7202 15.864 17.5092 15.8639 14.921 13.2769C13.2245 11.5811 12.5758 9.09169 13.2282 6.78005C13.3161 6.46864 13.1349 6.14489 12.8234 6.057C12.5125 5.96919 12.1882 6.15036 12.1003 6.46176C11.3328 9.1813 12.0962 12.1103 14.0925 14.1057C15.615 15.6276 17.6148 16.3885 19.6146 16.3885Z" fill="#FC6537"/>
<path d="M37.6172 29.8387C37.4227 29.7278 37.2219 29.6137 37.0156 29.4903L35.4836 28.5716C36.1961 27.8145 36.7297 26.895 36.9398 25.9739C37.0039 25.6958 37.0367 25.4223 37.0367 25.1622V21.2841C37.0367 19.52 35.7094 17.9278 33.6539 17.2286C31.857 16.6177 30.0734 16.9012 29.1133 17.9262C28.1289 18.0997 26.7484 18.8802 26.7953 21.9028C26.7961 21.9294 26.7961 21.9512 26.7961 21.9684V25.1622C26.7961 25.4223 26.8289 25.6958 26.893 25.9716C27.1023 26.8934 27.6352 27.8145 28.3492 28.5723L26.843 29.4755C26.832 29.4809 26.8211 29.488 26.8102 29.4942C26.607 29.6161 26.4078 29.7294 26.2156 29.8387C25.6398 30.1661 25.0789 30.4841 24.6461 30.9294L23.5664 30.2817C24.2797 29.5239 24.8133 28.6044 25.0234 27.6841C25.0859 27.4098 25.118 27.1364 25.118 26.8716V25.1481C25.118 25.1477 25.118 25.1473 25.118 25.147V22.9931C25.118 21.2298 23.7913 19.6385 21.738 18.9393C19.9414 18.3274 18.157 18.6105 17.1969 19.6351C16.2119 19.808 14.831 20.5884 14.8788 23.6108C14.8793 23.638 14.8797 23.6604 14.8797 23.6772V24.4208V25.4791V26.8716C14.8797 27.1239 14.9109 27.3958 14.9742 27.6841C15.1844 28.6044 15.718 29.5239 16.432 30.2817L15.3539 30.9294C14.9203 30.4841 14.3594 30.1653 13.7828 29.838C13.5883 29.727 13.3875 29.6137 13.182 29.4903L13.1664 29.4809C13.1648 29.4801 13.1634 29.4791 13.1618 29.4782L11.6497 28.5723C12.363 27.8148 12.8965 26.8953 13.1066 25.974C13.1695 25.7018 13.2014 25.4287 13.2014 25.1625V23.4359V22.7784V21.2842C13.2014 19.5205 11.8745 17.929 9.82094 17.2295C8.02398 16.6174 6.23891 16.9008 5.27805 17.9262C4.29375 18.0992 2.9143 18.8797 2.96219 21.9017C2.96266 21.9291 2.96305 21.9514 2.96305 21.9682V22.7098V23.7679V25.1625C2.96305 25.4287 2.99492 25.7017 3.05742 25.9724C3.26781 26.8945 3.80133 27.8144 4.51453 28.5719L2.9818 29.4902C2.77664 29.6133 2.57609 29.7273 2.38203 29.8375C1.15711 30.5336 0 31.1911 0 33.1073V36.5495C0 36.6662 0 37.0215 0.256484 37.2734C0.471094 37.4842 0.733281 37.5072 0.932344 37.5072C0.961875 37.5072 0.99 37.5067 1.01633 37.5062C1.04422 37.5058 1.07344 37.5052 1.10406 37.5052H6.88344C6.88383 37.5052 6.88422 37.5052 6.88461 37.5052C6.885 37.5052 6.88539 37.5052 6.88578 37.5052H8.08164H8.08195H9.2743C9.27461 37.5052 9.27492 37.5052 9.27523 37.5052C9.27555 37.5052 9.27586 37.5052 9.27617 37.5052H11.9163V38.2583C11.9163 38.3755 11.9163 38.7317 12.1741 38.9841C12.3889 39.195 12.6506 39.2184 12.8498 39.2184C12.8795 39.2184 12.9077 39.2177 12.9342 39.2177C12.9616 39.2169 12.9905 39.2161 13.0209 39.2161H13.6959C14.0194 39.2161 14.2819 38.9536 14.2819 38.6302C14.2819 38.3067 14.0194 38.0442 13.6959 38.0442H13.0881V37.5052V36.3333V34.8161C13.0881 33.6309 13.6053 33.2903 14.8795 32.5677C14.8991 32.5567 14.9186 32.545 14.9389 32.5341C15.0202 32.488 15.1022 32.4403 15.1866 32.3919L16.1639 33.0247L17.1709 33.677C17.1795 33.6817 17.1881 33.6872 17.1967 33.6919C17.267 33.7325 17.3288 33.7755 17.3889 33.8161C17.5116 33.8997 17.7459 34.0598 18.0295 34.0598C18.1467 34.0598 18.2725 34.0325 18.4022 33.9614L18.4827 34.277L17.3405 36.7512C17.3397 36.7528 17.3389 36.7552 17.3381 36.7567C17.2405 36.9583 17.2561 37.1809 17.3772 37.3645L17.7764 38.0442H16.4022C16.0788 38.0442 15.8162 38.3067 15.8162 38.6302C15.8162 38.9536 16.0788 39.2161 16.4022 39.2161H18.7998H18.8014H26.9772C27.0077 39.2161 27.0366 39.2169 27.0639 39.2177C27.0905 39.2177 27.1186 39.2184 27.1483 39.2184C27.3483 39.2184 27.6108 39.195 27.8264 38.9841C28.0834 38.7317 28.0834 38.3755 28.0834 38.2583V37.5052H33.1084H33.11H38.8959C38.9256 37.5052 38.9553 37.5059 38.9827 37.5059C39.0092 37.5067 39.0373 37.5075 39.067 37.5075C39.2663 37.5075 39.528 37.4841 39.7428 37.2731C39.9998 37.0208 39.9998 36.6661 39.9998 36.5497V33.1075C40 31.1919 38.843 30.5341 37.6172 29.8387ZM11.773 30.0116L10.2834 30.975C10.2219 31.0114 10.1672 31.0467 10.1187 31.0792L9.79844 30.74C9.79305 30.7338 9.78719 30.728 9.78156 30.7221L9.24773 30.1566C9.30531 30.1373 9.36359 30.1167 9.42289 30.0945C9.87617 29.9257 10.3163 29.6823 10.7269 29.3848L11.773 30.0116ZM5.62898 19.0609C5.79211 19.0466 5.9418 18.9646 6.04172 18.8349C6.63648 18.0632 8.03516 17.8592 9.4432 18.3387C10.6363 18.7452 12.0295 19.7604 12.0295 21.2842V22.7784V22.85H11.7828C11.2053 22.85 10.8323 22.5281 10.2716 22.003C9.64047 21.4119 8.855 20.6762 7.49094 20.6762H6.44125C5.16656 20.6762 4.95367 21.712 4.82656 22.3309C4.68031 23.0426 4.61102 23.1821 4.14469 23.1821H4.13492V22.7099V21.9684C4.13492 21.9469 4.13453 21.9183 4.13391 21.8833C4.10578 20.1002 4.60867 19.1507 5.62898 19.0609ZM4.19969 25.7102C4.15672 25.5244 4.135 25.3401 4.135 25.1625V24.3538H4.14477C5.60727 24.3538 5.84609 23.1912 5.97445 22.5667C6.12219 21.848 6.18344 21.848 6.44133 21.848H7.49109C8.39203 21.848 8.89195 22.3161 9.4707 22.8582C10.053 23.4036 10.713 24.0218 11.783 24.0218H12.0297V25.1625C12.0297 25.3401 12.008 25.5244 11.9646 25.7118C11.654 27.0735 10.3855 28.4856 9.0132 28.9967C8.66117 29.1284 8.36539 29.1898 8.08242 29.1898C7.79945 29.1898 7.50367 29.1284 7.15086 28.9964C5.77922 28.4856 4.51062 27.0736 4.19969 25.7102ZM8.71008 31.2943L8.51977 32.0387H7.6407L7.45164 31.2973L8.08227 30.6293L8.71008 31.2943ZM5.43758 29.385C5.84797 29.6824 6.28789 29.9256 6.74086 30.0944C6.80039 30.1166 6.85898 30.1373 6.9168 30.1568L6.04609 31.0791C5.99734 31.0466 5.94234 31.0112 5.88055 30.9748L4.39156 30.0118L5.43758 29.385ZM5.45297 35.644L5.85898 36.3333H1.17188V33.1073C1.17188 31.9204 1.68836 31.5796 2.96109 30.8564C3.06164 30.7992 3.16398 30.7411 3.26836 30.6809L5.25484 31.9656C5.2625 31.9705 5.27016 31.9752 5.27797 31.9798C5.3482 32.0208 5.41008 32.0632 5.46992 32.1042C5.60328 32.1956 5.83477 32.3542 6.11422 32.3542C6.23102 32.3542 6.35625 32.3261 6.48617 32.2541L6.56617 32.568L5.42445 35.0417C5.32641 35.2373 5.33727 35.4591 5.45297 35.644ZM8.94102 36.3333H8.08258C8.0825 36.3333 8.08242 36.3333 8.08227 36.3333H7.21906L6.60234 35.2862L7.56031 33.2107H8.59992L9.55789 35.2862L8.94102 36.3333ZM11.9164 34.8161V36.3333H10.3011L10.7072 35.6441C10.8227 35.4595 10.8337 35.2379 10.7358 35.0421L9.59398 32.5683L9.67477 32.2523C9.80602 32.3257 9.93258 32.3545 10.0506 32.3545C10.3312 32.3545 10.5637 32.1948 10.6975 32.1028C10.7569 32.0621 10.8182 32.0199 10.8877 31.9792C10.8951 31.9749 10.9023 31.9704 10.9095 31.9658L12.8961 30.681C13.0005 30.7412 13.1028 30.7995 13.203 30.8569C13.6632 31.1186 14.0241 31.3295 14.2984 31.5498C13.0734 32.245 11.9164 32.9028 11.9164 34.8161ZM35.6063 30.0122L34.1195 30.9747C34.057 31.0114 34.0016 31.0473 33.9523 31.0802L33.632 30.7403C33.6258 30.7333 33.618 30.7255 33.6109 30.7184L33.0812 30.1567C33.1391 30.138 33.1969 30.1169 33.2562 30.095C33.7094 29.9255 34.1492 29.6825 34.5602 29.3848L35.6063 30.0122ZM29.4641 19.0606C29.6273 19.0466 29.7773 18.9645 29.8773 18.8348C30.4711 18.0637 31.8687 17.8591 33.2766 18.338C34.4703 18.745 35.8648 19.7598 35.8648 21.2841V22.8497H35.6164C35.0391 22.8497 34.6664 22.5286 34.1063 22.0036C33.475 21.4122 32.6898 20.6762 31.3242 20.6762H30.2742C28.9992 20.6762 28.7867 21.7122 28.6602 22.3317C28.5141 23.0427 28.4453 23.1817 27.9805 23.1817H27.968V21.9684C27.968 21.9473 27.968 21.9184 27.9672 21.8841C27.9398 20.1005 28.443 19.1505 29.4641 19.0606ZM28.0352 25.7106C27.9906 25.5184 27.968 25.3341 27.968 25.1622V24.3536H27.9805C29.4414 24.3536 29.6797 23.1911 29.8078 22.5669C29.9555 21.8481 30.0164 21.8481 30.2742 21.8481H31.3242C32.2266 21.8481 32.7266 22.3161 33.3047 22.8583C33.8867 23.4036 34.5461 24.0216 35.6164 24.0216H35.8648V25.1622C35.8648 25.3341 35.8422 25.5184 35.7977 25.7122C35.4875 27.0739 34.2188 28.4856 32.8453 28.9973C32.4961 29.1286 32.2008 29.1895 31.9156 29.1895C31.632 29.1895 31.3375 29.1286 30.9859 28.9966C29.6125 28.4848 28.3438 27.0731 28.0352 25.7106ZM32.5438 31.295L32.3547 32.0387H31.4742L31.2852 31.2973L31.9156 30.6294L32.5438 31.295ZM29.2719 29.3856C29.682 29.6825 30.1219 29.9255 30.575 30.0942C30.6344 30.1161 30.693 30.1372 30.7508 30.1567L29.8797 31.0786C29.8305 31.0466 29.7758 31.0114 29.7141 30.9747L28.2266 30.0114L29.2719 29.3856ZM23.6906 31.7223L22.2039 32.6856C22.1414 32.7216 22.0859 32.7575 22.0367 32.7895L21.1648 31.8677C21.2227 31.8481 21.2805 31.8278 21.3398 31.8059C21.7937 31.6364 22.2336 31.3927 22.6445 31.0942L23.6906 31.7223ZM17.5477 20.7699C17.7109 20.7555 17.8606 20.6736 17.9605 20.5438C18.5546 19.7729 19.9523 19.5693 21.3602 20.0487C22.5531 20.4549 23.9462 21.4698 23.9462 22.9932V24.4861C23.9462 24.4865 23.9461 24.4869 23.9461 24.4872V24.5611H23.6995C23.1223 24.5611 22.7498 24.2395 22.1897 23.7146C21.5586 23.1233 20.7732 22.3873 19.4077 22.3873H18.358C17.0829 22.3873 16.8703 23.4236 16.7434 24.0427C16.5975 24.7537 16.5284 24.8931 16.0637 24.8931H16.0516V24.4208V23.6772C16.0516 23.6557 16.0513 23.6271 16.0506 23.5923C16.0223 21.8092 16.526 20.8597 17.5477 20.7699ZM16.118 27.4278C16.0742 27.227 16.0516 27.0403 16.0516 26.8716V26.065H16.0636C17.5248 26.065 17.7632 24.9027 17.8913 24.2781C18.0387 23.5591 18.1001 23.5591 18.358 23.5591H19.4077C20.31 23.5591 20.8098 24.0273 21.3884 24.5696C21.9703 25.1148 22.6298 25.7329 23.6995 25.7329H23.9462V26.8715C23.9462 27.0488 23.9243 27.234 23.8813 27.4223C23.5704 28.7824 22.3016 30.1949 20.9313 30.7074C20.5751 30.8395 20.279 30.9012 19.9993 30.9012C19.7212 30.9012 19.4243 30.8395 19.068 30.7074C17.6961 30.195 16.4273 28.7825 16.118 27.4278ZM20.6273 33.0044L20.4383 33.7481H19.557L19.3687 33.0067L19.9992 32.3395L20.6273 33.0044ZM17.9617 32.7887C17.9133 32.7567 17.8586 32.7216 17.7961 32.6856L16.3094 31.7223L17.3539 31.0942C17.7656 31.3927 18.2063 31.6364 18.6602 31.8067C18.7188 31.8278 18.7766 31.8481 18.8336 31.8669L17.9617 32.7887ZM20.8578 38.0442H19.1359L18.5195 36.995L19.4766 34.92H20.5188L21.475 36.9966L20.8578 38.0442ZM26.9117 38.0442H22.218L22.6242 37.3552C22.7375 37.1723 22.75 36.952 22.6547 36.7567C22.6539 36.7552 22.6531 36.7528 22.6523 36.7512L21.5125 34.277L21.593 33.963C21.7234 34.0356 21.85 34.0645 21.9672 34.0645C22.2461 34.0645 22.4773 33.9067 22.6109 33.8161C22.6711 33.7747 22.7328 33.7325 22.8031 33.6919C22.8117 33.6872 22.8203 33.6817 22.8289 33.677L24.8133 32.3919C24.8961 32.4403 24.9789 32.4872 25.0594 32.5333C25.0805 32.545 25.1016 32.5575 25.1227 32.5692C26.3953 33.2919 26.9117 33.6325 26.9117 34.8161V38.0442ZM29.2937 35.6536L29.6937 36.3333H28.0836V34.8161C28.0836 32.9028 26.9266 32.2458 25.7016 31.5497C25.7016 31.5497 25.7008 31.5497 25.7008 31.5489C25.9742 31.3294 26.3352 31.1177 26.7945 30.8575C26.8953 30.7997 26.9984 30.7419 27.1031 30.6809L29.0883 31.9653C29.0953 31.9708 29.1031 31.9755 29.1109 31.9802C29.1812 32.0208 29.243 32.063 29.3031 32.1036C29.4266 32.188 29.6625 32.3497 29.9484 32.3497C30.0648 32.3497 30.1898 32.3223 30.3187 32.252L30.3992 32.5677L29.2578 35.0419C29.257 35.0427 29.257 35.0427 29.257 35.0434C29.157 35.245 29.1711 35.4684 29.2937 35.6536ZM32.7742 36.3333H31.0531L30.4367 35.2848L31.3937 33.2106H32.4352L33.3922 35.2841L32.7742 36.3333ZM38.8281 36.3333H34.1344L34.5398 35.6442C34.6492 35.4708 34.6664 35.2669 34.5867 35.0778C34.582 35.0661 34.5766 35.0536 34.5711 35.0419L33.4289 32.5677L33.5094 32.2528C33.6398 32.3255 33.7664 32.3544 33.8844 32.3544C34.1641 32.3544 34.3969 32.195 34.5305 32.1036C34.5898 32.063 34.6516 32.0208 34.7219 31.9802C34.7297 31.9755 34.7375 31.9708 34.7453 31.9653L36.7297 30.6809C36.8344 30.7419 36.9375 30.7997 37.0383 30.8575C38.3117 31.5802 38.8281 31.9208 38.8281 33.1075V36.3333Z" fill="#FC6537"/>
</g>
<defs>
<clipPath id="clip0">
<rect width="40" height="40" fill="white"/>
</clipPath>
</defs>
</svg>
