<svg width="66" height="68" viewBox="0 0 66 68" fill="none" xmlns="http://www.w3.org/2000/svg">
<path opacity="0.2" fill-rule="evenodd" clip-rule="evenodd" d="M33 49C46.2548 49 57 38.2548 57 25C57 11.7452 46.2548 1 33 1C19.7452 1 9 11.7452 9 25C9 38.2548 19.7452 49 33 49Z" stroke="#FC6537"/>
<g filter="url(#filter0_d)">
<path fill-rule="evenodd" clip-rule="evenodd" d="M33 43C42.9411 43 51 34.9411 51 25C51 15.0589 42.9411 7 33 7C23.0589 7 15 15.0589 15 25C15 34.9411 23.0589 43 33 43Z" fill="#FC6537"/>
<path d="M33.0061 19.864C33.6995 19.864 34.3181 19.992 34.8621 20.248C35.4061 20.504 35.8275 20.8613 36.1261 21.32C36.4248 21.768 36.5741 22.2747 36.5741 22.84C36.5741 23.448 36.4195 23.9493 36.1101 24.344C35.8115 24.728 35.3848 25.048 34.8301 25.304L34.8461 25.352C35.4541 25.544 35.9341 25.8693 36.2861 26.328C36.6488 26.776 36.8301 27.352 36.8301 28.056C36.8301 28.6533 36.6648 29.1867 36.3341 29.656C36.0035 30.1253 35.5448 30.4933 34.9581 30.76C34.3715 31.0267 33.7208 31.16 33.0061 31.16H32.8141C31.6515 31.16 30.7235 30.872 30.0301 30.296C29.3475 29.7093 29.0061 28.9093 29.0061 27.896V27.768H30.5741V27.944C30.5741 28.5307 30.7715 28.9787 31.1661 29.288C31.5608 29.5867 32.1261 29.736 32.8621 29.736C33.6195 29.736 34.2061 29.5867 34.6221 29.288C35.0488 28.9787 35.2621 28.5147 35.2621 27.896C35.2621 26.7227 34.4408 26.136 32.7981 26.136H31.5981V24.696H32.8301C33.4808 24.696 34.0035 24.5467 34.3981 24.248C34.8035 23.9493 35.0061 23.5227 35.0061 22.968C35.0061 22.424 34.8088 22.008 34.4141 21.72C34.0301 21.432 33.5128 21.288 32.8621 21.288C32.2541 21.288 31.7635 21.4373 31.3901 21.736C31.0168 22.0347 30.8301 22.4507 30.8301 22.984V23.128H29.2621V22.84C29.2621 22.2533 29.4168 21.736 29.7261 21.288C30.0461 20.8293 30.4781 20.4773 31.0221 20.232C31.5768 19.9867 32.1901 19.864 32.8621 19.864H33.0061Z" fill="white"/>
</g>
<defs>
<filter id="filter0_d" x="0" y="2" width="66" height="66" filterUnits="userSpaceOnUse" color-interpolation-filters="sRGB">
<feFlood flood-opacity="0" result="BackgroundImageFix"/>
<feColorMatrix in="SourceAlpha" type="matrix" values="0 0 0 0 0 0 0 0 0 0 0 0 0 0 0 0 0 0 127 0"/>
<feOffset dy="10"/>
<feGaussianBlur stdDeviation="7.5"/>
<feColorMatrix type="matrix" values="0 0 0 0 0.0823529 0 0 0 0 0.145098 0 0 0 0 0.278431 0 0 0 0.15 0"/>
<feBlend mode="normal" in2="BackgroundImageFix" result="effect1_dropShadow"/>
<feBlend mode="normal" in="SourceGraphic" in2="effect1_dropShadow" result="shape"/>
</filter>
</defs>
</svg>
