<svg width="40" height="40" viewBox="0 0 40 40" fill="none" xmlns="http://www.w3.org/2000/svg">
<path d="M34.9415 25.9925C34.9129 25.9296 34.874 25.8718 34.8263 25.8217C34.8162 25.811 34.8051 25.8024 34.7943 25.7925C34.7766 25.7744 34.7579 25.7573 34.7381 25.7414L30.3631 22.6164C30.2571 22.5407 30.1301 22.5 29.9998 22.5C29.8696 22.5 29.7426 22.5407 29.6366 22.6164L25.2616 25.7414C25.1806 25.7992 25.1146 25.8755 25.0691 25.9639C25.0236 26.0523 24.9999 26.1504 25 26.2499V27.686C25.0017 29.0684 25.3679 30.4258 26.0618 31.6214C26.7557 32.817 27.7526 33.8085 28.952 34.4957L29.6899 34.9176C29.7739 34.9656 29.8678 34.9935 29.9643 34.999C30.0609 35.0045 30.1574 34.9875 30.2463 34.9494C31.6579 34.3456 32.861 33.3404 33.7061 32.0586C34.5513 30.7769 35.0012 29.275 35 27.7397V26.2499C34.9986 26.1749 34.9837 26.1007 34.9558 26.0311C34.9509 26.0179 34.9473 26.0051 34.9415 25.9925ZM33.75 27.7397C33.7509 28.9783 33.4025 30.192 32.745 31.2415C32.0874 32.2911 31.1472 33.134 30.0323 33.6735L29.5721 33.4105C28.5639 32.8328 27.7258 31.9993 27.1425 30.9943C26.5593 29.9892 26.2514 28.8481 26.25 27.686V26.5715L30 23.8927L33.75 26.5715V27.7397Z" fill="white"/>
<path d="M6.875 23.1249C7.18337 23.1254 7.48707 23.0496 7.75912 22.9045C8.03118 22.7593 8.26316 22.5492 8.43447 22.2928C8.60578 22.0364 8.71112 21.7416 8.74111 21.4347C8.7711 21.1278 8.72483 20.8182 8.60641 20.5335L13.1738 16.4218L19.0167 20.5118C19.1233 20.5864 19.2505 20.6259 19.3806 20.6247C19.5108 20.6235 19.6372 20.5817 19.7424 20.5051L25.1904 16.5441C25.567 16.814 26.0273 16.9413 26.4891 16.9032C26.9509 16.8652 27.3841 16.6643 27.7115 16.3364C28.0388 16.0084 28.239 15.5749 28.2763 15.113C28.3136 14.6512 28.1855 14.1911 27.915 13.8149C27.6445 13.4388 27.2491 13.1709 26.7994 13.0593C26.3497 12.9476 25.875 12.9994 25.4599 13.2054C25.0449 13.4114 24.7165 13.7581 24.5335 14.1838C24.3504 14.6094 24.3246 15.0863 24.4605 15.5292L19.368 19.2321L13.4833 15.1128C13.3675 15.0318 13.2278 14.9925 13.0868 15.0011C12.9458 15.0098 12.8119 15.066 12.7069 15.1605L7.76461 19.6093C7.49251 19.4576 7.18653 19.377 6.875 19.3749C6.37772 19.3749 5.90081 19.5725 5.54917 19.9241C5.19754 20.2757 5 20.7526 5 21.2499C5 21.7472 5.19754 22.2241 5.54917 22.5758C5.90081 22.9274 6.37772 23.1249 6.875 23.1249ZM26.25 14.3749C26.3736 14.3749 26.4944 14.4116 26.5972 14.4803C26.7 14.5489 26.7801 14.6465 26.8274 14.7607C26.8747 14.8749 26.8871 15.0006 26.863 15.1219C26.8389 15.2431 26.7794 15.3545 26.6919 15.4419C26.6045 15.5293 26.4932 15.5888 26.3719 15.6129C26.2507 15.637 26.125 15.6247 26.0108 15.5773C25.8966 15.53 25.799 15.4499 25.7303 15.3472C25.6617 15.2444 25.625 15.1235 25.625 14.9999C25.6252 14.8342 25.6911 14.6753 25.8082 14.5582C25.9254 14.441 26.0843 14.3751 26.25 14.3749ZM6.875 20.6249C6.96132 20.6254 7.04657 20.644 7.12528 20.6794C7.20398 20.7149 7.27438 20.7664 7.33195 20.8307C7.33359 20.8325 7.33391 20.8349 7.33555 20.8367L7.33648 20.8374C7.44024 20.9499 7.49852 21.0969 7.5 21.2499C7.5 21.3735 7.46334 21.4944 7.39467 21.5972C7.32599 21.6999 7.22838 21.78 7.11418 21.8274C6.99997 21.8747 6.87431 21.887 6.75307 21.8629C6.63183 21.8388 6.52047 21.7793 6.43306 21.6919C6.34565 21.6045 6.28612 21.4931 6.26201 21.3719C6.23789 21.2506 6.25027 21.125 6.29758 21.0108C6.34488 20.8965 6.42499 20.7989 6.52777 20.7303C6.63055 20.6616 6.75139 20.6249 6.875 20.6249Z" fill="white"/>
<path d="M16.25 33.125H17.5V34.375H16.25V33.125Z" fill="white"/>
<path d="M18.75 33.125H20V34.375H18.75V33.125Z" fill="white"/>
<path d="M13.75 33.125H15V34.375H13.75V33.125Z" fill="white"/>
<path d="M10 33.125H12.5V34.375H10V33.125Z" fill="white"/>
<path d="M35 21.5795V10C34.9994 9.50289 34.8017 9.0263 34.4502 8.67479C34.0987 8.32328 33.6221 8.12556 33.125 8.125H25V4.375C24.9994 3.87789 24.8017 3.4013 24.4502 3.04979C24.0987 2.69828 23.6221 2.50056 23.125 2.5H13.125C12.6279 2.50056 12.1513 2.69828 11.7998 3.04979C11.4483 3.4013 11.2506 3.87789 11.25 4.375V8.125H3.125C2.62789 8.12556 2.1513 8.32328 1.79979 8.67479C1.44828 9.0263 1.25056 9.50289 1.25 10V30C1.25056 30.4971 1.44828 30.9737 1.79979 31.3252C2.1513 31.6767 2.62789 31.8744 3.125 31.875H21.8369C22.325 33.1538 23.1065 34.3002 24.1185 35.2219C25.1305 36.1436 26.3447 36.8148 27.6635 37.1815C28.9823 37.5482 30.3687 37.6002 31.7113 37.3333C33.0538 37.0663 34.3149 36.4879 35.3931 35.6446C36.4713 34.8013 37.3364 33.7167 37.9189 32.478C38.5014 31.2393 38.7849 29.8811 38.7467 28.5129C38.7084 27.1446 38.3495 25.8044 37.6987 24.6002C37.048 23.3959 36.1236 22.3613 35 21.5795ZM15 8.125V6.875H21.25V8.125H15ZM22.5 6.875H23.75V8.125H22.5V6.875ZM12.5 4.375C12.5002 4.20929 12.5661 4.05042 12.6832 3.93324C12.8004 3.81607 12.9593 3.75017 13.125 3.75H23.125C23.2907 3.75017 23.4496 3.81607 23.5668 3.93324C23.6839 4.05042 23.7498 4.20929 23.75 4.375V5.625H12.5V4.375ZM12.5 6.875H13.75V8.125H12.5V6.875ZM2.5 10C2.50017 9.83429 2.56607 9.67542 2.68324 9.55824C2.80042 9.44107 2.95929 9.37517 3.125 9.375H33.125C33.2907 9.37517 33.4496 9.44107 33.5668 9.55824C33.6839 9.67542 33.7498 9.83429 33.75 10V10.625H2.5V10ZM3.125 30.625C2.95929 30.6248 2.80042 30.5589 2.68324 30.4418C2.56607 30.3246 2.50017 30.1657 2.5 30V11.875H33.75V20.8562C32.1998 20.0991 30.4548 19.8351 28.75 20.0998V19.375C28.75 19.2092 28.6842 19.0503 28.5669 18.9331C28.4497 18.8158 28.2908 18.75 28.125 18.75H24.375C24.2092 18.75 24.0503 18.8158 23.9331 18.9331C23.8158 19.0503 23.75 19.2092 23.75 19.375V22.638C22.9408 23.4657 22.3036 24.4455 21.875 25.5208V22.5C21.875 22.3342 21.8092 22.1753 21.6919 22.0581C21.5747 21.9408 21.4158 21.875 21.25 21.875H17.5C17.3342 21.875 17.1753 21.9408 17.0581 22.0581C16.9408 22.1753 16.875 22.3342 16.875 22.5V28.125H15.625V20.625C15.625 20.4592 15.5592 20.3003 15.4419 20.1831C15.3247 20.0658 15.1658 20 15 20H11.25C11.0842 20 10.9253 20.0658 10.8081 20.1831C10.6908 20.3003 10.625 20.4592 10.625 20.625V28.125H9.375V25C9.375 24.8342 9.30915 24.6753 9.19194 24.5581C9.07473 24.4408 8.91576 24.375 8.75 24.375H5C4.83424 24.375 4.67527 24.4408 4.55806 24.5581C4.44085 24.6753 4.375 24.8342 4.375 25V28.125C4.20924 28.125 4.05027 28.1908 3.93306 28.3081C3.81585 28.4253 3.75 28.5842 3.75 28.75C3.75 28.9158 3.81585 29.0747 3.93306 29.1919C4.05027 29.3092 4.20924 29.375 4.375 29.375H21.2812C21.3096 29.7954 21.3683 30.2131 21.457 30.625H3.125ZM27.5 20.3685C26.6073 20.6359 25.7632 21.0447 25 21.5795V20H27.5V20.3685ZM20.625 28.125H18.125V23.125H20.625V28.125ZM14.375 28.125H11.875V21.25H14.375V28.125ZM8.125 28.125H5.625V25.625H8.125V28.125ZM30 36.25C28.5166 36.25 27.0666 35.8101 25.8332 34.986C24.5999 34.1619 23.6386 32.9906 23.0709 31.6201C22.5032 30.2497 22.3547 28.7417 22.6441 27.2868C22.9335 25.832 23.6478 24.4956 24.6967 23.4467C25.7456 22.3978 27.082 21.6835 28.5368 21.3941C29.9917 21.1047 31.4997 21.2532 32.8701 21.8209C34.2406 22.3886 35.4119 23.3499 36.236 24.5832C37.0601 25.8166 37.5 27.2666 37.5 28.75C37.4978 30.7384 36.7069 32.6448 35.3009 34.0509C33.8948 35.4569 31.9884 36.2478 30 36.25Z" fill="white"/>
<path d="M28.75 27.8345L30.3466 26.77C30.4158 26.7249 30.4753 26.6665 30.5218 26.5982C30.5683 26.5299 30.6008 26.4531 30.6173 26.3722C30.6339 26.2913 30.6343 26.2079 30.6185 26.1268C30.6027 26.0457 30.5709 25.9686 30.5251 25.8999C30.4793 25.8312 30.4203 25.7722 30.3516 25.7264C30.2828 25.6806 30.2057 25.6489 30.1246 25.6331C30.0436 25.6173 29.9602 25.6178 29.8793 25.6344C29.7983 25.651 29.7215 25.6835 29.6533 25.73L27.7783 26.98C27.7524 26.9991 27.728 27.0201 27.7053 27.043C27.6957 27.0518 27.6853 27.0586 27.6763 27.068C27.6284 27.1184 27.5893 27.1765 27.5606 27.2399C27.554 27.2542 27.5494 27.2685 27.5438 27.2834C27.5163 27.3524 27.5015 27.4257 27.5 27.5V28.3716C27.4991 29.1678 27.6953 29.9519 28.071 30.6539C28.4467 31.3559 28.9903 31.9541 29.6533 32.395C29.7215 32.4415 29.7983 32.474 29.8793 32.4906C29.9602 32.5073 30.0436 32.5077 30.1246 32.4919C30.2057 32.4761 30.2828 32.4444 30.3516 32.3986C30.4203 32.3528 30.4793 32.2939 30.5251 32.2251C30.5709 32.1564 30.6027 32.0793 30.6185 31.9982C30.6343 31.9172 30.6339 31.8338 30.6173 31.7528C30.6008 31.6719 30.5683 31.5951 30.5218 31.5268C30.4753 31.4585 30.4158 31.4001 30.3466 31.355C29.855 31.028 29.4519 30.5845 29.1734 30.064C28.8948 29.5434 28.7493 28.962 28.75 28.3716V27.8345Z" fill="white"/>
</svg>
