<svg width="40" height="40" viewBox="0 0 40 40" fill="none" xmlns="http://www.w3.org/2000/svg">
<g clip-path="url(#clip0)">
<path d="M12.5461 8.76733C12.5461 7.20453 11.2744 5.93286 9.71161 5.93286C8.1488 5.93286 6.87714 7.20453 6.87714 8.76733C6.87714 10.3301 8.1488 11.6018 9.71161 11.6018C11.2744 11.6018 12.5461 10.3301 12.5461 8.76733ZM8.04901 8.76733C8.04901 7.85059 8.79486 7.10474 9.71161 7.10474C10.6284 7.10474 11.3742 7.85059 11.3742 8.76733C11.3742 9.68408 10.6284 10.4299 9.71161 10.4299C8.79486 10.4299 8.04901 9.68408 8.04901 8.76733Z" fill="white"/>
<path d="M23.262 11.6018C24.8248 11.6018 26.0962 10.3301 26.0962 8.76733C26.0962 7.20453 24.8248 5.93286 23.262 5.93286C21.6989 5.93286 20.4276 7.20453 20.4276 8.76733C20.4276 10.3301 21.6989 11.6018 23.262 11.6018ZM23.262 7.10474C24.1785 7.10474 24.9243 7.85059 24.9243 8.76733C24.9243 9.68408 24.1785 10.4299 23.262 10.4299C22.3453 10.4299 21.5994 9.68408 21.5994 8.76733C21.5994 7.85059 22.3453 7.10474 23.262 7.10474Z" fill="white"/>
<path d="M29.7311 27.3638C29.4073 27.3638 29.1452 27.6259 29.1452 27.9497V34.2916C29.1452 34.4609 29.0076 34.5989 28.8382 34.5989H4.13544C3.96606 34.5989 3.82843 34.4612 3.82843 34.2916V27.9497C3.82843 27.6259 3.56598 27.3638 3.24249 27.3638C2.9187 27.3638 2.65656 27.6259 2.65656 27.9497V34.2916C2.65656 35.1073 3.32001 35.7708 4.13544 35.7708H28.8382C29.6536 35.7708 30.3171 35.1073 30.3171 34.2916V27.9497C30.3171 27.6259 30.0546 27.3638 29.7311 27.3638Z" fill="white"/>
<path d="M28.8382 17.7551H4.13544C3.32001 17.7551 2.65656 18.4186 2.65656 19.234V25.5762C2.65656 25.9 2.9187 26.1621 3.24249 26.1621C3.56598 26.1621 3.82843 25.9 3.82843 25.5762V19.234C3.82843 19.0646 3.96606 18.927 4.13544 18.927H28.8382C29.0076 18.927 29.1452 19.0646 29.1452 19.234V25.5762C29.1452 25.9 29.4073 26.1621 29.7311 26.1621C30.0549 26.1621 30.3171 25.9 30.3171 25.5762V19.234C30.3171 18.4186 29.6536 17.7551 28.8382 17.7551Z" fill="white"/>
<path d="M23.3936 26.8205C23.3936 23.0122 20.2951 19.9141 16.4868 19.9141C12.6785 19.9141 9.58038 23.0122 9.58038 26.8205C9.58038 30.6291 12.6785 33.7272 16.4868 33.7272C20.2951 33.7272 23.3936 30.6291 23.3936 26.8205ZM10.752 26.8205C10.752 23.6583 13.3246 21.0859 16.4868 21.0859C19.6487 21.0859 22.2214 23.6583 22.2214 26.8205C22.2214 29.9827 19.6487 32.5554 16.4868 32.5554C13.3246 32.5554 10.752 29.9827 10.752 26.8205Z" fill="white"/>
<path d="M20.1709 26.8195C20.1709 26.5103 20.0171 26.2235 19.7595 26.0523L15.5099 23.2251C15.2267 23.0365 14.8642 23.0194 14.5642 23.1799C14.2642 23.3408 14.0778 23.652 14.0778 23.9923V29.6466C14.0778 29.9869 14.2639 30.2982 14.5642 30.459C14.7009 30.5322 14.8505 30.5686 14.9994 30.5686C15.1779 30.5686 15.3555 30.5167 15.5099 30.4138L19.7595 27.587C20.0171 27.4158 20.1709 27.1286 20.1709 26.8195ZM15.2496 29.1797V24.4595L18.7973 26.8195L15.2496 29.1797Z" fill="white"/>
<path d="M39.0967 16.6928C38.5397 16.4154 37.8848 16.4761 37.3883 16.8509L32.9733 20.1828V16.7206C32.9733 15.6607 32.1112 14.7983 31.0513 14.7983H27.4786C28.035 14.4095 28.5391 13.9435 28.9719 13.4122C30.0366 12.1054 30.6229 10.4559 30.6229 8.7674C30.6229 4.70856 27.3209 1.40625 23.262 1.40625C20.2237 1.40625 17.6093 3.25653 16.4868 5.88959C15.3641 3.25653 12.7499 1.40625 9.71161 1.40625C5.65277 1.40625 2.35046 4.70856 2.35046 8.7674C2.35046 10.4559 2.93671 12.1054 4.00146 13.4122C4.43451 13.9435 4.93866 14.4095 5.495 14.7983H1.9223C0.862122 14.7983 0 15.6607 0 16.7206V36.8054C0 37.8653 0.862122 38.7274 1.9223 38.7274H31.0513C32.1112 38.7274 32.9733 37.8653 32.9733 36.8054V33.3429L37.3883 36.6751C37.6782 36.8936 38.0215 37.0056 38.3682 37.0056C38.6157 37.0056 38.8647 36.9485 39.0967 36.8329C39.6539 36.5555 40 35.9967 40 35.3741V18.1519C40 17.5296 39.6539 16.9705 39.0967 16.6928ZM23.262 2.57812C26.6745 2.57812 29.451 5.35461 29.451 8.7674C29.451 10.1871 28.9581 11.5738 28.0634 12.6718C27.1939 13.739 25.9845 14.4925 24.6515 14.7983H21.8723C20.5392 14.4925 19.3298 13.739 18.4604 12.6718C17.5656 11.5738 17.0728 10.1871 17.0728 8.7674C17.0728 5.35461 19.8492 2.57812 23.262 2.57812ZM16.4868 11.6431C16.7554 12.2769 17.113 12.8735 17.5519 13.4122C17.9846 13.9435 18.4888 14.4095 19.0451 14.7983H13.9282C14.4846 14.4095 14.9887 13.9435 15.4218 13.4122C15.8606 12.8735 16.218 12.2769 16.4868 11.6431ZM4.90997 12.6718C4.0152 11.5738 3.52234 10.1871 3.52234 8.7674C3.52234 5.35461 6.29883 2.57812 9.71161 2.57812C13.1244 2.57812 15.9009 5.35461 15.9009 8.7674C15.9009 10.1871 15.408 11.5738 14.5132 12.6718C13.6438 13.739 12.4341 14.4925 11.1014 14.7983H8.32184C6.98914 14.4925 5.77942 13.739 4.90997 12.6718ZM31.8018 36.8054C31.8018 37.2189 31.4651 37.5555 31.0513 37.5555H1.9223C1.50848 37.5555 1.17188 37.2189 1.17188 36.8054V16.7206C1.17188 16.3068 1.50848 15.9702 1.9223 15.9702H31.0513C31.4651 15.9702 31.8015 16.3068 31.8015 16.7206V36.8054H31.8018ZM38.8281 35.3741C38.8281 35.6302 38.6508 35.7462 38.5742 35.784C38.4979 35.8221 38.2986 35.8939 38.0942 35.7397L32.9733 31.875V21.651L38.0942 17.7863C38.2983 17.6321 38.4979 17.7039 38.5742 17.742C38.6508 17.7798 38.8281 17.8958 38.8281 18.1519V35.3741Z" fill="white"/>
</g>
<defs>
<clipPath id="clip0">
<rect width="40" height="40" fill="white"/>
</clipPath>
</defs>
</svg>
