<svg width="40" height="40" viewBox="0 0 40 40" fill="none" xmlns="http://www.w3.org/2000/svg">
<path d="M35.625 1.83325H4.375C2.6499 1.83545 1.2522 3.23315 1.25 4.95825V31.2083C1.25 31.5535 1.52979 31.8333 1.875 31.8333H7.28809L6.875 38.0422L8.125 38.1245L8.33374 34.9583H31.6663L31.875 38.1245L33.125 38.0422L32.7119 31.8333H38.125C38.4702 31.8333 38.75 31.5535 38.75 31.2083V4.95825C38.7478 3.23315 37.3501 1.83545 35.625 1.83325ZM4.375 3.08325H35.625C36.4194 3.08423 37.1274 3.58472 37.3931 4.33325H2.60693C2.87256 3.58472 3.58057 3.08423 4.375 3.08325ZM31.5833 33.7083H8.41675L8.54199 31.8333H31.4587L31.5833 33.7083ZM37.5 30.5833H2.5V5.58325H37.5V30.5833Z" fill="white"/>
<path d="M18.125 20.3245L13.8794 16.0789C13.6353 15.8352 13.2397 15.8352 12.9956 16.0789L4.55811 24.5164L5.44189 25.4001L13.4375 17.4045L17.6831 21.6501C17.9272 21.894 18.3228 21.894 18.5669 21.6501L29.375 10.842V12.4583H30.625V9.33325C30.625 9.08057 30.4727 8.85278 30.2393 8.75586C30.1633 8.72583 30.0818 8.71143 30 8.71313V8.70825H26.875V9.95825H28.4912L18.125 20.3245Z" fill="white"/>
<path d="M11.875 21.8333H9.375C9.02979 21.8333 8.75 22.1133 8.75 22.4583V28.7083C8.75 29.0535 9.02979 29.3333 9.375 29.3333H11.875C12.2202 29.3333 12.5 29.0535 12.5 28.7083V22.4583C12.5 22.1133 12.2202 21.8333 11.875 21.8333ZM11.25 28.0833H10V23.0833H11.25V28.0833Z" fill="white"/>
<path d="M18.125 23.0833H15.625C15.2798 23.0833 15 23.3633 15 23.7083V28.7083C15 29.0535 15.2798 29.3333 15.625 29.3333H18.125C18.4702 29.3333 18.75 29.0535 18.75 28.7083V23.7083C18.75 23.3633 18.4702 23.0833 18.125 23.0833ZM17.5 28.0833H16.25V24.3333H17.5V28.0833Z" fill="white"/>
<path d="M24.375 20.5833H21.875C21.5298 20.5833 21.25 20.8633 21.25 21.2083V28.7083C21.25 29.0535 21.5298 29.3333 21.875 29.3333H24.375C24.7202 29.3333 25 29.0535 25 28.7083V21.2083C25 20.8633 24.7202 20.5833 24.375 20.5833ZM23.75 28.0833H22.5V21.8333H23.75V28.0833Z" fill="white"/>
<path d="M28.125 16.8333C27.7798 16.8333 27.5 17.1133 27.5 17.4583V28.7083C27.5 29.0535 27.7798 29.3333 28.125 29.3333H30.625C30.9702 29.3333 31.25 29.0535 31.25 28.7083V17.4583C31.25 17.1133 30.9702 16.8333 30.625 16.8333H28.125ZM30 28.0833H28.75V18.0833H30V28.0833Z" fill="white"/>
<path d="M7.5 14.9583C7.84521 14.9583 8.125 14.6785 8.125 14.3333V11.467L10.1831 13.5251C10.3003 13.6423 10.4592 13.7083 10.625 13.7083H14.375V12.4583H10.8838L9.63379 11.2083H11.25C11.5952 11.2083 11.875 10.9285 11.875 10.5833C11.875 8.16699 9.9165 6.20825 7.5 6.20825C5.0835 6.20825 3.125 8.16699 3.125 10.5833C3.125 12.9998 5.0835 14.9583 7.5 14.9583ZM7.5 7.45825C8.98438 7.45996 10.2637 8.50415 10.5625 9.95825H7.5C7.15479 9.95825 6.875 10.2383 6.875 10.5833V13.6458C5.30151 13.3262 4.22632 11.8667 4.3877 10.2693C4.54883 8.67212 5.89453 7.45679 7.5 7.45825Z" fill="white"/>
<path d="M15 10.5833H16.25V11.8333H15V10.5833Z" fill="white"/>
<path d="M16.875 10.5833H19.375V11.8333H16.875V10.5833Z" fill="white"/>
<path d="M15 12.4583H19.375V13.7083H15V12.4583Z" fill="white"/>
</svg>
