<svg width="24" height="24" viewBox="0 0 24 24" fill="none" xmlns="http://www.w3.org/2000/svg">
<path d="M12 6C8.36364 6 5.25818 8.28067 4 11.5C5.25818 14.7193 8.36364 17 12 17C15.6364 17 18.7418 14.7193 20 11.5C18.7418 8.28067 15.6364 6 12 6ZM12 15.1667C9.99273 15.1667 8.36364 13.524 8.36364 11.5C8.36364 9.476 9.99273 7.83333 12 7.83333C14.0073 7.83333 15.6364 9.476 15.6364 11.5C15.6364 13.524 14.0073 15.1667 12 15.1667ZM12 9.3C10.7927 9.3 9.81818 10.2827 9.81818 11.5C9.81818 12.7173 10.7927 13.7 12 13.7C13.2073 13.7 14.1818 12.7173 14.1818 11.5C14.1818 10.2827 13.2073 9.3 12 9.3Z" fill="#B7B7B7"/>
</svg>
