<svg width="20" height="20" viewBox="0 0 20 20" fill="none" xmlns="http://www.w3.org/2000/svg">
<path d="M14.0972 12.5441C13.5827 12.0361 12.9403 12.0361 12.429 12.5441C12.039 12.9308 11.649 13.3175 11.2655 13.7108C11.1606 13.819 11.0721 13.8419 10.9443 13.7698C10.692 13.6322 10.4232 13.5207 10.1807 13.37C9.04997 12.6588 8.10278 11.7444 7.26376 10.7153C6.84752 10.204 6.47717 9.65664 6.21825 9.04048C6.16582 8.91594 6.17565 8.83401 6.27725 8.7324C6.66726 8.3555 7.04745 7.96876 7.43091 7.58202C7.96513 7.04452 7.96513 6.41525 7.42763 5.87447C7.12283 5.56639 6.81803 5.26487 6.51322 4.95679C6.19859 4.64215 5.88723 4.32424 5.56932 4.01288C5.05476 3.51144 4.41238 3.51144 3.9011 4.01616C3.50781 4.4029 2.459 5.46088 2.05916 5.84107C1.68881 6.19175 1.50199 6.6211 1.46266 7.12255C1.40039 7.93863 1.60031 8.70883 1.88217 9.45936C2.459 11.0129 3.33736 12.3927 4.40253 13.6578C5.84133 15.3686 7.55871 16.7222 9.56778 17.6989C10.4724 18.138 11.4097 18.4756 12.429 18.5313C13.1304 18.5707 13.74 18.3937 14.2283 17.8463C14.5626 17.4727 15.6114 16.4704 15.9654 16.1132C16.4898 15.5823 16.493 14.9399 15.9719 14.4155C15.3492 13.7895 14.7232 13.1668 14.0972 12.5441Z" stroke="white" stroke-linecap="round" stroke-linejoin="round"/>
<path d="M11.3125 0.8125C15.3362 1.38805 18.5189 4.57074 19.0945 8.59446" stroke="white" stroke-linecap="round" stroke-linejoin="round"/>
<path d="M11.3125 4.65625C13.2905 5.05776 14.8485 6.61577 15.25 8.59375" stroke="white" stroke-linecap="round" stroke-linejoin="round"/>
</svg>
