<svg width="40" height="40" viewBox="0 0 40 40" fill="none" xmlns="http://www.w3.org/2000/svg">
<path d="M21.7157 11.3832L19.9996 8.35889L18.2835 11.3831L14.877 12.0806L17.2229 14.6473L16.8336 18.1027L19.9996 16.6647L23.1655 18.1026L22.7762 14.6472L25.1222 12.0805L21.7157 11.3832ZM21.7698 16.1816L19.9996 15.3776L18.2294 16.1816L18.447 14.2496L17.1353 12.8144L19.0401 12.4244L19.9996 10.7334L20.9591 12.4244L22.8639 12.8144L21.5522 14.2496L21.7698 16.1816Z" fill="#FC6537"/>
<path d="M31.1328 4.6875V3.51562H32.3047V0H13.5547V1.17188H31.1328V2.34375H8.86719V1.17188H12.3827V0H7.69531V3.51562H8.86719V4.6875H0V14.4396C0 15.752 0.519609 16.929 1.50273 17.8432C2.36719 18.647 3.58055 19.2178 4.91914 19.4504L11.4486 20.5849C12.6683 22.048 14.2448 23.1773 15.9995 23.8602C15.5752 24.2846 15.3123 24.8705 15.3123 25.5166C15.3123 26.6009 16.0526 27.5152 17.0541 27.7816C16.9687 29.1643 16.4871 31.1956 14.5623 32.3825H10.8486L9.45297 35.1739V40H24.6876V38.8281H10.6249V35.4506L11.573 33.5545H28.427L29.3751 35.4506V38.8281H25.8595V40H30.547V35.174L29.1513 32.3826H25.4377C23.5128 31.1957 23.0312 29.1644 22.9458 27.7817C23.9473 27.5153 24.6876 26.6009 24.6876 25.5167C24.6876 24.8706 24.4248 24.2847 24.0005 23.8603C25.7551 23.1773 27.3316 22.048 28.5513 20.585L35.0808 19.4505C36.4195 19.2179 37.6327 18.6471 38.4972 17.8433C39.4804 16.9289 40 15.752 40 14.4395V4.6875H31.1328ZM31.1328 8.20312H36.4844V14.4396C36.4844 15.6046 34.6842 15.9511 34.4789 15.9867L30.6647 16.6495C30.9722 15.6243 31.1328 14.5549 31.1328 13.4766V8.20312ZM9.33531 16.6495L5.52109 15.9866C5.31578 15.951 3.51562 15.6045 3.51562 14.4395V8.20312H8.86719V13.4766C8.86719 14.5548 9.02781 15.6242 9.33531 16.6495ZM1.17188 14.4395V5.85938H8.86719V7.03125H2.34375V14.4396C2.34375 16.0502 3.88148 16.8913 5.32047 17.1413L9.80211 17.9201C9.99875 18.3694 10.2252 18.8062 10.4802 19.2273L5.11992 18.2959C3.29867 17.9794 1.17188 16.7795 1.17188 14.4395ZM16.3992 32.3826C17.4718 31.2408 18.1104 29.6737 18.2234 27.8604H21.7766C21.8895 29.6737 22.5282 31.2408 23.6008 32.3826H16.3992ZM22.3438 26.6885H17.6562C17.01 26.6885 16.4843 26.1628 16.4843 25.5166C16.4843 24.8705 17.01 24.3448 17.6562 24.3448H22.3438C22.99 24.3448 23.5157 24.8705 23.5157 25.5166C23.5157 26.1628 22.99 26.6885 22.3438 26.6885ZM22.2744 23.1729H17.7256C13.268 22.1209 10.0391 18.0536 10.0391 13.4766V3.51562H29.9609V13.4766C29.9609 18.0536 26.732 22.1209 22.2744 23.1729ZM38.8281 14.4395C38.8281 16.7795 36.7013 17.9794 34.8802 18.2958L29.5199 19.2272C29.7749 18.8061 30.0013 18.3692 30.198 17.9199L34.6796 17.1412C36.1185 16.8912 37.6562 16.0502 37.6562 14.4395V7.03125H31.1328V5.85938H38.8281V14.4395Z" fill="#FC6537"/>
<path d="M27.6172 7.03125H28.7891V8.20312H27.6172V7.03125Z" fill="#FC6537"/>
<path d="M27.6172 4.6875H28.7891V5.85938H27.6172V4.6875Z" fill="#FC6537"/>
<path d="M26.4453 34.7261H27.6172V35.8979H26.4453V34.7261Z" fill="#FC6537"/>
<path d="M17.0703 35.6052H22.9297V36.7771H17.0703V35.6052Z" fill="#FC6537"/>
</svg>
