<svg width="40" height="40" viewBox="0 0 40 40" fill="none" xmlns="http://www.w3.org/2000/svg">
<path d="M38.1246 32.5H37.4996V14.375C37.4986 13.5465 37.1691 12.7522 36.5832 12.1664C35.9974 11.5806 35.2031 11.251 34.3746 11.25H27.4996V10.625C27.4986 9.7965 27.1691 9.00222 26.5832 8.41639C25.9974 7.83055 25.2031 7.50099 24.3746 7.5V5.625C24.3746 4.46468 23.9137 3.35188 23.0932 2.53141C22.2728 1.71094 21.16 1.25 19.9996 1.25C18.8393 1.25 17.7265 1.71094 16.906 2.53141C16.0856 3.35188 15.6246 4.46468 15.6246 5.625V7.5C14.7961 7.50099 14.0019 7.83055 13.416 8.41639C12.8302 9.00222 12.5006 9.7965 12.4996 10.625V11.25H5.62463C4.79614 11.251 4.00186 11.5806 3.41602 12.1664C2.83019 12.7522 2.50063 13.5465 2.49963 14.375V32.5H1.87463C1.70887 32.5 1.5499 32.5658 1.43269 32.6831C1.31548 32.8003 1.24963 32.9592 1.24963 33.125V35.625C1.25063 36.4535 1.58019 37.2478 2.16602 37.8336C2.75186 38.4194 3.54614 38.749 4.37463 38.75H35.6246C36.4531 38.749 37.2474 38.4194 37.8332 37.8336C38.4191 37.2478 38.7486 36.4535 38.7496 35.625V33.125C38.7496 32.9592 38.6838 32.8003 38.5666 32.6831C38.4494 32.5658 38.2904 32.5 38.1246 32.5ZM15.6246 22.5H24.3746C25.2031 22.499 25.9974 22.1694 26.5832 21.5836C27.1691 20.9978 27.4986 20.2035 27.4996 19.375V15H33.7496V30H6.24963V15H12.4996V19.375C12.5006 20.2035 12.8302 20.9978 13.416 21.5836C14.0019 22.1694 14.7961 22.499 15.6246 22.5ZM16.8746 5.625C16.8746 4.7962 17.2039 4.00134 17.7899 3.41529C18.376 2.82924 19.1708 2.5 19.9996 2.5C20.8284 2.5 21.6233 2.82924 22.2093 3.41529C22.7954 4.00134 23.1246 4.7962 23.1246 5.625V7.5H16.8746V5.625ZM13.7496 10.625C13.7496 10.1277 13.9472 9.65081 14.2988 9.29917C14.6504 8.94754 15.1274 8.75 15.6246 8.75H24.3746C24.8719 8.75 25.3488 8.94754 25.7005 9.29917C26.0521 9.65081 26.2496 10.1277 26.2496 10.625V19.375C26.2496 19.8723 26.0521 20.3492 25.7005 20.7008C25.3488 21.0525 24.8719 21.25 24.3746 21.25H15.6246C15.1274 21.25 14.6504 21.0525 14.2988 20.7008C13.9472 20.3492 13.7496 19.8723 13.7496 19.375V10.625ZM3.74963 14.375C3.74963 13.8777 3.94718 13.4008 4.29881 13.0492C4.65044 12.6975 5.12735 12.5 5.62463 12.5H12.4996V13.75H5.62463C5.45887 13.75 5.2999 13.8158 5.18269 13.9331C5.06548 14.0503 4.99963 14.2092 4.99963 14.375V30.625C4.99963 30.7908 5.06548 30.9497 5.18269 31.0669C5.2999 31.1842 5.45887 31.25 5.62463 31.25H34.3746C34.5404 31.25 34.6994 31.1842 34.8166 31.0669C34.9338 30.9497 34.9996 30.7908 34.9996 30.625V14.375C34.9996 14.2092 34.9338 14.0503 34.8166 13.9331C34.6994 13.8158 34.5404 13.75 34.3746 13.75H27.4996V12.5H34.3746C34.8719 12.5 35.3488 12.6975 35.7005 13.0492C36.0521 13.4008 36.2496 13.8777 36.2496 14.375V32.5H24.9996C24.8339 32.5 24.6749 32.5658 24.5577 32.6831C24.4405 32.8003 24.3746 32.9592 24.3746 33.125V34.375C24.3746 34.5408 24.3088 34.6997 24.1916 34.8169C24.0744 34.9342 23.9154 35 23.7496 35H16.2496C16.0839 35 15.9249 34.9342 15.8077 34.8169C15.6905 34.6997 15.6246 34.5408 15.6246 34.375V33.125C15.6246 32.9592 15.5588 32.8003 15.4416 32.6831C15.3244 32.5658 15.1654 32.5 14.9996 32.5H3.74963V14.375ZM37.4996 35.625C37.4996 36.1223 37.3021 36.5992 36.9505 36.9508C36.5988 37.3025 36.1219 37.5 35.6246 37.5H4.37463C3.87735 37.5 3.40044 37.3025 3.04881 36.9508C2.69718 36.5992 2.49963 36.1223 2.49963 35.625V33.75H14.3746V34.375C14.3746 34.8723 14.5722 35.3492 14.9238 35.7008C15.2754 36.0525 15.7524 36.25 16.2496 36.25H23.7496C24.2469 36.25 24.7238 36.0525 25.0755 35.7008C25.4271 35.3492 25.6246 34.8723 25.6246 34.375V33.75H37.4996V35.625Z" fill="white"/>
<path d="M20.6246 32.5H19.3746V33.75H20.6246V32.5Z" fill="white"/>
<path d="M23.1246 32.5H21.8746V33.75H23.1246V32.5Z" fill="white"/>
<path d="M18.1249 32.5H16.8749V33.75H18.1249V32.5Z" fill="white"/>
<path d="M19.375 14.9113V20.0001H20.625V19.3751H21.875V18.1251H20.625V17.5001H21.875V16.2501H20.625V14.9113C21.2142 14.7592 21.7276 14.3974 22.0691 13.8938C22.4106 13.3902 22.5567 12.7793 22.4801 12.1757C22.4034 11.5721 22.1092 11.0171 21.6526 10.6149C21.1961 10.2126 20.6085 9.99072 20 9.99072C19.3915 9.99072 18.8039 10.2126 18.3474 10.6149C17.8908 11.0171 17.5966 11.5721 17.5199 12.1757C17.4433 12.7793 17.5894 13.3902 17.9309 13.8938C18.2724 14.3974 18.7858 14.7592 19.375 14.9113ZM20 11.2501C20.2472 11.2501 20.4889 11.3234 20.6945 11.4608C20.9 11.5981 21.0602 11.7933 21.1548 12.0217C21.2495 12.2501 21.2742 12.5015 21.226 12.7439C21.1777 12.9864 21.0587 13.2092 20.8839 13.384C20.7091 13.5588 20.4863 13.6778 20.2439 13.7261C20.0014 13.7743 19.7501 13.7495 19.5216 13.6549C19.2932 13.5603 19.098 13.4001 18.9607 13.1946C18.8233 12.989 18.75 12.7473 18.75 12.5001C18.75 12.1686 18.8817 11.8506 19.1161 11.6162C19.3505 11.3818 19.6685 11.2501 20 11.2501Z" fill="white"/>
<path d="M29.6335 3.75H35.1147C35.2622 4.16701 35.5523 4.51847 35.9338 4.74227C36.3153 4.96607 36.7636 5.04779 37.1996 4.973C37.6355 4.8982 38.031 4.67171 38.3161 4.33354C38.6011 3.99537 38.7575 3.56731 38.7575 3.125C38.7575 2.6827 38.6011 2.25463 38.3161 1.91647C38.031 1.5783 37.6355 1.3518 37.1996 1.27701C36.7636 1.20221 36.3153 1.28394 35.9338 1.50773C35.5523 1.73153 35.2622 2.08299 35.1147 2.5H29.1147L26.4329 5.18313L27.3166 6.06687L29.6335 3.75ZM36.8747 2.5C36.9983 2.5 37.1192 2.53666 37.222 2.60533C37.3247 2.67401 37.4049 2.77162 37.4522 2.88583C37.4995 3.00003 37.5118 3.1257 37.4877 3.24693C37.4636 3.36817 37.4041 3.47954 37.3167 3.56694C37.2293 3.65435 37.1179 3.71388 36.9967 3.73799C36.8754 3.76211 36.7498 3.74973 36.6356 3.70243C36.5214 3.65512 36.4237 3.57501 36.3551 3.47223C36.2864 3.36945 36.2497 3.24862 36.2497 3.125C36.2497 2.95924 36.3156 2.80027 36.4328 2.68306C36.55 2.56585 36.709 2.5 36.8747 2.5Z" fill="white"/>
<path d="M32.6146 7.50001H28.7496V8.75001H32.6146C32.7621 9.16702 33.0522 9.51848 33.4337 9.74228C33.8152 9.96608 34.2635 10.0478 34.6995 9.97301C35.1354 9.89822 35.5309 9.67172 35.8159 9.33355C36.101 8.99538 36.2574 8.56731 36.2574 8.12501C36.2574 7.6827 36.101 7.25464 35.8159 6.91647C35.5309 6.5783 35.1354 6.3518 34.6995 6.27701C34.2635 6.20221 33.8152 6.28394 33.4337 6.50773C33.0522 6.73153 32.7621 7.083 32.6146 7.50001ZM34.9996 8.12501C34.9996 8.24862 34.963 8.36946 34.8943 8.47224C34.8256 8.57502 34.728 8.65513 34.6138 8.70243C34.4996 8.74974 34.3739 8.76212 34.2527 8.738C34.1315 8.71389 34.0201 8.65436 33.9327 8.56695C33.8453 8.47954 33.7858 8.36818 33.7616 8.24694C33.7375 8.1257 33.7499 8.00003 33.7972 7.88583C33.8445 7.77163 33.9246 7.67401 34.0274 7.60534C34.1302 7.53666 34.251 7.50001 34.3746 7.50001C34.5404 7.50001 34.6994 7.56586 34.8166 7.68307C34.9338 7.80028 34.9996 7.95925 34.9996 8.12501Z" fill="white"/>
<path d="M3.12476 5.00009C3.51117 4.99849 3.88765 4.87754 4.20269 4.65379C4.51774 4.43004 4.75595 4.11441 4.88476 3.75009H10.366L12.6829 6.06697L13.5666 5.18322L10.8835 2.50009H4.88351C4.76835 2.17681 4.56653 1.89141 4.30012 1.67508C4.0337 1.45875 3.71295 1.31983 3.37291 1.27349C3.03287 1.22715 2.68664 1.27519 2.37205 1.41234C2.05747 1.5495 1.78665 1.7705 1.58919 2.05118C1.39173 2.33186 1.27523 2.66143 1.25243 3.00385C1.22963 3.34628 1.3014 3.68838 1.4599 3.99276C1.6184 4.29715 1.85753 4.55211 2.15115 4.72976C2.44477 4.90742 2.78158 5.00093 3.12476 5.00009ZM3.12476 2.50009C3.24837 2.50009 3.36921 2.53675 3.47199 2.60542C3.57477 2.6741 3.65488 2.77171 3.70218 2.88592C3.74949 3.00012 3.76186 3.12579 3.73775 3.24702C3.71363 3.36826 3.65411 3.47963 3.5667 3.56703C3.47929 3.65444 3.36793 3.71397 3.24669 3.73808C3.12545 3.7622 2.99978 3.74982 2.88558 3.70252C2.77138 3.65521 2.67376 3.57511 2.60509 3.47232C2.53641 3.36954 2.49976 3.24871 2.49976 3.12509C2.49976 2.95933 2.5656 2.80036 2.68282 2.68315C2.80003 2.56594 2.959 2.50009 3.12476 2.50009Z" fill="white"/>
<path d="M5.62483 6.25002C5.28075 6.24859 4.94292 6.34187 4.64833 6.51964C4.35373 6.69741 4.11373 6.95282 3.95461 7.25789C3.79549 7.56296 3.72339 7.90594 3.74619 8.24926C3.76899 8.59258 3.88582 8.923 4.08389 9.20435C4.28196 9.4857 4.55363 9.70712 4.86915 9.84437C5.18466 9.98162 5.53186 10.0294 5.87273 9.98248C6.21359 9.93557 6.53497 9.79576 6.80168 9.57838C7.06838 9.36099 7.27013 9.07441 7.38482 8.75001H11.2498V7.50001H7.38482C7.25602 7.1357 7.0178 6.82007 6.70276 6.59632C6.38772 6.37257 6.01124 6.25162 5.62483 6.25002ZM5.62483 8.75001C5.50121 8.75001 5.38037 8.71336 5.27759 8.64468C5.17481 8.57601 5.09471 8.47839 5.0474 8.36419C5.0001 8.24999 4.98772 8.12432 5.01184 8.00308C5.03595 7.88184 5.09548 7.77048 5.18288 7.68307C5.27029 7.59566 5.38166 7.53614 5.50289 7.51202C5.62413 7.48791 5.7498 7.50028 5.864 7.54759C5.97821 7.59489 6.07582 7.675 6.14449 7.77778C6.21317 7.88056 6.24982 8.0014 6.24982 8.12501C6.24982 8.29077 6.18398 8.44974 6.06677 8.56695C5.94956 8.68416 5.79059 8.75001 5.62483 8.75001Z" fill="white"/>
<path d="M29.9997 23.8651C29.5827 24.0126 29.2312 24.3027 29.0074 24.6842C28.7836 25.0657 28.7019 25.514 28.7767 25.95C28.8515 26.3859 29.078 26.7814 29.4162 27.0665C29.7543 27.3516 30.1824 27.5079 30.6247 27.5079C31.067 27.5079 31.4951 27.3516 31.8333 27.0665C32.1714 26.7814 32.3979 26.3859 32.4727 25.95C32.5475 25.514 32.4658 25.0657 32.242 24.6842C32.0182 24.3027 31.6667 24.0126 31.2497 23.8651V19.0408L29.0966 17.6033L28.4028 18.6433L29.9997 19.7095V23.8651ZM30.6247 26.2501C30.5011 26.2501 30.3803 26.2135 30.2775 26.1448C30.1747 26.0761 30.0946 25.9785 30.0473 25.8643C30 25.7501 29.9876 25.6245 30.0117 25.5032C30.0358 25.382 30.0954 25.2706 30.1828 25.1832C30.2702 25.0958 30.3815 25.0363 30.5028 25.0122C30.624 24.988 30.7497 25.0004 30.8639 25.0477C30.9781 25.095 31.0757 25.1751 31.1444 25.2779C31.2131 25.3807 31.2497 25.5015 31.2497 25.6251C31.2497 25.7909 31.1839 25.9499 31.0667 26.0671C30.9494 26.1843 30.7905 26.2501 30.6247 26.2501Z" fill="white"/>
<path d="M11.4475 18.718L11.0525 17.5305L8.75 18.2993V23.8618C8.333 24.0092 7.98153 24.2993 7.75773 24.6808C7.53394 25.0623 7.45221 25.5107 7.52701 25.9466C7.6018 26.3825 7.8283 26.778 8.16647 27.0631C8.50464 27.3482 8.9327 27.5045 9.37501 27.5045C9.81731 27.5045 10.2454 27.3482 10.5835 27.0631C10.9217 26.778 11.1482 26.3825 11.223 25.9466C11.2978 25.5107 11.2161 25.0623 10.9923 24.6808C10.7685 24.2993 10.417 24.0092 10 23.8618V19.2005L11.4475 18.718ZM9.37501 26.2499C9.25139 26.2499 9.13055 26.2132 9.02777 26.1446C8.92499 26.0759 8.84488 25.9783 8.79758 25.8641C8.75028 25.7499 8.7379 25.6242 8.76201 25.503C8.78613 25.3817 8.84566 25.2704 8.93306 25.183C9.02047 25.0955 9.13184 25.036 9.25307 25.0119C9.37431 24.9878 9.49998 25.0002 9.61418 25.0475C9.72839 25.0948 9.826 25.1749 9.89467 25.2777C9.96335 25.3804 10 25.5013 10 25.6249C10 25.7907 9.93416 25.9496 9.81695 26.0668C9.69974 26.184 9.54077 26.2499 9.37501 26.2499Z" fill="white"/>
<path d="M16.8748 28.75C17.3166 28.7508 17.7444 28.5953 18.0824 28.3109C18.4205 28.0266 18.647 27.6317 18.7219 27.1963C18.7968 26.761 18.7151 26.3132 18.4914 25.9322C18.2678 25.5513 17.9165 25.2618 17.4998 25.115V23.75H16.2498V25.115C15.8331 25.2618 15.4818 25.5513 15.2581 25.9322C15.0345 26.3132 14.9528 26.761 15.0277 27.1963C15.1025 27.6317 15.3291 28.0266 15.6671 28.3109C16.0052 28.5953 16.433 28.7508 16.8748 28.75ZM16.8748 26.25C16.9984 26.25 17.1192 26.2866 17.222 26.3553C17.3248 26.424 17.4049 26.5216 17.4522 26.6358C17.4995 26.75 17.5119 26.8757 17.4878 26.9969C17.4637 27.1182 17.4041 27.2295 17.3167 27.3169C17.2293 27.4043 17.118 27.4639 16.9967 27.488C16.8755 27.5121 16.7498 27.4997 16.6356 27.4524C16.5214 27.4051 16.4238 27.325 16.3551 27.2222C16.2864 27.1194 16.2498 26.9986 16.2498 26.875C16.2498 26.7092 16.3156 26.5503 16.4328 26.433C16.5501 26.3158 16.709 26.25 16.8748 26.25Z" fill="white"/>
<path d="M23.1248 28.75C23.5665 28.7508 23.9943 28.5953 24.3324 28.3109C24.6705 28.0266 24.897 27.6317 24.9719 27.1963C25.0467 26.761 24.9651 26.3132 24.7414 25.9322C24.5177 25.5513 24.1665 25.2618 23.7498 25.115V23.75H22.4998V25.115C22.0831 25.2618 21.7318 25.5513 21.5081 25.9322C21.2845 26.3132 21.2028 26.761 21.2777 27.1963C21.3525 27.6317 21.5791 28.0266 21.9171 28.3109C22.2552 28.5953 22.683 28.7508 23.1248 28.75ZM23.1248 26.25C23.2484 26.25 23.3692 26.2866 23.472 26.3553C23.5748 26.424 23.6549 26.5216 23.7022 26.6358C23.7495 26.75 23.7619 26.8757 23.7378 26.9969C23.7137 27.1182 23.6541 27.2295 23.5667 27.3169C23.4793 27.4043 23.3679 27.4639 23.2467 27.488C23.1255 27.5121 22.9998 27.4997 22.8856 27.4524C22.7714 27.4051 22.6738 27.325 22.6051 27.2222C22.5364 27.1194 22.4998 26.9986 22.4998 26.875C22.4998 26.7092 22.5656 26.5503 22.6828 26.433C22.8 26.3158 22.959 26.25 23.1248 26.25Z" fill="white"/>
</svg>
