<svg width="40" height="40" viewBox="0 0 40 40" fill="none" xmlns="http://www.w3.org/2000/svg">
<path d="M19.9999 33.359C20.3793 33.359 20.6869 33.0515 20.6869 32.6721C20.6869 32.2927 20.3793 31.9851 19.9999 31.9851C19.6205 31.9851 19.313 32.2927 19.313 32.6721C19.313 33.0515 19.6205 33.359 19.9999 33.359Z" fill="white"/>
<path d="M24.357 38.8282H11.5555C11.0084 38.8282 10.5633 38.3831 10.5633 37.836V20.947C10.5633 20.3999 11.0084 19.9548 11.5555 19.9548H13.3773C13.701 19.9548 13.9633 19.6925 13.9633 19.3688C13.9633 19.0452 13.701 18.7829 13.3773 18.7829H11.5555C10.3623 18.7829 9.39141 19.7537 9.39141 20.947V26.1223H8.42L8.00492 24.9362C7.92266 24.7012 7.70086 24.5438 7.45188 24.5438H6.12695C5.88125 23.8109 5.18859 23.2812 4.37406 23.2812C3.35469 23.2812 2.52539 24.1105 2.52539 25.1298C2.52539 26.1491 3.35469 26.9784 4.37406 26.9784C5.18859 26.9784 5.88125 26.4487 6.12695 25.7157H7.03609L7.45117 26.9018C7.53344 27.1368 7.75523 27.2941 8.00422 27.2941H9.39133V28.8055H3.60156C3.35586 28.0726 2.6632 27.5428 1.84867 27.5428C0.829297 27.5428 0 28.3721 0 29.3914C0 30.4108 0.829297 31.2401 1.84867 31.2401C2.6632 31.2401 3.35586 30.7103 3.60156 29.9774H9.39141V31.4888H8.0043C7.75523 31.4888 7.53352 31.6462 7.45125 31.8811L7.03617 33.0671H6.12695C5.88125 32.3342 5.18859 31.8045 4.37406 31.8045C3.35469 31.8045 2.52539 32.6338 2.52539 33.6531C2.52539 34.6724 3.35469 35.5017 4.37406 35.5017C5.18859 35.5017 5.88125 34.972 6.12695 34.239H7.45188C7.70094 34.239 7.92266 34.0816 8.00492 33.8466L8.42 32.6606H9.39141V37.836C9.39141 39.0293 10.3623 40.0001 11.5555 40.0001H24.357C24.6807 40.0001 24.943 39.7378 24.943 39.4142C24.943 39.0905 24.6806 38.8282 24.357 38.8282ZM4.37406 25.8066C4.00094 25.8066 3.69727 25.5029 3.69727 25.1298C3.69727 24.7566 4.00094 24.4531 4.37406 24.4531C4.74719 24.4531 5.05078 24.7566 5.05078 25.1298C5.05078 25.5029 4.74727 25.8066 4.37406 25.8066ZM1.84867 30.0682C1.47555 30.0682 1.17188 29.7645 1.17188 29.3914C1.17188 29.0183 1.47555 28.7147 1.84867 28.7147C2.2218 28.7147 2.52539 29.0183 2.52539 29.3914C2.52539 29.7645 2.2218 30.0682 1.84867 30.0682ZM4.37406 34.3299C4.00094 34.3299 3.69727 34.0262 3.69727 33.6531C3.69727 33.2799 4.00094 32.9763 4.37406 32.9763C4.74719 32.9763 5.05078 33.2799 5.05078 33.6531C5.05078 34.0262 4.74727 34.3299 4.37406 34.3299Z" fill="white"/>
<path d="M38.1511 27.5427C37.3366 27.5427 36.6439 28.0725 36.3982 28.8054H30.6084V27.2941H31.9955C32.2446 27.2941 32.4663 27.1366 32.5486 26.9017L32.9636 25.7156H33.8728C34.1184 26.4486 34.8111 26.9784 35.6257 26.9784C36.645 26.9784 37.4743 26.1491 37.4743 25.1297C37.4743 24.1104 36.645 23.2811 35.6257 23.2811C34.8111 23.2811 34.1185 23.8109 33.8728 24.5438H32.5478C32.2988 24.5438 32.0771 24.7012 31.9948 24.9361L31.5797 26.1222H30.6084V20.9469C30.6084 19.7536 29.6375 18.7828 28.4443 18.7828H28.235V14.7711C28.235 14.4474 27.9727 14.1852 27.649 14.1852C27.3254 14.1852 27.0631 14.4474 27.0631 14.7711V18.7828H25.0146V8.23516C25.0146 5.47039 22.765 3.22109 19.9998 3.22109C17.2346 3.22109 14.985 5.47039 14.985 8.23516V12.943H12.9365V8.23516C12.9365 4.34047 16.105 1.17188 19.9998 1.17188C23.8946 1.17188 27.0631 4.34047 27.0631 8.23516V12.0367C27.0631 12.3604 27.3254 12.6227 27.649 12.6227C27.9727 12.6227 28.235 12.3604 28.235 12.0367V8.23516C28.235 3.6943 24.5407 0 19.9998 0C15.4589 0 11.7646 3.6943 11.7646 8.23516V13.5289C11.7646 13.8526 12.0269 14.1148 12.3506 14.1148H15.5709C15.8946 14.1148 16.1568 13.8526 16.1568 13.5289V8.23516C16.1568 6.11656 17.8807 4.39297 19.9998 4.39297C22.1189 4.39297 23.8428 6.11656 23.8428 8.23516V18.7828H16.1115C15.7879 18.7828 15.5256 19.0451 15.5256 19.3687C15.5256 19.6924 15.7879 19.9547 16.1115 19.9547H28.4443C28.9914 19.9547 29.4365 20.3998 29.4365 20.9469V37.8359C29.4365 38.383 28.9914 38.8281 28.4443 38.8281H27.0912C26.7675 38.8281 26.5053 39.0904 26.5053 39.4141C26.5053 39.7377 26.7675 40 27.0912 40H28.4443C29.6375 40 30.6084 39.0292 30.6084 37.8359V32.6605H31.5798L31.9949 33.8466C32.0771 34.0816 32.2989 34.2389 32.5479 34.2389H33.8729C34.1185 34.9719 34.8112 35.5016 35.6257 35.5016C36.6451 35.5016 37.4744 34.6723 37.4744 33.653C37.4744 32.6337 36.6451 31.8044 35.6257 31.8044C34.8112 31.8044 34.1186 32.3341 33.8729 33.067H32.9636L32.5486 31.881C32.4663 31.646 32.2445 31.4887 31.9955 31.4887H30.6084V29.9773H36.3982C36.6439 30.7102 37.3366 31.24 38.1511 31.24C39.1705 31.24 39.9998 30.4107 39.9998 29.3913C39.9998 28.372 39.1705 27.5427 38.1511 27.5427ZM35.6257 24.453C35.9989 24.453 36.3025 24.7566 36.3025 25.1297C36.3025 25.5028 35.9989 25.8065 35.6257 25.8065C35.2526 25.8065 34.949 25.5028 34.949 25.1297C34.949 24.7566 35.2525 24.453 35.6257 24.453ZM35.6257 32.9762C35.9989 32.9762 36.3025 33.2798 36.3025 33.653C36.3025 34.0261 35.9989 34.3298 35.6257 34.3298C35.2526 34.3298 34.949 34.0261 34.949 33.653C34.949 33.2798 35.2525 32.9762 35.6257 32.9762ZM38.1511 30.0681C37.778 30.0681 37.4744 29.7645 37.4744 29.3913C37.4744 29.0182 37.778 28.7146 38.1511 28.7146C38.5243 28.7146 38.8279 29.0182 38.8279 29.3913C38.8279 29.7645 38.5243 30.0681 38.1511 30.0681Z" fill="white"/>
<path d="M26.6322 30.1637L23.1714 24.6429C22.4826 23.544 21.2971 22.8881 20.0002 22.8881C18.7033 22.8881 17.5179 23.544 16.829 24.6429L13.3683 30.1637C12.6344 31.3343 12.5957 32.7549 13.2647 33.9638C13.9336 35.1727 15.1578 35.8943 16.5394 35.8943H23.461C24.8426 35.8943 26.0668 35.1727 26.7358 33.9638C27.4047 32.7549 27.3659 31.3343 26.6322 30.1637ZM25.7104 33.3963C25.2509 34.2267 24.41 34.7224 23.461 34.7224H16.5394C15.5905 34.7224 14.7495 34.2267 14.2901 33.3963C13.8305 32.566 13.8572 31.5903 14.3612 30.7861L17.8219 25.2653C18.2951 24.5106 19.1094 24.0599 20.0002 24.0599C20.8911 24.0599 21.7053 24.5106 22.1785 25.2653L25.6393 30.7861C26.1433 31.5902 26.1699 32.566 25.7104 33.3963Z" fill="white"/>
<path d="M20.0103 30.6981C20.3339 30.6981 20.5962 30.4358 20.5962 30.1121V25.9799C20.5962 25.6562 20.3339 25.3939 20.0103 25.3939C19.6866 25.3939 19.4243 25.6562 19.4243 25.9799V30.1121C19.4243 30.4357 19.6866 30.6981 20.0103 30.6981Z" fill="white"/>
</svg>
