<svg width="40" height="40" viewBox="0 0 40 40" fill="none" xmlns="http://www.w3.org/2000/svg">
<g clip-path="url(#clip0)">
<path d="M11.4389 7.99672C15.3711 6.22297 18.2772 3.93336 19.8432 1.37555C19.8671 1.33656 19.9013 1.3168 19.945 1.3168C19.9886 1.3168 20.0229 1.33656 20.0468 1.37555C21.2039 3.26547 23.0613 4.98797 25.5676 6.49523C28.0195 7.96984 30.9686 9.16539 34.3328 10.0486C34.4132 10.0698 34.4709 10.1383 34.4764 10.2192C34.5211 10.8755 34.5436 11.5659 34.5436 12.2714C34.5436 14.8873 33.8561 17.8217 32.5002 20.9934C32.3734 21.29 32.511 21.6333 32.8078 21.7602C33.0178 21.8434 33.3956 21.8117 33.5746 21.4527C34.9929 18.135 35.7121 15.046 35.7121 12.2714C35.7121 11.5397 35.6885 10.8226 35.6421 10.1401C35.6027 9.55805 35.1957 9.06711 34.6295 8.91859C28.1213 7.20977 23.1693 4.23812 21.0432 0.765469C20.8066 0.379062 20.3961 0.148438 19.9449 0.148438C19.4937 0.148438 19.0832 0.379062 18.8466 0.765469C17.4036 3.1225 14.6759 5.25469 10.9584 6.93164C10.6643 7.0643 10.5334 7.41031 10.6661 7.70445C10.7988 7.99836 11.1449 8.12914 11.4389 7.99672Z" fill="white"/>
<path d="M25.9034 23.954V19.2383C25.9034 18.18 25.0874 17.3093 24.0515 17.221V16.3257C24.0515 14.0615 22.2096 12.2195 19.9454 12.2195C17.6811 12.2195 15.8392 14.0614 15.8392 16.3257V17.2211C14.8033 17.3093 13.9873 18.18 13.9873 19.2384V23.954C13.9873 25.0707 14.8958 25.9793 16.0125 25.9793H23.8782C24.995 25.9792 25.9034 25.0707 25.9034 23.954ZM19.9454 13.3879C21.5653 13.3879 22.8832 14.7058 22.8832 16.3257V17.2132H17.0076V16.3257C17.0076 14.7057 18.3255 13.3879 19.9454 13.3879ZM15.1557 23.954V19.2383C15.1557 18.7659 15.5401 18.3815 16.0125 18.3815H23.8782C24.3506 18.3815 24.735 18.7659 24.735 19.2383V23.954C24.735 24.4264 24.3506 24.8107 23.8782 24.8107H16.0125C15.5401 24.8108 15.1557 24.4265 15.1557 23.954Z" fill="white"/>
<path d="M19.9006 20.1189C19.3091 20.1564 18.8258 20.633 18.7809 21.2239C18.7408 21.7517 19.0422 22.214 19.4869 22.4139V23.1667C19.4869 23.3078 19.6013 23.4222 19.7425 23.4222H20.2151C20.3562 23.4222 20.4706 23.3078 20.4706 23.1667V22.4139C20.8888 22.226 21.1802 21.806 21.1802 21.3178C21.1802 20.6285 20.5996 20.0747 19.9006 20.1189Z" fill="white"/>
<path d="M38.2973 28.5012C37.6236 28.5012 37.0401 28.8947 36.7642 29.4639H29.1092C29.4483 28.9625 29.7843 28.45 30.1148 27.9279H34.0998C34.3807 27.9279 34.6447 27.8185 34.8434 27.6199L36.0338 26.4294H36.7327C36.9936 27.0356 37.5966 27.4612 38.2973 27.4612C39.2362 27.4612 40 26.6974 40 25.7586C40 24.8198 39.2362 24.056 38.2973 24.056C37.5316 24.056 36.8825 24.5642 36.6691 25.261H35.9855C35.7045 25.261 35.4405 25.3704 35.2419 25.5689L34.0514 26.7594H30.8345C31.3694 25.8665 31.8837 24.9496 32.3652 24.0148C32.5129 23.7279 32.4001 23.3757 32.1132 23.2279C31.8263 23.0803 31.4741 23.193 31.3263 23.4799C27.6648 30.59 21.8819 36.8326 20.1967 38.5766C20.13 38.6457 20.0405 38.6837 19.9447 38.6837C19.8489 38.6837 19.7594 38.6457 19.6927 38.5766C18.2818 37.1165 14.6497 33.1913 11.4023 28.2878C7.38359 22.2197 5.34594 16.8311 5.34594 12.2717C5.34594 11.5662 5.36852 10.8758 5.41313 10.2193C5.41859 10.1385 5.47633 10.0701 5.5568 10.0489C6.64508 9.76318 7.70836 9.43825 8.71703 9.08341C9.02141 8.9763 9.18125 8.64279 9.07422 8.33841C8.96703 8.03404 8.63344 7.87427 8.32922 7.98122C7.35039 8.32568 6.31773 8.64114 5.26008 8.9188C4.69367 9.06747 4.28672 9.55841 4.24742 10.1402C4.20102 10.8229 4.1775 11.54 4.1775 12.2716C4.1775 16.503 5.81773 21.3682 9.05578 26.7593H5.83812L4.64766 25.5689C4.44906 25.3704 4.185 25.261 3.90406 25.261H3.33078C3.11742 24.5642 2.46828 24.056 1.70258 24.056C0.763828 24.0559 0 24.8197 0 25.7585C0 26.6973 0.763828 27.4611 1.70266 27.4611C2.40328 27.4611 3.00633 27.0355 3.26727 26.4293H3.85578L5.04617 27.6198C5.24484 27.8184 5.50891 27.9278 5.78977 27.9278H9.77766C9.98906 28.261 10.2052 28.5958 10.4284 28.9329C10.5465 29.1113 10.6653 29.288 10.7843 29.4638H3.23578C2.95992 28.8946 2.37641 28.5011 1.70266 28.5011C0.763828 28.5012 0 29.265 0 30.2038C0 31.1425 0.763828 31.9064 1.70266 31.9064C2.49352 31.9064 3.16008 31.3643 3.35055 30.6322H11.5945C11.9758 31.1699 12.3579 31.6921 12.7373 32.1972H8.12891C7.89 31.5453 7.26328 31.0788 6.52961 31.0788C5.59078 31.0788 4.82695 31.8426 4.82695 32.7815C4.82695 33.7203 5.59078 34.4841 6.52961 34.4841C7.26328 34.4841 7.89 34.0176 8.12891 33.3657H13.633C14.0285 33.8712 14.4174 34.3557 14.7949 34.8155H12.2684C11.9876 34.8155 11.7236 34.9248 11.5247 35.1235L10.3343 36.3139H9.64305C9.40414 35.662 8.77742 35.1955 8.04367 35.1955C7.10484 35.1955 6.34102 35.9593 6.34102 36.8982C6.34102 37.8369 7.10484 38.6007 8.04367 38.6007C8.77734 38.6007 9.40414 38.1343 9.64305 37.4824H10.3827C10.6634 37.4824 10.9273 37.3731 11.1263 37.1743L12.3166 35.9839H15.7727C17.0969 37.5366 18.2052 38.7186 18.8525 39.3886C19.1415 39.6875 19.5294 39.8522 19.9448 39.8522C20.3602 39.8522 20.748 39.6875 21.037 39.3886C21.7653 38.6349 22.8573 37.4656 24.1237 35.9824C24.1343 35.9829 24.1447 35.9839 24.1554 35.9839H27.5729L28.7634 37.1746C28.9621 37.3731 29.2262 37.4824 29.5069 37.4824H30.2465C30.4854 38.1343 31.1122 38.6007 31.8459 38.6007C32.7847 38.6007 33.5485 37.8369 33.5485 36.8982C33.5485 35.9593 32.7847 35.1955 31.8459 35.1955C31.1122 35.1955 30.4854 35.662 30.2465 36.3139H29.5552L28.3646 35.1232C28.166 34.9248 27.902 34.8155 27.6212 34.8155H25.1009C25.4797 34.3545 25.8684 33.8704 26.2633 33.3657H31.7829C32.0218 34.0176 32.6485 34.4841 33.3822 34.4841C34.321 34.4841 35.0848 33.7203 35.0848 32.7815C35.0848 31.8426 34.321 31.0788 33.3822 31.0788C32.6485 31.0788 32.0218 31.5453 31.7829 32.1972H27.1589C27.5381 31.692 27.9198 31.1695 28.3004 30.6322H36.6495C36.8399 31.3643 37.5065 31.9064 38.2973 31.9064C39.2362 31.9064 40 31.1425 40 30.2038C40 29.265 39.2362 28.5012 38.2973 28.5012ZM38.2973 25.2243C38.5919 25.2243 38.8316 25.464 38.8316 25.7585C38.8316 26.053 38.5919 26.2927 38.2973 26.2927C38.0028 26.2927 37.7632 26.053 37.7632 25.7585C37.7632 25.464 38.0028 25.2243 38.2973 25.2243ZM1.70266 26.2927C1.40805 26.2927 1.16844 26.053 1.16844 25.7585C1.16844 25.464 1.40805 25.2243 1.70266 25.2243C1.99719 25.2243 2.2368 25.464 2.2368 25.7585C2.2368 26.053 1.99719 26.2927 1.70266 26.2927ZM1.70266 30.7379C1.40805 30.7379 1.16844 30.4983 1.16844 30.2038C1.16844 29.9092 1.40805 29.6696 1.70266 29.6696C1.99719 29.6696 2.2368 29.9092 2.2368 30.2038C2.2368 30.4983 1.99719 30.7379 1.70266 30.7379ZM6.52961 33.3157C6.235 33.3157 5.99539 33.0761 5.99539 32.7815C5.99539 32.4868 6.235 32.2472 6.52961 32.2472C6.82414 32.2472 7.06375 32.4868 7.06375 32.7815C7.06375 33.0761 6.82414 33.3157 6.52961 33.3157ZM8.04383 37.4323C7.74922 37.4323 7.50961 37.1927 7.50961 36.8982C7.50961 36.6036 7.74922 36.364 8.04383 36.364C8.33844 36.364 8.57805 36.6036 8.57805 36.8982C8.57805 37.1927 8.33844 37.4323 8.04383 37.4323ZM31.8458 36.364C32.1404 36.364 32.38 36.6036 32.38 36.8982C32.38 37.1927 32.1404 37.4323 31.8458 37.4323C31.5512 37.4323 31.3116 37.1927 31.3116 36.8982C31.3116 36.6036 31.5512 36.364 31.8458 36.364ZM33.3823 32.2472C33.6769 32.2472 33.9165 32.4868 33.9165 32.7815C33.9165 33.0761 33.6769 33.3157 33.3823 33.3157C33.0877 33.3157 32.8481 33.0761 32.8481 32.7815C32.8481 32.4868 33.0877 32.2472 33.3823 32.2472ZM38.2973 30.7379C38.0028 30.7379 37.7632 30.4983 37.7632 30.2038C37.7632 29.9092 38.0028 29.6696 38.2973 29.6696C38.5919 29.6696 38.8316 29.9092 38.8316 30.2038C38.8316 30.4983 38.5919 30.7379 38.2973 30.7379Z" fill="white"/>
<path d="M20.9396 34.7181C21.1761 34.1473 20.9052 33.4928 20.3345 33.2563C19.7637 33.0197 19.1093 33.2906 18.8727 33.8613C18.6361 34.4321 18.907 35.0866 19.4778 35.3231C20.0485 35.5597 20.703 35.2888 20.9396 34.7181Z" fill="white"/>
<path d="M20.0712 6.97181C20.6808 6.87298 21.0949 6.29866 20.9961 5.68904C20.8973 5.07941 20.3229 4.66533 19.7133 4.76417C19.1036 4.863 18.6895 5.43731 18.7883 6.04694C18.8871 6.65656 19.4615 7.07064 20.0712 6.97181Z" fill="white"/>
<path d="M8.28535 11.3889C7.6677 11.3889 7.16699 11.8896 7.16699 12.5074C7.16699 13.125 7.6677 13.6257 8.28535 13.6257C8.90301 13.6257 9.40379 13.125 9.40379 12.5074C9.40371 11.8897 8.90301 11.3889 8.28535 11.3889Z" fill="white"/>
<path d="M31.6048 11.3889C30.9871 11.3889 30.4863 11.8896 30.4863 12.5074C30.4863 13.125 30.987 13.6257 31.6048 13.6257C32.2224 13.6257 32.7231 13.125 32.7231 12.5074C32.7231 11.8897 32.2224 11.3889 31.6048 11.3889Z" fill="white"/>
</g>
<defs>
<clipPath id="clip0">
<rect width="40" height="40" fill="white"/>
</clipPath>
</defs>
</svg>
