<svg width="40" height="40" viewBox="0 0 40 40" fill="none" xmlns="http://www.w3.org/2000/svg">
<path d="M38.124 32.5H37.499V14.375C37.498 13.5465 37.1685 12.7522 36.5826 12.1664C35.9968 11.5806 35.2025 11.251 34.374 11.25H27.499V10.625C27.498 9.7965 27.1685 9.00222 26.5826 8.41639C25.9968 7.83055 25.2025 7.50099 24.374 7.5V5.625C24.374 4.46468 23.9131 3.35188 23.0926 2.53141C22.2721 1.71094 21.1593 1.25 19.999 1.25C18.8387 1.25 17.7259 1.71094 16.9054 2.53141C16.085 3.35188 15.624 4.46468 15.624 5.625V7.5C14.7955 7.50099 14.0012 7.83055 13.4154 8.41639C12.8296 9.00222 12.5 9.7965 12.499 10.625V11.25H5.62402C4.79553 11.251 4.00125 11.5806 3.41541 12.1664C2.82957 12.7522 2.50002 13.5465 2.49902 14.375V32.5H1.87402C1.70826 32.5 1.54929 32.5658 1.43208 32.6831C1.31487 32.8003 1.24902 32.9592 1.24902 33.125V35.625C1.25002 36.4535 1.57957 37.2478 2.16541 37.8336C2.75125 38.4194 3.54553 38.749 4.37402 38.75H35.624C36.4525 38.749 37.2468 38.4194 37.8326 37.8336C38.4185 37.2478 38.748 36.4535 38.749 35.625V33.125C38.749 32.9592 38.6832 32.8003 38.566 32.6831C38.4488 32.5658 38.2898 32.5 38.124 32.5ZM15.624 22.5H24.374C25.2025 22.499 25.9968 22.1694 26.5826 21.5836C27.1685 20.9978 27.498 20.2035 27.499 19.375V15H33.749V30H6.24902V15H12.499V19.375C12.5 20.2035 12.8296 20.9978 13.4154 21.5836C14.0012 22.1694 14.7955 22.499 15.624 22.5ZM16.874 5.625C16.874 4.7962 17.2033 4.00134 17.7893 3.41529C18.3754 2.82924 19.1702 2.5 19.999 2.5C20.8278 2.5 21.6227 2.82924 22.2087 3.41529C22.7948 4.00134 23.124 4.7962 23.124 5.625V7.5H16.874V5.625ZM13.749 10.625C13.749 10.1277 13.9466 9.65081 14.2982 9.29917C14.6498 8.94754 15.1267 8.75 15.624 8.75H24.374C24.8713 8.75 25.3482 8.94754 25.6999 9.29917C26.0515 9.65081 26.249 10.1277 26.249 10.625V19.375C26.249 19.8723 26.0515 20.3492 25.6999 20.7008C25.3482 21.0525 24.8713 21.25 24.374 21.25H15.624C15.1267 21.25 14.6498 21.0525 14.2982 20.7008C13.9466 20.3492 13.749 19.8723 13.749 19.375V10.625ZM3.74902 14.375C3.74902 13.8777 3.94657 13.4008 4.2982 13.0492C4.64983 12.6975 5.12674 12.5 5.62402 12.5H12.499V13.75H5.62402C5.45826 13.75 5.29929 13.8158 5.18208 13.9331C5.06487 14.0503 4.99902 14.2092 4.99902 14.375V30.625C4.99902 30.7908 5.06487 30.9497 5.18208 31.0669C5.29929 31.1842 5.45826 31.25 5.62402 31.25H34.374C34.5398 31.25 34.6988 31.1842 34.816 31.0669C34.9332 30.9497 34.999 30.7908 34.999 30.625V14.375C34.999 14.2092 34.9332 14.0503 34.816 13.9331C34.6988 13.8158 34.5398 13.75 34.374 13.75H27.499V12.5H34.374C34.8713 12.5 35.3482 12.6975 35.6999 13.0492C36.0515 13.4008 36.249 13.8777 36.249 14.375V32.5H24.999C24.8333 32.5 24.6743 32.5658 24.5571 32.6831C24.4399 32.8003 24.374 32.9592 24.374 33.125V34.375C24.374 34.5408 24.3082 34.6997 24.191 34.8169C24.0738 34.9342 23.9148 35 23.749 35H16.249C16.0833 35 15.9243 34.9342 15.8071 34.8169C15.6899 34.6997 15.624 34.5408 15.624 34.375V33.125C15.624 32.9592 15.5582 32.8003 15.441 32.6831C15.3238 32.5658 15.1648 32.5 14.999 32.5H3.74902V14.375ZM37.499 35.625C37.499 36.1223 37.3015 36.5992 36.9499 36.9508C36.5982 37.3025 36.1213 37.5 35.624 37.5H4.37402C3.87674 37.5 3.39983 37.3025 3.0482 36.9508C2.69657 36.5992 2.49902 36.1223 2.49902 35.625V33.75H14.374V34.375C14.374 34.8723 14.5716 35.3492 14.9232 35.7008C15.2748 36.0525 15.7517 36.25 16.249 36.25H23.749C24.2463 36.25 24.7232 36.0525 25.0749 35.7008C25.4265 35.3492 25.624 34.8723 25.624 34.375V33.75H37.499V35.625Z" fill="white"/>
<path d="M20.624 32.5H19.374V33.75H20.624V32.5Z" fill="white"/>
<path d="M23.124 32.5H21.874V33.75H23.124V32.5Z" fill="white"/>
<path d="M18.125 32.5H16.875V33.75H18.125V32.5Z" fill="white"/>
<path d="M19.375 14.9113V20.0001H20.625V19.3751H21.875V18.1251H20.625V17.5001H21.875V16.2501H20.625V14.9113C21.2142 14.7592 21.7276 14.3974 22.0691 13.8938C22.4106 13.3902 22.5567 12.7793 22.4801 12.1757C22.4034 11.5721 22.1092 11.0171 21.6526 10.6149C21.1961 10.2126 20.6085 9.99072 20 9.99072C19.3915 9.99072 18.8039 10.2126 18.3474 10.6149C17.8908 11.0171 17.5966 11.5721 17.5199 12.1757C17.4433 12.7793 17.5894 13.3902 17.9309 13.8938C18.2724 14.3974 18.7858 14.7592 19.375 14.9113ZM20 11.2501C20.2472 11.2501 20.4889 11.3234 20.6945 11.4608C20.9 11.5981 21.0602 11.7933 21.1548 12.0217C21.2495 12.2501 21.2742 12.5015 21.226 12.7439C21.1777 12.9864 21.0587 13.2092 20.8839 13.384C20.7091 13.5588 20.4863 13.6778 20.2439 13.7261C20.0014 13.7743 19.7501 13.7495 19.5216 13.6549C19.2932 13.5603 19.098 13.4001 18.9607 13.1946C18.8233 12.989 18.75 12.7473 18.75 12.5001C18.75 12.1686 18.8817 11.8506 19.1161 11.6162C19.3505 11.3818 19.6685 11.2501 20 11.2501Z" fill="white"/>
<path d="M29.6332 3.75H35.1145C35.2619 4.16701 35.552 4.51847 35.9335 4.74227C36.315 4.96607 36.7634 5.04779 37.1993 4.973C37.6353 4.8982 38.0307 4.67171 38.3158 4.33354C38.6009 3.99537 38.7573 3.56731 38.7573 3.125C38.7573 2.6827 38.6009 2.25463 38.3158 1.91647C38.0307 1.5783 37.6353 1.3518 37.1993 1.27701C36.7634 1.20221 36.315 1.28394 35.9335 1.50773C35.552 1.73153 35.2619 2.08299 35.1145 2.5H29.1145L26.4326 5.18313L27.3164 6.06687L29.6332 3.75ZM36.8745 2.5C36.9981 2.5 37.1189 2.53666 37.2217 2.60533C37.3245 2.67401 37.4046 2.77162 37.4519 2.88583C37.4992 3.00003 37.5116 3.1257 37.4875 3.24693C37.4634 3.36817 37.4038 3.47954 37.3164 3.56694C37.229 3.65435 37.1177 3.71388 36.9964 3.73799C36.8752 3.76211 36.7495 3.74973 36.6353 3.70243C36.5211 3.65512 36.4235 3.57501 36.3548 3.47223C36.2861 3.36945 36.2495 3.24862 36.2495 3.125C36.2495 2.95924 36.3153 2.80027 36.4325 2.68306C36.5498 2.56585 36.7087 2.5 36.8745 2.5Z" fill="white"/>
<path d="M32.614 7.50001H28.749V8.75001H32.614C32.7615 9.16702 33.0516 9.51848 33.4331 9.74228C33.8146 9.96608 34.2629 10.0478 34.6989 9.97301C35.1348 9.89822 35.5303 9.67172 35.8153 9.33355C36.1004 8.99538 36.2568 8.56731 36.2568 8.12501C36.2568 7.6827 36.1004 7.25464 35.8153 6.91647C35.5303 6.5783 35.1348 6.3518 34.6989 6.27701C34.2629 6.20221 33.8146 6.28394 33.4331 6.50773C33.0516 6.73153 32.7615 7.083 32.614 7.50001ZM34.999 8.12501C34.999 8.24862 34.9624 8.36946 34.8937 8.47224C34.825 8.57502 34.7274 8.65513 34.6132 8.70243C34.499 8.74974 34.3733 8.76212 34.2521 8.738C34.1309 8.71389 34.0195 8.65436 33.9321 8.56695C33.8447 8.47954 33.7851 8.36818 33.761 8.24694C33.7369 8.1257 33.7493 8.00003 33.7966 7.88583C33.8439 7.77163 33.924 7.67401 34.0268 7.60534C34.1296 7.53666 34.2504 7.50001 34.374 7.50001C34.5398 7.50001 34.6988 7.56586 34.816 7.68307C34.9332 7.80028 34.999 7.95925 34.999 8.12501Z" fill="white"/>
<path d="M3.12451 5.00009C3.51093 4.99849 3.88741 4.87754 4.20245 4.65379C4.51749 4.43004 4.75571 4.11441 4.88451 3.75009H10.3658L12.6826 6.06697L13.5664 5.18322L10.8833 2.50009H4.88326C4.7681 2.17681 4.56629 1.89141 4.29987 1.67508C4.03346 1.45875 3.7127 1.31983 3.37266 1.27349C3.03263 1.22715 2.68639 1.27519 2.37181 1.41234C2.05723 1.5495 1.7864 1.7705 1.58894 2.05118C1.39148 2.33186 1.27499 2.66143 1.25218 3.00385C1.22938 3.34628 1.30115 3.68838 1.45966 3.99276C1.61816 4.29715 1.85729 4.55211 2.15091 4.72976C2.44452 4.90742 2.78133 5.00093 3.12451 5.00009ZM3.12451 2.50009C3.24813 2.50009 3.36896 2.53675 3.47174 2.60542C3.57452 2.6741 3.65463 2.77171 3.70194 2.88592C3.74924 3.00012 3.76162 3.12579 3.7375 3.24702C3.71339 3.36826 3.65386 3.47963 3.56645 3.56703C3.47905 3.65444 3.36768 3.71397 3.24644 3.73808C3.12521 3.7622 2.99954 3.74982 2.88534 3.70252C2.77113 3.65521 2.67352 3.57511 2.60484 3.47232C2.53617 3.36954 2.49951 3.24871 2.49951 3.12509C2.49951 2.95933 2.56536 2.80036 2.68257 2.68315C2.79978 2.56594 2.95875 2.50009 3.12451 2.50009Z" fill="white"/>
<path d="M5.62495 6.25002C5.28087 6.24859 4.94304 6.34187 4.64845 6.51964C4.35385 6.69741 4.11386 6.95282 3.95474 7.25789C3.79561 7.56296 3.72351 7.90594 3.74631 8.24926C3.76911 8.59258 3.88595 8.923 4.08401 9.20435C4.28208 9.4857 4.55375 9.70712 4.86927 9.84437C5.18479 9.98162 5.53199 10.0294 5.87285 9.98248C6.21371 9.93557 6.53509 9.79576 6.8018 9.57838C7.0685 9.36099 7.27025 9.07441 7.38495 8.75001H11.2499V7.50001H7.38495C7.25614 7.1357 7.01793 6.82007 6.70288 6.59632C6.38784 6.37257 6.01136 6.25162 5.62495 6.25002ZM5.62495 8.75001C5.50133 8.75001 5.3805 8.71336 5.27772 8.64468C5.17494 8.57601 5.09483 8.47839 5.04752 8.36419C5.00022 8.24999 4.98784 8.12432 5.01196 8.00308C5.03607 7.88184 5.0956 7.77048 5.18301 7.68307C5.27041 7.59566 5.38178 7.53614 5.50302 7.51202C5.62425 7.48791 5.74992 7.50028 5.86412 7.54759C5.97833 7.59489 6.07594 7.675 6.14462 7.77778C6.21329 7.88056 6.24995 8.0014 6.24995 8.12501C6.24995 8.29077 6.1841 8.44974 6.06689 8.56695C5.94968 8.68416 5.79071 8.75001 5.62495 8.75001Z" fill="white"/>
<path d="M29.9992 23.8651C29.5822 24.0126 29.2308 24.3027 29.007 24.6842C28.7832 25.0657 28.7014 25.514 28.7762 25.95C28.851 26.3859 29.0775 26.7814 29.4157 27.0665C29.7539 27.3516 30.1819 27.5079 30.6242 27.5079C31.0665 27.5079 31.4946 27.3516 31.8328 27.0665C32.1709 26.7814 32.3974 26.3859 32.4722 25.95C32.547 25.514 32.4653 25.0657 32.2415 24.6842C32.0177 24.3027 31.6662 24.0126 31.2492 23.8651V19.0408L29.0961 17.6033L28.4023 18.6433L29.9992 19.7095V23.8651ZM30.6242 26.2501C30.5006 26.2501 30.3798 26.2135 30.277 26.1448C30.1742 26.0761 30.0941 25.9785 30.0468 25.8643C29.9995 25.7501 29.9871 25.6245 30.0112 25.5032C30.0353 25.382 30.0949 25.2706 30.1823 25.1832C30.2697 25.0958 30.3811 25.0363 30.5023 25.0122C30.6235 24.988 30.7492 25.0004 30.8634 25.0477C30.9776 25.095 31.0752 25.1751 31.1439 25.2779C31.2126 25.3807 31.2492 25.5015 31.2492 25.6251C31.2492 25.7909 31.1834 25.9499 31.0662 26.0671C30.949 26.1843 30.79 26.2501 30.6242 26.2501Z" fill="white"/>
<path d="M11.4475 18.718L11.0525 17.5305L8.75 18.2993V23.8618C8.333 24.0092 7.98153 24.2993 7.75773 24.6808C7.53394 25.0623 7.45221 25.5107 7.52701 25.9466C7.6018 26.3825 7.8283 26.778 8.16647 27.0631C8.50464 27.3482 8.9327 27.5045 9.37501 27.5045C9.81731 27.5045 10.2454 27.3482 10.5835 27.0631C10.9217 26.778 11.1482 26.3825 11.223 25.9466C11.2978 25.5107 11.2161 25.0623 10.9923 24.6808C10.7685 24.2993 10.417 24.0092 10 23.8618V19.2005L11.4475 18.718ZM9.37501 26.2499C9.25139 26.2499 9.13055 26.2132 9.02777 26.1446C8.92499 26.0759 8.84488 25.9783 8.79758 25.8641C8.75028 25.7499 8.7379 25.6242 8.76201 25.503C8.78613 25.3817 8.84566 25.2704 8.93306 25.183C9.02047 25.0955 9.13184 25.036 9.25307 25.0119C9.37431 24.9878 9.49998 25.0002 9.61418 25.0475C9.72839 25.0948 9.826 25.1749 9.89467 25.2777C9.96335 25.3804 10 25.5013 10 25.6249C10 25.7907 9.93416 25.9496 9.81695 26.0668C9.69974 26.184 9.54077 26.2499 9.37501 26.2499Z" fill="white"/>
<path d="M16.8742 28.75C17.3159 28.7508 17.7438 28.5953 18.0818 28.3109C18.4199 28.0266 18.6464 27.6317 18.7213 27.1963C18.7962 26.761 18.7145 26.3132 18.4908 25.9322C18.2671 25.5513 17.9159 25.2618 17.4992 25.115V23.75H16.2492V25.115C15.8325 25.2618 15.4812 25.5513 15.2575 25.9322C15.0338 26.3132 14.9522 26.761 15.0271 27.1963C15.1019 27.6317 15.3284 28.0266 15.6665 28.3109C16.0046 28.5953 16.4324 28.7508 16.8742 28.75ZM16.8742 26.25C16.9978 26.25 17.1186 26.2866 17.2214 26.3553C17.3242 26.424 17.4043 26.5216 17.4516 26.6358C17.4989 26.75 17.5113 26.8757 17.4872 26.9969C17.4631 27.1182 17.4035 27.2295 17.3161 27.3169C17.2287 27.4043 17.1173 27.4639 16.9961 27.488C16.8749 27.5121 16.7492 27.4997 16.635 27.4524C16.5208 27.4051 16.4232 27.325 16.3545 27.2222C16.2858 27.1194 16.2492 26.9986 16.2492 26.875C16.2492 26.7092 16.315 26.5503 16.4322 26.433C16.5494 26.3158 16.7084 26.25 16.8742 26.25Z" fill="white"/>
<path d="M23.1242 28.75C23.5659 28.7508 23.9937 28.5953 24.3318 28.3109C24.6699 28.0266 24.8964 27.6317 24.9713 27.1963C25.0461 26.761 24.9645 26.3132 24.7408 25.9322C24.5171 25.5513 24.1658 25.2618 23.7492 25.115V23.75H22.4992V25.115C22.0825 25.2618 21.7312 25.5513 21.5075 25.9322C21.2838 26.3132 21.2022 26.761 21.2771 27.1963C21.3519 27.6317 21.5784 28.0266 21.9165 28.3109C22.2546 28.5953 22.6824 28.7508 23.1242 28.75ZM23.1242 26.25C23.2478 26.25 23.3686 26.2866 23.4714 26.3553C23.5742 26.424 23.6543 26.5216 23.7016 26.6358C23.7489 26.75 23.7613 26.8757 23.7372 26.9969C23.713 27.1182 23.6535 27.2295 23.5661 27.3169C23.4787 27.4043 23.3673 27.4639 23.2461 27.488C23.1249 27.5121 22.9992 27.4997 22.885 27.4524C22.7708 27.4051 22.6732 27.325 22.6045 27.2222C22.5358 27.1194 22.4992 26.9986 22.4992 26.875C22.4992 26.7092 22.565 26.5503 22.6822 26.433C22.7994 26.3158 22.9584 26.25 23.1242 26.25Z" fill="white"/>
</svg>
