<svg width="40" height="40" viewBox="0 0 40 40" fill="none" xmlns="http://www.w3.org/2000/svg">
<g clip-path="url(#clip0)">
<path d="M18.1323 11.0372C18.2384 11.1271 18.3727 11.176 18.5109 11.176C18.5275 11.176 18.5442 11.1753 18.5609 11.1739C18.7162 11.1606 18.8599 11.086 18.96 10.9665L22.6983 6.50603C22.9062 6.25799 22.8736 5.88846 22.6256 5.68064C22.3777 5.47268 22.0081 5.50525 21.8002 5.75338L18.4401 9.76236L16.9031 8.46064C16.6562 8.25142 16.2863 8.28212 16.0773 8.52908C15.8681 8.77603 15.8988 9.14579 16.1458 9.35486L18.1323 11.0372Z" fill="white"/>
<path d="M19.6143 16.3886C21.6142 16.3886 23.614 15.6276 25.1365 14.1058C26.6107 12.6322 27.4226 10.6725 27.4226 8.58756C27.4226 6.50271 26.6108 4.54248 25.1365 3.06764C23.5379 1.46967 21.3293 0.642636 19.078 0.800293C16.8167 0.958027 14.7394 2.08279 13.3788 3.88623C13.1839 4.14459 13.2353 4.51193 13.4936 4.70686C13.7521 4.90185 14.1194 4.85037 14.3143 4.59201C15.4707 3.05936 17.2367 2.10342 19.1596 1.96936C21.0724 1.83631 22.9495 2.53834 24.3079 3.89631C25.5608 5.14959 26.2507 6.81568 26.2507 8.58756C26.2507 10.3594 25.5608 12.0248 24.3082 13.277C21.7199 15.8641 17.5089 15.864 14.9207 13.277C13.2242 11.5812 12.5756 9.09178 13.2279 6.78014C13.3158 6.46873 13.1346 6.14498 12.8232 6.05709C12.5122 5.96928 12.188 6.15045 12.1001 6.46185C11.3326 9.18139 12.096 12.1104 14.0923 14.1058C15.6147 15.6277 17.6146 16.3886 19.6143 16.3886Z" fill="white"/>
<path d="M37.6172 29.8389C37.4227 29.728 37.2219 29.6139 37.0156 29.4905L35.4836 28.5717C36.1961 27.8147 36.7297 26.8951 36.9398 25.9741C37.0039 25.6959 37.0367 25.4225 37.0367 25.1623V21.2842C37.0367 19.5201 35.7094 17.928 33.6539 17.2287C31.857 16.6178 30.0734 16.9014 29.1133 17.9264C28.1289 18.0998 26.7484 18.8803 26.7953 21.903C26.7961 21.9295 26.7961 21.9514 26.7961 21.9686V25.1623C26.7961 25.4225 26.8289 25.6959 26.893 25.9717C27.1023 26.8936 27.6352 27.8147 28.3492 28.5725L26.843 29.4756C26.832 29.4811 26.8211 29.4881 26.8102 29.4944C26.607 29.6162 26.4078 29.7295 26.2156 29.8389C25.6398 30.1662 25.0789 30.4842 24.6461 30.9295L23.5664 30.2819C24.2797 29.5241 24.8133 28.6045 25.0234 27.6842C25.0859 27.41 25.118 27.1366 25.118 26.8717V25.1483C25.118 25.1479 25.118 25.1475 25.118 25.1471V22.9933C25.118 21.2299 23.7913 19.6387 21.738 18.9394C19.9414 18.3276 18.157 18.6106 17.1969 19.6352C16.2119 19.8082 14.831 20.5886 14.8788 23.6109C14.8793 23.6382 14.8797 23.6605 14.8797 23.6773V24.4209V25.4792V26.8717C14.8797 27.1241 14.9109 27.3959 14.9742 27.6842C15.1844 28.6045 15.718 29.5241 16.432 30.2819L15.3539 30.9295C14.9203 30.4842 14.3594 30.1655 13.7828 29.8381C13.5883 29.7272 13.3875 29.6139 13.182 29.4905L13.1664 29.4811C13.1648 29.4802 13.1634 29.4792 13.1618 29.4784L11.6497 28.5724C12.363 27.815 12.8965 26.8955 13.1066 25.9741C13.1695 25.7019 13.2014 25.4289 13.2014 25.1627V23.436V22.7785V21.2844C13.2014 19.5207 11.8745 17.9291 9.82094 17.2297C8.02398 16.6176 6.23891 16.9009 5.27805 17.9263C4.29375 18.0994 2.9143 18.8798 2.96219 21.9019C2.96266 21.9292 2.96305 21.9516 2.96305 21.9684V22.7099V23.768V25.1627C2.96305 25.4289 2.99492 25.7019 3.05742 25.9726C3.26781 26.8947 3.80133 27.8145 4.51453 28.572L2.9818 29.4904C2.77664 29.6134 2.57609 29.7274 2.38203 29.8377C1.15711 30.5337 0 31.1912 0 33.1075V36.5497C0 36.6664 0 37.0216 0.256484 37.2736C0.471094 37.4844 0.733281 37.5073 0.932344 37.5073C0.961875 37.5073 0.99 37.5069 1.01633 37.5064C1.04422 37.5059 1.07344 37.5053 1.10406 37.5053H6.88344C6.88383 37.5053 6.88422 37.5054 6.88461 37.5054C6.885 37.5054 6.88539 37.5053 6.88578 37.5053H8.08164H8.08195H9.2743C9.27461 37.5053 9.27492 37.5054 9.27523 37.5054C9.27555 37.5054 9.27586 37.5053 9.27617 37.5053H11.9163V38.2584C11.9163 38.3756 11.9163 38.7319 12.1741 38.9842C12.3889 39.1951 12.6506 39.2186 12.8498 39.2186C12.8795 39.2186 12.9077 39.2178 12.9342 39.2178C12.9616 39.217 12.9905 39.2162 13.0209 39.2162H13.6959C14.0194 39.2162 14.2819 38.9537 14.2819 38.6303C14.2819 38.3069 14.0194 38.0444 13.6959 38.0444H13.0881V37.5053V36.3334V34.8162C13.0881 33.6311 13.6053 33.2905 14.8795 32.5678C14.8991 32.5569 14.9186 32.5452 14.9389 32.5342C15.0202 32.4881 15.1022 32.4405 15.1866 32.392L16.1639 33.0248L17.1709 33.6772C17.1795 33.6819 17.1881 33.6873 17.1967 33.692C17.267 33.7327 17.3288 33.7756 17.3889 33.8162C17.5116 33.8998 17.7459 34.06 18.0295 34.06C18.1467 34.06 18.2725 34.0327 18.4022 33.9616L18.4827 34.2772L17.3405 36.7514C17.3397 36.753 17.3389 36.7553 17.3381 36.7569C17.2405 36.9584 17.2561 37.1811 17.3772 37.3647L17.7764 38.0444H16.4022C16.0788 38.0444 15.8162 38.3069 15.8162 38.6303C15.8162 38.9537 16.0788 39.2162 16.4022 39.2162H18.7998H18.8014H26.9772C27.0077 39.2162 27.0366 39.217 27.0639 39.2178C27.0905 39.2178 27.1186 39.2186 27.1483 39.2186C27.3483 39.2186 27.6108 39.1951 27.8264 38.9842C28.0834 38.7319 28.0834 38.3756 28.0834 38.2584V37.5053H33.1084H33.11H38.8959C38.9256 37.5053 38.9553 37.5061 38.9827 37.5061C39.0092 37.5069 39.0373 37.5076 39.067 37.5076C39.2663 37.5076 39.528 37.4842 39.7428 37.2733C39.9998 37.0209 39.9998 36.6662 39.9998 36.5498V33.1077C40 31.192 38.843 30.5342 37.6172 29.8389ZM11.773 30.0118L10.2834 30.9752C10.2219 31.0116 10.1672 31.0469 10.1187 31.0794L9.79844 30.7402C9.79305 30.734 9.78719 30.7282 9.78156 30.7223L9.24773 30.1568C9.30531 30.1375 9.36359 30.1169 9.42289 30.0947C9.87617 29.9259 10.3163 29.6825 10.7269 29.385L11.773 30.0118ZM5.62898 19.0611C5.79211 19.0467 5.9418 18.9648 6.04172 18.8351C6.63648 18.0634 8.03516 17.8594 9.4432 18.3389C10.6363 18.7453 12.0295 19.7605 12.0295 21.2844V22.7786V22.8502H11.7828C11.2053 22.8502 10.8323 22.5283 10.2716 22.0031C9.64047 21.412 8.855 20.6763 7.49094 20.6763H6.44125C5.16656 20.6763 4.95367 21.7122 4.82656 22.3311C4.68031 23.0427 4.61102 23.1823 4.14469 23.1823H4.13492V22.7101V21.9685C4.13492 21.947 4.13453 21.9184 4.13391 21.8834C4.10578 20.1004 4.60867 19.1509 5.62898 19.0611ZM4.19969 25.7104C4.15672 25.5245 4.135 25.3402 4.135 25.1627V24.354H4.14477C5.60727 24.354 5.84609 23.1914 5.97445 22.5669C6.12219 21.8481 6.18344 21.8481 6.44133 21.8481H7.49109C8.39203 21.8481 8.89195 22.3162 9.4707 22.8584C10.053 23.4037 10.713 24.0219 11.783 24.0219H12.0297V25.1627C12.0297 25.3402 12.008 25.5245 11.9646 25.7119C11.654 27.0737 10.3855 28.4858 9.0132 28.9969C8.66117 29.1286 8.36539 29.1899 8.08242 29.1899C7.79945 29.1899 7.50367 29.1286 7.15086 28.9966C5.77922 28.4858 4.51062 27.0737 4.19969 25.7104ZM8.71008 31.2944L8.51977 32.0389H7.6407L7.45164 31.2974L8.08227 30.6294L8.71008 31.2944ZM5.43758 29.3852C5.84797 29.6826 6.28789 29.9258 6.74086 30.0945C6.80039 30.1168 6.85898 30.1375 6.9168 30.1569L6.04609 31.0792C5.99734 31.0467 5.94234 31.0113 5.88055 30.9749L4.39156 30.0119L5.43758 29.3852ZM5.45297 35.6441L5.85898 36.3334H1.17188V33.1075C1.17188 31.9205 1.68836 31.5798 2.96109 30.8566C3.06164 30.7994 3.16398 30.7412 3.26836 30.681L5.25484 31.9658C5.2625 31.9707 5.27016 31.9754 5.27797 31.98C5.3482 32.0209 5.41008 32.0634 5.46992 32.1044C5.60328 32.1958 5.83477 32.3544 6.11422 32.3544C6.23102 32.3544 6.35625 32.3262 6.48617 32.2543L6.56617 32.5681L5.42445 35.0419C5.32641 35.2374 5.33727 35.4593 5.45297 35.6441ZM8.94102 36.3334H8.08258C8.0825 36.3334 8.08242 36.3334 8.08227 36.3334H7.21906L6.60234 35.2864L7.56031 33.2109H8.59992L9.55789 35.2864L8.94102 36.3334ZM11.9164 34.8162V36.3334H10.3011L10.7072 35.6442C10.8227 35.4597 10.8337 35.238 10.7358 35.0423L9.59398 32.5684L9.67477 32.2524C9.80602 32.3259 9.93258 32.3546 10.0506 32.3546C10.3312 32.3546 10.5637 32.1949 10.6975 32.103C10.7569 32.0623 10.8182 32.0201 10.8877 31.9794C10.8951 31.9751 10.9023 31.9705 10.9095 31.9659L12.8961 30.6812C13.0005 30.7414 13.1028 30.7996 13.203 30.857C13.6632 31.1187 14.0241 31.3297 14.2984 31.55C13.0734 32.2452 11.9164 32.903 11.9164 34.8162ZM35.6063 30.0123L34.1195 30.9748C34.057 31.0116 34.0016 31.0475 33.9523 31.0803L33.632 30.7405C33.6258 30.7334 33.618 30.7256 33.6109 30.7186L33.0812 30.1569C33.1391 30.1381 33.1969 30.117 33.2562 30.0951C33.7094 29.9256 34.1492 29.6827 34.5602 29.385L35.6063 30.0123ZM29.4641 19.0608C29.6273 19.0467 29.7773 18.9647 29.8773 18.835C30.4711 18.0639 31.8687 17.8592 33.2766 18.3381C34.4703 18.7452 35.8648 19.76 35.8648 21.2842V22.8498H35.6164C35.0391 22.8498 34.6664 22.5287 34.1063 22.0037C33.475 21.4123 32.6898 20.6764 31.3242 20.6764H30.2742C28.9992 20.6764 28.7867 21.7123 28.6602 22.3319C28.5141 23.0428 28.4453 23.1819 27.9805 23.1819H27.968V21.9686C27.968 21.9475 27.968 21.9186 27.9672 21.8842C27.9398 20.1006 28.443 19.1506 29.4641 19.0608ZM28.0352 25.7108C27.9906 25.5186 27.968 25.3342 27.968 25.1623V24.3537H27.9805C29.4414 24.3537 29.6797 23.1912 29.8078 22.567C29.9555 21.8483 30.0164 21.8483 30.2742 21.8483H31.3242C32.2266 21.8483 32.7266 22.3162 33.3047 22.8584C33.8867 23.4037 34.5461 24.0217 35.6164 24.0217H35.8648V25.1623C35.8648 25.3342 35.8422 25.5186 35.7977 25.7123C35.4875 27.0741 34.2188 28.4858 32.8453 28.9975C32.4961 29.1287 32.2008 29.1897 31.9156 29.1897C31.632 29.1897 31.3375 29.1287 30.9859 28.9967C29.6125 28.485 28.3438 27.0733 28.0352 25.7108ZM32.5438 31.2952L32.3547 32.0389H31.4742L31.2852 31.2975L31.9156 30.6295L32.5438 31.2952ZM29.2719 29.3858C29.682 29.6827 30.1219 29.9256 30.575 30.0944C30.6344 30.1162 30.693 30.1373 30.7508 30.1569L29.8797 31.0787C29.8305 31.0467 29.7758 31.0116 29.7141 30.9748L28.2266 30.0116L29.2719 29.3858ZM23.6906 31.7225L22.2039 32.6858C22.1414 32.7217 22.0859 32.7577 22.0367 32.7897L21.1648 31.8678C21.2227 31.8483 21.2805 31.828 21.3398 31.8061C21.7937 31.6366 22.2336 31.3928 22.6445 31.0944L23.6906 31.7225ZM17.5477 20.7701C17.7109 20.7557 17.8606 20.6737 17.9605 20.544C18.5546 19.773 19.9523 19.5694 21.3602 20.0488C22.5531 20.4551 23.9462 21.4699 23.9462 22.9934V24.4862C23.9462 24.4866 23.9461 24.487 23.9461 24.4873V24.5612H23.6995C23.1223 24.5612 22.7498 24.2396 22.1897 23.7148C21.5586 23.1234 20.7732 22.3874 19.4077 22.3874H18.358C17.0829 22.3874 16.8703 23.4237 16.7434 24.0429C16.5975 24.7539 16.5284 24.8933 16.0637 24.8933H16.0516V24.4209V23.6773C16.0516 23.6559 16.0513 23.6273 16.0506 23.5924C16.0223 21.8094 16.526 20.8598 17.5477 20.7701ZM16.118 27.428C16.0742 27.2272 16.0516 27.0405 16.0516 26.8717V26.0652H16.0636C17.5248 26.0652 17.7632 24.9028 17.8913 24.2783C18.0387 23.5592 18.1001 23.5592 18.358 23.5592H19.4077C20.31 23.5592 20.8098 24.0275 21.3884 24.5698C21.9703 25.115 22.6298 25.733 23.6995 25.733H23.9462V26.8716C23.9462 27.049 23.9243 27.2341 23.8813 27.4224C23.5704 28.7826 22.3016 30.1951 20.9313 30.7076C20.5751 30.8396 20.279 30.9013 19.9993 30.9013C19.7212 30.9013 19.4243 30.8396 19.068 30.7076C17.6961 30.1952 16.4273 28.7827 16.118 27.428ZM20.6273 33.0045L20.4383 33.7483H19.557L19.3687 33.0069L19.9992 32.3397L20.6273 33.0045ZM17.9617 32.7889C17.9133 32.7569 17.8586 32.7217 17.7961 32.6858L16.3094 31.7225L17.3539 31.0944C17.7656 31.3928 18.2063 31.6366 18.6602 31.8069C18.7188 31.828 18.7766 31.8483 18.8336 31.867L17.9617 32.7889ZM20.8578 38.0444H19.1359L18.5195 36.9951L19.4766 34.9202H20.5188L21.475 36.9967L20.8578 38.0444ZM26.9117 38.0444H22.218L22.6242 37.3553C22.7375 37.1725 22.75 36.9522 22.6547 36.7569C22.6539 36.7553 22.6531 36.753 22.6523 36.7514L21.5125 34.2772L21.593 33.9631C21.7234 34.0358 21.85 34.0647 21.9672 34.0647C22.2461 34.0647 22.4773 33.9069 22.6109 33.8162C22.6711 33.7748 22.7328 33.7327 22.8031 33.692C22.8117 33.6873 22.8203 33.6819 22.8289 33.6772L24.8133 32.392C24.8961 32.4405 24.9789 32.4873 25.0594 32.5334C25.0805 32.5452 25.1016 32.5577 25.1227 32.5694C26.3953 33.292 26.9117 33.6327 26.9117 34.8162V38.0444ZM29.2937 35.6537L29.6937 36.3334H28.0836V34.8162C28.0836 32.903 26.9266 32.2459 25.7016 31.5498C25.7016 31.5498 25.7008 31.5498 25.7008 31.5491C25.9742 31.3295 26.3352 31.1178 26.7945 30.8577C26.8953 30.7998 26.9984 30.742 27.1031 30.6811L29.0883 31.9655C29.0953 31.9709 29.1031 31.9756 29.1109 31.9803C29.1812 32.0209 29.243 32.0631 29.3031 32.1037C29.4266 32.1881 29.6625 32.3498 29.9484 32.3498C30.0648 32.3498 30.1898 32.3225 30.3187 32.2522L30.3992 32.5678L29.2578 35.042C29.257 35.0428 29.257 35.0428 29.257 35.0436C29.157 35.2452 29.1711 35.4686 29.2937 35.6537ZM32.7742 36.3334H31.0531L30.4367 35.285L31.3937 33.2108H32.4352L33.3922 35.2842L32.7742 36.3334ZM38.8281 36.3334H34.1344L34.5398 35.6444C34.6492 35.4709 34.6664 35.267 34.5867 35.078C34.582 35.0662 34.5766 35.0537 34.5711 35.042L33.4289 32.5678L33.5094 32.253C33.6398 32.3256 33.7664 32.3545 33.8844 32.3545C34.1641 32.3545 34.3969 32.1952 34.5305 32.1037C34.5898 32.0631 34.6516 32.0209 34.7219 31.9803C34.7297 31.9756 34.7375 31.9709 34.7453 31.9655L36.7297 30.6811C36.8344 30.742 36.9375 30.7998 37.0383 30.8577C38.3117 31.5803 38.8281 31.9209 38.8281 33.1077V36.3334Z" fill="white"/>
</g>
<defs>
<clipPath id="clip0">
<rect width="40" height="40" fill="white"/>
</clipPath>
</defs>
</svg>
