<svg width="40" height="40" viewBox="0 0 40 40" fill="none" xmlns="http://www.w3.org/2000/svg">
<g clip-path="url(#clip0)">
<path d="M16.1307 14.6664L17.414 14.9461C17.4565 14.9554 17.4988 14.9598 17.5406 14.9598C17.8126 14.9598 18.0576 14.7709 18.1179 14.4942C18.1874 14.175 17.9851 13.8598 17.666 13.7903L16.3827 13.5105C16.0631 13.441 15.7484 13.6433 15.6788 13.9624C15.6092 14.2817 15.8115 14.5968 16.1307 14.6664Z" fill="white"/>
<path d="M22.8236 14.96C22.8652 14.96 22.9077 14.9556 22.9502 14.9464L24.2334 14.6666C24.5527 14.5971 24.7549 14.2819 24.6853 13.9627C24.6158 13.6436 24.3009 13.4411 23.9814 13.5108L22.6981 13.7906C22.3789 13.8601 22.1766 14.1753 22.2463 14.4945C22.3066 14.7711 22.5515 14.96 22.8236 14.96Z" fill="white"/>
<path d="M37.7174 34.8583H37.2332L36.023 28.4332C35.6195 26.2862 34.7092 24.4312 33.3906 23.0691C32.3357 21.9795 31.0824 21.29 29.7903 21.0733C30.0822 20.4649 30.4186 19.8688 30.7511 19.28C31.6407 17.7048 32.4809 16.2168 32.4564 14.6053C32.3959 10.7812 30.92 7.08719 28.3005 4.20375C25.9091 1.57148 22.8741 0 20.1821 0C17.5217 0 14.5139 1.54211 12.136 4.12516C11.9148 4.36555 11.9303 4.73969 12.1706 4.96094C12.4107 5.18211 12.785 5.16672 13.0064 4.92641C15.1641 2.58234 17.8466 1.18297 20.1821 1.18297C24.8685 1.18297 30.5665 6.60664 31.2139 13.5425C30.4269 11.6553 29.0796 10.2113 27.2226 9.2932C24.7162 8.0532 22.479 7.47563 20.182 7.47563C17.8857 7.47563 15.6478 8.05313 13.1394 9.29313C11.2378 10.233 9.90003 11.6984 9.13807 13.6674C9.33643 11.2773 10.1378 8.95148 11.4815 6.88906C11.6599 6.61531 11.5825 6.24891 11.3088 6.07063C11.0351 5.89234 10.6687 5.96953 10.4903 6.24328C8.84589 8.76719 7.95292 11.6588 7.90784 14.6052C7.88253 16.188 8.54167 17.6674 9.23948 19.2337C9.50589 19.8316 9.77565 20.4372 10.0086 21.0566C6.99651 21.5132 4.39003 24.4745 3.64409 28.4331L2.43596 34.8583H2.28268C1.17057 34.8583 0.265808 35.7641 0.265808 36.8774V37.9831C0.265808 39.0952 1.17057 40 2.28268 40H37.7174C38.8295 40 39.7342 39.0952 39.7342 37.9831V36.8773C39.7342 35.7641 38.8295 34.8583 37.7174 34.8583ZM34.8603 28.652L36.0293 34.8583H30.281L31.1044 25.4128C31.1381 25.0123 31.0025 24.6238 30.7224 24.3191C30.4264 23.9971 30.0077 23.8125 29.5735 23.8125H28.9508C29.0009 23.2637 29.1321 22.7284 29.3159 22.2038C31.8963 22.454 34.1904 25.0872 34.8603 28.652ZM27.2251 16.4275C27.2935 16.2271 27.3529 16.0259 27.4002 15.8247C27.4994 15.4098 27.5519 14.9591 27.5519 14.5215V10.8441C29.4241 12.087 30.5067 14.0452 30.7769 16.6791C30.4907 17.3351 30.1112 18.0075 29.721 18.6984C28.8663 20.212 27.9082 21.9096 27.7642 23.8124H24.2883V20.4505C25.6314 19.3786 26.7091 17.9323 27.2218 16.4373C27.2228 16.4341 27.2241 16.4309 27.2251 16.4275ZM21.4689 20.717C20.9528 20.9031 20.5175 21.0014 20.1021 21.0252C19.685 21.0013 19.249 20.903 18.7335 20.717C17.0181 20.0973 15.4428 18.6525 14.5814 17.0134C15.1389 17.0811 15.7024 17.1156 16.2621 17.1156C17.1902 17.1156 18.1078 17.0224 18.9692 16.8362C19.2187 16.7828 19.7573 16.5721 20.1817 16.2191C20.6062 16.5726 21.145 16.783 21.3936 16.8359C22.7639 17.1322 24.2253 17.1917 25.6757 17.016C24.7957 18.6353 23.1822 20.0979 21.4689 20.717ZM23.1052 21.2555V23.8124H17.0969V21.25C17.4972 21.4816 17.9107 21.6777 18.3317 21.8298C18.9732 22.0612 19.5265 22.1815 20.0732 22.2083C20.0828 22.2087 20.0924 22.209 20.1021 22.209C20.1118 22.209 20.1215 22.2087 20.1311 22.2083C20.676 22.1816 21.2286 22.0613 21.8706 21.8297C22.2916 21.6775 22.705 21.4836 23.1052 21.2555ZM13.9175 10.2315C16.1533 9.16047 18.1511 8.65867 20.1821 8.65867C22.1906 8.65867 24.1655 9.14883 26.3689 10.1951V11.652H13.9175V10.2315ZM13.9175 12.8349H26.3689V14.5215C26.3689 14.8679 26.3276 15.2234 26.2491 15.5517C26.2341 15.6154 26.2176 15.6791 26.1999 15.7429C24.6636 16.0145 23.0955 15.9937 21.6417 15.6792C21.3399 15.615 20.8264 15.2851 20.7703 15.1229C20.7657 15.1025 20.7601 15.0823 20.7534 15.0626C20.6661 14.8045 20.4165 14.6356 20.1448 14.6525C19.8782 14.6689 19.6535 14.8604 19.5942 15.1201C19.5346 15.2865 19.0224 15.6151 18.7203 15.6797C17.2842 15.9902 15.6103 16.0109 14.0738 15.7427C14.0569 15.6808 14.0407 15.6188 14.0262 15.5568C13.954 15.2486 13.9174 14.9481 13.9174 14.6637V12.8349H13.9175ZM9.60995 17.0716C9.82135 14.2609 10.8707 12.1903 12.7346 10.9V14.6636C12.7346 15.0387 12.7816 15.43 12.8746 15.8271C12.9217 16.0274 12.9804 16.2274 13.0478 16.4266C13.0492 16.4312 13.0509 16.4357 13.0524 16.4402C13.5589 17.9291 14.6084 19.3643 15.9139 20.4298V23.8124H11.8501C11.7393 21.9383 10.9892 20.2541 10.3201 18.7522C10.0653 18.1802 9.81675 17.6209 9.60995 17.0716ZM4.80667 28.652C5.16198 26.7666 5.99698 25.0763 7.15792 23.8925C8.11909 22.9124 9.24995 22.3237 10.3836 22.2023C10.5259 22.7259 10.6267 23.2616 10.6646 23.8124H10.6285C10.1952 23.8124 9.77729 23.9966 9.48206 24.3179C9.20182 24.6227 9.06612 25.0116 9.09987 25.4115L9.8755 34.8583H3.63964L4.80667 28.652ZM38.5513 37.9831C38.5513 38.443 38.1771 38.817 37.7174 38.817H2.28268C1.82292 38.817 1.44878 38.4429 1.44878 37.9831V36.8773C1.44878 36.4163 1.82292 36.0412 2.28268 36.0412H18.7345C19.0611 36.0412 19.326 35.7763 19.326 35.4497C19.326 35.123 19.0611 34.8582 18.7345 34.8582H11.0624L10.2787 25.3133C10.2714 25.2269 10.315 25.1596 10.3529 25.1184C10.4237 25.0413 10.5267 24.9953 10.6285 24.9953H16.5053H23.6967H29.5735C29.6746 24.9953 29.781 25.0429 29.8514 25.1195C29.8892 25.1606 29.9328 25.2276 29.9257 25.3116L29.0936 34.8581H21.361C21.0344 34.8581 20.7696 35.123 20.7696 35.4496C20.7696 35.7762 21.0344 36.0411 21.361 36.0411H36.7394C36.7403 36.0411 36.7411 36.0412 36.742 36.0412C36.7428 36.0412 36.7436 36.0411 36.7444 36.0411H37.7173C38.1771 36.0411 38.5512 36.4162 38.5512 36.8773V37.9831H38.5513Z" fill="white"/>
<path d="M23.1981 29.928C23.1981 28.4792 21.8092 27.3005 20.1022 27.3005C18.3952 27.3005 17.0063 28.4792 17.0063 29.928C17.0063 31.3756 18.3952 32.5533 20.1022 32.5533C21.8092 32.5533 23.1981 31.3756 23.1981 29.928ZM20.1021 31.3703C19.0652 31.3703 18.1892 30.7098 18.1892 29.928C18.1892 29.145 19.0653 28.4835 20.1021 28.4835C21.1391 28.4835 22.015 29.145 22.015 29.928C22.015 30.7098 21.1391 31.3703 20.1021 31.3703Z" fill="white"/>
</g>
<defs>
<clipPath id="clip0">
<rect width="40" height="40" fill="white"/>
</clipPath>
</defs>
</svg>
