<svg width="40" height="40" viewBox="0 0 40 40" fill="none" xmlns="http://www.w3.org/2000/svg">
<path d="M39.375 23.75H26.875V22.5H27.5C27.8452 22.5 28.125 22.2202 28.125 21.875C28.125 21.5298 27.8452 21.25 27.5 21.25H26.875V20.625C26.875 19.2443 27.9943 18.125 29.375 18.125C30.7557 18.125 31.875 19.2443 31.875 20.625C31.875 20.9702 32.1548 21.25 32.5 21.25C32.8452 21.25 33.125 20.9702 33.125 20.625C33.125 18.5539 31.4461 16.875 29.375 16.875C27.3039 16.875 25.625 18.5539 25.625 20.625V23.75H15.1375C15.4496 23.4084 15.6234 22.9627 15.625 22.5V18.75C15.625 18.4048 15.3452 18.125 15 18.125H5.625C5.27984 18.125 5 18.4048 5 18.75V22.5C5.00164 22.9627 5.17539 23.4084 5.4875 23.75H0.625C0.279844 23.75 0 24.0298 0 24.375V39.375C0 39.7202 0.279844 40 0.625 40H39.375C39.7202 40 40 39.7202 40 39.375V24.375C40 24.0298 39.7202 23.75 39.375 23.75ZM6.25 19.375H14.375V22.5C14.375 22.8452 14.0952 23.125 13.75 23.125H6.875C6.52984 23.125 6.25 22.8452 6.25 22.5V19.375ZM10 38.75H1.25V31.25H10V38.75ZM10 30H1.25V25H3.125C3.125 25.3452 3.40484 25.625 3.75 25.625H7.5C7.84516 25.625 8.125 25.3452 8.125 25H10V30ZM28.75 38.75H11.25V25H28.75V38.75ZM38.75 38.75H30V31.25H38.75V38.75ZM38.75 30H30V25H31.875C31.875 25.3452 32.1548 25.625 32.5 25.625H36.25C36.5952 25.625 36.875 25.3452 36.875 25H38.75V30Z" fill="white"/>
<path d="M12.5 34.375H27.5C27.8452 34.375 28.125 34.0952 28.125 33.75V27.5C28.125 27.1548 27.8452 26.875 27.5 26.875H12.5C12.1548 26.875 11.875 27.1548 11.875 27.5V33.75C11.875 34.0952 12.1548 34.375 12.5 34.375ZM13.125 28.125H26.875V33.125H13.125V28.125Z" fill="white"/>
<path d="M23.75 36.25H16.25C15.9048 36.25 15.625 36.5298 15.625 36.875C15.625 37.2202 15.9048 37.5 16.25 37.5H23.75C24.0952 37.5 24.375 37.2202 24.375 36.875C24.375 36.5298 24.0952 36.25 23.75 36.25Z" fill="white"/>
<path d="M6.875 9.375H33.125C33.4702 9.375 33.75 9.09516 33.75 8.75V0.625C33.75 0.279844 33.4702 0 33.125 0H6.875C6.52984 0 6.25 0.279844 6.25 0.625V8.75C6.25 9.09516 6.52984 9.375 6.875 9.375ZM20.625 1.25H32.5V8.125H20.625V1.25ZM7.5 1.25H19.375V8.125H7.5V1.25Z" fill="white"/>
<path d="M15.625 4.375H10.625C10.2798 4.375 10 4.65484 10 5C10 5.34516 10.2798 5.625 10.625 5.625H15.625C15.9702 5.625 16.25 5.34516 16.25 5C16.25 4.65484 15.9702 4.375 15.625 4.375Z" fill="white"/>
<path d="M29.375 4.375H24.375C24.0298 4.375 23.75 4.65484 23.75 5C23.75 5.34516 24.0298 5.625 24.375 5.625H29.375C29.7202 5.625 30 5.34516 30 5C30 4.65484 29.7202 4.375 29.375 4.375Z" fill="white"/>
<path d="M7.125 15.4375C6.60695 15.7358 6.27703 16.2778 6.25 16.875C6.25 17.2202 6.52984 17.5 6.875 17.5C7.22016 17.5 7.5 17.2202 7.5 16.875C7.5 16.7431 7.5625 16.6737 7.875 16.4375C8.39305 16.1392 8.72297 15.5972 8.75 15C8.72297 14.4028 8.39305 13.8608 7.875 13.5625C7.55938 13.3256 7.5 13.2562 7.5 13.125C7.5 12.9938 7.5625 12.925 7.875 12.6875C8.39305 12.3892 8.72297 11.8472 8.75 11.25C8.75 10.9048 8.47016 10.625 8.125 10.625C7.77984 10.625 7.5 10.9048 7.5 11.25C7.5 11.3806 7.4375 11.45 7.125 11.6875C6.60695 11.9858 6.27703 12.5278 6.25 13.125C6.27703 13.7222 6.60695 14.2642 7.125 14.5625C7.4375 14.7994 7.5 14.8688 7.5 15C7.5 15.1312 7.4375 15.2 7.125 15.4375Z" fill="white"/>
<path d="M11 12.6875C11.518 12.3892 11.848 11.8472 11.875 11.25C11.875 10.9048 11.5952 10.625 11.25 10.625C10.9048 10.625 10.625 10.9048 10.625 11.25C10.625 11.3806 10.5625 11.45 10.25 11.6875C9.73195 11.9858 9.40203 12.5278 9.375 13.125C9.40203 13.7222 9.73195 14.2642 10.25 14.5625C10.5625 14.7994 10.625 14.8688 10.625 15C10.625 15.1312 10.5625 15.2013 10.25 15.4375C9.73195 15.7358 9.40203 16.2778 9.375 16.875C9.375 17.2202 9.65484 17.5 10 17.5C10.3452 17.5 10.625 17.2202 10.625 16.875C10.625 16.7431 10.6875 16.6737 11 16.4375C11.518 16.1392 11.848 15.5972 11.875 15C11.848 14.4028 11.518 13.8608 11 13.5625C10.6875 13.3256 10.625 13.2562 10.625 13.125C10.625 12.9938 10.6875 12.9231 11 12.6875Z" fill="white"/>
<path d="M14.125 12.6875C14.643 12.3892 14.973 11.8472 15 11.25C15 10.9048 14.7202 10.625 14.375 10.625C14.0298 10.625 13.75 10.9048 13.75 11.25C13.75 11.3806 13.6875 11.45 13.375 11.6875C12.857 11.9858 12.527 12.5278 12.5 13.125C12.527 13.7222 12.857 14.2642 13.375 14.5625C13.6875 14.7994 13.75 14.8688 13.75 15C13.75 15.1312 13.6875 15.2013 13.375 15.4375C12.857 15.7358 12.527 16.2778 12.5 16.875C12.5 17.2202 12.7798 17.5 13.125 17.5C13.4702 17.5 13.75 17.2202 13.75 16.875C13.75 16.7431 13.8125 16.6737 14.125 16.4375C14.643 16.1392 14.973 15.5972 15 15C14.973 14.4028 14.643 13.8608 14.125 13.5625C13.8125 13.3256 13.75 13.2562 13.75 13.125C13.75 12.9938 13.8125 12.9231 14.125 12.6875Z" fill="white"/>
</svg>
