<svg width="40" height="40" viewBox="0 0 40 40" fill="none" xmlns="http://www.w3.org/2000/svg">
<path d="M17.4194 34.8387H16.709C16.4091 33.3685 15.1065 32.258 13.5484 32.258H11.6129V30.1256C11.6129 28.6321 11.9109 27.1786 12.4987 25.807L12.5573 25.6716C13.2148 24.1362 13.5484 22.5116 13.5484 20.842V20C13.5484 18.7676 13.0614 17.6168 12.1774 16.7587C11.2935 15.9012 10.1421 15.4445 8.89365 15.4857C6.47996 15.5588 4.51613 17.6562 4.51613 20.1619V20.842C4.51613 22.511 4.84974 24.1362 5.50781 25.6722L5.56515 25.8051C6.1536 27.178 6.45161 28.6315 6.45161 30.1256V32.258H4.51613C2.95867 32.258 1.65543 33.3685 1.35553 34.8387H0.645161C0.288243 34.8387 0 35.1278 0 35.4838V39.3548C0 39.7107 0.288243 39.9999 0.645161 39.9999H17.4194C17.7763 39.9999 18.0645 39.7107 18.0645 39.3548V35.4838C18.0645 35.1278 17.7763 34.8387 17.4194 34.8387ZM5.80645 20.842V20.1619C5.80645 18.3464 7.20892 16.8271 8.93303 16.7754C9.81477 16.7527 10.6471 17.0722 11.2787 17.6846C11.9103 18.2973 12.2581 19.1201 12.2581 20V20.842C12.2581 22.3355 11.9601 23.789 11.3722 25.1606L11.3136 25.2967C10.7148 26.6929 10.3994 28.1659 10.3453 29.6774H7.71925C7.66444 28.1665 7.3491 26.6929 6.75025 25.2954L6.69292 25.1625C6.10446 23.7896 5.80645 22.3361 5.80645 20.842ZM7.74194 30.9677H10.3226V32.258H7.74194V30.9677ZM4.51613 33.5483H13.5484C14.3882 33.5483 15.098 34.0895 15.3651 34.8387H2.69941C2.96654 34.0895 3.67629 33.5483 4.51613 33.5483ZM16.7742 38.7096H1.29032V36.129H16.7742V38.7096Z" fill="white"/>
<path d="M39.8104 6.63999L37.4194 4.24899V0.645161C37.4194 0.289189 37.1311 0 36.7742 0H16.129C15.7721 0 15.4839 0.289189 15.4839 0.645161V30.3226C15.4839 30.6786 15.7721 30.9677 16.129 30.9677H18.0645V32.9032C18.0645 33.2592 18.3528 33.5484 18.7097 33.5484H39.3549C39.7118 33.5484 40 33.2592 40 32.9032V7.09677C40 6.91816 39.9279 6.75687 39.8104 6.63999ZM36.129 4.78327L37.7974 6.45161H36.129V4.78327ZM18.0645 3.22581V29.6774H16.7742V1.29032H36.129V2.95867L35.9407 2.77029C35.8238 2.65278 35.6625 2.58065 35.4839 2.58065H18.7097C18.3528 2.58065 18.0645 2.86983 18.0645 3.22581ZM38.7097 32.2581H19.3549V3.87097H34.8387V7.09677C34.8387 7.45275 35.127 7.74194 35.4839 7.74194H38.7097V32.2581Z" fill="white"/>
<path d="M21.2902 10.3227H32.9031C33.26 10.3227 33.5482 10.0335 33.5482 9.67751V5.80654C33.5482 5.45057 33.26 5.16138 32.9031 5.16138H21.2902C20.9333 5.16138 20.645 5.45057 20.645 5.80654V9.67751C20.645 10.0335 20.9333 10.3227 21.2902 10.3227ZM21.9353 6.4517H32.2579V9.03234H21.9353V6.4517Z" fill="white"/>
<path d="M20.645 11.6128H37.4192V12.9031H20.645V11.6128Z" fill="white"/>
<path d="M20.645 14.1936H37.4192V15.4839H20.645V14.1936Z" fill="white"/>
<path d="M33.6056 20.2136L32.7948 18.9966L31.7212 19.7124L33.0115 21.6479C33.1243 21.8173 33.3108 21.9232 33.5133 21.9342C33.5256 21.9355 33.5367 21.9355 33.5483 21.9355C33.7392 21.9355 33.9213 21.851 34.0445 21.7033L37.2703 17.8323L36.2786 17.0063L33.6056 20.2136Z" fill="white"/>
<path d="M33.6056 24.7297L32.7948 23.5128L31.7212 24.2285L33.0115 26.164C33.1243 26.3334 33.3108 26.4393 33.5133 26.4503C33.5256 26.4516 33.5367 26.4516 33.5483 26.4516C33.7392 26.4516 33.9213 26.3672 34.0445 26.2194L37.2703 22.3484L36.2786 21.5225L33.6056 24.7297Z" fill="white"/>
<path d="M33.6056 29.2458L32.7948 28.0289L31.7212 28.7446L33.0115 30.6801C33.1243 30.8496 33.3108 30.9554 33.5133 30.9664C33.5256 30.9677 33.5367 30.9677 33.5483 30.9677C33.7392 30.9677 33.9213 30.8833 34.0445 30.7355L37.2703 26.8646L36.2786 26.0386L33.6056 29.2458Z" fill="white"/>
<path d="M20.645 29.6775H30.9676V30.9678H20.645V29.6775Z" fill="white"/>
<path d="M20.645 25.1614H30.9676V26.4517H20.645V25.1614Z" fill="white"/>
<path d="M20.645 20.6453H30.9676V21.9356H20.645V20.6453Z" fill="white"/>
</svg>
