<svg width="93" height="82" viewBox="0 0 93 82" fill="none" xmlns="http://www.w3.org/2000/svg">
<path d="M27.3291 46.5342L45.2191 46.5342" stroke="#FC6537" stroke-miterlimit="10" stroke-dasharray="2 2"/>
<path d="M19.0723 35.5193H34.6365" stroke="#DDDDDD" stroke-miterlimit="10"/>
<path d="M9.43945 41.0269H25.0037" stroke="#DDDDDD" stroke-miterlimit="10"/>
<path d="M26.2314 40.9968H34.6276" stroke="#7C7C7C" stroke-miterlimit="10"/>
<path d="M9.43945 26.5698H25.0037" stroke="#FC6537" stroke-miterlimit="10" stroke-dasharray="2 2"/>
<path d="M9.43945 11.8938H23.4331" stroke="#7C7C7C" stroke-miterlimit="10"/>
<path d="M19.0723 16.9319H34.6365" stroke="#DDDDDD" stroke-miterlimit="10"/>
<path d="M18.5352 21.2817H42.3244" stroke="#7C7C7C" stroke-miterlimit="10"/>
<path d="M14.9443 46.5342H21.1783" stroke="#DDDDDD" stroke-miterlimit="10"/>
<path d="M16.3203 49.9763H28.7607" stroke="#DDDDDD" stroke-miterlimit="10"/>
<path d="M39.7148 49.9763H52.1552" stroke="#DDDDDD" stroke-miterlimit="10"/>
<path d="M10.8389 53.6707H29.0306" stroke="#FC6537" stroke-miterlimit="10" stroke-dasharray="2 2"/>
<path d="M16.3203 30.7004H22.5405" stroke="#DDDDDD" stroke-miterlimit="10"/>
<path d="M24.5771 30.7004H30.7973" stroke="#7C7C7C" stroke-miterlimit="10"/>
<path d="M43.9668 16.9319H50.187" stroke="#DDDDDD" stroke-miterlimit="10"/>
<path d="M69.2638 79.6365H22.7686" stroke="#7C7C7C" stroke-miterlimit="10"/>
<path d="M61.5509 79.3746L61.498 67.3523" stroke="#7C7C7C" stroke-miterlimit="10"/>
<path d="M30.9571 79.3746L30.9043 67.3523" stroke="#7C7C7C" stroke-miterlimit="10"/>
<path d="M84.7971 67.3523H8.2913C4.2758 67.3523 1 64.0974 1 60.1074V14.0656C1 10.0756 4.2758 6.82068 8.2913 6.82068H84.8499C88.8654 6.82068 92.1412 10.0756 92.1412 14.0656V60.1074C92.0884 64.0974 88.8654 67.3523 84.7971 67.3523Z" stroke="#DDDDDD" stroke-miterlimit="10"/>
<path d="M91.9833 58.3229H1.21191" stroke="#DDDDDD" stroke-miterlimit="10"/>
<path d="M54.3377 31.1995C55.3566 30.3045 56.9051 30.3923 57.8163 31.3968L66.0181 40.4377C66.9503 41.4652 66.86 43.057 65.8177 43.9726C64.7988 44.8676 63.2503 44.7798 62.3391 43.7753L54.1372 34.7343C53.2051 33.7069 53.2954 32.115 54.3377 31.1995Z" stroke="#7C7C7C"/>
<circle cx="43.6301" cy="18.757" r="16.257" stroke="#FC6537" stroke-width="5"/>
<circle opacity="0.6" cx="43.6298" cy="18.757" r="13.9941" fill="white" stroke="white"/>
</svg>
