<svg width="85" height="78" viewBox="0 0 85 78" fill="none" xmlns="http://www.w3.org/2000/svg">
<path d="M49.7197 69.9038H35.2891" stroke="#E1E1E1" stroke-miterlimit="10"/>
<path d="M31.673 69.9038H1V71.7076C1 74.7007 3.42639 77.1191 6.41148 77.1191H78.5885C81.5816 77.1191 84 74.6927 84 71.7076V69.9038H53.3349" stroke="#8C8C8C" stroke-miterlimit="10"/>
<path d="M23.8828 15.7651H10.0189C7.02583 15.7651 4.60742 18.1915 4.60742 21.1766V69.8959" stroke="#DDDDDD" stroke-miterlimit="10"/>
<path d="M80.4001 69.9039V21.1766C80.4001 18.1835 77.9737 15.7651 74.9886 15.7651H60.2627" stroke="#DDDDDD" stroke-miterlimit="10"/>
<path d="M4.60742 22.9807H24.1622" stroke="#DDDDDD" stroke-miterlimit="10"/>
<path d="M60.9492 22.9807H80.4002" stroke="#DDDDDD" stroke-miterlimit="10"/>
<path d="M42.5039 60.877V64.4846" stroke="#7C7C7C" stroke-miterlimit="10"/>
<path d="M42.5039 50.054V57.2693" stroke="#7C7C7C" stroke-miterlimit="10"/>
<path d="M71.373 60.877H74.9887" stroke="#7C7C7C" stroke-miterlimit="10"/>
<path d="M49.7197 42.9424V60.8769H67.766" stroke="#FC6537" stroke-miterlimit="10" stroke-dasharray="2 2"/>
<path d="M13.6352 60.877H10.0195" stroke="#7C7C7C" stroke-miterlimit="10"/>
<path d="M35.2884 42.9424V60.8769H17.2422" stroke="#FC6537" stroke-miterlimit="10" stroke-dasharray="2 2"/>
<rect x="30.2334" y="0.5" width="24.5409" height="26.1372" rx="7.5" stroke="#7C7C7C"/>
<rect x="24.1465" y="11.2065" width="36.7151" height="33.5225" rx="2" fill="#FC6537"/>
<circle cx="42.9722" cy="27.4663" r="2.72412" fill="white"/>
<rect x="41.8047" y="27.8555" width="2.33496" height="4.66992" fill="white"/>
</svg>
