<svg width="94" height="85" viewBox="0 0 94 85" fill="none" xmlns="http://www.w3.org/2000/svg">
<path d="M16.3544 15.5528C21.219 8.88029 28.364 4.29674 36.4718 2.66411C43.6573 1.214 50.934 2.14694 57.5013 5.38179C57.927 5.59474 58.1094 6.11191 57.8966 6.54796C57.6837 6.97386 57.1669 7.15639 56.7311 6.94344C50.5083 3.88098 43.6269 2.99875 36.8062 4.36773C29.1241 5.91924 22.3642 10.2493 17.7529 16.577C17.5807 16.8102 17.3172 16.9319 17.0537 16.9319C16.8712 16.9319 16.6989 16.8812 16.5469 16.7697C16.1517 16.4857 16.0706 15.9483 16.3544 15.5528ZM75.3283 28.4922C75.3181 28.4314 75.2979 28.3705 75.2674 28.3198C73.5648 20.0552 68.8319 12.8554 61.9302 8.0082C61.5349 7.73441 60.9978 7.82567 60.7241 8.22116C60.4505 8.61664 60.5417 9.15409 60.937 9.42789C67.5245 14.052 72.0243 20.9476 73.6155 28.837C73.6256 28.8978 73.6459 28.9485 73.6662 28.9992C74.0918 31.1896 74.2945 33.4307 74.254 35.6515C74.2438 36.1281 74.629 36.5236 75.1053 36.5337C75.1154 36.5337 75.1154 36.5337 75.1256 36.5337C75.6019 36.5337 75.987 36.1585 75.9972 35.6819C76.0276 33.2786 75.8147 30.855 75.3283 28.4922ZM12.6755 42.5268C12.564 42.0705 12.4626 41.6243 12.3714 41.1882C12.3613 41.1375 12.341 41.0868 12.3207 41.0361C11.6417 37.5579 11.5404 34.0391 12.0471 30.5609C12.5336 27.1537 13.5876 23.858 15.1585 20.7854C15.3814 20.3595 15.2091 19.8321 14.7835 19.6192C14.3578 19.3961 13.8308 19.5685 13.618 19.9944C11.9559 23.2394 10.8512 26.7176 10.3343 30.3175C9.7972 34.0391 9.90868 37.8216 10.6586 41.5432C10.6688 41.604 10.6891 41.6547 10.7093 41.7054C10.7904 42.111 10.8917 42.5268 10.9931 42.9426C11.0944 43.3381 11.4492 43.6017 11.8343 43.6017C11.9052 43.6017 11.9762 43.5916 12.0471 43.5814C12.5032 43.4597 12.7869 42.9933 12.6755 42.5268ZM43.8397 34.8402C43.7485 34.3738 43.2924 34.0695 42.8161 34.1608C42.3499 34.2521 42.0459 34.7084 42.1371 35.185C43.2418 40.6812 43.0593 46.1876 41.5695 51.5519C40.1507 56.6729 37.546 61.4897 34.0394 65.4851C33.7253 65.8502 33.7557 66.3978 34.1205 66.7121C34.2827 66.8541 34.4854 66.9251 34.6881 66.9251C34.9313 66.9251 35.1644 66.8237 35.3367 66.631C39.0257 62.4328 41.752 57.3828 43.2418 52.0083C44.8025 46.3904 45.0052 40.6102 43.8397 34.8402ZM37.8197 53.0223C37.3738 52.8499 36.867 53.073 36.6947 53.5192C35.1543 57.4639 32.8739 61.003 29.9146 64.0452C29.5802 64.3899 29.5903 64.9375 29.9349 65.2722C30.1072 65.4344 30.32 65.5156 30.543 65.5156C30.7659 65.5156 30.9889 65.4243 31.1612 65.2519C34.2827 62.0475 36.6846 58.3157 38.3163 54.1479C38.4886 53.6916 38.2656 53.1947 37.8197 53.0223ZM47.924 34.8098L47.9443 34.7997L47.7922 34.0391C47.5287 32.7513 46.7889 31.6459 45.6944 30.926C44.5998 30.1958 43.2924 29.9423 42.0155 30.206C39.3703 30.7434 37.6474 33.3293 38.1744 35.9861L38.3467 36.8176H38.367C39.0561 40.7928 38.9852 44.7882 38.144 48.7024C38.0426 49.1689 38.3467 49.6354 38.8129 49.7368C39.2791 49.8382 39.7453 49.534 39.8466 49.0675C40.7993 44.6361 40.8196 40.1133 39.9176 35.6312L39.8365 35.2053C39.7351 33.6538 40.7993 32.2138 42.3702 31.8995C43.2012 31.7271 44.0424 31.8995 44.7518 32.3659C45.37 32.7817 45.8261 33.3901 46.0288 34.0898L46.0896 34.3839C48.3598 45.6501 45.6031 57.3118 38.519 66.3876C38.2251 66.7628 38.296 67.3104 38.671 67.6045C38.8332 67.7262 39.0156 67.787 39.2081 67.787C39.4615 67.787 39.725 67.6755 39.8872 67.4524C47.1132 58.194 50.0219 46.3397 47.924 34.8098ZM36.2893 38.2982C36.2285 37.8216 35.7927 37.4869 35.3164 37.5579C34.8401 37.6188 34.5056 38.0548 34.5766 38.5314C35.7623 47.2523 32.6104 56.0645 26.1648 62.1083C25.81 62.4328 25.7999 62.9804 26.1242 63.3353C26.2965 63.5179 26.5296 63.6091 26.7627 63.6091C26.9755 63.6091 27.1884 63.528 27.3505 63.3759C34.2016 56.9467 37.546 47.5768 36.2893 38.2982ZM51.7245 33.2482C51.2583 30.9158 49.9003 28.8978 47.924 27.5796C45.9376 26.2613 43.5661 25.7948 41.2249 26.2613C37.7183 26.9711 34.9921 29.6888 34.2624 33.1873C34.1611 33.6538 34.4651 34.1203 34.9313 34.2115C35.3975 34.3129 35.8637 34.0087 35.9549 33.5422C36.5427 30.7231 38.7419 28.5328 41.5695 27.9649C43.4445 27.5897 45.3599 27.9649 46.9612 29.0195C48.4611 30.0133 49.5151 31.5141 49.9509 33.2482L50.0219 33.5828C50.5894 36.3917 50.8732 39.2413 50.8833 42.0705C50.8833 42.5471 51.2685 42.9324 51.7549 42.9324C52.2312 42.9324 52.6164 42.5369 52.6164 42.0603C52.6062 39.3528 52.3529 36.625 51.8563 33.9276L51.8664 33.9174L51.7245 33.2482ZM51.5624 46.3194C51.086 46.2687 50.6604 46.6033 50.5996 47.0799C49.8091 54.0465 47.2754 60.8205 43.2924 66.6412C43.0188 67.0366 43.1201 67.5741 43.5154 67.8479C43.6674 67.9493 43.8397 68 44.0019 68C44.2755 68 44.5491 67.8682 44.7214 67.6248C48.8665 61.5607 51.4914 54.5333 52.3225 47.2827C52.3833 46.796 52.0387 46.3701 51.5624 46.3194ZM32.0429 37.2233L31.901 36.5236C31.526 33.8262 32.1442 31.1085 33.6645 28.8167C35.3164 26.3221 37.84 24.6286 40.7689 24.0405C41.7925 23.8377 42.8262 23.7667 43.86 23.8478C44.3363 23.8884 44.7518 23.5233 44.7924 23.0467C44.8329 22.5701 44.4681 22.1543 43.9917 22.1138C42.806 22.0225 41.5999 22.0935 40.4243 22.3369C37.0393 23.0163 34.1205 24.9836 32.2152 27.8534C30.2997 30.7333 29.6308 34.1811 30.3099 37.5681L30.472 38.3894H30.4822C31.1105 42.2429 30.7761 46.1876 29.4788 49.8585C28.1309 53.6815 25.81 57.0989 22.7494 59.7557C22.3845 60.07 22.344 60.6176 22.6582 60.9827C22.8304 61.1855 23.0737 61.2869 23.3169 61.2869C23.5196 61.2869 23.7223 61.2159 23.8845 61.074C27.1681 58.2245 29.6714 54.5434 31.1206 50.4466C32.6104 46.218 32.9348 41.6446 32.0429 37.2233ZM55.7885 33.1975H55.7987L55.6466 32.4572C54.8967 28.7457 52.5758 25.5616 49.2618 23.716C48.8463 23.4828 48.3192 23.6349 48.0861 24.0506C47.8531 24.4664 48.0051 24.9937 48.4206 25.2269C51.1772 26.7582 53.1434 29.3744 53.8629 32.4268L53.9339 32.802C56.2345 44.2304 54.2582 56.0544 48.3699 66.1138C48.1267 66.5296 48.2686 67.0569 48.6841 67.3003C48.826 67.3814 48.9679 67.422 49.1199 67.422C49.4138 67.422 49.7077 67.2699 49.8699 66.9961C55.8595 56.7845 57.9472 44.8186 55.7885 33.1975ZM26.6107 48.6112C26.1648 48.4388 25.658 48.6619 25.4857 49.1081C24.2797 52.2111 22.2933 54.9592 19.7191 57.0583C19.3441 57.3625 19.2934 57.9101 19.5975 58.2752C19.7698 58.4881 20.013 58.5895 20.2664 58.5895C20.4589 58.5895 20.6515 58.5287 20.8136 58.3968C23.6108 56.1051 25.7898 53.1035 27.0972 49.7266C27.2796 49.2906 27.0566 48.7836 26.6107 48.6112ZM59.9438 50.7813C60.9674 44.5854 60.866 38.288 59.6701 32.0718L59.5891 31.6662C58.6972 27.2246 56.123 23.4016 52.363 20.8969C48.5929 18.3922 44.0829 17.5099 39.6439 18.4023C35.2049 19.2947 31.3841 21.8704 28.8809 25.6326C26.3776 29.4049 25.4959 33.9276 26.3877 38.359L26.56 39.2108C26.8235 40.8739 26.8641 42.5471 26.6816 44.2101C26.631 44.6868 26.9755 45.1127 27.4519 45.1634C27.9282 45.2141 28.3539 44.8693 28.4045 44.3927C28.6275 42.2733 28.5363 40.1235 28.1106 38.0142L27.9586 37.2436C27.4012 33.5118 28.2322 29.7598 30.3301 26.5959C32.58 23.209 36.0056 20.907 39.9885 20.1059C43.9715 19.3048 48.0253 20.0958 51.4002 22.347C54.7143 24.5475 56.9946 27.8939 57.8357 31.7778L57.8864 32.011C59.1229 38.1562 59.2343 44.3724 58.231 50.4973C58.1499 50.9739 58.4742 51.4201 58.9506 51.4911C59.0012 51.5012 59.0418 51.5012 59.0924 51.5012C59.508 51.5114 59.8728 51.2072 59.9438 50.7813ZM58.231 54.8071C57.7648 54.6854 57.2885 54.9592 57.1669 55.4257C56.3257 58.5895 55.1602 61.6824 53.7211 64.6435C53.5082 65.0694 53.6906 65.5967 54.1163 65.7995C54.2379 65.8603 54.3697 65.8908 54.4913 65.8908C54.8156 65.8908 55.1196 65.7082 55.2717 65.404C56.7615 62.3517 57.9574 59.1473 58.8289 55.882C58.9708 55.4054 58.6972 54.9288 58.231 54.8071ZM63.4504 30.5203C62.822 27.6708 61.6363 25.0343 59.9336 22.6817C59.6499 22.2963 59.1127 22.205 58.7175 22.489C58.3323 22.7729 58.2411 23.3104 58.5249 23.7059C60.1566 25.9469 61.2613 28.4821 61.8187 31.22L61.8592 31.4431C63.876 41.675 62.9842 52.2111 59.2749 61.9156C59.1026 62.3618 59.3256 62.8689 59.7715 63.0311C59.8728 63.0717 59.9742 63.092 60.0857 63.092C60.4302 63.092 60.7647 62.879 60.8964 62.5342C64.7476 52.4545 65.6597 41.5026 63.5112 30.8854L63.4504 30.5203ZM38.8433 14.4678C37.2521 14.7923 35.7015 15.2892 34.2421 15.9584C33.8063 16.1612 33.6138 16.6683 33.8165 17.1043C34.0192 17.5404 34.5259 17.733 34.9617 17.5302C36.2995 16.9117 37.7285 16.4553 39.1879 16.1612C44.8633 15.0154 50.6908 16.4655 55.1703 20.1364C55.3325 20.2682 55.525 20.329 55.7176 20.329C55.971 20.329 56.2142 20.2175 56.3865 20.0147C56.6905 19.6395 56.6399 19.102 56.2649 18.7978C51.3799 14.8024 45.0356 13.2205 38.8433 14.4678ZM24.1682 38.8153L24.0162 38.0548C22.9318 31.2707 25.5161 24.4461 30.8875 20.0857C31.2625 19.7814 31.3132 19.2338 31.0092 18.8688C30.7051 18.4936 30.1578 18.4429 29.793 18.7471C23.7223 23.6856 20.9048 31.504 22.4555 39.1703L22.5872 39.8497C23.4183 45.2242 21.3406 50.619 17.0638 54.0567C16.6888 54.3609 16.628 54.8983 16.932 55.2735C17.1043 55.4865 17.3577 55.598 17.6111 55.598C17.8036 55.598 17.9962 55.5372 18.1583 55.4054C23.1243 51.3998 25.4249 45.0518 24.1682 38.8153ZM20.236 39.6063L20.0839 38.8559C19.9218 37.8926 19.8204 36.9191 19.7799 35.9354C19.7596 35.4588 19.3542 35.0836 18.8779 35.1039C18.4016 35.1242 18.0266 35.5298 18.0469 36.0064C18.0975 37.3348 18.2597 38.6632 18.5232 39.9511L18.6245 40.4683C19.2123 44.3014 17.7732 48.1954 14.7835 50.7306C14.4186 51.0449 14.368 51.5925 14.6821 51.9576C14.8544 52.1604 15.0977 52.2618 15.3409 52.2618C15.5436 52.2618 15.7361 52.1908 15.8983 52.059C19.5063 48.9965 21.1683 44.2304 20.236 39.6063ZM65.751 30.4189L65.8422 30.8347C66.0145 31.7068 66.1665 32.5992 66.2982 33.4915C66.359 33.9174 66.734 34.2318 67.1597 34.2318C67.2002 34.2318 67.2408 34.2318 67.2914 34.2217C67.7678 34.1507 68.0921 33.7146 68.0211 33.238C67.859 32.1733 67.6766 31.1085 67.4637 30.0741L67.332 29.4454H67.3218C65.8928 23.1684 62.1734 17.7837 56.802 14.2041C51.2482 10.5231 44.5897 9.21493 38.0528 10.5332C33.026 11.5473 28.5059 14.0317 24.9689 17.733C21.5129 21.3431 19.2428 25.8455 18.3914 30.7434C18.3104 31.22 18.6245 31.6662 19.1009 31.7473C19.5772 31.8285 20.0231 31.5141 20.1042 31.0375C20.8947 26.4742 23.0129 22.2862 26.2256 18.9296C29.5092 15.492 33.7253 13.1799 38.3974 12.2368C44.4782 11.0098 50.6705 12.2267 55.8392 15.6644C61.0079 19.0919 64.5247 24.3346 65.751 30.4189ZM67.6259 37.5681C67.1495 37.5985 66.7847 38.0142 66.8151 38.4908C67.2205 44.8794 66.582 51.2477 64.9402 57.4335C64.8186 57.9 65.0922 58.3766 65.5584 58.4983C65.6293 58.5185 65.7104 58.5287 65.7814 58.5287C66.1665 58.5287 66.5111 58.2752 66.6225 57.8797C68.315 51.5215 68.9637 44.9606 68.5583 38.3793C68.5177 37.9027 68.1123 37.5376 67.6259 37.5681ZM16.3037 40.3973L16.2023 39.9105C14.9254 32.9338 16.3746 25.8557 20.3069 19.9335C24.3304 13.8695 30.472 9.74225 37.6069 8.30228C40.6067 7.69384 43.637 7.59244 46.6369 7.99806C47.1132 8.05891 47.549 7.73441 47.6098 7.2578C47.6706 6.78119 47.3463 6.34514 46.87 6.2843C43.6775 5.84826 40.4446 5.9598 37.2623 6.59866C29.6815 8.12989 23.1446 12.5208 18.8576 18.9702C14.5706 25.4196 13.0606 33.1569 14.5909 40.7421L14.6517 41.0361C14.9963 43.2062 14.3173 45.4372 12.8173 47.0495C12.493 47.4044 12.5133 47.952 12.868 48.2765C13.0302 48.4286 13.243 48.5098 13.4558 48.5098C13.6889 48.5098 13.922 48.4185 14.0943 48.236C16.0402 46.1369 16.8611 43.2062 16.3037 40.3973ZM71.2237 28.4719H71.2136C68.9231 18.5544 61.5552 10.5231 51.8157 7.39977C51.3597 7.2578 50.8732 7.50117 50.7212 7.9575C50.5793 8.41383 50.8225 8.90058 51.2786 9.05269C60.6836 12.0746 67.7374 19.9538 69.6832 29.628L69.8048 30.1857C71.0717 36.7568 71.2946 43.4192 70.4737 50.0106C70.4129 50.4872 70.7474 50.9232 71.2237 50.9739C71.2642 50.9739 71.2946 50.9841 71.3352 50.9841C71.771 50.9841 72.1358 50.6596 72.1966 50.2235C73.0581 43.2569 72.7946 36.2194 71.396 29.2832L71.2237 28.4719Z" fill="#DDDDDD"/>
<path d="M72.4575 65.3643C73.4799 64.4326 75.0301 64.52 75.94 65.5607L84.1609 74.9633C85.0916 76.0278 84.9974 77.6806 83.9518 78.6336C82.9294 79.5653 81.3792 79.4779 80.4693 78.4371L72.2484 69.0345C71.3177 67.9701 71.4119 66.3173 72.4575 65.3643Z" stroke="#7C7C7C"/>
<path d="M78.014 52.4621C78.014 61.9178 70.6494 69.4243 61.757 69.4243C52.8647 69.4243 45.5 61.9178 45.5 52.4621C45.5 43.0064 52.8647 35.5 61.757 35.5C70.6494 35.5 78.014 43.0064 78.014 52.4621Z" stroke="#FC6537" stroke-width="5"/>
<path opacity="0.6" d="M75.7518 52.4621C75.7518 60.5093 69.4692 67.0011 61.7577 67.0011C54.0463 67.0011 47.7637 60.5093 47.7637 52.4621C47.7637 44.415 54.0463 37.9232 61.7577 37.9232C69.4692 37.9232 75.7518 44.415 75.7518 52.4621Z" fill="white" stroke="white"/>
</svg>
