<svg width="40" height="40" viewBox="0 0 40 40" fill="none" xmlns="http://www.w3.org/2000/svg">
<g clip-path="url(#clip0)">
<path d="M13.7759 28.4523C13.547 28.6812 13.547 29.0521 13.7759 29.281C13.8902 29.3954 14.0402 29.4526 14.1902 29.4526C14.3402 29.4526 14.4901 29.3954 14.6045 29.281L15.2442 28.6413C15.4097 29.0651 15.6571 29.4637 15.9861 29.8133L15.5614 30.238C15.3326 30.4668 15.3326 30.8378 15.5614 31.0667C15.6758 31.1811 15.8258 31.2383 15.9757 31.2383C16.1257 31.2383 16.2756 31.1811 16.39 31.0667L16.8147 30.6421C17.1643 30.971 17.5629 31.2185 17.9867 31.3839L17.347 32.0236C17.1181 32.2525 17.1181 32.6235 17.347 32.8523C17.4613 32.9667 17.6113 33.0239 17.7613 33.0239C17.9112 33.0239 18.0612 32.9667 18.1756 32.8524L19.3938 31.6342C20.3085 31.6168 21.2179 31.261 21.9143 30.5646C22.6108 29.8681 22.9667 28.9587 22.984 28.044L24.2021 26.8259C24.4309 26.597 24.4309 26.226 24.2021 25.9971C23.9733 25.7684 23.6023 25.7684 23.3734 25.9971L22.7337 26.6369C22.5682 26.2132 22.3208 25.8145 21.9918 25.4649L22.4165 25.0402C22.6453 24.8113 22.6453 24.4403 22.4165 24.2114C22.1877 23.9827 21.8167 23.9827 21.5878 24.2114L21.1631 24.6361C20.8186 24.3117 20.4221 24.0613 19.9924 23.8928L20.6308 23.2545C20.8596 23.0256 20.8596 22.6546 20.6308 22.4258C20.402 22.197 20.0309 22.1969 19.8021 22.4257L18.5859 23.6423C18.3229 23.6471 18.0645 23.6793 17.814 23.7379L17.0042 22.9282C16.6401 22.5641 16.156 22.3635 15.6411 22.3635C15.1263 22.3635 14.6422 22.564 14.2782 22.9281C13.9142 23.2921 13.7136 23.7762 13.7136 24.291C13.7136 24.8059 13.9142 25.29 14.2781 25.6539L15.0897 26.4655C15.0306 26.7182 14.9991 26.9759 14.9942 27.2342L13.7759 28.4523ZM21.0859 26.212C22.0575 27.1835 22.0575 28.7642 21.0859 29.7357C20.1144 30.7073 18.5337 30.7073 17.5621 29.7357L16.8925 29.0662C15.9209 28.0946 15.9209 26.5139 16.8925 25.5423C17.3631 25.0717 17.9888 24.8125 18.6544 24.8125C19.3199 24.8125 19.9457 25.0717 20.4163 25.5424L21.0859 26.212ZM15.1067 24.8252C14.9641 24.6825 14.8855 24.4928 14.8855 24.291C14.8855 24.0892 14.9641 23.8994 15.1068 23.7567C15.2495 23.614 15.4392 23.5354 15.641 23.5354C15.8429 23.5354 16.0326 23.614 16.1753 23.7567L16.6534 24.2347C16.4433 24.3723 16.2455 24.5319 16.0638 24.7136C15.8806 24.8967 15.7213 25.0948 15.5852 25.3036L15.1067 24.8252Z" fill="white"/>
<path d="M36.5922 9.27609L35.374 8.05789C35.3691 7.79969 35.3375 7.54195 35.2785 7.2893L36.09 6.47781C36.4541 6.11375 36.6545 5.62969 36.6545 5.11484C36.6545 4.59992 36.4541 4.11586 36.09 3.75195C35.726 3.38789 35.2419 3.18734 34.727 3.18734C34.2121 3.18734 33.7281 3.38789 33.3641 3.75187L32.5525 4.56328C32.2997 4.50422 32.042 4.47258 31.7836 4.46773L30.5656 3.24961C30.3369 3.02078 29.9658 3.0207 29.737 3.24953C29.5081 3.47844 29.5081 3.84938 29.737 4.0782L30.3767 4.71797C30.1138 4.82062 29.8606 4.95508 29.6226 5.1207C24.7073 4.18992 21.9166 1.93305 20.6824 0.656094C20.2732 0.233125 19.7225 0 19.1318 0C18.541 0 17.9904 0.233125 17.581 0.656406C16.9549 1.30453 15.8749 2.26203 14.2848 3.14242C14.1366 3.22453 14.0312 3.36672 13.9957 3.53234C13.9602 3.69797 13.9982 3.87086 14.0998 4.00648L18.3585 9.68563L15.6405 12.4037C15.471 12.5731 15.4219 12.8287 15.5163 13.0488L17.5881 17.8838L10.4425 11.6829L12.0495 10.0759C12.2663 9.85906 12.2793 9.51156 12.0791 9.27914L8.73258 5.39742C8.59867 5.24219 8.39344 5.1682 8.19117 5.20234C7.26266 5.35937 6.28672 5.46469 5.29063 5.51523C4.13867 5.57297 3.23633 6.52539 3.23633 7.68336V24.0192C3.23633 28.7246 5.76781 33.1094 9.84289 35.4623L16.4718 39.2889C17.2922 39.7631 18.212 40.0001 19.132 40.0001C20.0519 40.0001 20.972 39.763 21.7925 39.2891L28.4217 35.4623C32.4963 33.1095 35.0274 28.7249 35.0274 24.0192V19.2112C35.0274 18.8875 34.7651 18.6252 34.4415 18.6252C34.1179 18.6252 33.8556 18.8876 33.8556 19.2112V24.0192C33.8556 28.3076 31.5489 32.3034 27.8358 34.4473L21.2064 38.2742C19.9266 39.0134 18.3371 39.0134 17.0579 38.2741L10.4288 34.4473C6.71516 32.3031 4.4082 28.3073 4.4082 24.0192V7.68336C4.4082 7.15031 4.82156 6.71211 5.34969 6.68562C6.27531 6.63859 7.185 6.54641 8.05914 6.41094L9.56422 8.15594C8.92063 8.28727 8.26172 8.39594 7.59508 8.4793C6.91008 8.56492 6.39344 9.15109 6.39344 9.84281V18.1845C6.39344 18.5082 6.65578 18.7705 6.97938 18.7705C7.30297 18.7705 7.56531 18.5081 7.56531 18.1845V9.84281C7.56531 9.74094 7.64055 9.65469 7.74039 9.64227C8.65805 9.52742 9.56297 9.36766 10.4354 9.16656L10.8361 9.6318L9.16899 11.2989C9.05399 11.4139 8.99196 11.5715 8.99774 11.734C9.00344 11.8965 9.07649 12.0493 9.1993 12.1559L18.7481 20.4422C18.8578 20.5374 18.9949 20.5855 19.1323 20.5855C19.2531 20.5855 19.3744 20.5482 19.4777 20.473C19.6983 20.3119 19.7784 20.0198 19.6708 19.7688L16.7495 12.9519L19.5465 10.155C19.7527 9.94875 19.7759 9.62227 19.6009 9.38898L17.3314 6.36375C17.9201 5.99445 18.4821 5.59883 19.0083 5.1832C19.0811 5.12578 19.1832 5.12609 19.2559 5.1832C21.5374 6.9832 24.2734 8.28555 27.3924 9.0607C27.453 9.90945 27.8059 10.741 28.4534 11.3886C29.0799 12.0152 29.8788 12.3667 30.6989 12.4436V24.0195C30.6989 27.1832 28.997 30.1316 26.2574 31.7138L19.6285 35.5404C19.3256 35.715 18.9381 35.7147 18.6359 35.5406L12.0066 31.7131C9.26695 30.1315 7.56508 27.1834 7.56508 24.0195V20.9193C7.56508 20.5956 7.30274 20.3334 6.97914 20.3334C6.65555 20.3334 6.3932 20.5957 6.3932 20.9193V24.0195C6.3932 27.6008 8.31969 30.9377 11.4208 32.728L18.0503 36.5558C18.3795 36.7455 18.7535 36.8458 19.132 36.8458C19.5105 36.8458 19.8845 36.7455 20.2141 36.5555L26.8434 32.7288C29.9445 30.9377 31.8709 27.6005 31.8709 24.0195V13.355L32.1921 13.6762C32.3065 13.7905 32.4565 13.8477 32.6064 13.8477C32.7563 13.8477 32.9063 13.7905 33.0207 13.6762C33.2495 13.4473 33.2495 13.0763 33.0207 12.8474L32.381 12.2077C32.8049 12.0423 33.2034 11.7948 33.5531 11.4659L33.8553 11.7681V16.4767C33.8553 16.8004 34.1177 17.0627 34.4413 17.0627C34.7649 17.0627 35.0272 16.8003 35.0272 16.4767V9.69024C35.062 9.61609 35.0939 9.54094 35.1235 9.46508L35.7633 10.1048C35.8777 10.2192 36.0277 10.2764 36.1776 10.2764C36.3275 10.2764 36.4775 10.2192 36.5919 10.1048C36.821 9.87602 36.821 9.505 36.5922 9.27609ZM34.1927 4.58047C34.3354 4.43781 34.5252 4.35922 34.727 4.35922C34.9288 4.35922 35.1186 4.43781 35.2613 4.58055C35.404 4.7232 35.4826 4.91297 35.4826 5.11477C35.4826 5.31656 35.404 5.50633 35.2613 5.64906L34.7829 6.12742C34.6467 5.91859 34.4874 5.72047 34.3043 5.53734C34.1212 5.35422 33.9231 5.195 33.7144 5.05883L34.1927 4.58047ZM18.2823 4.2632C17.7644 4.67227 17.2084 5.06047 16.6254 5.42203L15.4331 3.83133C16.5703 3.14234 17.5742 2.35023 18.4237 1.47086C18.61 1.27805 18.8615 1.17195 19.1318 1.17195C19.402 1.17195 19.6535 1.27805 19.8398 1.47078C21.3131 2.995 23.8945 4.93109 28.0663 5.97891L28.3759 6.28859C28.047 6.6382 27.7995 7.03688 27.634 7.4607L26.9942 6.82094C26.7655 6.59211 26.3944 6.59203 26.1656 6.82086C25.9949 6.99164 25.9517 7.24141 26.0356 7.45234C23.7548 6.70531 21.7242 5.63773 19.9812 4.2625C19.4806 3.86867 18.7821 3.86883 18.2823 4.2632ZM29.2821 10.5596C28.3106 9.58812 28.3106 8.00734 29.2821 7.03586L29.9517 6.36617C30.4376 5.88031 31.0755 5.6375 31.7137 5.6375C32.3517 5.6375 32.9899 5.88047 33.4756 6.36609C34.4471 7.33766 34.4471 8.91852 33.4756 9.89L32.806 10.5596C31.8345 11.5312 30.2537 11.5312 29.2821 10.5596Z" fill="white"/>
</g>
<defs>
<clipPath id="clip0">
<rect width="40" height="40" fill="white"/>
</clipPath>
</defs>
</svg>
