<svg width="41" height="40" viewBox="0 0 41 40" fill="none" xmlns="http://www.w3.org/2000/svg">
<path d="M20.031 3.12573C19.5983 3.12573 19.2505 3.47417 19.2505 3.9062C19.2505 4.30831 19.553 4.64292 19.9528 4.6826C20.4157 4.72854 20.8114 4.368 20.8114 3.9062C20.8114 3.47354 20.463 3.12573 20.031 3.12573Z" fill="white"/>
<path d="M35.6558 4.6875C33.5019 4.6875 31.7495 2.93516 31.7495 0.78125C31.7495 0.349844 31.3997 0 30.9683 0H9.09326C8.66186 0 8.31201 0.349844 8.31201 0.78125C8.31201 2.93516 6.55967 4.6875 4.40576 4.6875C3.97436 4.6875 3.62451 5.03734 3.62451 5.46875V18.218C3.62451 28.1537 10.1007 37.0566 19.8064 39.9671C19.8796 39.989 19.9551 40 20.0308 40C20.1064 40 20.1821 39.989 20.2552 39.967C29.7507 37.1187 36.437 28.371 36.437 18.218V5.46875C36.437 5.03734 36.0872 4.6875 35.6558 4.6875ZM34.8745 18.218C34.8745 27.5498 28.9197 35.6314 20.0308 38.4018C11.2126 35.6535 5.18701 27.4988 5.18701 18.218V6.19438C7.5785 5.85078 9.47529 3.95398 9.81889 1.5625H30.2426C30.5862 3.95398 32.483 5.85078 34.8745 6.19438V18.218Z" fill="white"/>
<path d="M32.8442 7.22578C31.215 6.51227 29.9247 5.22203 29.2112 3.59281C29.0867 3.30859 28.8059 3.125 28.4956 3.125H23.1542C22.7228 3.125 22.3729 3.47484 22.3729 3.90625C22.3729 4.33766 22.7228 4.6875 23.1542 4.6875H28.0016C28.827 6.3032 30.1338 7.60992 31.7495 8.43539V18.218C31.7495 25.8635 27.1597 32.4604 20.0308 35.1011C12.9018 32.4603 8.31201 25.8635 8.31201 18.218V8.43539C9.92771 7.60992 11.2344 6.3032 12.0599 4.6875H16.9073C17.3387 4.6875 17.6886 4.33766 17.6886 3.90625C17.6886 3.47484 17.3387 3.125 16.9073 3.125H11.5659C11.2556 3.125 10.9748 3.30867 10.8503 3.59281C10.1368 5.22203 8.84654 6.51227 7.21732 7.22578C6.93318 7.35031 6.74951 7.63117 6.74951 7.94141V18.218C6.74951 26.594 11.9301 33.894 19.7701 36.6684C19.8544 36.6983 19.9426 36.7132 20.0308 36.7132C20.119 36.7132 20.2071 36.6983 20.2914 36.6684C28.1249 33.8963 33.312 26.6008 33.312 18.218V7.94141C33.312 7.63109 33.1283 7.35031 32.8442 7.22578Z" fill="white"/>
<path d="M20.0308 11.4062C16.1537 11.4062 12.9995 14.5605 12.9995 18.4375C12.9995 22.3145 16.1537 25.4688 20.0308 25.4688C23.9078 25.4688 27.062 22.3145 27.062 18.4375C27.062 14.5605 23.9078 11.4062 20.0308 11.4062ZM20.0308 23.9063C17.0153 23.9063 14.562 21.453 14.562 18.4375C14.562 15.422 17.0153 12.9688 20.0308 12.9688C23.0462 12.9688 25.4995 15.422 25.4995 18.4375C25.4995 21.453 23.0462 23.9063 20.0308 23.9063Z" fill="white"/>
<path d="M23.7082 16.3225C23.4031 16.0175 22.9086 16.0175 22.6033 16.3225L19.2496 19.6763L18.2395 18.6663C17.9343 18.3613 17.4398 18.3613 17.1346 18.6663C16.8295 18.9714 16.8295 19.4661 17.1346 19.7713L18.6971 21.3338C18.8497 21.4862 19.0496 21.5625 19.2496 21.5625C19.4496 21.5625 19.6494 21.4862 19.802 21.3337L23.7082 17.4274C24.0133 17.1223 24.0133 16.6277 23.7082 16.3225Z" fill="white"/>
</svg>
