<svg width="40" height="40" viewBox="0 0 40 40" fill="none" xmlns="http://www.w3.org/2000/svg">
<g clip-path="url(#clip0)">
<path d="M17.919 14.3534C17.9605 14.3534 18.0027 14.349 18.0449 14.3397L19.3493 14.054C19.6654 13.9848 19.8655 13.6724 19.7963 13.3563C19.7271 13.0402 19.4145 12.84 19.0986 12.9093L17.7942 13.195C17.4781 13.2642 17.278 13.5765 17.3472 13.8926C17.4072 14.1666 17.6497 14.3534 17.919 14.3534Z" fill="white"/>
<path d="M11.2785 14.0541L12.5829 14.3398C12.6252 14.3491 12.6673 14.3535 12.7088 14.3535C12.9781 14.3535 13.2206 14.1667 13.2806 13.8928C13.3498 13.5767 13.1498 13.2644 12.8336 13.1951L11.5292 12.9094C11.2131 12.8398 10.9007 13.0403 10.8316 13.3565C10.7623 13.6725 10.9624 13.9848 11.2785 14.0541Z" fill="white"/>
<path d="M39.7664 11.2354L37.0603 6.5494L34.3563 1.86323C34.3562 1.86299 34.3561 1.86276 34.3559 1.86252C34.0448 1.32502 33.4543 0.991272 32.8148 0.991272C32.8145 0.991272 32.8141 0.991272 32.8138 0.991272C32.171 0.991584 31.5991 1.31752 31.2841 1.86307L28.5778 6.5494L27.7847 7.92393H22.0565C21.6333 6.93182 21.0066 6.06768 20.1883 5.36151C18.7923 4.15674 16.9454 3.50791 14.9913 3.53557C13.0666 3.56244 11.2767 4.24455 9.95117 5.45627C9.19742 6.14533 8.62273 6.97682 8.23766 7.92393H1.91469C0.858906 7.92393 0 8.78385 0 9.8408V30.9529C0 32.0087 0.858906 32.8676 1.91469 32.8676H13.303V34.7674H10.3035C9.13297 34.7674 8.1807 35.7188 8.1807 36.8881V38.0176C8.1807 38.5642 8.62531 39.0088 9.17188 39.0088H27.1121C27.6599 39.0088 28.1055 38.5642 28.1055 38.0176V36.8881C28.1055 35.7188 27.1533 34.7674 25.9827 34.7674H22.9833V32.8676H33.8888C34.9458 32.8676 35.8057 32.0087 35.8057 30.9529V13.8949H38.2316C38.8521 13.8949 39.4362 13.5506 39.7562 12.9963C40.0777 12.4392 40.0815 11.781 39.7664 11.2354ZM8.8343 12.0435H13.9088C14.2324 12.0435 14.4948 11.7811 14.4948 11.4575C14.4948 11.1339 14.2324 10.8716 13.9088 10.8716H8.83625C8.91844 6.69596 12.0731 4.74822 15.0077 4.70729C15.0402 4.7069 15.0724 4.70666 15.1051 4.70666C17.5231 4.70666 20.098 5.95971 21.0977 8.68283C21.0991 8.68737 21.1009 8.69166 21.1025 8.69619C21.3368 9.33877 21.4834 10.063 21.52 10.8717H16.4269C16.1033 10.8717 15.8409 11.134 15.8409 11.4576C15.8409 11.7812 16.1033 12.0435 16.4269 12.0435H21.5257V14.4097C21.5257 14.7541 21.4839 15.108 21.4017 15.4607C21.3977 15.4776 21.3929 15.4945 21.3888 15.5113H17.9771C17.6237 15.5113 17.2467 15.3224 16.8474 15.1224C16.3378 14.8671 15.7605 14.5778 15.092 14.6271C14.5973 14.6642 14.1788 14.9214 13.8095 15.1482C13.5055 15.3349 13.2184 15.5113 12.9833 15.5113H8.95758C8.95352 15.4946 8.94875 15.478 8.94484 15.4613C8.87164 15.1528 8.83445 14.8474 8.83445 14.5536V12.0435H8.8343ZM16.5309 20.7217C16.0045 20.9121 15.5601 21.0122 15.1357 21.036C14.7109 21.0121 14.2666 20.912 13.7404 20.7218C13.1961 20.5249 12.6661 20.2462 12.1673 19.9061C12.1645 19.9042 12.1618 19.9024 12.1591 19.9006C11.6189 19.5314 11.1159 19.0899 10.6724 18.5999C10.6419 18.5536 10.6053 18.513 10.5645 18.4781C10.0829 17.9253 9.67711 17.3159 9.37781 16.6831H12.9831C13.5494 16.6831 14.0134 16.3981 14.4227 16.1467C14.7033 15.9743 14.9683 15.8115 15.179 15.7956C15.5241 15.7703 15.9119 15.9643 16.3223 16.1699C16.8023 16.4105 17.3464 16.6831 17.977 16.6831H20.9575C20.1004 18.4372 18.3723 20.0564 16.5309 20.7217ZM22.0416 22.4465C22.0416 24.2226 20.5967 25.6675 18.8204 25.6675L18.0179 25.668C18.6595 24.9163 19.059 23.8674 19.059 22.7078V20.6733C19.4845 20.3623 19.8869 20.0135 20.2588 19.637C21.1943 20.1536 22.0416 21.1586 22.0416 22.4465ZM17.8871 21.4023V22.7079C17.8871 24.2822 16.8895 25.6163 15.6926 25.6695L14.6329 25.6701C13.4288 25.6299 12.422 24.2903 12.422 22.7079V21.4183C12.7231 21.5747 13.0305 21.7112 13.342 21.8239C13.993 22.0592 14.5541 22.1813 15.1075 22.208C15.117 22.2085 15.1263 22.2087 15.1358 22.2087C15.1452 22.2087 15.1545 22.2085 15.1639 22.208C15.7171 22.1814 16.2781 22.0593 16.9294 21.8239C17.2538 21.7066 17.5739 21.5649 17.8871 21.4023ZM12.2934 25.6715L11.4528 25.672C9.6768 25.672 8.23187 24.226 8.23187 22.4487C8.23187 21.3345 8.96336 20.2245 10.0502 19.6342C10.4219 20.017 10.8245 20.3706 11.25 20.685V22.7078C11.25 23.8692 11.6505 24.9196 12.2934 25.6715ZM1.17188 9.8408C1.17188 9.42994 1.50516 9.09573 1.91469 9.09573H7.87188C7.7332 9.70908 7.66227 10.3592 7.66234 11.0411V11.0412V12.0631H7.53523C6.97562 12.0631 6.4907 12.3193 6.16977 12.7846C5.91406 13.1553 5.7732 13.651 5.7732 14.1803C5.7732 15.3935 6.52578 16.6831 7.92047 16.6831H8.10422C8.38469 17.3941 8.78445 18.0876 9.27211 18.7299C8.00437 19.501 7.16484 20.8008 7.06977 22.1861H6.62055C4.6807 22.1861 3.10258 23.7643 3.10258 25.7042V28.0372H1.17188V9.8408ZM7.7543 15.4953C7.16445 15.3822 6.94516 14.6715 6.94516 14.1803C6.94516 13.8906 7.01414 13.6243 7.13445 13.4499C7.23695 13.3012 7.36062 13.2349 7.53523 13.2349H7.66234V14.5536C7.66242 14.8622 7.69367 15.1783 7.7543 15.4953ZM25.9827 35.9393C26.507 35.9393 26.9337 36.3649 26.9337 36.8881V37.837H9.3525V36.8881C9.3525 36.3649 9.77914 35.9393 10.3035 35.9393H13.8889H22.3973H25.9827ZM14.4748 34.7674V32.8676H21.8112V34.7674H14.4748ZM34.6337 30.9529C34.6337 31.3625 34.2995 31.6958 33.8887 31.6958H22.3973H13.8889H1.91469C1.50508 31.6958 1.17188 31.3625 1.17188 30.9529V29.2091H3.56516C3.605 29.2176 3.64617 29.2224 3.68859 29.2224C3.73094 29.2224 3.77219 29.2176 3.81203 29.2091H12.7949C13.1185 29.2091 13.3809 28.9467 13.3809 28.6231C13.3809 28.2996 13.1185 28.0372 12.7949 28.0372H4.27445V25.7042C4.27445 24.4105 5.32695 23.358 6.62063 23.358H7.15516C7.575 25.3466 9.34227 26.8439 11.4532 26.8439L14.6259 26.842C14.6468 26.8424 14.6674 26.8439 14.6884 26.8439H15.6185C15.6466 26.8439 15.6743 26.8421 15.7022 26.8413L18.8208 26.8394C20.9391 26.8394 22.712 25.3321 23.1234 23.3336H23.5777C24.8701 23.3336 25.9216 24.3861 25.9216 25.6799V28.0382L15.4412 28.0394C15.1176 28.0394 14.8553 28.3018 14.8553 28.6254C14.8553 28.949 15.1177 29.2113 15.4413 29.2113L34.6337 29.2092V30.9529ZM34.6337 28.0373L27.0934 28.0381V25.6799C27.0934 23.74 25.5163 22.1619 23.5777 22.1619H23.2025C23.102 20.7885 22.282 19.5042 21.0462 18.739C21.5457 18.0935 21.9541 17.3966 22.2391 16.6831H22.497C23.8917 16.6831 24.6443 15.3937 24.6443 14.1804C24.6443 13.6511 24.5034 13.1554 24.2477 12.7846C23.9269 12.3194 23.442 12.0631 22.8823 12.0631H22.6975V11.008C22.6975 11.0053 22.6971 11.0026 22.6971 10.9999C22.6971 10.9971 22.6973 10.9946 22.6973 10.9918C22.6789 10.3274 22.5945 9.69385 22.4467 9.0958H27.1084L25.8739 11.2353C25.5635 11.7727 25.5695 12.4509 25.8895 13.0054C26.211 13.5624 26.779 13.8949 27.4088 13.8949H34.6336V28.0373H34.6337ZM22.5895 15.506C22.6609 15.1386 22.6975 14.7708 22.6975 14.4096V13.2349H22.8823C23.057 13.2349 23.1805 13.3012 23.283 13.4498C23.4034 13.6242 23.4724 13.8905 23.4724 14.1803C23.4724 14.6915 23.2349 15.4403 22.5895 15.506ZM38.7412 12.4104C38.6282 12.6061 38.4377 12.723 38.2315 12.723H27.4088C27.1117 12.723 26.9571 12.5108 26.9045 12.4196C26.7914 12.2236 26.7855 12 26.8888 11.8212L29.5927 7.13518L32.299 2.44901C32.4479 2.19104 32.7091 2.16307 32.8145 2.16299H32.8148C33.0407 2.16299 33.2375 2.26979 33.3415 2.44885L36.0455 7.13518L38.7517 11.8214C38.9004 12.079 38.7939 12.3191 38.7412 12.4104Z" fill="white"/>
<path d="M32.8213 4.81891C32.4977 4.81891 32.2354 5.08125 32.2354 5.40485V8.81758C32.2354 9.14117 32.4977 9.40352 32.8213 9.40352C33.1449 9.40352 33.4072 9.14117 33.4072 8.81758V5.40485C33.4072 5.08125 33.1449 4.81891 32.8213 4.81891Z" fill="white"/>
<path d="M32.8213 10.6567C32.4977 10.6567 32.2354 10.9191 32.2354 11.2427V11.2715C32.2354 11.5951 32.4977 11.8574 32.8213 11.8574C33.1449 11.8574 33.4072 11.5951 33.4072 11.2715V11.2427C33.4072 10.9191 33.1449 10.6567 32.8213 10.6567Z" fill="white"/>
</g>
<defs>
<clipPath id="clip0">
<rect width="40" height="40" fill="white"/>
</clipPath>
</defs>
</svg>
