<svg width="40" height="40" viewBox="0 0 40 40" fill="none" xmlns="http://www.w3.org/2000/svg">
<path d="M31.3836 29.3552C31.6856 29.3552 31.9305 29.1104 31.9305 28.8083C31.9305 28.5063 31.6856 28.2615 31.3836 28.2615C31.0816 28.2615 30.8367 28.5063 30.8367 28.8083C30.8367 29.1104 31.0816 29.3552 31.3836 29.3552Z" fill="white"/>
<path d="M31.3836 27.4802C31.6856 27.4802 31.9305 27.2354 31.9305 26.9333C31.9305 26.6313 31.6856 26.3865 31.3836 26.3865C31.0816 26.3865 30.8367 26.6313 30.8367 26.9333C30.8367 27.2354 31.0816 27.4802 31.3836 27.4802Z" fill="white"/>
<path d="M31.3836 31.3865C31.6856 31.3865 31.9305 31.1416 31.9305 30.8396C31.9305 30.5376 31.6856 30.2927 31.3836 30.2927C31.0816 30.2927 30.8367 30.5376 30.8367 30.8396C30.8367 31.1416 31.0816 31.3865 31.3836 31.3865Z" fill="white"/>
<path d="M33.2586 29.3552C33.5606 29.3552 33.8055 29.1104 33.8055 28.8083C33.8055 28.5063 33.5606 28.2615 33.2586 28.2615C32.9566 28.2615 32.7117 28.5063 32.7117 28.8083C32.7117 29.1104 32.9566 29.3552 33.2586 29.3552Z" fill="white"/>
<path d="M33.2586 27.4802C33.5606 27.4802 33.8055 27.2354 33.8055 26.9333C33.8055 26.6313 33.5606 26.3865 33.2586 26.3865C32.9566 26.3865 32.7117 26.6313 32.7117 26.9333C32.7117 27.2354 32.9566 27.4802 33.2586 27.4802Z" fill="white"/>
<path d="M33.2586 31.3865C33.5606 31.3865 33.8055 31.1416 33.8055 30.8396C33.8055 30.5376 33.5606 30.2927 33.2586 30.2927C32.9566 30.2927 32.7117 30.5376 32.7117 30.8396C32.7117 31.1416 32.9566 31.3865 33.2586 31.3865Z" fill="white"/>
<path d="M31.3836 25.1365C31.6856 25.1365 31.9305 24.8916 31.9305 24.5896C31.9305 24.2876 31.6856 24.0427 31.3836 24.0427C31.0816 24.0427 30.8367 24.2876 30.8367 24.5896C30.8367 24.8916 31.0816 25.1365 31.3836 25.1365Z" fill="white"/>
<path d="M38.2631 3.61353H1.73688C1.37995 3.61392 1.03775 3.75588 0.785366 4.00827C0.532981 4.26065 0.391018 4.60285 0.390625 4.95978V27.2266C0.391018 27.5835 0.532981 27.9257 0.785366 28.1781C1.03775 28.4305 1.37995 28.5724 1.73688 28.5728H14.705V31.3697H12.7874C12.6631 31.3697 12.5439 31.4191 12.456 31.507C12.3681 31.5949 12.3187 31.7141 12.3187 31.8385C12.3187 31.9628 12.3681 32.082 12.456 32.1699C12.5439 32.2578 12.6631 32.3072 12.7874 32.3072H27.2126C27.3369 32.3072 27.4561 32.2578 27.544 32.1699C27.6319 32.082 27.6813 31.9628 27.6813 31.8385C27.6813 31.7141 27.6319 31.5949 27.544 31.507C27.4561 31.4191 27.3369 31.3697 27.2126 31.3697H25.295V28.5728H29.5086V33.5741C29.5086 34.32 29.8049 35.0354 30.3324 35.5628C30.8598 36.0903 31.5752 36.3866 32.3211 36.3866C33.067 36.3866 33.7824 36.0903 34.3098 35.5628C34.8373 35.0354 35.1336 34.32 35.1336 33.5741V28.5727H38.2631C38.62 28.5724 38.9622 28.4304 39.2146 28.178C39.467 27.9257 39.609 27.5835 39.6094 27.2266V4.95978C39.609 4.60285 39.467 4.26065 39.2146 4.00827C38.9622 3.75588 38.6201 3.61392 38.2631 3.61353ZM24.3575 31.3695H15.6425V28.5727H24.3575V31.3695ZM34.1961 33.1052H33.6426C33.5183 33.1052 33.399 33.1546 33.3111 33.2425C33.2232 33.3305 33.1738 33.4497 33.1738 33.574C33.1738 33.6983 33.2232 33.8175 33.3111 33.9055C33.399 33.9934 33.5183 34.0427 33.6426 34.0427H34.1367C34.0329 34.4454 33.7982 34.8021 33.4696 35.0567C33.1409 35.3114 32.7369 35.4496 32.3211 35.4496C31.9053 35.4496 31.5013 35.3114 31.1726 35.0567C30.844 34.8021 30.6093 34.4454 30.5055 34.0427H32.0713C32.1956 34.0427 32.3149 33.9934 32.4028 33.9055C32.4907 33.8175 32.5401 33.6983 32.5401 33.574C32.5401 33.4497 32.4907 33.3305 32.4028 33.2425C32.3149 33.1546 32.1956 33.1052 32.0713 33.1052H30.4463V23.4177C30.4463 23.3349 30.4793 23.2554 30.5379 23.1968C30.5965 23.1382 30.6759 23.1052 30.7588 23.1052H33.8838C33.9667 23.1052 34.0462 23.1382 34.1048 23.1968C34.1634 23.2554 34.1963 23.3349 34.1963 23.4177L34.1961 33.1052ZM38.6719 27.2266C38.6717 27.3349 38.6286 27.4388 38.552 27.5155C38.4754 27.5921 38.3715 27.6352 38.2631 27.6353H35.1336V25.94H36.5078C36.6321 25.94 36.7514 25.8906 36.8393 25.8027C36.9272 25.7148 36.9766 25.5956 36.9766 25.4713V6.71478C36.9766 6.59046 36.9272 6.47123 36.8393 6.38332C36.7514 6.29541 36.6321 6.24603 36.5078 6.24603H9.9543C9.82998 6.24603 9.71075 6.29541 9.62284 6.38332C9.53493 6.47123 9.48555 6.59046 9.48555 6.71478C9.48555 6.8391 9.53493 6.95832 9.62284 7.04623C9.71075 7.13414 9.82998 7.18353 9.9543 7.18353H36.0391V25.0027H35.1336V23.4177C35.1332 23.0863 35.0014 22.7686 34.767 22.5343C34.5327 22.3 34.215 22.1681 33.8836 22.1677H30.7586C30.4272 22.1681 30.1095 22.3 29.8751 22.5343C29.6408 22.7686 29.509 23.0863 29.5086 23.4177V25.0027H3.96094V7.18353H6.8293C6.95362 7.18353 7.07285 7.13414 7.16075 7.04623C7.24866 6.95832 7.29805 6.8391 7.29805 6.71478C7.29805 6.59046 7.24866 6.47123 7.16075 6.38332C7.07285 6.29541 6.95362 6.24603 6.8293 6.24603H3.49219C3.36787 6.24603 3.24864 6.29541 3.16073 6.38332C3.07282 6.47123 3.02344 6.59046 3.02344 6.71478V25.4715C3.02344 25.5958 3.07282 25.715 3.16073 25.803C3.24864 25.8909 3.36787 25.9402 3.49219 25.9402H29.5086V27.6356H1.73688C1.62847 27.6354 1.52453 27.5923 1.4479 27.5156C1.37126 27.4389 1.32819 27.335 1.32812 27.2266V4.95978C1.32825 4.85141 1.37135 4.74751 1.44798 4.67088C1.52461 4.59425 1.62851 4.55115 1.73688 4.55103H38.2631C38.3715 4.55115 38.4754 4.59425 38.552 4.67088C38.6286 4.74751 38.6717 4.85141 38.6719 4.95978V27.2266Z" fill="white"/>
<path d="M23.7762 18.816C23.6773 18.7407 23.5525 18.7077 23.4293 18.7243C23.3061 18.7409 23.1946 18.8058 23.1192 18.9047C22.9943 19.0683 22.857 19.2219 22.7083 19.3642C22.6184 19.4502 22.5664 19.5684 22.5637 19.6927C22.561 19.817 22.6078 19.9374 22.6938 20.0272C22.7797 20.117 22.8979 20.169 23.0222 20.1718C23.1466 20.1745 23.2669 20.1277 23.3567 20.0417C23.5407 19.8657 23.7107 19.6755 23.8652 19.473C23.9025 19.424 23.9298 19.3682 23.9455 19.3086C23.9612 19.2491 23.965 19.1871 23.9567 19.1261C23.9485 19.0651 23.9283 19.0063 23.8973 18.9531C23.8663 18.8999 23.8252 18.8533 23.7762 18.816Z" fill="white"/>
<path d="M20 21.3881C20.474 21.3884 20.9455 21.3194 21.3994 21.1831C21.4589 21.1658 21.5143 21.1369 21.5625 21.0981C21.6107 21.0593 21.6507 21.0113 21.6803 20.9569C21.7098 20.9025 21.7283 20.8428 21.7347 20.7812C21.7411 20.7197 21.7352 20.6575 21.7174 20.5982C21.6995 20.5389 21.6702 20.4837 21.6309 20.4359C21.5917 20.388 21.5433 20.3484 21.4887 20.3193C21.4341 20.2902 21.3742 20.2722 21.3126 20.2664C21.251 20.2606 21.1888 20.267 21.1297 20.2853C20.2997 20.5344 19.4106 20.501 18.6017 20.1905C17.7928 19.8799 17.1098 19.3097 16.6598 18.5692C16.2097 17.8287 16.0182 16.9598 16.1151 16.0988C16.2119 15.2377 16.5918 14.4332 17.1952 13.8112C17.7985 13.1892 18.5911 12.7851 19.4488 12.6621C20.3066 12.539 21.1809 12.7041 21.9347 13.1314C22.6885 13.5587 23.2792 14.224 23.6143 15.0231C23.9493 15.8222 24.0097 16.7099 23.7859 17.547C23.7553 17.6667 23.773 17.7935 23.8354 17.9001C23.8977 18.0067 23.9996 18.0844 24.1189 18.1163C24.2382 18.1482 24.3652 18.1317 24.4725 18.0705C24.5797 18.0092 24.6584 17.9082 24.6916 17.7892C24.9544 16.809 24.9036 15.7711 24.5464 14.8212C24.1891 13.8714 23.5432 13.0573 22.6995 12.4933C21.8558 11.9294 20.8566 11.6439 19.8423 11.6769C18.828 11.7099 17.8496 12.0599 17.0443 12.6775C16.2391 13.2952 15.6476 14.1496 15.3529 15.1207C15.0582 16.0918 15.075 17.1308 15.4011 18.0918C15.7272 19.0528 16.3461 19.8876 17.171 20.4788C17.9958 21.07 18.9852 21.388 20 21.3881Z" fill="white"/>
<path d="M22.2031 16.1568L19.6959 14.2764C19.6263 14.2241 19.5435 14.1923 19.4568 14.1845C19.3701 14.1767 19.2829 14.1932 19.205 14.2321C19.1272 14.271 19.0617 14.3309 19.0159 14.4049C18.9702 14.479 18.9459 14.5643 18.9459 14.6514V18.4121C18.9459 18.4992 18.9702 18.5845 19.0159 18.6586C19.0617 18.7326 19.1272 18.7925 19.205 18.8314C19.2829 18.8703 19.3701 18.8868 19.4568 18.879C19.5435 18.8712 19.6263 18.8394 19.6959 18.7871L22.2031 16.9068C22.2613 16.8631 22.3086 16.8065 22.3411 16.7414C22.3737 16.6763 22.3906 16.6045 22.3906 16.5318C22.3906 16.459 22.3737 16.3872 22.3411 16.3221C22.3086 16.257 22.2613 16.2004 22.2031 16.1568ZM19.8835 17.4746V15.5889L21.1406 16.5318L19.8835 17.4746Z" fill="white"/>
</svg>
